G04*
G04 #@! TF.GenerationSoftware,Altium Limited,Altium Designer,21.1.0 (24)*
G04*
G04 Layer_Color=32896*
%FSLAX25Y25*%
%MOIN*%
G70*
G04*
G04 #@! TF.SameCoordinates,59D5B773-27E9-4806-B489-B34453608D3F*
G04*
G04*
G04 #@! TF.FilePolarity,Positive*
G04*
G01*
G75*
%ADD55C,0.00197*%
%ADD80C,0.00394*%
D55*
X261461Y219840D02*
G03*
X261461Y219840I-787J0D01*
G01*
X257455Y222646D02*
G03*
X257455Y222646I-787J0D01*
G01*
X261461Y237598D02*
G03*
X261461Y237598I-787J0D01*
G01*
X257455Y234793D02*
G03*
X257455Y234793I-787J0D01*
G01*
X269418Y220536D02*
G03*
X269418Y220536I-787J0D01*
G01*
X272876Y223995D02*
G03*
X272876Y223995I-787J0D01*
G01*
Y233444D02*
G03*
X272876Y233444I-787J0D01*
G01*
X269418Y236902D02*
G03*
X269418Y236902I-787J0D01*
G01*
X257087Y224782D02*
G03*
X257087Y232656I6819J3937D01*
G01*
X257235Y75963D02*
G03*
X257235Y83837I6819J3937D01*
G01*
X269566Y88083D02*
G03*
X269566Y88083I-787J0D01*
G01*
X273024Y84625D02*
G03*
X273024Y84625I-787J0D01*
G01*
Y75176D02*
G03*
X273024Y75176I-787J0D01*
G01*
X269566Y71717D02*
G03*
X269566Y71717I-787J0D01*
G01*
X257603Y85974D02*
G03*
X257603Y85974I-787J0D01*
G01*
X261610Y88779D02*
G03*
X261610Y88779I-787J0D01*
G01*
X257603Y73827D02*
G03*
X257603Y73827I-787J0D01*
G01*
X261610Y71021D02*
G03*
X261610Y71021I-787J0D01*
G01*
X257083Y297329D02*
G03*
X257083Y305203I6819J3937D01*
G01*
X269414Y309449D02*
G03*
X269414Y309449I-787J0D01*
G01*
X272872Y305991D02*
G03*
X272872Y305991I-787J0D01*
G01*
Y296542D02*
G03*
X272872Y296542I-787J0D01*
G01*
X269414Y293083D02*
G03*
X269414Y293083I-787J0D01*
G01*
X257451Y307340D02*
G03*
X257451Y307340I-787J0D01*
G01*
X261458Y310145D02*
G03*
X261458Y310145I-787J0D01*
G01*
X257451Y295193D02*
G03*
X257451Y295193I-787J0D01*
G01*
X261458Y292387D02*
G03*
X261458Y292387I-787J0D01*
G01*
Y147265D02*
G03*
X261458Y147265I-787J0D01*
G01*
X257451Y150071D02*
G03*
X257451Y150071I-787J0D01*
G01*
X261458Y165023D02*
G03*
X261458Y165023I-787J0D01*
G01*
X257451Y162218D02*
G03*
X257451Y162218I-787J0D01*
G01*
X269414Y147961D02*
G03*
X269414Y147961I-787J0D01*
G01*
X272872Y151420D02*
G03*
X272872Y151420I-787J0D01*
G01*
Y160869D02*
G03*
X272872Y160869I-787J0D01*
G01*
X269414Y164327D02*
G03*
X269414Y164327I-787J0D01*
G01*
X257083Y152207D02*
G03*
X257083Y160081I6819J3937D01*
G01*
X350442Y72493D02*
Y74461D01*
X352410D01*
X350442D02*
Y76430D01*
X348473Y74461D02*
X350442D01*
X354477Y79973D02*
X357824D01*
X354477Y78792D02*
Y79973D01*
Y78792D02*
X357824D01*
Y79973D01*
X356151Y79382D02*
X357824Y79973D01*
X356151Y79382D02*
X357824Y78792D01*
X354477Y78004D02*
X357824D01*
X354477Y76823D02*
Y78004D01*
Y76823D02*
X357824D01*
Y78004D01*
X356151Y77414D02*
X357824Y78004D01*
X356151Y77414D02*
X357824Y76823D01*
X354477Y76036D02*
X357824D01*
X354477Y74855D02*
Y76036D01*
Y74855D02*
X357824D01*
Y76036D01*
X356151Y75445D02*
X357824Y76036D01*
X356151Y75445D02*
X357824Y74855D01*
X354477Y74067D02*
X357824D01*
X354477Y72886D02*
Y74067D01*
Y72886D02*
X357824D01*
Y74067D01*
X356151Y73477D02*
X357824Y74067D01*
X356151Y73477D02*
X357824Y72886D01*
X354477Y72099D02*
X357824D01*
X354477Y70918D02*
Y72099D01*
Y70918D02*
X357824D01*
Y72099D01*
X356151Y71508D02*
X357824Y72099D01*
X356151Y71508D02*
X357824Y70918D01*
X354477Y70130D02*
X357824D01*
X354477Y68949D02*
Y70130D01*
Y68949D02*
X357824D01*
Y70130D01*
X356151Y69540D02*
X357824Y70130D01*
X356151Y69540D02*
X357824Y68949D01*
X343060Y79973D02*
X346407D01*
Y78792D02*
Y79973D01*
X343060Y78792D02*
X346407D01*
X343060D02*
Y79973D01*
X344733Y79382D01*
X343060Y78792D02*
X344733Y79382D01*
X343060Y78004D02*
X346407D01*
Y76823D02*
Y78004D01*
X343060Y76823D02*
X346407D01*
X343060D02*
Y78004D01*
X344733Y77414D01*
X343060Y76823D02*
X344733Y77414D01*
X343060Y76036D02*
X346407D01*
Y74855D02*
Y76036D01*
X343060Y74855D02*
X346407D01*
X343060D02*
Y76036D01*
X344733Y75445D01*
X343060Y74855D02*
X344733Y75445D01*
X343060Y74067D02*
X346407D01*
Y72886D02*
Y74067D01*
X343060Y72886D02*
X346407D01*
X343060D02*
Y74067D01*
X344733Y73477D01*
X343060Y72886D02*
X344733Y73477D01*
X343060Y72099D02*
X346407D01*
Y70918D02*
Y72099D01*
X343060Y70918D02*
X346407D01*
X343060D02*
Y72099D01*
X344733Y71508D01*
X343060Y70918D02*
X344733Y71508D01*
X343060Y70130D02*
X346407D01*
Y68949D02*
Y70130D01*
X343060Y68949D02*
X346407D01*
X343060D02*
Y70130D01*
X344733Y69540D01*
X343060Y68949D02*
X344733Y69540D01*
X347292Y79579D02*
X353591D01*
X347292Y69343D02*
Y79579D01*
Y69343D02*
X353591D01*
Y79579D01*
X260674Y217872D02*
Y219840D01*
Y221809D01*
Y219840D02*
X262643D01*
X258705D02*
X260674D01*
X256667Y220677D02*
Y222646D01*
Y224614D01*
Y222646D02*
X258636D01*
X254699D02*
X256667D01*
X260674Y235630D02*
Y237598D01*
Y239567D01*
Y237598D02*
X262643D01*
X258705D02*
X260674D01*
X256667Y232824D02*
Y234793D01*
Y236761D01*
Y234793D02*
X258636D01*
X254699D02*
X256667D01*
X268630Y218568D02*
Y220536D01*
Y222505D01*
Y220536D02*
X270599D01*
X266662D02*
X268630D01*
X272089Y222026D02*
Y223995D01*
Y225963D01*
Y223995D02*
X274057D01*
X270120D02*
X272089D01*
Y231475D02*
Y233444D01*
Y235412D01*
Y233444D02*
X274057D01*
X270120D02*
X272089D01*
X268630Y234934D02*
Y236902D01*
Y238871D01*
Y236902D02*
X270599D01*
X266662D02*
X268630D01*
X253670Y232656D02*
Y238955D01*
Y232656D02*
X257087D01*
X253670Y224782D02*
X257087D01*
X263906Y226751D02*
Y228719D01*
Y230688D01*
Y228719D02*
X265874D01*
X261937D02*
X263906D01*
X251898Y226751D02*
Y228719D01*
Y230688D01*
Y228719D02*
X253866D01*
X249929D02*
X251898D01*
X249339Y229782D02*
X254457D01*
X249339Y227656D02*
Y229782D01*
Y227656D02*
X254457D01*
Y229782D01*
X253670Y238955D02*
X274142D01*
X253670Y218483D02*
Y224782D01*
Y218483D02*
X274142D01*
Y238955D01*
X76822Y155484D02*
Y156665D01*
X66192Y155484D02*
Y156665D01*
Y155484D02*
X69342D01*
Y156665D01*
X73672Y155484D02*
X76822D01*
X73672D02*
Y156665D01*
X66192D02*
X69342D01*
X73672D02*
X76822D01*
X70227Y153614D02*
Y158535D01*
X72787D01*
Y154795D02*
Y158535D01*
X70227Y153614D02*
X71605D01*
X72787Y154795D01*
X75247Y156075D02*
X76822Y156665D01*
X75247Y156075D02*
X76822Y155484D01*
X66192Y156665D02*
X67767Y156075D01*
X66192Y155484D02*
X67767Y156075D01*
X76822Y158043D02*
Y159224D01*
X66192Y158043D02*
Y159224D01*
Y158043D02*
X69342D01*
Y159224D01*
X73672Y158043D02*
X76822D01*
X73672D02*
Y159224D01*
X66192D02*
X69342D01*
X73672D02*
X76822D01*
X75247Y158634D02*
X76822Y159224D01*
X75247Y158634D02*
X76822Y158043D01*
X66192Y159224D02*
X67767Y158634D01*
X66192Y158043D02*
X67767Y158634D01*
X76822Y152925D02*
Y154106D01*
X66192Y152925D02*
Y154106D01*
Y152925D02*
X69342D01*
Y154106D01*
X73672Y152925D02*
X76822D01*
X73672D02*
Y154106D01*
X66192D02*
X69342D01*
X73672D02*
X76822D01*
X75247Y153516D02*
X76822Y154106D01*
X75247Y153516D02*
X76822Y152925D01*
X66192Y154106D02*
X67767Y153516D01*
X66192Y152925D02*
X67767Y153516D01*
X71507Y154106D02*
Y156075D01*
X73476D01*
X69539D02*
X71507D01*
X70227Y154795D02*
X72787D01*
X71605Y153614D02*
Y154795D01*
Y154205D02*
X72196D01*
Y154795D01*
X71901Y154500D02*
X72196Y154205D01*
X71605D02*
X71901Y154500D01*
X70916Y154205D02*
X71605Y153614D01*
X70227D02*
X70916Y154205D01*
X71507Y156665D02*
X72787Y154795D01*
X70227D02*
X71507Y156665D01*
X70148Y78533D02*
X71428Y80403D01*
X72708Y78533D01*
X70148Y77352D02*
X70837Y77942D01*
X71526Y77352D01*
Y77942D02*
X71822Y78237D01*
X72117Y77942D01*
Y78533D01*
X71526Y77942D02*
X72117D01*
X71526Y77352D02*
Y78533D01*
X70148D02*
X72708D01*
X69460Y79812D02*
X71428D01*
X73397D01*
X71428Y77844D02*
Y79812D01*
X66113Y76663D02*
X67688Y77253D01*
X66113Y77844D02*
X67688Y77253D01*
X75168D02*
X76743Y76663D01*
X75168Y77253D02*
X76743Y77844D01*
X73593D02*
X76743D01*
X66113D02*
X69263D01*
X73593Y76663D02*
Y77844D01*
Y76663D02*
X76743D01*
X69263D02*
Y77844D01*
X66113Y76663D02*
X69263D01*
X66113D02*
Y77844D01*
X76743Y76663D02*
Y77844D01*
X66113Y81781D02*
X67688Y82371D01*
X66113Y82962D02*
X67688Y82371D01*
X75168D02*
X76743Y81781D01*
X75168Y82371D02*
X76743Y82962D01*
X73593D02*
X76743D01*
X66113D02*
X69263D01*
X73593Y81781D02*
Y82962D01*
Y81781D02*
X76743D01*
X69263D02*
Y82962D01*
X66113Y81781D02*
X69263D01*
X66113D02*
Y82962D01*
X76743Y81781D02*
Y82962D01*
X66113Y79222D02*
X67688Y79812D01*
X66113Y80403D02*
X67688Y79812D01*
X75168D02*
X76743Y79222D01*
X75168Y79812D02*
X76743Y80403D01*
X71526Y77352D02*
X72708Y78533D01*
X70148Y77352D02*
X71526D01*
X72708Y78533D02*
Y82273D01*
X70148D02*
X72708D01*
X70148Y77352D02*
Y82273D01*
X73593Y80403D02*
X76743D01*
X66113D02*
X69263D01*
X73593Y79222D02*
Y80403D01*
Y79222D02*
X76743D01*
X69263D02*
Y80403D01*
X66113Y79222D02*
X69263D01*
X66113D02*
Y80403D01*
X76743Y79222D02*
Y80403D01*
X274290Y69664D02*
Y90136D01*
X253818Y69664D02*
X274290D01*
X253818D02*
Y75963D01*
Y90136D02*
X274290D01*
X254605Y78837D02*
Y80963D01*
X249487Y78837D02*
X254605D01*
X249487D02*
Y80963D01*
X254605D01*
X250077Y79900D02*
X252046D01*
X254014D01*
X252046D02*
Y81869D01*
Y77932D02*
Y79900D01*
X262085D02*
X264054D01*
X266022D01*
X264054D02*
Y81869D01*
Y77932D02*
Y79900D01*
X253818Y75963D02*
X257235D01*
X253818Y83837D02*
X257235D01*
X253818D02*
Y90136D01*
X266810Y88083D02*
X268778D01*
X270747D01*
X268778D02*
Y90052D01*
Y86115D02*
Y88083D01*
X270268Y84625D02*
X272237D01*
X274205D01*
X272237D02*
Y86593D01*
Y82656D02*
Y84625D01*
X270268Y75176D02*
X272237D01*
X274205D01*
X272237D02*
Y77144D01*
Y73207D02*
Y75176D01*
X266810Y71717D02*
X268778D01*
X270747D01*
X268778D02*
Y73686D01*
Y69749D02*
Y71717D01*
X254847Y85974D02*
X256816D01*
X258784D01*
X256816D02*
Y87942D01*
Y84005D02*
Y85974D01*
X258854Y88779D02*
X260822D01*
X262791D01*
X260822D02*
Y90748D01*
Y86811D02*
Y88779D01*
X254847Y73827D02*
X256816D01*
X258784D01*
X256816D02*
Y75795D01*
Y71858D02*
Y73827D01*
X258854Y71021D02*
X260822D01*
X262791D01*
X260822D02*
Y72990D01*
Y69053D02*
Y71021D01*
X274138Y291030D02*
Y311502D01*
X253666Y291030D02*
X274138D01*
X253666D02*
Y297329D01*
Y311502D02*
X274138D01*
X254453Y300203D02*
Y302329D01*
X249335Y300203D02*
X254453D01*
X249335D02*
Y302329D01*
X254453D01*
X249925Y301266D02*
X251894D01*
X253863D01*
X251894D02*
Y303235D01*
Y299298D02*
Y301266D01*
X261933D02*
X263902D01*
X265870D01*
X263902D02*
Y303235D01*
Y299298D02*
Y301266D01*
X253666Y297329D02*
X257083D01*
X253666Y305203D02*
X257083D01*
X253666D02*
Y311502D01*
X266658Y309449D02*
X268626D01*
X270595D01*
X268626D02*
Y311418D01*
Y307481D02*
Y309449D01*
X270116Y305991D02*
X272085D01*
X274053D01*
X272085D02*
Y307959D01*
Y304022D02*
Y305991D01*
X270116Y296542D02*
X272085D01*
X274053D01*
X272085D02*
Y298510D01*
Y294573D02*
Y296542D01*
X266658Y293083D02*
X268626D01*
X270595D01*
X268626D02*
Y295052D01*
Y291115D02*
Y293083D01*
X254695Y307340D02*
X256664D01*
X258632D01*
X256664D02*
Y309308D01*
Y305371D02*
Y307340D01*
X258702Y310145D02*
X260670D01*
X262639D01*
X260670D02*
Y312114D01*
Y308177D02*
Y310145D01*
X254695Y295193D02*
X256664D01*
X258632D01*
X256664D02*
Y297161D01*
Y293224D02*
Y295193D01*
X258702Y292387D02*
X260670D01*
X262639D01*
X260670D02*
Y294356D01*
Y290419D02*
Y292387D01*
Y145297D02*
Y147265D01*
Y149234D01*
Y147265D02*
X262639D01*
X258702D02*
X260670D01*
X256664Y148102D02*
Y150071D01*
Y152039D01*
Y150071D02*
X258632D01*
X254695D02*
X256664D01*
X260670Y163055D02*
Y165023D01*
Y166992D01*
Y165023D02*
X262639D01*
X258702D02*
X260670D01*
X256664Y160249D02*
Y162218D01*
Y164186D01*
Y162218D02*
X258632D01*
X254695D02*
X256664D01*
X268626Y145993D02*
Y147961D01*
Y149930D01*
Y147961D02*
X270595D01*
X266658D02*
X268626D01*
X272085Y149451D02*
Y151420D01*
Y153388D01*
Y151420D02*
X274053D01*
X270116D02*
X272085D01*
Y158900D02*
Y160869D01*
Y162837D01*
Y160869D02*
X274053D01*
X270116D02*
X272085D01*
X268626Y162358D02*
Y164327D01*
Y166296D01*
Y164327D02*
X270595D01*
X266658D02*
X268626D01*
X253666Y160081D02*
Y166380D01*
Y160081D02*
X257083D01*
X253666Y152207D02*
X257083D01*
X263902Y154176D02*
Y156144D01*
Y158113D01*
Y156144D02*
X265870D01*
X261933D02*
X263902D01*
X251894Y154176D02*
Y156144D01*
Y158113D01*
Y156144D02*
X253863D01*
X249925D02*
X251894D01*
X249335Y157207D02*
X254453D01*
X249335Y155081D02*
Y157207D01*
Y155081D02*
X254453D01*
Y157207D01*
X253666Y166380D02*
X274138D01*
X253666Y145908D02*
Y152207D01*
Y145908D02*
X274138D01*
Y166380D01*
X160987Y300515D02*
Y301696D01*
X150357Y300515D02*
Y301696D01*
Y300515D02*
X153506D01*
Y301696D01*
X157837Y300515D02*
X160987D01*
X157837D02*
Y301696D01*
X150357D02*
X153506D01*
X157837D02*
X160987D01*
X154392Y298645D02*
Y303566D01*
X156951D01*
Y299826D02*
Y303566D01*
X154392Y298645D02*
X155770D01*
X156951Y299826D01*
X159412Y301105D02*
X160987Y301696D01*
X159412Y301105D02*
X160987Y300515D01*
X150357Y301696D02*
X151932Y301105D01*
X150357Y300515D02*
X151932Y301105D01*
X160987Y303074D02*
Y304255D01*
X150357Y303074D02*
Y304255D01*
Y303074D02*
X153506D01*
Y304255D01*
X157837Y303074D02*
X160987D01*
X157837D02*
Y304255D01*
X150357D02*
X153506D01*
X157837D02*
X160987D01*
X159412Y303665D02*
X160987Y304255D01*
X159412Y303665D02*
X160987Y303074D01*
X150357Y304255D02*
X151932Y303665D01*
X150357Y303074D02*
X151932Y303665D01*
X160987Y297956D02*
Y299137D01*
X150357Y297956D02*
Y299137D01*
Y297956D02*
X153506D01*
Y299137D01*
X157837Y297956D02*
X160987D01*
X157837D02*
Y299137D01*
X150357D02*
X153506D01*
X157837D02*
X160987D01*
X159412Y298547D02*
X160987Y299137D01*
X159412Y298547D02*
X160987Y297956D01*
X150357Y299137D02*
X151932Y298547D01*
X150357Y297956D02*
X151932Y298547D01*
X155672Y299137D02*
Y301105D01*
X157640D01*
X153703D02*
X155672D01*
X154392Y299826D02*
X156951D01*
X155770Y298645D02*
Y299826D01*
Y299235D02*
X156361D01*
Y299826D01*
X156065Y299531D02*
X156361Y299235D01*
X155770D02*
X156065Y299531D01*
X155081Y299235D02*
X155770Y298645D01*
X154392D02*
X155081Y299235D01*
X155672Y301696D02*
X156951Y299826D01*
X154392D02*
X155672Y301696D01*
X161076Y228064D02*
Y229245D01*
X150446Y228064D02*
Y229245D01*
Y228064D02*
X153596D01*
Y229245D01*
X157926Y228064D02*
X161076D01*
X157926D02*
Y229245D01*
X150446D02*
X153596D01*
X157926D02*
X161076D01*
X154482Y226194D02*
Y231115D01*
X157041D01*
Y227375D02*
Y231115D01*
X154482Y226194D02*
X155860D01*
X157041Y227375D01*
X159501Y228655D02*
X161076Y229245D01*
X159501Y228655D02*
X161076Y228064D01*
X150446Y229245D02*
X152021Y228655D01*
X150446Y228064D02*
X152021Y228655D01*
X161076Y230623D02*
Y231804D01*
X150446Y230623D02*
Y231804D01*
Y230623D02*
X153596D01*
Y231804D01*
X157926Y230623D02*
X161076D01*
X157926D02*
Y231804D01*
X150446D02*
X153596D01*
X157926D02*
X161076D01*
X159501Y231214D02*
X161076Y231804D01*
X159501Y231214D02*
X161076Y230623D01*
X150446Y231804D02*
X152021Y231214D01*
X150446Y230623D02*
X152021Y231214D01*
X161076Y225505D02*
Y226686D01*
X150446Y225505D02*
Y226686D01*
Y225505D02*
X153596D01*
Y226686D01*
X157926Y225505D02*
X161076D01*
X157926D02*
Y226686D01*
X150446D02*
X153596D01*
X157926D02*
X161076D01*
X159501Y226096D02*
X161076Y226686D01*
X159501Y226096D02*
X161076Y225505D01*
X150446Y226686D02*
X152021Y226096D01*
X150446Y225505D02*
X152021Y226096D01*
X155761Y226686D02*
Y228655D01*
X157730D01*
X153793D02*
X155761D01*
X154482Y227375D02*
X157041D01*
X155860Y226194D02*
Y227375D01*
Y226785D02*
X156450D01*
Y227375D01*
X156155Y227080D02*
X156450Y226785D01*
X155860D02*
X156155Y227080D01*
X155171Y226785D02*
X155860Y226194D01*
X154482D02*
X155171Y226785D01*
X155761Y229245D02*
X157041Y227375D01*
X154482D02*
X155761Y229245D01*
X161115Y155519D02*
Y156700D01*
X150485Y155519D02*
Y156700D01*
Y155519D02*
X153635D01*
Y156700D01*
X157965Y155519D02*
X161115D01*
X157965D02*
Y156700D01*
X150485D02*
X153635D01*
X157965D02*
X161115D01*
X154520Y153649D02*
Y158570D01*
X157080D01*
Y154830D02*
Y158570D01*
X154520Y153649D02*
X155898D01*
X157080Y154830D01*
X159540Y156109D02*
X161115Y156700D01*
X159540Y156109D02*
X161115Y155519D01*
X150485Y156700D02*
X152060Y156109D01*
X150485Y155519D02*
X152060Y156109D01*
X161115Y158078D02*
Y159259D01*
X150485Y158078D02*
Y159259D01*
Y158078D02*
X153635D01*
Y159259D01*
X157965Y158078D02*
X161115D01*
X157965D02*
Y159259D01*
X150485D02*
X153635D01*
X157965D02*
X161115D01*
X159540Y158668D02*
X161115Y159259D01*
X159540Y158668D02*
X161115Y158078D01*
X150485Y159259D02*
X152060Y158668D01*
X150485Y158078D02*
X152060Y158668D01*
X161115Y152960D02*
Y154141D01*
X150485Y152960D02*
Y154141D01*
Y152960D02*
X153635D01*
Y154141D01*
X157965Y152960D02*
X161115D01*
X157965D02*
Y154141D01*
X150485D02*
X153635D01*
X157965D02*
X161115D01*
X159540Y153550D02*
X161115Y154141D01*
X159540Y153550D02*
X161115Y152960D01*
X150485Y154141D02*
X152060Y153550D01*
X150485Y152960D02*
X152060Y153550D01*
X155800Y154141D02*
Y156109D01*
X157768D01*
X153832D02*
X155800D01*
X154520Y154830D02*
X157080D01*
X155898Y153649D02*
Y154830D01*
Y154239D02*
X156489D01*
Y154830D01*
X156194Y154535D02*
X156489Y154239D01*
X155898D02*
X156194Y154535D01*
X155209Y154239D02*
X155898Y153649D01*
X154520D02*
X155209Y154239D01*
X155800Y156700D02*
X157080Y154830D01*
X154520D02*
X155800Y156700D01*
X154441Y78567D02*
X155721Y80437D01*
X157001Y78567D01*
X154441Y77386D02*
X155130Y77977D01*
X155819Y77386D01*
Y77977D02*
X156115Y78272D01*
X156410Y77977D01*
Y78567D01*
X155819Y77977D02*
X156410D01*
X155819Y77386D02*
Y78567D01*
X154441D02*
X157001D01*
X153753Y79847D02*
X155721D01*
X157689D01*
X155721Y77878D02*
Y79847D01*
X150406Y76697D02*
X151981Y77288D01*
X150406Y77878D02*
X151981Y77288D01*
X159461D02*
X161036Y76697D01*
X159461Y77288D02*
X161036Y77878D01*
X157886D02*
X161036D01*
X150406D02*
X153556D01*
X157886Y76697D02*
Y77878D01*
Y76697D02*
X161036D01*
X153556D02*
Y77878D01*
X150406Y76697D02*
X153556D01*
X150406D02*
Y77878D01*
X161036Y76697D02*
Y77878D01*
X150406Y81815D02*
X151981Y82406D01*
X150406Y82997D02*
X151981Y82406D01*
X159461D02*
X161036Y81815D01*
X159461Y82406D02*
X161036Y82997D01*
X157886D02*
X161036D01*
X150406D02*
X153556D01*
X157886Y81815D02*
Y82997D01*
Y81815D02*
X161036D01*
X153556D02*
Y82997D01*
X150406Y81815D02*
X153556D01*
X150406D02*
Y82997D01*
X161036Y81815D02*
Y82997D01*
X150406Y79256D02*
X151981Y79847D01*
X150406Y80437D02*
X151981Y79847D01*
X159461D02*
X161036Y79256D01*
X159461Y79847D02*
X161036Y80437D01*
X155819Y77386D02*
X157001Y78567D01*
X154441Y77386D02*
X155819D01*
X157001Y78567D02*
Y82308D01*
X154441D02*
X157001D01*
X154441Y77386D02*
Y82308D01*
X157886Y80437D02*
X161036D01*
X150406D02*
X153556D01*
X157886Y79256D02*
Y80437D01*
Y79256D02*
X161036D01*
X153556D02*
Y80437D01*
X150406Y79256D02*
X153556D01*
X150406D02*
Y80437D01*
X161036Y79256D02*
Y80437D01*
X76694Y300480D02*
Y301661D01*
X66064Y300480D02*
Y301661D01*
Y300480D02*
X69213D01*
Y301661D01*
X73544Y300480D02*
X76694D01*
X73544D02*
Y301661D01*
X66064D02*
X69213D01*
X73544D02*
X76694D01*
X70099Y298610D02*
Y303532D01*
X72658D01*
Y299791D02*
Y303532D01*
X70099Y298610D02*
X71477D01*
X72658Y299791D01*
X75119Y301071D02*
X76694Y301661D01*
X75119Y301071D02*
X76694Y300480D01*
X66064Y301661D02*
X67639Y301071D01*
X66064Y300480D02*
X67639Y301071D01*
X76694Y303039D02*
Y304221D01*
X66064Y303039D02*
Y304221D01*
Y303039D02*
X69213D01*
Y304221D01*
X73544Y303039D02*
X76694D01*
X73544D02*
Y304221D01*
X66064D02*
X69213D01*
X73544D02*
X76694D01*
X75119Y303630D02*
X76694Y304221D01*
X75119Y303630D02*
X76694Y303039D01*
X66064Y304221D02*
X67639Y303630D01*
X66064Y303039D02*
X67639Y303630D01*
X76694Y297921D02*
Y299102D01*
X66064Y297921D02*
Y299102D01*
Y297921D02*
X69213D01*
Y299102D01*
X73544Y297921D02*
X76694D01*
X73544D02*
Y299102D01*
X66064D02*
X69213D01*
X73544D02*
X76694D01*
X75119Y298512D02*
X76694Y299102D01*
X75119Y298512D02*
X76694Y297921D01*
X66064Y299102D02*
X67639Y298512D01*
X66064Y297921D02*
X67639Y298512D01*
X71379Y299102D02*
Y301071D01*
X73347D01*
X69410D02*
X71379D01*
X70099Y299791D02*
X72658D01*
X71477Y298610D02*
Y299791D01*
Y299201D02*
X72068D01*
Y299791D01*
X71772Y299496D02*
X72068Y299201D01*
X71477D02*
X71772Y299496D01*
X70788Y299201D02*
X71477Y298610D01*
X70099D02*
X70788Y299201D01*
X71379Y301661D02*
X72658Y299791D01*
X70099D02*
X71379Y301661D01*
X76783Y228030D02*
Y229211D01*
X66153Y228030D02*
Y229211D01*
Y228030D02*
X69303D01*
Y229211D01*
X73634Y228030D02*
X76783D01*
X73634D02*
Y229211D01*
X66153D02*
X69303D01*
X73634D02*
X76783D01*
X70189Y226160D02*
Y231081D01*
X72748D01*
Y227341D02*
Y231081D01*
X70189Y226160D02*
X71567D01*
X72748Y227341D01*
X75208Y228620D02*
X76783Y229211D01*
X75208Y228620D02*
X76783Y228030D01*
X66153Y229211D02*
X67728Y228620D01*
X66153Y228030D02*
X67728Y228620D01*
X76783Y230589D02*
Y231770D01*
X66153Y230589D02*
Y231770D01*
Y230589D02*
X69303D01*
Y231770D01*
X73634Y230589D02*
X76783D01*
X73634D02*
Y231770D01*
X66153D02*
X69303D01*
X73634D02*
X76783D01*
X75208Y231179D02*
X76783Y231770D01*
X75208Y231179D02*
X76783Y230589D01*
X66153Y231770D02*
X67728Y231179D01*
X66153Y230589D02*
X67728Y231179D01*
X76783Y225471D02*
Y226652D01*
X66153Y225471D02*
Y226652D01*
Y225471D02*
X69303D01*
Y226652D01*
X73634Y225471D02*
X76783D01*
X73634D02*
Y226652D01*
X66153D02*
X69303D01*
X73634D02*
X76783D01*
X75208Y226061D02*
X76783Y226652D01*
X75208Y226061D02*
X76783Y225471D01*
X66153Y226652D02*
X67728Y226061D01*
X66153Y225471D02*
X67728Y226061D01*
X71468Y226652D02*
Y228620D01*
X73437D01*
X69500D02*
X71468D01*
X70189Y227341D02*
X72748D01*
X71567Y226160D02*
Y227341D01*
Y226750D02*
X72157D01*
Y227341D01*
X71862Y227045D02*
X72157Y226750D01*
X71567D02*
X71862Y227045D01*
X70878Y226750D02*
X71567Y226160D01*
X70189D02*
X70878Y226750D01*
X71468Y229211D02*
X72748Y227341D01*
X70189D02*
X71468Y229211D01*
D80*
X334032Y69300D02*
X336000D01*
Y71268D01*
Y67331D02*
Y69300D01*
X337968D01*
X334032Y55520D02*
X336000D01*
Y57489D01*
Y53552D02*
Y55520D01*
X337968D01*
X325567Y59457D02*
X346433D01*
X325567Y51583D02*
Y59457D01*
Y51583D02*
X346433D01*
Y59457D01*
X325567Y73237D02*
X346433D01*
X325567Y65363D02*
Y73237D01*
Y65363D02*
X346433D01*
Y73237D01*
X334032Y62410D02*
X336000D01*
Y64378D01*
Y60441D02*
Y62410D01*
X337968D01*
X-3500Y303510D02*
Y305478D01*
X-13342Y300557D02*
X4177D01*
X-26335D02*
X-15311D01*
X-13342D02*
Y302526D01*
X-15311Y300557D02*
Y302526D01*
X-3500Y318864D02*
Y323195D01*
Y318864D02*
X30358D01*
Y323195D01*
X-3500D02*
X30358D01*
X-3500Y285793D02*
Y290124D01*
Y285793D02*
X30358D01*
Y290124D01*
X-3500D02*
X30358D01*
X-15311Y304494D02*
X-13342D01*
X-15311D02*
X-13919Y303102D01*
X-15311Y304494D02*
X-13919Y305886D01*
X-13342Y304494D02*
X-3500D01*
X-13342D02*
X-11951Y303102D01*
X-13342Y304494D02*
X-11951Y305886D01*
X32721Y302526D02*
X38626D01*
X32721D02*
Y306463D01*
X38626D01*
Y302526D02*
Y306463D01*
X11461Y287959D02*
X13429D01*
X15398D01*
X13429D02*
Y289927D01*
Y285990D02*
Y287959D01*
X11461Y321029D02*
X13429D01*
X15398D01*
X13429D02*
Y322998D01*
Y319061D02*
Y321029D01*
X33705Y304494D02*
X35673D01*
X37642D01*
X35673D02*
Y306463D01*
Y302526D02*
Y304494D01*
Y92526D02*
Y94494D01*
Y96463D01*
Y94494D02*
X37642D01*
X33705D02*
X35673D01*
X13429Y109061D02*
Y111030D01*
Y112998D01*
Y111030D02*
X15398D01*
X11461D02*
X13429D01*
Y75990D02*
Y77959D01*
Y79927D01*
Y77959D02*
X15398D01*
X11461D02*
X13429D01*
X38626Y92526D02*
Y96463D01*
X32721D02*
X38626D01*
X32721Y92526D02*
Y96463D01*
Y92526D02*
X38626D01*
X-13342Y94494D02*
X-11951Y95886D01*
X-13342Y94494D02*
X-11951Y93102D01*
X-13342Y94494D02*
X-3500D01*
X-15311D02*
X-13919Y95886D01*
X-15311Y94494D02*
X-13919Y93102D01*
X-15311Y94494D02*
X-13342D01*
X-3500Y80124D02*
X30358D01*
Y75793D02*
Y80124D01*
X-3500Y75793D02*
X30358D01*
X-3500D02*
Y80124D01*
Y113195D02*
X30358D01*
Y108864D02*
Y113195D01*
X-3500Y108864D02*
X30358D01*
X-3500D02*
Y113195D01*
X-15311Y90557D02*
Y92526D01*
X-13342Y90557D02*
Y92526D01*
X-26335Y90557D02*
X-15311D01*
X-13342D02*
X4177D01*
X-3500Y93510D02*
Y95478D01*
X114486Y71135D02*
X115076Y72690D01*
X115667Y71135D01*
X114486D02*
X115667D01*
X114486D02*
Y74245D01*
X115667D01*
Y71135D02*
Y74245D01*
X117084Y71135D02*
X117675Y72690D01*
X118265Y71135D01*
X117084D02*
X118265D01*
X117084D02*
Y74245D01*
X118265D01*
Y71135D02*
Y74245D01*
X108974Y76647D02*
X110529Y77237D01*
X108974Y77828D02*
X110529Y77237D01*
X108974Y76647D02*
Y77828D01*
Y76647D02*
X112084D01*
Y77828D01*
X108974D02*
X112084D01*
X108974Y79245D02*
X110529Y79836D01*
X108974Y80427D02*
X110529Y79836D01*
X108974Y79245D02*
Y80427D01*
Y79245D02*
X112084D01*
Y80427D01*
X108974D02*
X112084D01*
X114486Y85938D02*
X115076Y84383D01*
X115667Y85938D01*
X114486D02*
X115667D01*
X114486Y82828D02*
Y85938D01*
Y82828D02*
X115667D01*
Y85938D01*
X117084D02*
X117675Y84383D01*
X118265Y85938D01*
X117084D02*
X118265D01*
X117084Y82828D02*
Y85938D01*
Y82828D02*
X118265D01*
Y85938D01*
X113029Y75190D02*
X119722D01*
X113029D02*
Y81883D01*
X119722D01*
Y75190D02*
Y81883D01*
X122222Y77237D02*
X123777Y76647D01*
X122222Y77237D02*
X123777Y77828D01*
Y76647D02*
Y77828D01*
X120667Y76647D02*
X123777D01*
X120667D02*
Y77828D01*
X123777D01*
X122222Y79836D02*
X123777Y79245D01*
X122222Y79836D02*
X123777Y80427D01*
Y79245D02*
Y80427D01*
X120667Y79245D02*
X123777D01*
X120667D02*
Y80427D01*
X123777D01*
X114407Y78537D02*
X116375D01*
Y80505D01*
Y76568D02*
Y78537D01*
X118344D01*
X395846Y87917D02*
Y91854D01*
Y95791D01*
X391909Y91854D02*
X395846D01*
X399783D01*
X390846Y147917D02*
Y151854D01*
Y155791D01*
X386909Y151854D02*
X390846D01*
X394783D01*
X400846Y147917D02*
Y151854D01*
Y155791D01*
X396909Y151854D02*
X400846D01*
X404783D01*
X390846Y137917D02*
Y141854D01*
Y145791D01*
X386909Y141854D02*
X390846D01*
X394783D01*
X400846Y137917D02*
Y141854D01*
Y145791D01*
X396909Y141854D02*
X400846D01*
X404783D01*
X390846Y127917D02*
Y131854D01*
Y135791D01*
X386909Y131854D02*
X390846D01*
X394783D01*
X400846Y127917D02*
Y131854D01*
Y135791D01*
X396909Y131854D02*
X400846D01*
X404783D01*
X390846Y27917D02*
Y31854D01*
Y35791D01*
X386909Y31854D02*
X390846D01*
X394783D01*
X400846Y27917D02*
Y31854D01*
Y35791D01*
X396909Y31854D02*
X400846D01*
X404783D01*
X390846Y37917D02*
Y41854D01*
Y45791D01*
X386909Y41854D02*
X390846D01*
X394783D01*
X400846Y37917D02*
Y41854D01*
Y45791D01*
X396909Y41854D02*
X400846D01*
X404783D01*
X390846Y47917D02*
Y51854D01*
Y55791D01*
X386909Y51854D02*
X390846D01*
X394783D01*
X400846Y47917D02*
Y51854D01*
Y55791D01*
X396909Y51854D02*
X400846D01*
X404783D01*
X390846Y57917D02*
Y61854D01*
Y65791D01*
X386909Y61854D02*
X390846D01*
X394783D01*
X400846Y57917D02*
Y61854D01*
Y65791D01*
X396909Y61854D02*
X400846D01*
X404783D01*
X390846Y67917D02*
Y71854D01*
Y75791D01*
X386909Y71854D02*
X390846D01*
X394783D01*
X400846Y67917D02*
Y71854D01*
Y75791D01*
X396909Y71854D02*
X400846D01*
X404783D01*
X390846Y77917D02*
Y81854D01*
Y85791D01*
X386909Y81854D02*
X390846D01*
X394783D01*
X400846Y77917D02*
Y81854D01*
Y85791D01*
X396909Y81854D02*
X400846D01*
X404783D01*
X390846Y87917D02*
Y91854D01*
Y95791D01*
X386909Y91854D02*
X390846D01*
X394783D01*
X400846Y87917D02*
Y91854D01*
Y95791D01*
X396909Y91854D02*
X400846D01*
X404783D01*
X390846Y97917D02*
Y101854D01*
Y105791D01*
X386909Y101854D02*
X390846D01*
X394783D01*
X400846Y97917D02*
Y101854D01*
Y105791D01*
X396909Y101854D02*
X400846D01*
X404783D01*
X390846Y107917D02*
Y111854D01*
Y115791D01*
X386909Y111854D02*
X390846D01*
X394783D01*
X400846Y107917D02*
Y111854D01*
Y115791D01*
X396909Y111854D02*
X400846D01*
X404783D01*
X390846Y117917D02*
Y121854D01*
Y125791D01*
X386909Y121854D02*
X390846D01*
X394783D01*
X400846Y117917D02*
Y121854D01*
Y125791D01*
X396909Y121854D02*
X400846D01*
X404783D01*
X35673Y232526D02*
Y234494D01*
Y236463D01*
Y234494D02*
X37642D01*
X33705D02*
X35673D01*
X13429Y249061D02*
Y251029D01*
Y252998D01*
Y251029D02*
X15398D01*
X11461D02*
X13429D01*
Y215990D02*
Y217959D01*
Y219927D01*
Y217959D02*
X15398D01*
X11461D02*
X13429D01*
X38626Y232526D02*
Y236463D01*
X32721D02*
X38626D01*
X32721Y232526D02*
Y236463D01*
Y232526D02*
X38626D01*
X-13342Y234494D02*
X-11951Y235886D01*
X-13342Y234494D02*
X-11951Y233102D01*
X-13342Y234494D02*
X-3500D01*
X-15311D02*
X-13919Y235886D01*
X-15311Y234494D02*
X-13919Y233102D01*
X-15311Y234494D02*
X-13342D01*
X-3500Y220124D02*
X30358D01*
Y215793D02*
Y220124D01*
X-3500Y215793D02*
X30358D01*
X-3500D02*
Y220124D01*
Y253195D02*
X30358D01*
Y248864D02*
Y253195D01*
X-3500Y248864D02*
X30358D01*
X-3500D02*
Y253195D01*
X-15311Y230557D02*
Y232526D01*
X-13342Y230557D02*
Y232526D01*
X-26335Y230557D02*
X-15311D01*
X-13342D02*
X4177D01*
X-3500Y233510D02*
Y235478D01*
X35673Y162526D02*
Y164494D01*
Y166463D01*
Y164494D02*
X37642D01*
X33705D02*
X35673D01*
X13429Y179061D02*
Y181029D01*
Y182998D01*
Y181029D02*
X15398D01*
X11461D02*
X13429D01*
Y145990D02*
Y147959D01*
Y149927D01*
Y147959D02*
X15398D01*
X11461D02*
X13429D01*
X38626Y162526D02*
Y166463D01*
X32721D02*
X38626D01*
X32721Y162526D02*
Y166463D01*
Y162526D02*
X38626D01*
X-13342Y164494D02*
X-11951Y165886D01*
X-13342Y164494D02*
X-11951Y163102D01*
X-13342Y164494D02*
X-3500D01*
X-15311D02*
X-13919Y165886D01*
X-15311Y164494D02*
X-13919Y163102D01*
X-15311Y164494D02*
X-13342D01*
X-3500Y150124D02*
X30358D01*
Y145793D02*
Y150124D01*
X-3500Y145793D02*
X30358D01*
X-3500D02*
Y150124D01*
Y183195D02*
X30358D01*
Y178864D02*
Y183195D01*
X-3500Y178864D02*
X30358D01*
X-3500D02*
Y183195D01*
X-15311Y160557D02*
Y162526D01*
X-13342Y160557D02*
Y162526D01*
X-26335Y160557D02*
X-15311D01*
X-13342D02*
X4177D01*
X-3500Y163510D02*
Y165478D01*
X116326Y299795D02*
X118295D01*
X116326Y297827D02*
Y299795D01*
Y301764D01*
X114357Y299795D02*
X116326D01*
X120617Y301685D02*
X123728D01*
X120617Y300504D02*
Y301685D01*
Y300504D02*
X123728D01*
Y301685D01*
X122172Y301095D02*
X123728Y301685D01*
X122172Y301095D02*
X123728Y300504D01*
X120617Y299087D02*
X123728D01*
X120617Y297905D02*
Y299087D01*
Y297905D02*
X123728D01*
Y299087D01*
X122172Y298496D02*
X123728Y299087D01*
X122172Y298496D02*
X123728Y297905D01*
X119672Y296449D02*
Y303142D01*
X112979D02*
X119672D01*
X112979Y296449D02*
Y303142D01*
Y296449D02*
X119672D01*
X118216Y304087D02*
Y307197D01*
X117035Y304087D02*
X118216D01*
X117035D02*
Y307197D01*
X118216D01*
X117625Y305642D02*
X118216Y307197D01*
X117035D02*
X117625Y305642D01*
X115617Y304087D02*
Y307197D01*
X114436Y304087D02*
X115617D01*
X114436D02*
Y307197D01*
X115617D01*
X115027Y305642D02*
X115617Y307197D01*
X114436D02*
X115027Y305642D01*
X108924Y301685D02*
X112035D01*
Y300504D02*
Y301685D01*
X108924Y300504D02*
X112035D01*
X108924D02*
Y301685D01*
X110479Y301095D01*
X108924Y300504D02*
X110479Y301095D01*
X108924Y299087D02*
X112035D01*
Y297905D02*
Y299087D01*
X108924Y297905D02*
X112035D01*
X108924D02*
Y299087D01*
X110479Y298496D01*
X108924Y297905D02*
X110479Y298496D01*
X118216Y292394D02*
Y295504D01*
X117035D02*
X118216D01*
X117035Y292394D02*
Y295504D01*
Y292394D02*
X118216D01*
X117625Y293949D02*
X118216Y292394D01*
X117035D02*
X117625Y293949D01*
X115617Y292394D02*
Y295504D01*
X114436D02*
X115617D01*
X114436Y292394D02*
Y295504D01*
Y292394D02*
X115617D01*
X115027Y293949D02*
X115617Y292394D01*
X114436D02*
X115027Y293949D01*
X116416Y227345D02*
X118384D01*
X116416Y225376D02*
Y227345D01*
Y229313D01*
X114447Y227345D02*
X116416D01*
X120707Y229234D02*
X123817D01*
X120707Y228053D02*
Y229234D01*
Y228053D02*
X123817D01*
Y229234D01*
X122262Y228644D02*
X123817Y229234D01*
X122262Y228644D02*
X123817Y228053D01*
X120707Y226636D02*
X123817D01*
X120707Y225455D02*
Y226636D01*
Y225455D02*
X123817D01*
Y226636D01*
X122262Y226045D02*
X123817Y226636D01*
X122262Y226045D02*
X123817Y225455D01*
X119762Y223998D02*
Y230691D01*
X113069D02*
X119762D01*
X113069Y223998D02*
Y230691D01*
Y223998D02*
X119762D01*
X118305Y231636D02*
Y234746D01*
X117124Y231636D02*
X118305D01*
X117124D02*
Y234746D01*
X118305D01*
X117715Y233191D02*
X118305Y234746D01*
X117124D02*
X117715Y233191D01*
X115707Y231636D02*
Y234746D01*
X114526Y231636D02*
X115707D01*
X114526D02*
Y234746D01*
X115707D01*
X115116Y233191D02*
X115707Y234746D01*
X114526D02*
X115116Y233191D01*
X109014Y229234D02*
X112124D01*
Y228053D02*
Y229234D01*
X109014Y228053D02*
X112124D01*
X109014D02*
Y229234D01*
X110569Y228644D01*
X109014Y228053D02*
X110569Y228644D01*
X109014Y226636D02*
X112124D01*
Y225455D02*
Y226636D01*
X109014Y225455D02*
X112124D01*
X109014D02*
Y226636D01*
X110569Y226045D01*
X109014Y225455D02*
X110569Y226045D01*
X118305Y219943D02*
Y223053D01*
X117124D02*
X118305D01*
X117124Y219943D02*
Y223053D01*
Y219943D02*
X118305D01*
X117715Y221498D02*
X118305Y219943D01*
X117124D02*
X117715Y221498D01*
X115707Y219943D02*
Y223053D01*
X114526D02*
X115707D01*
X114526Y219943D02*
Y223053D01*
Y219943D02*
X115707D01*
X115116Y221498D02*
X115707Y219943D01*
X114526D02*
X115116Y221498D01*
X116454Y154799D02*
X118423D01*
X116454Y152831D02*
Y154799D01*
Y156768D01*
X114486Y154799D02*
X116454D01*
X120746Y156689D02*
X123856D01*
X120746Y155508D02*
Y156689D01*
Y155508D02*
X123856D01*
Y156689D01*
X122301Y156098D02*
X123856Y156689D01*
X122301Y156098D02*
X123856Y155508D01*
X120746Y154091D02*
X123856D01*
X120746Y152910D02*
Y154091D01*
Y152910D02*
X123856D01*
Y154091D01*
X122301Y153500D02*
X123856Y154091D01*
X122301Y153500D02*
X123856Y152910D01*
X119801Y151453D02*
Y158146D01*
X113108D02*
X119801D01*
X113108Y151453D02*
Y158146D01*
Y151453D02*
X119801D01*
X118344Y159091D02*
Y162201D01*
X117163Y159091D02*
X118344D01*
X117163D02*
Y162201D01*
X118344D01*
X117754Y160646D02*
X118344Y162201D01*
X117163D02*
X117754Y160646D01*
X115746Y159091D02*
Y162201D01*
X114565Y159091D02*
X115746D01*
X114565D02*
Y162201D01*
X115746D01*
X115155Y160646D02*
X115746Y162201D01*
X114565D02*
X115155Y160646D01*
X109053Y156689D02*
X112163D01*
Y155508D02*
Y156689D01*
X109053Y155508D02*
X112163D01*
X109053D02*
Y156689D01*
X110608Y156098D01*
X109053Y155508D02*
X110608Y156098D01*
X109053Y154091D02*
X112163D01*
Y152910D02*
Y154091D01*
X109053Y152910D02*
X112163D01*
X109053D02*
Y154091D01*
X110608Y153500D01*
X109053Y152910D02*
X110608Y153500D01*
X118344Y147398D02*
Y150508D01*
X117163D02*
X118344D01*
X117163Y147398D02*
Y150508D01*
Y147398D02*
X118344D01*
X117754Y148953D02*
X118344Y147398D01*
X117163D02*
X117754Y148953D01*
X115746Y147398D02*
Y150508D01*
X114565D02*
X115746D01*
X114565Y147398D02*
Y150508D01*
Y147398D02*
X115746D01*
X115155Y148953D02*
X115746Y147398D01*
X114565D02*
X115155Y148953D01*
X-16080Y295538D02*
X-18141D01*
X-17017Y297038D01*
X-17579D01*
X-17954Y297225D01*
X-18141Y297412D01*
X-18329Y297975D01*
Y298350D01*
X-18141Y298912D01*
X-17766Y299287D01*
X-17204Y299474D01*
X-16642D01*
X-16080Y299287D01*
X-15892Y299099D01*
X-15705Y298725D01*
X-19210Y296850D02*
Y299474D01*
Y297600D02*
X-19772Y297038D01*
X-20147Y296850D01*
X-20709D01*
X-21084Y297038D01*
X-21272Y297600D01*
Y299474D01*
Y297600D02*
X-21834Y297038D01*
X-22209Y296850D01*
X-22771D01*
X-23146Y297038D01*
X-23333Y297600D01*
Y299474D01*
X-24570Y296850D02*
Y299474D01*
Y297600D02*
X-25133Y297038D01*
X-25508Y296850D01*
X-26070D01*
X-26445Y297038D01*
X-26632Y297600D01*
Y299474D01*
Y297600D02*
X-27195Y297038D01*
X-27569Y296850D01*
X-28132D01*
X-28507Y297038D01*
X-28694Y297600D01*
Y299474D01*
X3990Y296574D02*
Y296386D01*
X3802Y296011D01*
X3615Y295824D01*
X3240Y295637D01*
X2490D01*
X2115Y295824D01*
X1928Y296011D01*
X1740Y296386D01*
Y296761D01*
X1928Y297136D01*
X2303Y297698D01*
X4177Y299573D01*
X1553D01*
X485Y299198D02*
X672Y299385D01*
X485Y299573D01*
X297Y299385D01*
X485Y299198D01*
X-2814Y295637D02*
X-940D01*
X-752Y297324D01*
X-940Y297136D01*
X-1502Y296949D01*
X-2065D01*
X-2627Y297136D01*
X-3002Y297511D01*
X-3189Y298073D01*
Y298448D01*
X-3002Y299010D01*
X-2627Y299385D01*
X-2065Y299573D01*
X-1502D01*
X-940Y299385D01*
X-752Y299198D01*
X-565Y298823D01*
X-4070Y296949D02*
Y299573D01*
Y297698D02*
X-4632Y297136D01*
X-5007Y296949D01*
X-5570D01*
X-5944Y297136D01*
X-6132Y297698D01*
Y299573D01*
Y297698D02*
X-6694Y297136D01*
X-7069Y296949D01*
X-7631D01*
X-8006Y297136D01*
X-8194Y297698D01*
Y299573D01*
X-9431Y296949D02*
Y299573D01*
Y297698D02*
X-9993Y297136D01*
X-10368Y296949D01*
X-10930D01*
X-11305Y297136D01*
X-11492Y297698D01*
Y299573D01*
Y297698D02*
X-12055Y297136D01*
X-12430Y296949D01*
X-12992D01*
X-13367Y297136D01*
X-13554Y297698D01*
Y299573D01*
X3990Y86574D02*
Y86386D01*
X3802Y86011D01*
X3615Y85824D01*
X3240Y85637D01*
X2490D01*
X2115Y85824D01*
X1928Y86011D01*
X1740Y86386D01*
Y86761D01*
X1928Y87136D01*
X2303Y87699D01*
X4177Y89573D01*
X1553D01*
X485Y89198D02*
X672Y89385D01*
X485Y89573D01*
X297Y89385D01*
X485Y89198D01*
X-2814Y85637D02*
X-940D01*
X-752Y87324D01*
X-940Y87136D01*
X-1502Y86949D01*
X-2065D01*
X-2627Y87136D01*
X-3002Y87511D01*
X-3189Y88073D01*
Y88448D01*
X-3002Y89011D01*
X-2627Y89385D01*
X-2065Y89573D01*
X-1502D01*
X-940Y89385D01*
X-752Y89198D01*
X-565Y88823D01*
X-4070Y86949D02*
Y89573D01*
Y87699D02*
X-4632Y87136D01*
X-5007Y86949D01*
X-5570D01*
X-5944Y87136D01*
X-6132Y87699D01*
Y89573D01*
Y87699D02*
X-6694Y87136D01*
X-7069Y86949D01*
X-7631D01*
X-8006Y87136D01*
X-8194Y87699D01*
Y89573D01*
X-9431Y86949D02*
Y89573D01*
Y87699D02*
X-9993Y87136D01*
X-10368Y86949D01*
X-10930D01*
X-11305Y87136D01*
X-11492Y87699D01*
Y89573D01*
Y87699D02*
X-12055Y87136D01*
X-12430Y86949D01*
X-12992D01*
X-13367Y87136D01*
X-13554Y87699D01*
Y89573D01*
X-16080Y85538D02*
X-18141D01*
X-17017Y87038D01*
X-17579D01*
X-17954Y87225D01*
X-18141Y87413D01*
X-18329Y87975D01*
Y88350D01*
X-18141Y88912D01*
X-17766Y89287D01*
X-17204Y89474D01*
X-16642D01*
X-16080Y89287D01*
X-15892Y89099D01*
X-15705Y88724D01*
X-19210Y86850D02*
Y89474D01*
Y87600D02*
X-19772Y87038D01*
X-20147Y86850D01*
X-20709D01*
X-21084Y87038D01*
X-21272Y87600D01*
Y89474D01*
Y87600D02*
X-21834Y87038D01*
X-22209Y86850D01*
X-22771D01*
X-23146Y87038D01*
X-23333Y87600D01*
Y89474D01*
X-24570Y86850D02*
Y89474D01*
Y87600D02*
X-25133Y87038D01*
X-25508Y86850D01*
X-26070D01*
X-26445Y87038D01*
X-26632Y87600D01*
Y89474D01*
Y87600D02*
X-27195Y87038D01*
X-27569Y86850D01*
X-28132D01*
X-28507Y87038D01*
X-28694Y87600D01*
Y89474D01*
X3990Y226574D02*
Y226386D01*
X3802Y226011D01*
X3615Y225824D01*
X3240Y225637D01*
X2490D01*
X2115Y225824D01*
X1928Y226011D01*
X1740Y226386D01*
Y226761D01*
X1928Y227136D01*
X2303Y227698D01*
X4177Y229573D01*
X1553D01*
X485Y229198D02*
X672Y229385D01*
X485Y229573D01*
X297Y229385D01*
X485Y229198D01*
X-2814Y225637D02*
X-940D01*
X-752Y227324D01*
X-940Y227136D01*
X-1502Y226949D01*
X-2065D01*
X-2627Y227136D01*
X-3002Y227511D01*
X-3189Y228073D01*
Y228448D01*
X-3002Y229011D01*
X-2627Y229385D01*
X-2065Y229573D01*
X-1502D01*
X-940Y229385D01*
X-752Y229198D01*
X-565Y228823D01*
X-4070Y226949D02*
Y229573D01*
Y227698D02*
X-4632Y227136D01*
X-5007Y226949D01*
X-5570D01*
X-5944Y227136D01*
X-6132Y227698D01*
Y229573D01*
Y227698D02*
X-6694Y227136D01*
X-7069Y226949D01*
X-7631D01*
X-8006Y227136D01*
X-8194Y227698D01*
Y229573D01*
X-9431Y226949D02*
Y229573D01*
Y227698D02*
X-9993Y227136D01*
X-10368Y226949D01*
X-10930D01*
X-11305Y227136D01*
X-11492Y227698D01*
Y229573D01*
Y227698D02*
X-12055Y227136D01*
X-12430Y226949D01*
X-12992D01*
X-13367Y227136D01*
X-13554Y227698D01*
Y229573D01*
X-16080Y225538D02*
X-18141D01*
X-17017Y227038D01*
X-17579D01*
X-17954Y227225D01*
X-18141Y227412D01*
X-18329Y227975D01*
Y228350D01*
X-18141Y228912D01*
X-17766Y229287D01*
X-17204Y229474D01*
X-16642D01*
X-16080Y229287D01*
X-15892Y229099D01*
X-15705Y228725D01*
X-19210Y226850D02*
Y229474D01*
Y227600D02*
X-19772Y227038D01*
X-20147Y226850D01*
X-20709D01*
X-21084Y227038D01*
X-21272Y227600D01*
Y229474D01*
Y227600D02*
X-21834Y227038D01*
X-22209Y226850D01*
X-22771D01*
X-23146Y227038D01*
X-23333Y227600D01*
Y229474D01*
X-24570Y226850D02*
Y229474D01*
Y227600D02*
X-25133Y227038D01*
X-25508Y226850D01*
X-26070D01*
X-26445Y227038D01*
X-26632Y227600D01*
Y229474D01*
Y227600D02*
X-27195Y227038D01*
X-27569Y226850D01*
X-28132D01*
X-28507Y227038D01*
X-28694Y227600D01*
Y229474D01*
X3990Y156574D02*
Y156386D01*
X3802Y156011D01*
X3615Y155824D01*
X3240Y155637D01*
X2490D01*
X2115Y155824D01*
X1928Y156011D01*
X1740Y156386D01*
Y156761D01*
X1928Y157136D01*
X2303Y157699D01*
X4177Y159573D01*
X1553D01*
X485Y159198D02*
X672Y159385D01*
X485Y159573D01*
X297Y159385D01*
X485Y159198D01*
X-2814Y155637D02*
X-940D01*
X-752Y157324D01*
X-940Y157136D01*
X-1502Y156949D01*
X-2065D01*
X-2627Y157136D01*
X-3002Y157511D01*
X-3189Y158073D01*
Y158448D01*
X-3002Y159011D01*
X-2627Y159385D01*
X-2065Y159573D01*
X-1502D01*
X-940Y159385D01*
X-752Y159198D01*
X-565Y158823D01*
X-4070Y156949D02*
Y159573D01*
Y157699D02*
X-4632Y157136D01*
X-5007Y156949D01*
X-5570D01*
X-5944Y157136D01*
X-6132Y157699D01*
Y159573D01*
Y157699D02*
X-6694Y157136D01*
X-7069Y156949D01*
X-7631D01*
X-8006Y157136D01*
X-8194Y157699D01*
Y159573D01*
X-9431Y156949D02*
Y159573D01*
Y157699D02*
X-9993Y157136D01*
X-10368Y156949D01*
X-10930D01*
X-11305Y157136D01*
X-11492Y157699D01*
Y159573D01*
Y157699D02*
X-12055Y157136D01*
X-12430Y156949D01*
X-12992D01*
X-13367Y157136D01*
X-13554Y157699D01*
Y159573D01*
X-16080Y155538D02*
X-18141D01*
X-17017Y157038D01*
X-17579D01*
X-17954Y157225D01*
X-18141Y157412D01*
X-18329Y157975D01*
Y158350D01*
X-18141Y158912D01*
X-17766Y159287D01*
X-17204Y159474D01*
X-16642D01*
X-16080Y159287D01*
X-15892Y159099D01*
X-15705Y158724D01*
X-19210Y156850D02*
Y159474D01*
Y157600D02*
X-19772Y157038D01*
X-20147Y156850D01*
X-20709D01*
X-21084Y157038D01*
X-21272Y157600D01*
Y159474D01*
Y157600D02*
X-21834Y157038D01*
X-22209Y156850D01*
X-22771D01*
X-23146Y157038D01*
X-23333Y157600D01*
Y159474D01*
X-24570Y156850D02*
Y159474D01*
Y157600D02*
X-25133Y157038D01*
X-25508Y156850D01*
X-26070D01*
X-26445Y157038D01*
X-26632Y157600D01*
Y159474D01*
Y157600D02*
X-27195Y157038D01*
X-27569Y156850D01*
X-28132D01*
X-28507Y157038D01*
X-28694Y157600D01*
Y159474D01*
M02*
