G04*
G04 #@! TF.GenerationSoftware,Altium Limited,Altium Designer,21.1.0 (24)*
G04*
G04 Layer_Color=8388736*
%FSLAX25Y25*%
%MOIN*%
G70*
G04*
G04 #@! TF.SameCoordinates,59D5B773-27E9-4806-B489-B34453608D3F*
G04*
G04*
G04 #@! TF.FilePolarity,Positive*
G04*
G01*
G75*
%ADD65C,0.01181*%
%ADD80C,0.00394*%
D65*
X382437Y151854D02*
G03*
X382437Y151854I-591J0D01*
G01*
D80*
X336984Y58693D02*
G03*
X336984Y58693I-984J0D01*
G01*
X329105Y66212D02*
G03*
X339802Y55515I6895J-3802D01*
G01*
X342895Y58608D02*
G03*
X332198Y69305I-6895J3802D01*
G01*
X339802Y55515D02*
G03*
X339897Y56842I-390J695D01*
G01*
X341649Y58431D02*
G03*
X339897Y56842I-913J-754D01*
G01*
X341649Y58431D02*
G03*
X342895Y58608I557J557D01*
G01*
X330432Y66307D02*
G03*
X329105Y66212I-632J-485D01*
G01*
X330432Y66307D02*
G03*
X332103Y67978I835J835D01*
G01*
X332198Y69305D02*
G03*
X332103Y67978I388J-695D01*
G01*
X344071Y62410D02*
G03*
X344071Y62410I-8071J0D01*
G01*
X344701Y52922D02*
G03*
X345488Y53709I0J787D01*
G01*
X329422Y54157D02*
G03*
X331276Y52922I1853J772D01*
G01*
X329422Y54157D02*
G03*
X327747Y55832I-2871J-1196D01*
G01*
X326512Y57686D02*
G03*
X327747Y55832I2008J0D01*
G01*
X327299Y71898D02*
G03*
X326512Y71111I0J-787D01*
G01*
X342578Y70662D02*
G03*
X340724Y71898I-1853J-772D01*
G01*
X342578Y70662D02*
G03*
X344253Y68988I2871J1196D01*
G01*
X345488Y67134D02*
G03*
X344253Y68988I-2008J0D01*
G01*
X-25088Y304002D02*
G03*
X-25088Y289238I21236J-7382D01*
G01*
Y319750D02*
G03*
X-25088Y304986I21236J-7382D01*
G01*
X-19707D02*
G03*
X-19707Y319750I-21236J7382D01*
G01*
Y289238D02*
G03*
X-19707Y304002I-21236J7382D01*
G01*
X-44217Y309508D02*
G03*
X-44217Y299480I10945J-5014D01*
G01*
Y99508D02*
G03*
X-44217Y89480I10945J-5014D01*
G01*
X-19707Y79238D02*
G03*
X-19707Y94002I-21236J7382D01*
G01*
Y94986D02*
G03*
X-19707Y109750I-21236J7382D01*
G01*
X-25088D02*
G03*
X-25088Y94986I21236J-7382D01*
G01*
Y94002D02*
G03*
X-25088Y79238I21236J-7382D01*
G01*
X297326Y63597D02*
G03*
X297326Y63597I-1969J0D01*
G01*
X268863Y218719D02*
G03*
X273906Y223762I-4958J10000D01*
G01*
X253906D02*
G03*
X258948Y218719I10000J4958D01*
G01*
Y238719D02*
G03*
X253906Y233677I4958J-10000D01*
G01*
X270008Y228719D02*
G03*
X270008Y228719I-6102J0D01*
G01*
X273906Y233677D02*
G03*
X268863Y238719I-10000J-4958D01*
G01*
X264713Y228719D02*
G03*
X264713Y228719I-807J0D01*
G01*
X271150D02*
G03*
X271150Y228719I-7244J0D01*
G01*
X272173D02*
G03*
X272173Y228719I-8268J0D01*
G01*
X253906Y220737D02*
G03*
X255923Y218719I10000J7982D01*
G01*
X271888D02*
G03*
X273906Y220737I-7982J10000D01*
G01*
Y236702D02*
G03*
X271888Y238719I-10000J-7982D01*
G01*
X255923D02*
G03*
X253906Y236702I7982J-10000D01*
G01*
X407854Y161697D02*
G03*
X403917Y165634I-3937J0D01*
G01*
Y17996D02*
G03*
X407854Y21933I0J3937D01*
G01*
X383839D02*
G03*
X387776Y17996I3937J0D01*
G01*
Y165634D02*
G03*
X383839Y161697I0J-3937D01*
G01*
X256071Y89900D02*
G03*
X254054Y87883I7982J-10000D01*
G01*
X274054D02*
G03*
X272036Y89900I-10000J-7982D01*
G01*
Y69900D02*
G03*
X274054Y71918I-7982J10000D01*
G01*
X254054D02*
G03*
X256071Y69900I10000J7982D01*
G01*
X272322Y79900D02*
G03*
X272322Y79900I-8268J0D01*
G01*
X271298D02*
G03*
X271298Y79900I-7244J0D01*
G01*
X264861D02*
G03*
X264861Y79900I-807J0D01*
G01*
X274054Y84858D02*
G03*
X269011Y89900I-10000J-4958D01*
G01*
X270156Y79900D02*
G03*
X270156Y79900I-6102J0D01*
G01*
X259096Y89900D02*
G03*
X254054Y84858I4958J-10000D01*
G01*
Y74943D02*
G03*
X259096Y69900I10000J4958D01*
G01*
X269011D02*
G03*
X274054Y74943I-4958J10000D01*
G01*
X255920Y311266D02*
G03*
X253902Y309248I7982J-10000D01*
G01*
X273902D02*
G03*
X271884Y311266I-10000J-7982D01*
G01*
Y291266D02*
G03*
X273902Y293284I-7982J10000D01*
G01*
X253902D02*
G03*
X255920Y291266I10000J7982D01*
G01*
X272170Y301266D02*
G03*
X272170Y301266I-8268J0D01*
G01*
X271146D02*
G03*
X271146Y301266I-7244J0D01*
G01*
X264709D02*
G03*
X264709Y301266I-807J0D01*
G01*
X273902Y306224D02*
G03*
X268859Y311266I-10000J-4958D01*
G01*
X270004Y301266D02*
G03*
X270004Y301266I-6102J0D01*
G01*
X258944Y311266D02*
G03*
X253902Y306224I4958J-10000D01*
G01*
Y296309D02*
G03*
X258944Y291266I10000J4958D01*
G01*
X268859D02*
G03*
X273902Y296309I-4958J10000D01*
G01*
X-44217Y239508D02*
G03*
X-44217Y229480I10945J-5014D01*
G01*
X-19707Y219238D02*
G03*
X-19707Y234002I-21236J7382D01*
G01*
Y234986D02*
G03*
X-19707Y249750I-21236J7382D01*
G01*
X-25088D02*
G03*
X-25088Y234986I21236J-7382D01*
G01*
Y234002D02*
G03*
X-25088Y219238I21236J-7382D01*
G01*
X-44217Y169508D02*
G03*
X-44217Y159480I10945J-5014D01*
G01*
X-19707Y149238D02*
G03*
X-19707Y164002I-21236J7382D01*
G01*
Y164986D02*
G03*
X-19707Y179750I-21236J7382D01*
G01*
X-25088D02*
G03*
X-25088Y164986I21236J-7382D01*
G01*
Y164002D02*
G03*
X-25088Y149238I21236J-7382D01*
G01*
X268859Y146144D02*
G03*
X273902Y151187I-4958J10000D01*
G01*
X253902D02*
G03*
X258944Y146144I10000J4958D01*
G01*
Y166144D02*
G03*
X253902Y161102I4958J-10000D01*
G01*
X270004Y156144D02*
G03*
X270004Y156144I-6102J0D01*
G01*
X273902Y161102D02*
G03*
X268859Y166144I-10000J-4958D01*
G01*
X264709Y156144D02*
G03*
X264709Y156144I-807J0D01*
G01*
X271146D02*
G03*
X271146Y156144I-7244J0D01*
G01*
X272170D02*
G03*
X272170Y156144I-8268J0D01*
G01*
X253902Y148162D02*
G03*
X255920Y146144I10000J7982D01*
G01*
X271884D02*
G03*
X273902Y148162I-7982J10000D01*
G01*
Y164127D02*
G03*
X271884Y166144I-10000J-7982D01*
G01*
X255920D02*
G03*
X253902Y164127I7982J-10000D01*
G01*
X297474Y284855D02*
G03*
X297474Y284855I-1969J0D01*
G01*
X297367Y212405D02*
G03*
X297367Y212405I-1969J0D01*
G01*
X297406Y139859D02*
G03*
X297406Y139859I-1969J0D01*
G01*
X372095Y111998D02*
Y115935D01*
Y111998D02*
X374063D01*
Y115935D01*
X372095D02*
X374063D01*
X206048Y44415D02*
X209985D01*
Y42446D02*
Y44415D01*
X206048Y42446D02*
X209985D01*
X206048D02*
Y44415D01*
X362316Y76553D02*
Y80490D01*
X364284D01*
Y76553D02*
Y80490D01*
X362316Y76553D02*
X364284D01*
X263070Y102205D02*
Y106142D01*
X265038D01*
Y102205D02*
Y106142D01*
X263070Y102205D02*
X265038D01*
X263189Y327165D02*
Y331102D01*
X265158D01*
Y327165D02*
Y331102D01*
X263189Y327165D02*
X265158D01*
X264838Y254800D02*
Y258737D01*
X266807D01*
Y254800D02*
Y258737D01*
X264838Y254800D02*
X266807D01*
X263644Y182166D02*
Y186103D01*
X265612D01*
Y182166D02*
Y186103D01*
X263644Y182166D02*
X265612D01*
X299031Y41384D02*
X302969D01*
Y39416D02*
Y41384D01*
X299031Y39416D02*
X302969D01*
X299031D02*
Y41384D01*
X331276Y52922D02*
X344701D01*
X326512Y57686D02*
Y71111D01*
X327299Y71898D02*
X340724D01*
X345488Y53709D02*
Y67134D01*
X82289Y93753D02*
Y95722D01*
X78352Y93753D02*
X82289D01*
X78352D02*
Y95722D01*
X82289D01*
X82368Y170016D02*
Y171984D01*
X78431Y170016D02*
X82368D01*
X78431D02*
Y171984D01*
X82368D01*
X82330Y242561D02*
Y244530D01*
X78393Y242561D02*
X82330D01*
X78393D02*
Y244530D01*
X82330D01*
X82240Y315012D02*
Y316980D01*
X78303Y315012D02*
X82240D01*
X78303D02*
Y316980D01*
X82240D01*
X4374Y318274D02*
X8311D01*
X12248D02*
X14610D01*
X18547D02*
X22484D01*
X26421D02*
X30358D01*
X12248Y290715D02*
X14610D01*
X4374D02*
X8311D01*
X18547D02*
X22484D01*
X26421D02*
X30358D01*
X-3500D02*
X437D01*
X-3500Y318274D02*
X437D01*
X-18461Y317532D02*
X-17673Y320242D01*
X-18461Y317532D02*
X-17673Y317303D01*
X-16098D02*
X-15311Y317532D01*
X-18461Y315785D02*
X-17673Y318132D01*
X-18461Y315785D02*
X-17673Y313813D01*
X-18461Y311013D02*
X-17673Y313545D01*
X-18461Y311013D02*
X-17673Y308062D01*
X-18461Y304494D02*
X-17673Y307696D01*
X-18461Y293203D02*
X-17673Y295149D01*
X-18461Y297975D02*
X-17673Y295417D01*
X-18461Y297975D02*
X-17673Y300926D01*
X-18461Y304494D02*
X-17673Y301293D01*
X-16098Y320242D02*
X-15311Y317532D01*
X-16098Y317938D02*
X-15311Y315785D01*
X-16098Y313786D02*
X-15311Y315785D01*
X-16098Y313588D02*
X-15311Y311013D01*
X-16098Y307983D02*
X-15311Y311013D01*
X-16098Y307712D02*
X-15311Y304494D01*
X-16098Y301245D02*
X-15311Y304494D01*
X-16098Y300973D02*
X-15311Y297975D01*
X-16098Y295377D02*
X-15311Y297975D01*
X-16098Y295179D02*
X-15311Y293203D01*
X-18461D02*
X-17673Y290856D01*
X-16098D02*
X-15311Y293203D01*
X-17673Y323195D02*
X-16098D01*
X-17673Y285793D02*
Y323195D01*
Y285793D02*
X-16098D01*
Y323195D01*
X-18461Y291456D02*
X-17673Y288746D01*
X-18461Y291456D02*
X-17673Y291685D01*
X-16098D02*
X-15311Y291456D01*
X-16098Y288746D02*
X-15311Y291456D01*
X-25088Y319750D02*
Y320242D01*
Y319750D02*
X-19707D01*
Y320242D01*
Y304002D02*
Y304986D01*
X-25088D02*
X-19707D01*
X-25088Y304002D02*
Y304986D01*
Y304002D02*
X-19707D01*
X-18461Y288746D02*
Y320242D01*
X-26335D02*
X-18461D01*
X-26335Y288746D02*
Y320242D01*
Y288746D02*
X-18461D01*
X-25088D02*
Y289238D01*
X-19707D01*
Y288746D02*
Y289238D01*
X-3500Y315630D02*
X30358D01*
X-3500Y293359D02*
X30358D01*
X-5469Y310532D02*
X-3500D01*
X-5469Y298456D02*
X-3500D01*
X-42476Y292211D02*
Y316778D01*
X-44217Y316533D02*
X-42476Y316778D01*
X-44217Y292455D02*
X-42476Y292211D01*
X-44217Y309508D02*
X-42476Y310070D01*
X-10360D01*
X-44217Y299480D02*
X-42476Y298918D01*
X-10360D01*
X-48382Y293864D02*
X-45626D01*
X-48776Y294258D02*
Y314730D01*
X-48382Y315124D02*
X-45626D01*
X-44217Y316533D01*
X-45626Y293864D02*
Y315124D01*
Y293864D02*
X-44217Y292455D01*
Y316533D01*
X-42476Y316778D02*
X-10360D01*
X-42476Y292211D02*
X-10360D01*
X-9405Y293864D01*
X-10360Y292211D02*
Y316778D01*
X-9405Y315124D01*
Y293864D02*
Y315124D01*
X-5469D01*
X-9405Y293864D02*
X-5469D01*
Y291994D02*
Y316994D01*
X-3500D01*
X-5469Y291994D02*
X-3500D01*
Y286778D02*
X30358D01*
X-3500D02*
Y322211D01*
X30358D01*
Y286778D02*
Y322211D01*
Y302526D02*
X38232D01*
X30358Y306463D02*
X38232D01*
Y302526D02*
Y306463D01*
Y92526D02*
Y96463D01*
X30358D02*
X38232D01*
X30358Y92526D02*
X38232D01*
X30358Y76777D02*
Y112211D01*
X-3500D02*
X30358D01*
X-3500Y76777D02*
Y112211D01*
Y76777D02*
X30358D01*
X-5469Y81994D02*
X-3500D01*
X-5469Y106994D02*
X-3500D01*
X-5469Y81994D02*
Y106994D01*
X-9405Y83864D02*
X-5469D01*
X-9405Y105124D02*
X-5469D01*
X-9405Y83864D02*
Y105124D01*
X-10360Y106778D02*
X-9405Y105124D01*
X-10360Y82211D02*
Y106778D01*
Y82211D02*
X-9405Y83864D01*
X-42476Y82211D02*
X-10360D01*
X-42476Y106778D02*
X-10360D01*
X-44217Y82455D02*
Y106533D01*
X-45626Y83864D02*
X-44217Y82455D01*
X-45626Y83864D02*
Y105124D01*
X-44217Y106533D01*
X-48382Y105124D02*
X-45626D01*
X-48776Y84258D02*
Y104730D01*
X-48382Y83864D02*
X-45626D01*
X-42476Y88918D02*
X-10360D01*
X-44217Y89480D02*
X-42476Y88918D01*
Y100070D02*
X-10360D01*
X-44217Y99508D02*
X-42476Y100070D01*
X-44217Y82455D02*
X-42476Y82211D01*
X-44217Y106533D02*
X-42476Y106778D01*
Y82211D02*
Y106778D01*
X-5469Y88456D02*
X-3500D01*
X-5469Y100532D02*
X-3500D01*
Y83359D02*
X30358D01*
X-3500Y105630D02*
X30358D01*
X-19707Y78746D02*
Y79238D01*
X-25088D02*
X-19707D01*
X-25088Y78746D02*
Y79238D01*
X-26335Y78746D02*
X-18461D01*
X-26335D02*
Y110242D01*
X-18461D01*
Y78746D02*
Y110242D01*
X-25088Y94002D02*
X-19707D01*
X-25088D02*
Y94986D01*
X-19707D01*
Y94002D02*
Y94986D01*
Y109750D02*
Y110242D01*
X-25088Y109750D02*
X-19707D01*
X-25088D02*
Y110242D01*
X-16098Y78746D02*
X-15311Y81456D01*
X-16098Y81685D02*
X-15311Y81456D01*
X-18461D02*
X-17673Y81685D01*
X-18461Y81456D02*
X-17673Y78746D01*
X-16098Y75793D02*
Y113195D01*
X-17673Y75793D02*
X-16098D01*
X-17673D02*
Y113195D01*
X-16098D01*
Y80856D02*
X-15311Y83203D01*
X-18461D02*
X-17673Y80856D01*
X-16098Y85179D02*
X-15311Y83203D01*
X-16098Y85377D02*
X-15311Y87975D01*
X-16098Y90973D02*
X-15311Y87975D01*
X-16098Y91245D02*
X-15311Y94494D01*
X-16098Y97711D02*
X-15311Y94494D01*
X-16098Y97983D02*
X-15311Y101013D01*
X-16098Y103588D02*
X-15311Y101013D01*
X-16098Y103786D02*
X-15311Y105785D01*
X-16098Y107938D02*
X-15311Y105785D01*
X-16098Y110242D02*
X-15311Y107532D01*
X-18461Y94494D02*
X-17673Y91293D01*
X-18461Y87975D02*
X-17673Y90926D01*
X-18461Y87975D02*
X-17673Y85417D01*
X-18461Y83203D02*
X-17673Y85149D01*
X-18461Y94494D02*
X-17673Y97695D01*
X-18461Y101013D02*
X-17673Y98062D01*
X-18461Y101013D02*
X-17673Y103545D01*
X-18461Y105785D02*
X-17673Y103813D01*
X-18461Y105785D02*
X-17673Y108132D01*
X-16098Y107303D02*
X-15311Y107532D01*
X-18461D02*
X-17673Y107303D01*
X-18461Y107532D02*
X-17673Y110242D01*
X-3500Y108274D02*
X437D01*
X-3500Y80715D02*
X437D01*
X26421D02*
X30358D01*
X18547D02*
X22484D01*
X4374D02*
X8311D01*
X12248D02*
X14610D01*
X26421Y108274D02*
X30358D01*
X18547D02*
X22484D01*
X12248D02*
X14610D01*
X4374D02*
X8311D01*
X219232Y102361D02*
X219626Y101967D01*
X219232Y102755D02*
X220019Y101967D01*
X219232Y103148D02*
X220413Y101967D01*
X219232Y103542D02*
X220807Y101967D01*
X219232Y103936D02*
X221200Y101967D01*
X219232Y104330D02*
X221594Y101967D01*
X219232Y104723D02*
X221988Y101967D01*
X219232Y105117D02*
X222382Y101967D01*
X219232Y105511D02*
X222775Y101967D01*
X219232Y105904D02*
X223169Y101967D01*
X219232Y108267D02*
X223956D01*
Y101967D02*
Y108267D01*
X219232Y101967D02*
X223956D01*
X219232D02*
Y108267D01*
X355954Y80367D02*
X356347Y79973D01*
X355560Y80367D02*
X356347Y79579D01*
X355166Y80367D02*
X356347Y79185D01*
X354773Y80367D02*
X356347Y78792D01*
X354379Y80367D02*
X356347Y78398D01*
X353985Y80367D02*
X356347Y78004D01*
X353591Y80367D02*
X356347Y77611D01*
X353198Y80367D02*
X356347Y77217D01*
X352804Y80367D02*
X356347Y76823D01*
X352410Y80367D02*
X356347Y76430D01*
X344536Y80367D02*
X356347D01*
X344536Y68556D02*
Y80367D01*
Y68556D02*
X356347D01*
Y80367D01*
X342342Y128394D02*
X342736Y128000D01*
X342342Y128787D02*
X343130Y128000D01*
X342342Y129181D02*
X343524Y128000D01*
X342342Y129575D02*
X343917Y128000D01*
X342342Y129969D02*
X344311Y128000D01*
X342342Y130362D02*
X344705Y128000D01*
X342342Y130756D02*
X345098Y128000D01*
X342342Y131150D02*
X345492Y128000D01*
X342342Y131543D02*
X345886Y128000D01*
X342342Y131937D02*
X346280Y128000D01*
X342342D02*
X354153D01*
X342342D02*
Y139811D01*
X354153D01*
Y128000D02*
Y139811D01*
X294679Y33529D02*
X295073Y33923D01*
X294286Y33529D02*
X295073Y34317D01*
X293892Y33529D02*
X295073Y34710D01*
X293498Y33529D02*
X295073Y35104D01*
X293105Y33529D02*
X295073Y35498D01*
X292711Y33529D02*
X295073Y35891D01*
X292317Y33529D02*
X295073Y36285D01*
X291924Y33529D02*
X295073Y36679D01*
X291530Y33529D02*
X295073Y37072D01*
X291136Y33529D02*
X295073Y37466D01*
Y33529D02*
Y45340D01*
X283262Y33529D02*
X295073D01*
X283262D02*
Y45340D01*
X295073D01*
X290732Y60546D02*
X306086D01*
Y99916D01*
X290732D02*
X306086D01*
X290732Y60546D02*
Y99916D01*
X318454Y135669D02*
X325147D01*
X318454Y136062D02*
X325147D01*
X318454Y136456D02*
X325147D01*
X318454Y136850D02*
X325147D01*
X318454Y137243D02*
X325147D01*
X318454Y137637D02*
X325147D01*
X318454Y138031D02*
X325147D01*
X318454Y138424D02*
X325147D01*
X318454Y128582D02*
X325147D01*
X318454D02*
Y138818D01*
X325147D01*
Y128582D02*
Y138818D01*
X248250Y356705D02*
Y359894D01*
X254550D01*
Y356705D02*
Y359894D01*
X248250Y356705D02*
X254550D01*
X357690Y128284D02*
X361627D01*
X357690Y126316D02*
Y128284D01*
Y126316D02*
X361627D01*
Y128284D01*
X91790Y86742D02*
X95727Y82805D01*
X92184Y86742D02*
X95727Y83199D01*
X92578Y86742D02*
X95727Y83593D01*
X92971Y86742D02*
X95727Y83986D01*
X93365Y86742D02*
X95727Y84380D01*
X93759Y86742D02*
X95727Y84774D01*
X94152Y86742D02*
X95727Y85167D01*
X94546Y86742D02*
X95727Y85561D01*
X94940Y86742D02*
X95727Y85955D01*
X95334Y86742D02*
X95727Y86348D01*
X83916Y74931D02*
Y86742D01*
Y74931D02*
X95727D01*
Y86742D01*
X83916D02*
X95727D01*
X139788Y74884D02*
X143725Y78821D01*
X140182Y74884D02*
X143725Y78427D01*
X140575Y74884D02*
X143725Y78034D01*
X140969Y74884D02*
X143725Y77640D01*
X141363Y74884D02*
X143725Y77246D01*
X141756Y74884D02*
X143725Y76853D01*
X142150Y74884D02*
X143725Y76459D01*
X142544Y74884D02*
X143725Y76065D01*
X142938Y74884D02*
X143725Y75671D01*
X143331Y74884D02*
X143725Y75278D01*
X131914Y86695D02*
X143725D01*
X131914Y74884D02*
Y86695D01*
Y74884D02*
X143725D01*
Y86695D01*
X255923Y218719D02*
X271888D01*
X273906Y220737D02*
Y236702D01*
X255923Y238719D02*
X271888D01*
X253906Y220737D02*
Y236702D01*
X249969Y227735D02*
X253906D01*
X249969D02*
Y229703D01*
X253906D01*
X67320Y151888D02*
Y160262D01*
X75694D01*
Y151888D02*
Y160262D01*
X67320Y151888D02*
X75694D01*
X71757D02*
X75694Y155825D01*
X72151Y151888D02*
X75694Y155431D01*
X72544Y151888D02*
X75694Y155037D01*
X72938Y151888D02*
X75694Y154644D01*
X73332Y151888D02*
X75694Y154250D01*
X73726Y151888D02*
X75694Y153856D01*
X74119Y151888D02*
X75694Y153463D01*
X74513Y151888D02*
X75694Y153069D01*
X74907Y151888D02*
X75694Y152675D01*
X75300Y151888D02*
X75694Y152281D01*
X75221Y75625D02*
X75615Y76019D01*
X74828Y75625D02*
X75615Y76413D01*
X74434Y75625D02*
X75615Y76806D01*
X74040Y75625D02*
X75615Y77200D01*
X73647Y75625D02*
X75615Y77594D01*
X73253Y75625D02*
X75615Y77987D01*
X72859Y75625D02*
X75615Y78381D01*
X72465Y75625D02*
X75615Y78775D01*
X72072Y75625D02*
X75615Y79169D01*
X71678Y75625D02*
X75615Y79562D01*
X67241Y75625D02*
X75615D01*
Y83999D01*
X67241D02*
X75615D01*
X67241Y75625D02*
Y83999D01*
X120706Y72631D02*
X122281Y74206D01*
X121887Y72631D02*
X122281Y73025D01*
X121493Y72631D02*
X122281Y73419D01*
X121100Y72631D02*
X122281Y73812D01*
X121100Y72631D02*
X122281Y73812D01*
Y72631D02*
Y84442D01*
X110470D02*
X122281D01*
X110470Y72631D02*
Y84442D01*
Y72631D02*
X122281D01*
X112142Y61488D02*
X121001D01*
X112142Y55386D02*
X121001D01*
X112142D02*
Y61488D01*
X121001Y55386D02*
Y61488D01*
X112142Y55386D02*
Y61488D01*
X121001D01*
X112142Y55386D02*
X121001D01*
Y61488D01*
X314509Y23382D02*
Y31256D01*
Y23382D02*
X319430D01*
X314509Y31256D02*
X319430D01*
Y23382D02*
Y31256D01*
X104646Y57398D02*
X108386D01*
Y50509D02*
Y57398D01*
X104646Y50509D02*
X108386D01*
X104646D02*
Y57398D01*
X301378Y19193D02*
X311221D01*
X301378D02*
Y31791D01*
X311221D01*
Y19193D02*
Y31791D01*
X330298Y34562D02*
Y47160D01*
X323999D02*
X330298D01*
X323999Y34562D02*
Y47160D01*
Y34562D02*
X330298D01*
X248349Y363650D02*
Y369950D01*
Y363650D02*
X260947D01*
Y369950D01*
X248349D02*
X260947D01*
X266769Y40839D02*
Y47532D01*
X279367D01*
Y40839D02*
Y47532D01*
X266769Y40839D02*
X279367D01*
X299462Y49223D02*
Y55719D01*
X302808D01*
Y49223D02*
Y55719D01*
X299462Y49223D02*
X302808D01*
X290597Y22240D02*
X294338D01*
Y29130D01*
X290597D02*
X294338D01*
X290597Y22240D02*
Y29130D01*
X114366Y51177D02*
X118776D01*
X114366Y53578D02*
X118776D01*
Y51177D02*
Y53578D01*
X114366Y51177D02*
Y53578D01*
X239723Y101541D02*
Y103706D01*
X235589Y101541D02*
X239723D01*
X235589D02*
Y103706D01*
X239723D01*
X383839Y148454D02*
X387239Y151854D01*
X383839Y155254D02*
X387239Y151854D01*
X379902Y98547D02*
X383839D01*
X379902Y85161D02*
Y98547D01*
Y85161D02*
X383839D01*
Y21933D02*
Y161697D01*
X407854Y21933D02*
Y161697D01*
X390846Y17996D02*
Y21933D01*
X400846Y17996D02*
Y21933D01*
X390846D02*
X400846D01*
X387776Y17996D02*
X390846D01*
Y161697D02*
Y165634D01*
X400846Y161697D02*
Y165634D01*
X390846Y161697D02*
X400846D01*
Y165634D02*
X403917D01*
X387776D02*
X390846D01*
X400846Y17996D02*
X403917D01*
X387776D02*
X390846D01*
X250117Y80885D02*
X254054D01*
X250117Y78916D02*
Y80885D01*
Y78916D02*
X254054D01*
Y71918D02*
Y87883D01*
X256071Y89900D02*
X272036D01*
X274054Y71918D02*
Y87883D01*
X256071Y69900D02*
X272036D01*
X249965Y302250D02*
X253902D01*
X249965Y300282D02*
Y302250D01*
Y300282D02*
X253902D01*
Y293284D02*
Y309249D01*
X255920Y311266D02*
X271884D01*
X273902Y293284D02*
Y309249D01*
X255920Y291266D02*
X271884D01*
X38232Y232526D02*
Y236463D01*
X30358D02*
X38232D01*
X30358Y232526D02*
X38232D01*
X30358Y216778D02*
Y252211D01*
X-3500D02*
X30358D01*
X-3500Y216778D02*
Y252211D01*
Y216778D02*
X30358D01*
X-5469Y221994D02*
X-3500D01*
X-5469Y246994D02*
X-3500D01*
X-5469Y221994D02*
Y246994D01*
X-9405Y223864D02*
X-5469D01*
X-9405Y245124D02*
X-5469D01*
X-9405Y223864D02*
Y245124D01*
X-10360Y246778D02*
X-9405Y245124D01*
X-10360Y222211D02*
Y246778D01*
Y222211D02*
X-9405Y223864D01*
X-42476Y222211D02*
X-10360D01*
X-42476Y246778D02*
X-10360D01*
X-44217Y222455D02*
Y246533D01*
X-45626Y223864D02*
X-44217Y222455D01*
X-45626Y223864D02*
Y245124D01*
X-44217Y246533D01*
X-48382Y245124D02*
X-45626D01*
X-48776Y224258D02*
Y244730D01*
X-48382Y223864D02*
X-45626D01*
X-42476Y228918D02*
X-10360D01*
X-44217Y229480D02*
X-42476Y228918D01*
Y240070D02*
X-10360D01*
X-44217Y239508D02*
X-42476Y240070D01*
X-44217Y222455D02*
X-42476Y222211D01*
X-44217Y246533D02*
X-42476Y246778D01*
Y222211D02*
Y246778D01*
X-5469Y228456D02*
X-3500D01*
X-5469Y240532D02*
X-3500D01*
Y223359D02*
X30358D01*
X-3500Y245630D02*
X30358D01*
X-19707Y218746D02*
Y219238D01*
X-25088D02*
X-19707D01*
X-25088Y218746D02*
Y219238D01*
X-26335Y218746D02*
X-18461D01*
X-26335D02*
Y250242D01*
X-18461D01*
Y218746D02*
Y250242D01*
X-25088Y234002D02*
X-19707D01*
X-25088D02*
Y234986D01*
X-19707D01*
Y234002D02*
Y234986D01*
Y249750D02*
Y250242D01*
X-25088Y249750D02*
X-19707D01*
X-25088D02*
Y250242D01*
X-16098Y218746D02*
X-15311Y221456D01*
X-16098Y221685D02*
X-15311Y221456D01*
X-18461D02*
X-17673Y221685D01*
X-18461Y221456D02*
X-17673Y218746D01*
X-16098Y215793D02*
Y253195D01*
X-17673Y215793D02*
X-16098D01*
X-17673D02*
Y253195D01*
X-16098D01*
Y220856D02*
X-15311Y223203D01*
X-18461D02*
X-17673Y220856D01*
X-16098Y225179D02*
X-15311Y223203D01*
X-16098Y225377D02*
X-15311Y227975D01*
X-16098Y230973D02*
X-15311Y227975D01*
X-16098Y231245D02*
X-15311Y234494D01*
X-16098Y237712D02*
X-15311Y234494D01*
X-16098Y237983D02*
X-15311Y241013D01*
X-16098Y243588D02*
X-15311Y241013D01*
X-16098Y243786D02*
X-15311Y245785D01*
X-16098Y247938D02*
X-15311Y245785D01*
X-16098Y250242D02*
X-15311Y247532D01*
X-18461Y234494D02*
X-17673Y231293D01*
X-18461Y227975D02*
X-17673Y230926D01*
X-18461Y227975D02*
X-17673Y225417D01*
X-18461Y223203D02*
X-17673Y225149D01*
X-18461Y234494D02*
X-17673Y237696D01*
X-18461Y241013D02*
X-17673Y238062D01*
X-18461Y241013D02*
X-17673Y243545D01*
X-18461Y245785D02*
X-17673Y243813D01*
X-18461Y245785D02*
X-17673Y248132D01*
X-16098Y247303D02*
X-15311Y247532D01*
X-18461D02*
X-17673Y247303D01*
X-18461Y247532D02*
X-17673Y250242D01*
X-3500Y248274D02*
X437D01*
X-3500Y220715D02*
X437D01*
X26421D02*
X30358D01*
X18547D02*
X22484D01*
X4374D02*
X8311D01*
X12248D02*
X14610D01*
X26421Y248274D02*
X30358D01*
X18547D02*
X22484D01*
X12248D02*
X14610D01*
X4374D02*
X8311D01*
X38232Y162526D02*
Y166463D01*
X30358D02*
X38232D01*
X30358Y162526D02*
X38232D01*
X30358Y146777D02*
Y182211D01*
X-3500D02*
X30358D01*
X-3500Y146777D02*
Y182211D01*
Y146777D02*
X30358D01*
X-5469Y151994D02*
X-3500D01*
X-5469Y176994D02*
X-3500D01*
X-5469Y151994D02*
Y176994D01*
X-9405Y153864D02*
X-5469D01*
X-9405Y175124D02*
X-5469D01*
X-9405Y153864D02*
Y175124D01*
X-10360Y176778D02*
X-9405Y175124D01*
X-10360Y152211D02*
Y176778D01*
Y152211D02*
X-9405Y153864D01*
X-42476Y152211D02*
X-10360D01*
X-42476Y176778D02*
X-10360D01*
X-44217Y152455D02*
Y176533D01*
X-45626Y153864D02*
X-44217Y152455D01*
X-45626Y153864D02*
Y175124D01*
X-44217Y176533D01*
X-48382Y175124D02*
X-45626D01*
X-48776Y154258D02*
Y174730D01*
X-48382Y153864D02*
X-45626D01*
X-42476Y158918D02*
X-10360D01*
X-44217Y159480D02*
X-42476Y158918D01*
Y170070D02*
X-10360D01*
X-44217Y169508D02*
X-42476Y170070D01*
X-44217Y152455D02*
X-42476Y152211D01*
X-44217Y176533D02*
X-42476Y176778D01*
Y152211D02*
Y176778D01*
X-5469Y158456D02*
X-3500D01*
X-5469Y170532D02*
X-3500D01*
Y153358D02*
X30358D01*
X-3500Y175630D02*
X30358D01*
X-19707Y148746D02*
Y149238D01*
X-25088D02*
X-19707D01*
X-25088Y148746D02*
Y149238D01*
X-26335Y148746D02*
X-18461D01*
X-26335D02*
Y180242D01*
X-18461D01*
Y148746D02*
Y180242D01*
X-25088Y164002D02*
X-19707D01*
X-25088D02*
Y164986D01*
X-19707D01*
Y164002D02*
Y164986D01*
Y179750D02*
Y180242D01*
X-25088Y179750D02*
X-19707D01*
X-25088D02*
Y180242D01*
X-16098Y148746D02*
X-15311Y151456D01*
X-16098Y151685D02*
X-15311Y151456D01*
X-18461D02*
X-17673Y151685D01*
X-18461Y151456D02*
X-17673Y148746D01*
X-16098Y145793D02*
Y183195D01*
X-17673Y145793D02*
X-16098D01*
X-17673D02*
Y183195D01*
X-16098D01*
Y150856D02*
X-15311Y153203D01*
X-18461D02*
X-17673Y150856D01*
X-16098Y155178D02*
X-15311Y153203D01*
X-16098Y155377D02*
X-15311Y157975D01*
X-16098Y160973D02*
X-15311Y157975D01*
X-16098Y161245D02*
X-15311Y164494D01*
X-16098Y167711D02*
X-15311Y164494D01*
X-16098Y167983D02*
X-15311Y171013D01*
X-16098Y173588D02*
X-15311Y171013D01*
X-16098Y173786D02*
X-15311Y175785D01*
X-16098Y177938D02*
X-15311Y175785D01*
X-16098Y180242D02*
X-15311Y177532D01*
X-18461Y164494D02*
X-17673Y161293D01*
X-18461Y157975D02*
X-17673Y160926D01*
X-18461Y157975D02*
X-17673Y155417D01*
X-18461Y153203D02*
X-17673Y155149D01*
X-18461Y164494D02*
X-17673Y167695D01*
X-18461Y171013D02*
X-17673Y168062D01*
X-18461Y171013D02*
X-17673Y173545D01*
X-18461Y175785D02*
X-17673Y173813D01*
X-18461Y175785D02*
X-17673Y178132D01*
X-16098Y177303D02*
X-15311Y177532D01*
X-18461D02*
X-17673Y177303D01*
X-18461Y177532D02*
X-17673Y180242D01*
X-3500Y178274D02*
X437D01*
X-3500Y150715D02*
X437D01*
X26421D02*
X30358D01*
X18547D02*
X22484D01*
X4374D02*
X8311D01*
X12248D02*
X14610D01*
X26421Y178274D02*
X30358D01*
X18547D02*
X22484D01*
X12248D02*
X14610D01*
X4374D02*
X8311D01*
X255920Y146144D02*
X271884D01*
X273902Y148162D02*
Y164127D01*
X255920Y166144D02*
X271884D01*
X253902Y148162D02*
Y164127D01*
X249965Y155160D02*
X253902D01*
X249965D02*
Y157128D01*
X253902D01*
X348924Y104102D02*
Y116700D01*
X342624D02*
X348924D01*
X342624Y104102D02*
Y116700D01*
Y104102D02*
X348924D01*
X358692D02*
Y116700D01*
X352393D02*
X358692D01*
X352393Y104102D02*
Y116700D01*
Y104102D02*
X358692D01*
X335630Y109154D02*
X339370D01*
Y116043D01*
X335630D02*
X339370D01*
X335630Y109154D02*
Y116043D01*
X331359Y146401D02*
Y158999D01*
Y146401D02*
X337658D01*
Y158999D01*
X331359D02*
X337658D01*
X321459Y146401D02*
Y158999D01*
Y146401D02*
X327758D01*
Y158999D01*
X321459D02*
X327758D01*
X341653D02*
X347952D01*
Y146401D02*
Y158999D01*
X341653Y146401D02*
X347952D01*
X341653D02*
Y158999D01*
X330514Y141270D02*
X337403D01*
Y137530D02*
Y141270D01*
X330514Y137530D02*
X337403D01*
X330514D02*
Y141270D01*
X362858Y143853D02*
Y150547D01*
X350259Y143853D02*
X362858D01*
X350259D02*
Y150547D01*
X362858D01*
X110304Y269799D02*
Y273933D01*
X112470D01*
Y269799D02*
Y273933D01*
X110304Y269799D02*
X112470D01*
X110394Y197349D02*
X112559D01*
Y201483D01*
X110394D02*
X112559D01*
X110394Y197349D02*
Y201483D01*
X110433Y124803D02*
Y128937D01*
X112598D01*
Y124803D02*
Y128937D01*
X110433Y124803D02*
X112598D01*
X110354Y48541D02*
Y52675D01*
X112519D01*
Y48541D02*
Y52675D01*
X110354Y48541D02*
X112519D01*
X114317Y272435D02*
X118727D01*
X114317Y274837D02*
X118727D01*
Y272435D02*
Y274837D01*
X114317Y272435D02*
Y274837D01*
X114407Y199985D02*
Y202386D01*
X118816Y199985D02*
Y202386D01*
X114407D02*
X118816D01*
X114407Y199985D02*
X118816D01*
X114445Y127439D02*
X118855D01*
X114445Y129841D02*
X118855D01*
Y127439D02*
Y129841D01*
X114445Y127439D02*
Y129841D01*
X110755Y288678D02*
X114889D01*
Y286513D02*
Y288678D01*
X110755Y286513D02*
X114889D01*
X110755D02*
Y288678D01*
X110845Y214062D02*
Y216228D01*
Y214062D02*
X114979D01*
Y216228D01*
X110845D02*
X114979D01*
X110884Y143682D02*
X115017D01*
Y141517D02*
Y143682D01*
X110884Y141517D02*
X115017D01*
X110884D02*
Y143682D01*
X110805Y67420D02*
X114938D01*
Y65254D02*
Y67420D01*
X110805Y65254D02*
X114938D01*
X110805D02*
Y67420D01*
X117955Y288678D02*
X122089D01*
Y286513D02*
Y288678D01*
X117955Y286513D02*
X122089D01*
X117955D02*
Y288678D01*
X118045Y214062D02*
Y216228D01*
Y214062D02*
X122179D01*
Y216228D01*
X118045D02*
X122179D01*
X118084Y143682D02*
X122218D01*
Y141517D02*
Y143682D01*
X118084Y141517D02*
X122218D01*
X118084D02*
Y143682D01*
X118005Y67420D02*
X122139D01*
Y65254D02*
Y67420D01*
X118005Y65254D02*
X122139D01*
X118005D02*
Y67420D01*
X93179Y278461D02*
X96525D01*
Y271965D02*
Y278461D01*
X93179Y271965D02*
X96525D01*
X93179D02*
Y278461D01*
X93268Y199514D02*
Y206010D01*
Y199514D02*
X96615D01*
Y206010D01*
X93268D02*
X96615D01*
X93307Y133465D02*
X96653D01*
Y126969D02*
Y133465D01*
X93307Y126969D02*
X96653D01*
X93307D02*
Y133465D01*
X93228Y57202D02*
X96574D01*
Y50706D02*
Y57202D01*
X93228Y50706D02*
X96574D01*
X93228D02*
Y57202D01*
X101716Y271917D02*
Y276051D01*
X99551Y271917D02*
X101716D01*
X99551D02*
Y276051D01*
X101716D01*
X99641Y203600D02*
X101806D01*
X99641Y199466D02*
Y203600D01*
Y199466D02*
X101806D01*
Y203600D01*
X101845Y126921D02*
Y131055D01*
X99679Y126921D02*
X101845D01*
X99679D02*
Y131055D01*
X101845D01*
X101766Y50659D02*
Y54792D01*
X99600Y50659D02*
X101766D01*
X99600D02*
Y54792D01*
X101766D01*
X299609Y270678D02*
Y277174D01*
X302956D01*
Y270678D02*
Y277174D01*
X299609Y270678D02*
X302956D01*
X299699Y198228D02*
Y204724D01*
X303046D01*
Y198228D02*
Y204724D01*
X299699Y198228D02*
X303046D01*
X299738Y125682D02*
Y132178D01*
X303084D01*
Y125682D02*
Y132178D01*
X299738Y125682D02*
X303084D01*
X305909Y274123D02*
X308074D01*
X305909D02*
Y278257D01*
X308074D01*
Y274123D02*
Y278257D01*
X305998Y201673D02*
X308164D01*
X305998D02*
Y205806D01*
X308164D01*
Y201673D02*
Y205806D01*
X306037Y129127D02*
X308203D01*
X306037D02*
Y133261D01*
X308203D01*
Y129127D02*
Y133261D01*
X305762Y52668D02*
X307927D01*
X305762D02*
Y56802D01*
X307927D01*
Y52668D02*
Y56802D01*
X139305Y284626D02*
X146194D01*
X139305D02*
Y288366D01*
X146194D01*
Y284626D02*
Y288366D01*
X146284Y212175D02*
Y215915D01*
X139394D02*
X146284D01*
X139394Y212175D02*
Y215915D01*
Y212175D02*
X146284D01*
X139433Y139630D02*
X146323D01*
X139433D02*
Y143370D01*
X146323D01*
Y139630D02*
Y143370D01*
X139354Y63367D02*
X146244D01*
X139354D02*
Y67107D01*
X146244D01*
Y63367D02*
Y67107D01*
X138655Y290113D02*
X142789D01*
X138655D02*
Y292279D01*
X142789D01*
Y290113D02*
Y292279D01*
X142878Y217662D02*
Y219828D01*
X138744D02*
X142878D01*
X138744Y217662D02*
Y219828D01*
Y217662D02*
X142878D01*
X138783Y145117D02*
X142917D01*
X138783D02*
Y147282D01*
X142917D01*
Y145117D02*
Y147282D01*
X138704Y68854D02*
X142838D01*
X138704D02*
Y71020D01*
X142838D01*
Y68854D02*
Y71020D01*
X78218Y269701D02*
Y276394D01*
X90816D01*
Y269701D02*
Y276394D01*
X78218Y269701D02*
X90816D01*
X78308Y197250D02*
X90906D01*
Y203943D01*
X78308D02*
X90906D01*
X78308Y197250D02*
Y203943D01*
X78347Y124705D02*
X90945D01*
Y131398D01*
X78347D02*
X90945D01*
X78347Y124705D02*
Y131398D01*
X78267Y48442D02*
X90866D01*
Y55135D01*
X78267D02*
X90866D01*
X78267Y48442D02*
Y55135D01*
X108292Y283501D02*
Y290391D01*
X104552D02*
X108292D01*
X104552Y283501D02*
Y290391D01*
Y283501D02*
X108292D01*
X104642Y211050D02*
X108382D01*
X104642D02*
Y217940D01*
X108382D01*
Y211050D02*
Y217940D01*
X108421Y138505D02*
Y145395D01*
X104681D02*
X108421D01*
X104681Y138505D02*
Y145395D01*
Y138505D02*
X108421D01*
X108145Y62046D02*
Y68935D01*
X104405D02*
X108145D01*
X104405Y62046D02*
Y68935D01*
Y62046D02*
X108145D01*
X94839Y286180D02*
Y290314D01*
X97004D01*
Y286180D02*
Y290314D01*
X94839Y286180D02*
X97004D01*
X94929Y213729D02*
X97094D01*
Y217863D01*
X94929D02*
X97094D01*
X94929Y213729D02*
Y217863D01*
X94967Y141184D02*
Y145317D01*
X97133D01*
Y141184D02*
Y145317D01*
X94967Y141184D02*
X97133D01*
X94888Y64921D02*
Y69055D01*
X97054D01*
Y64921D02*
Y69055D01*
X94888Y64921D02*
X97054D01*
X74904Y283543D02*
Y290433D01*
X71163D02*
X74904D01*
X71163Y283543D02*
Y290433D01*
Y283543D02*
X74904D01*
X71253Y211093D02*
X74993D01*
X71253D02*
Y217983D01*
X74993D01*
Y211093D02*
Y217983D01*
X75032Y138547D02*
Y145437D01*
X71292D02*
X75032D01*
X71292Y138547D02*
Y145437D01*
Y138547D02*
X75032D01*
X74756Y62088D02*
Y68978D01*
X71016D02*
X74756D01*
X71016Y62088D02*
Y68978D01*
Y62088D02*
X74756D01*
X82487Y286180D02*
Y290314D01*
X84653D01*
Y286180D02*
Y290314D01*
X82487Y286180D02*
X84653D01*
X82577Y213729D02*
X84742D01*
Y217863D01*
X82577D02*
X84742D01*
X82577Y213729D02*
Y217863D01*
X82616Y141184D02*
Y145317D01*
X84781D01*
Y141184D02*
Y145317D01*
X82616Y141184D02*
X84781D01*
X82537Y64921D02*
Y69055D01*
X84702D01*
Y64921D02*
Y69055D01*
X82537Y64921D02*
X84702D01*
X221587Y271612D02*
Y273778D01*
X217453Y271612D02*
X221587D01*
X217453D02*
Y273778D01*
X221587D01*
X217345Y201130D02*
X221479D01*
X217345Y198965D02*
Y201130D01*
Y198965D02*
X221479D01*
Y201130D01*
X217581Y128781D02*
X221715D01*
X217581Y126616D02*
Y128781D01*
Y126616D02*
X221715D01*
Y128781D01*
X221439Y50157D02*
Y52322D01*
X217305Y50157D02*
X221439D01*
X217305D02*
Y52322D01*
X221439D01*
X204252Y273021D02*
X206417D01*
X204252D02*
Y277155D01*
X206417D01*
Y273021D02*
Y277155D01*
X204341Y200570D02*
X206507D01*
X204341D02*
Y204704D01*
X206507D01*
Y200570D02*
Y204704D01*
X206545Y128025D02*
Y132159D01*
X204380D02*
X206545D01*
X204380Y128025D02*
Y132159D01*
Y128025D02*
X206545D01*
X204104Y51565D02*
X206270D01*
X204104D02*
Y55699D01*
X206270D01*
Y51565D02*
Y55699D01*
X206467Y324547D02*
Y326712D01*
X202333Y324547D02*
X206467D01*
X202333D02*
Y326712D01*
X206467D01*
X206557Y252096D02*
Y254261D01*
X202423Y252096D02*
X206557D01*
X202423D02*
Y254261D01*
X206557D01*
X202462Y181716D02*
X206596D01*
X202462Y179551D02*
Y181716D01*
Y179551D02*
X206596D01*
Y181716D01*
X206320Y103091D02*
Y105257D01*
X202186Y103091D02*
X206320D01*
X202186D02*
Y105257D01*
X206320D01*
X239871Y322996D02*
Y325162D01*
X235737Y322996D02*
X239871D01*
X235737D02*
Y325162D01*
X239871D01*
X239960Y250546D02*
Y252711D01*
X235826Y250546D02*
X239960D01*
X235826D02*
Y252711D01*
X239960D01*
X235865Y180166D02*
X239999D01*
X235865Y178000D02*
Y180166D01*
Y178000D02*
X239999D01*
Y180166D01*
X340519Y74630D02*
Y87229D01*
Y74630D02*
X347212D01*
Y87229D01*
X340519D02*
X347212D01*
X331562Y89689D02*
X337862D01*
X331562Y77091D02*
Y89689D01*
Y77091D02*
X337862D01*
Y89689D01*
X321694Y89876D02*
X327993D01*
X321694Y77277D02*
Y89876D01*
Y77277D02*
X327993D01*
Y89876D01*
X349404Y34562D02*
Y47160D01*
X343105D02*
X349404D01*
X343105Y34562D02*
Y47160D01*
Y34562D02*
X349404D01*
X339646D02*
Y47160D01*
X333347D02*
X339646D01*
X333347Y34562D02*
Y47160D01*
Y34562D02*
X339646D01*
X362399Y63679D02*
X374998D01*
Y73522D01*
X362399D02*
X374998D01*
X362399Y63679D02*
Y73522D01*
X362435Y50195D02*
X375034D01*
Y60037D01*
X362435D02*
X375034D01*
X362435Y50195D02*
Y60037D01*
X375091Y83740D02*
Y93582D01*
X362492Y83740D02*
X375091D01*
X362492D02*
Y93582D01*
X375091D01*
X366043Y76870D02*
X372933D01*
X366043D02*
Y80610D01*
X372933D01*
Y76870D02*
Y80610D01*
X357712Y57316D02*
Y64206D01*
X353972D02*
X357712D01*
X353972Y57316D02*
Y64206D01*
Y57316D02*
X357712D01*
Y84866D02*
Y91755D01*
X353972Y84866D02*
X357712D01*
X353972D02*
Y91755D01*
X357712D01*
X166261Y16825D02*
Y29424D01*
X156418D02*
X166261D01*
X156418Y16825D02*
Y29424D01*
Y16825D02*
X166261D01*
X268547Y16780D02*
X278389D01*
X268547D02*
Y29379D01*
X278389D01*
Y16780D02*
Y29379D01*
X153061Y16825D02*
Y29424D01*
X143218D02*
X153061D01*
X143218Y16825D02*
Y29424D01*
Y16825D02*
X153061D01*
X255346Y16780D02*
X265189D01*
X255346D02*
Y29379D01*
X265189D01*
Y16780D02*
Y29379D01*
X158095Y38700D02*
X164984D01*
Y34960D02*
Y38700D01*
X158095Y34960D02*
X164984D01*
X158095D02*
Y38700D01*
X270223Y34915D02*
Y38655D01*
Y34915D02*
X277113D01*
Y38655D01*
X270223D02*
X277113D01*
X199092Y19238D02*
Y31836D01*
X189250D02*
X199092D01*
X189250Y19238D02*
Y31836D01*
Y19238D02*
X199092D01*
X178469Y22285D02*
Y29175D01*
X182209D01*
Y22285D02*
Y29175D01*
X178469Y22285D02*
X182209D01*
X154640Y40883D02*
X167239D01*
Y47576D01*
X154640D02*
X167239D01*
X154640Y40883D02*
Y47576D01*
X169193Y18012D02*
Y28248D01*
Y18012D02*
X175886D01*
Y28248D01*
X169193D02*
X175886D01*
X169193Y18406D02*
X175886D01*
X169193Y18799D02*
X175886D01*
X169193Y19193D02*
X175886D01*
X169193Y19587D02*
X175886D01*
X169193Y19980D02*
X175886D01*
X169193Y20374D02*
X175886D01*
X169193Y20768D02*
X175886D01*
X169193Y21161D02*
X175886D01*
X281321Y21116D02*
X288014D01*
X281321Y20723D02*
X288014D01*
X281321Y20329D02*
X288014D01*
X281321Y19935D02*
X288014D01*
X281321Y19542D02*
X288014D01*
X281321Y19148D02*
X288014D01*
X281321Y18754D02*
X288014D01*
X281321Y18361D02*
X288014D01*
X281321Y28203D02*
X288014D01*
Y17967D02*
Y28203D01*
X281321Y17967D02*
X288014D01*
X281321D02*
Y28203D01*
X110421Y293890D02*
X122231D01*
X110421D02*
Y305701D01*
X122231D01*
Y293890D02*
Y305701D01*
X121050Y293890D02*
X122231Y295071D01*
X121050Y293890D02*
X122231Y295071D01*
X121444Y293890D02*
X122231Y294677D01*
X121838Y293890D02*
X122231Y294284D01*
X120657Y293890D02*
X122231Y295465D01*
X110510Y221439D02*
X122321D01*
X110510D02*
Y233250D01*
X122321D01*
Y221439D02*
Y233250D01*
X121140Y221439D02*
X122321Y222620D01*
X121140Y221439D02*
X122321Y222620D01*
X121534Y221439D02*
X122321Y222227D01*
X121927Y221439D02*
X122321Y221833D01*
X120746Y221439D02*
X122321Y223014D01*
X110549Y148894D02*
X122360D01*
X110549D02*
Y160705D01*
X122360D01*
Y148894D02*
Y160705D01*
X121179Y148894D02*
X122360Y150075D01*
X121179Y148894D02*
X122360Y150075D01*
X121572Y148894D02*
X122360Y149681D01*
X121966Y148894D02*
X122360Y149287D01*
X120785Y148894D02*
X122360Y150469D01*
X290880Y281804D02*
X306234D01*
Y321174D01*
X290880D02*
X306234D01*
X290880Y281804D02*
Y321174D01*
X290772Y209353D02*
Y248724D01*
X306127D01*
Y209353D02*
Y248724D01*
X290772Y209353D02*
X306127D01*
X290811Y136808D02*
Y176178D01*
X306165D01*
Y136808D02*
Y176178D01*
X290811Y136808D02*
X306165D01*
X91741Y308001D02*
X95678Y304064D01*
X92135Y308001D02*
X95678Y304457D01*
X92528Y308001D02*
X95678Y304851D01*
X92922Y308001D02*
X95678Y305245D01*
X93316Y308001D02*
X95678Y305639D01*
X93709Y308001D02*
X95678Y306032D01*
X94103Y308001D02*
X95678Y306426D01*
X94497Y308001D02*
X95678Y306820D01*
X94890Y308001D02*
X95678Y307213D01*
X95284Y308001D02*
X95678Y307607D01*
X83867Y296190D02*
Y308001D01*
Y296190D02*
X95678D01*
Y308001D01*
X83867D02*
X95678D01*
X83956Y235550D02*
X95767D01*
Y223739D02*
Y235550D01*
X83956Y223739D02*
X95767D01*
X83956D02*
Y235550D01*
X95374D02*
X95767Y235156D01*
X94980Y235550D02*
X95767Y234763D01*
X94586Y235550D02*
X95767Y234369D01*
X94193Y235550D02*
X95767Y233975D01*
X93799Y235550D02*
X95767Y233582D01*
X93405Y235550D02*
X95767Y233188D01*
X93011Y235550D02*
X95767Y232794D01*
X92618Y235550D02*
X95767Y232400D01*
X92224Y235550D02*
X95767Y232007D01*
X91830Y235550D02*
X95767Y231613D01*
X91869Y163005D02*
X95806Y159068D01*
X92263Y163005D02*
X95806Y159461D01*
X92657Y163005D02*
X95806Y159855D01*
X93050Y163005D02*
X95806Y160249D01*
X93444Y163005D02*
X95806Y160643D01*
X93838Y163005D02*
X95806Y161036D01*
X94231Y163005D02*
X95806Y161430D01*
X94625Y163005D02*
X95806Y161824D01*
X95019Y163005D02*
X95806Y162217D01*
X95413Y163005D02*
X95806Y162611D01*
X83995Y151194D02*
Y163005D01*
Y151194D02*
X95806D01*
Y163005D01*
X83995D02*
X95806D01*
X139739Y296143D02*
X143676Y300079D01*
X140132Y296143D02*
X143676Y299686D01*
X140526Y296143D02*
X143676Y299292D01*
X140920Y296143D02*
X143676Y298898D01*
X141313Y296143D02*
X143676Y298505D01*
X141707Y296143D02*
X143676Y298111D01*
X142101Y296143D02*
X143676Y297717D01*
X142494Y296143D02*
X143676Y297324D01*
X142888Y296143D02*
X143676Y296930D01*
X143282Y296143D02*
X143676Y296536D01*
X131865Y307954D02*
X143676D01*
X131865Y296143D02*
Y307954D01*
Y296143D02*
X143676D01*
Y307954D01*
X143765Y223692D02*
Y235503D01*
X131954Y223692D02*
X143765D01*
X131954D02*
Y235503D01*
X143765D01*
X143371Y223692D02*
X143765Y224085D01*
X142978Y223692D02*
X143765Y224479D01*
X142584Y223692D02*
X143765Y224873D01*
X142190Y223692D02*
X143765Y225267D01*
X141797Y223692D02*
X143765Y225660D01*
X141403Y223692D02*
X143765Y226054D01*
X141009Y223692D02*
X143765Y226448D01*
X140615Y223692D02*
X143765Y226841D01*
X140222Y223692D02*
X143765Y227235D01*
X139828Y223692D02*
X143765Y227629D01*
X139867Y151146D02*
X143804Y155084D01*
X140261Y151146D02*
X143804Y154690D01*
X140654Y151146D02*
X143804Y154296D01*
X141048Y151146D02*
X143804Y153902D01*
X141442Y151146D02*
X143804Y153509D01*
X141835Y151146D02*
X143804Y153115D01*
X142229Y151146D02*
X143804Y152721D01*
X142623Y151146D02*
X143804Y152328D01*
X143017Y151146D02*
X143804Y151934D01*
X143410Y151146D02*
X143804Y151540D01*
X131993Y162958D02*
X143804D01*
X131993Y151146D02*
Y162958D01*
Y151146D02*
X143804D01*
Y162958D01*
X151485Y296919D02*
Y305293D01*
X159859D01*
Y296919D02*
Y305293D01*
X151485Y296919D02*
X159859D01*
X155922D02*
X159859Y300855D01*
X156315Y296919D02*
X159859Y300462D01*
X156709Y296919D02*
X159859Y300068D01*
X157103Y296919D02*
X159859Y299674D01*
X157497Y296919D02*
X159859Y299281D01*
X157890Y296919D02*
X159859Y298887D01*
X158284Y296919D02*
X159859Y298493D01*
X158678Y296919D02*
X159859Y298100D01*
X159071Y296919D02*
X159859Y297706D01*
X159465Y296919D02*
X159859Y297312D01*
X151574Y224468D02*
Y232842D01*
X159948D01*
Y224468D02*
Y232842D01*
X151574Y224468D02*
X159948D01*
X156011D02*
X159948Y228405D01*
X156405Y224468D02*
X159948Y228011D01*
X156799Y224468D02*
X159948Y227617D01*
X157192Y224468D02*
X159948Y227224D01*
X157586Y224468D02*
X159948Y226830D01*
X157980Y224468D02*
X159948Y226436D01*
X158373Y224468D02*
X159948Y226043D01*
X158767Y224468D02*
X159948Y225649D01*
X159161Y224468D02*
X159948Y225255D01*
X159555Y224468D02*
X159948Y224862D01*
X151613Y151923D02*
Y160296D01*
X159987D01*
Y151923D02*
Y160296D01*
X151613Y151923D02*
X159987D01*
X156050D02*
X159987Y155859D01*
X156444Y151923D02*
X159987Y155466D01*
X156837Y151923D02*
X159987Y155072D01*
X157231Y151923D02*
X159987Y154678D01*
X157625Y151923D02*
X159987Y154285D01*
X158019Y151923D02*
X159987Y153891D01*
X158412Y151923D02*
X159987Y153497D01*
X158806Y151923D02*
X159987Y153103D01*
X159200Y151923D02*
X159987Y152710D01*
X159593Y151923D02*
X159987Y152316D01*
X159514Y75660D02*
X159908Y76054D01*
X159121Y75660D02*
X159908Y76447D01*
X158727Y75660D02*
X159908Y76841D01*
X158333Y75660D02*
X159908Y77235D01*
X157940Y75660D02*
X159908Y77628D01*
X157546Y75660D02*
X159908Y78022D01*
X157152Y75660D02*
X159908Y78416D01*
X156758Y75660D02*
X159908Y78809D01*
X156365Y75660D02*
X159908Y79203D01*
X155971Y75660D02*
X159908Y79597D01*
X151534Y75660D02*
X159908D01*
Y84034D01*
X151534D02*
X159908D01*
X151534Y75660D02*
Y84034D01*
X67192Y296884D02*
Y305258D01*
X75566D01*
Y296884D02*
Y305258D01*
X67192Y296884D02*
X75566D01*
X71629D02*
X75566Y300821D01*
X72022Y296884D02*
X75566Y300427D01*
X72416Y296884D02*
X75566Y300033D01*
X72810Y296884D02*
X75566Y299640D01*
X73203Y296884D02*
X75566Y299246D01*
X73597Y296884D02*
X75566Y298852D01*
X73991Y296884D02*
X75566Y298459D01*
X74385Y296884D02*
X75566Y298065D01*
X74778Y296884D02*
X75566Y297671D01*
X75172Y296884D02*
X75566Y297278D01*
X67281Y224433D02*
Y232807D01*
X75655D01*
Y224433D02*
Y232807D01*
X67281Y224433D02*
X75655D01*
X71718D02*
X75655Y228370D01*
X72112Y224433D02*
X75655Y227976D01*
X72506Y224433D02*
X75655Y227583D01*
X72899Y224433D02*
X75655Y227189D01*
X73293Y224433D02*
X75655Y226795D01*
X73687Y224433D02*
X75655Y226402D01*
X74080Y224433D02*
X75655Y226008D01*
X74474Y224433D02*
X75655Y225614D01*
X74868Y224433D02*
X75655Y225221D01*
X75261Y224433D02*
X75655Y224827D01*
X171134Y45385D02*
X182945D01*
X171134Y33574D02*
Y45385D01*
Y33574D02*
X182945D01*
Y45385D01*
X179008Y33574D02*
X182945Y37511D01*
X179402Y33574D02*
X182945Y37117D01*
X179795Y33574D02*
X182945Y36724D01*
X180189Y33574D02*
X182945Y36330D01*
X180583Y33574D02*
X182945Y35936D01*
X180976Y33574D02*
X182945Y35543D01*
X181370Y33574D02*
X182945Y35149D01*
X181764Y33574D02*
X182945Y34755D01*
X182158Y33574D02*
X182945Y34361D01*
X182551Y33574D02*
X182945Y33968D01*
X292621Y270383D02*
Y277273D01*
X296362D01*
Y270383D02*
Y277273D01*
X292621Y270383D02*
X296362D01*
X292711Y197933D02*
Y204822D01*
X296451D01*
Y197933D02*
Y204822D01*
X292711Y197933D02*
X296451D01*
X292750Y125387D02*
Y132277D01*
X296490D01*
Y125387D02*
Y132277D01*
X292750Y125387D02*
X296490D01*
X292474Y48928D02*
X296214D01*
Y55818D01*
X292474D02*
X296214D01*
X292474Y48928D02*
Y55818D01*
X146194Y278526D02*
Y282266D01*
X139304Y278526D02*
X146194D01*
X139304D02*
Y282266D01*
X146194D01*
X139394Y209815D02*
X146284D01*
X139394Y206075D02*
Y209815D01*
Y206075D02*
X146284D01*
Y209815D01*
X146322Y133530D02*
Y137270D01*
X139433Y133530D02*
X146322D01*
X139433D02*
Y137270D01*
X146322D01*
X146243Y57267D02*
Y61007D01*
X139354Y57267D02*
X146243D01*
X139354D02*
Y61007D01*
X146243D01*
X98752Y283544D02*
X102492D01*
Y290434D01*
X98752D02*
X102492D01*
X98752Y283544D02*
Y290434D01*
X98842Y211093D02*
Y217983D01*
X102582D01*
Y211093D02*
Y217983D01*
X98842Y211093D02*
X102582D01*
X98880Y138548D02*
X102621D01*
Y145437D01*
X98880D02*
X102621D01*
X98880Y138548D02*
Y145437D01*
X98605Y62088D02*
X102345D01*
Y68978D01*
X98605D02*
X102345D01*
X98605Y62088D02*
Y68978D01*
X77063Y283544D02*
X80803D01*
Y290434D01*
X77063D02*
X80803D01*
X77063Y283544D02*
Y290434D01*
X77153Y211093D02*
Y217983D01*
X80893D01*
Y211093D02*
Y217983D01*
X77153Y211093D02*
X80893D01*
X77192Y138548D02*
X80932D01*
Y145437D01*
X77192D02*
X80932D01*
X77192Y138548D02*
Y145437D01*
X76916Y62088D02*
X80656D01*
Y68978D01*
X76916D02*
X80656D01*
X76916Y62088D02*
Y68978D01*
X362106Y108170D02*
Y116044D01*
Y108170D02*
X367027D01*
X362106Y116044D02*
X367027D01*
Y108170D02*
Y116044D01*
X104596Y278657D02*
X108336D01*
Y271767D02*
Y278657D01*
X104596Y271767D02*
X108336D01*
X104596D02*
Y278657D01*
X104686Y199317D02*
Y206206D01*
Y199317D02*
X108426D01*
Y206206D01*
X104686D02*
X108426D01*
X104725Y133661D02*
X108465D01*
Y126771D02*
Y133661D01*
X104725Y126771D02*
X108465D01*
X104725D02*
Y133661D01*
X146063Y34548D02*
Y42422D01*
Y34548D02*
X150984D01*
X146063Y42422D02*
X150984D01*
Y34548D02*
Y42422D01*
X257807Y34612D02*
Y42486D01*
Y34612D02*
X262728D01*
X257807Y42486D02*
X262728D01*
Y34612D02*
Y42486D01*
X202380Y23427D02*
Y31301D01*
Y23427D02*
X207302D01*
X202380Y31301D02*
X207302D01*
Y23427D02*
Y31301D01*
X163658Y318145D02*
Y322082D01*
X165627D01*
Y318145D02*
Y322082D01*
X163658Y318145D02*
X165627D01*
X163748Y245694D02*
Y249632D01*
X165717D01*
Y245694D02*
Y249632D01*
X163748Y245694D02*
X165717D01*
X163787Y173149D02*
X165755D01*
Y177086D01*
X163787D02*
X165755D01*
X163787Y173149D02*
Y177086D01*
X163511Y96690D02*
Y100627D01*
X165479D01*
Y96690D02*
Y100627D01*
X163511Y96690D02*
X165479D01*
X213040Y280843D02*
Y284780D01*
X215008D01*
Y280843D02*
Y284780D01*
X213040Y280843D02*
X215008D01*
X213129Y208393D02*
Y212330D01*
X215098D01*
Y208393D02*
Y212330D01*
X213129Y208393D02*
X215098D01*
X213168Y135847D02*
X215137D01*
Y139784D01*
X213168D02*
X215137D01*
X213168Y135847D02*
Y139784D01*
X212892Y59388D02*
Y63325D01*
X214861D01*
Y59388D02*
Y63325D01*
X212892Y59388D02*
X214861D01*
X212968Y321810D02*
Y325747D01*
X214937D01*
Y321810D02*
Y325747D01*
X212968Y321810D02*
X214937D01*
X213058Y249359D02*
Y253296D01*
X215026D01*
Y249359D02*
Y253296D01*
X213058Y249359D02*
X215026D01*
X213097Y176814D02*
X215065D01*
Y180751D01*
X213097D02*
X215065D01*
X213097Y176814D02*
Y180751D01*
X212821Y100355D02*
Y104292D01*
X214789D01*
Y100355D02*
Y104292D01*
X212821Y100355D02*
X214789D01*
X174974Y315080D02*
X178911D01*
X174974D02*
Y317048D01*
X178911D01*
Y315080D02*
Y317048D01*
X175064Y242629D02*
X179001D01*
X175064D02*
Y244598D01*
X179001D01*
Y242629D02*
Y244598D01*
X179040Y170084D02*
Y172052D01*
X175103D02*
X179040D01*
X175103Y170084D02*
Y172052D01*
Y170084D02*
X179040D01*
X174827Y93625D02*
X178764D01*
X174827D02*
Y95593D01*
X178764D01*
Y93625D02*
Y95593D01*
X224416Y277920D02*
X228353D01*
X224416D02*
Y279888D01*
X228353D01*
Y277920D02*
Y279888D01*
X224505Y205469D02*
X228443D01*
X224505D02*
Y207437D01*
X228443D01*
Y205469D02*
Y207437D01*
X228481Y132924D02*
Y134892D01*
X224544D02*
X228481D01*
X224544Y132924D02*
Y134892D01*
Y132924D02*
X228481D01*
X224269Y56464D02*
X228205D01*
X224269D02*
Y58433D01*
X228205D01*
Y56464D02*
Y58433D01*
X224384Y318794D02*
X228321D01*
X224384D02*
Y320763D01*
X228321D01*
Y318794D02*
Y320763D01*
X224474Y246344D02*
X228411D01*
X224474D02*
Y248312D01*
X228411D01*
Y246344D02*
Y248312D01*
X228450Y173798D02*
Y175767D01*
X224513D02*
X228450D01*
X224513Y173798D02*
Y175767D01*
Y173798D02*
X228450D01*
X224237Y97339D02*
X228174D01*
X224237D02*
Y99308D01*
X228174D01*
Y97339D02*
Y99308D01*
X182529Y311613D02*
Y315550D01*
X184498D01*
Y311613D02*
Y315550D01*
X182529Y311613D02*
X184498D01*
X182619Y239162D02*
Y243099D01*
X184587D01*
Y239162D02*
Y243099D01*
X182619Y239162D02*
X184587D01*
X182461Y166420D02*
X184429D01*
Y170357D01*
X182461D02*
X184429D01*
X182461Y166420D02*
Y170357D01*
X182382Y90158D02*
Y94095D01*
X184350D01*
Y90158D02*
Y94095D01*
X182382Y90158D02*
X184350D01*
X232216Y279888D02*
X236153D01*
Y277920D02*
Y279888D01*
X232216Y277920D02*
X236153D01*
X232216D02*
Y279888D01*
X232306Y207437D02*
X236243D01*
Y205469D02*
Y207437D01*
X232306Y205469D02*
X236243D01*
X232306D02*
Y207437D01*
X232344Y132924D02*
Y134892D01*
Y132924D02*
X236281D01*
Y134892D01*
X232344D02*
X236281D01*
X232068Y58433D02*
X236005D01*
Y56464D02*
Y58433D01*
X232068Y56464D02*
X236005D01*
X232068D02*
Y58433D01*
X232185Y320763D02*
X236122D01*
Y318794D02*
Y320763D01*
X232185Y318794D02*
X236122D01*
X232185D02*
Y320763D01*
X232275Y248312D02*
X236211D01*
Y246344D02*
Y248312D01*
X232275Y246344D02*
X236211D01*
X232275D02*
Y248312D01*
X232313Y173798D02*
Y175767D01*
Y173798D02*
X236250D01*
Y175767D01*
X232313D02*
X236250D01*
X232037Y99308D02*
X235975D01*
Y97339D02*
Y99308D01*
X232037Y97339D02*
X235975D01*
X232037D02*
Y99308D01*
X174951Y312696D02*
X178888D01*
Y310727D02*
Y312696D01*
X174951Y310727D02*
X178888D01*
X174951D02*
Y312696D01*
X175040Y240245D02*
X178977D01*
Y238276D02*
Y240245D01*
X175040Y238276D02*
X178977D01*
X175040D02*
Y240245D01*
X175079Y165731D02*
Y167700D01*
Y165731D02*
X179016D01*
Y167700D01*
X175079D02*
X179016D01*
X174803Y91240D02*
X178740D01*
Y89272D02*
Y91240D01*
X174803Y89272D02*
X178740D01*
X174803D02*
Y91240D01*
X228116Y273639D02*
X232053D01*
X228116D02*
Y275607D01*
X232053D01*
Y273639D02*
Y275607D01*
X228205Y201188D02*
X232142D01*
X228205D02*
Y203156D01*
X232142D01*
Y201188D02*
Y203156D01*
X232181Y128643D02*
Y130611D01*
X228244D02*
X232181D01*
X228244Y128643D02*
Y130611D01*
Y128643D02*
X232181D01*
X227969Y52183D02*
X231906D01*
X227969D02*
Y54152D01*
X231906D01*
Y52183D02*
Y54152D01*
X224365Y316379D02*
X228302D01*
Y314411D02*
Y316379D01*
X224365Y314411D02*
X228302D01*
X224365D02*
Y316379D01*
X224455Y243929D02*
X228392D01*
Y241960D02*
Y243929D01*
X224455Y241960D02*
X228392D01*
X224455D02*
Y243929D01*
X224494Y169415D02*
Y171383D01*
Y169415D02*
X228431D01*
Y171383D01*
X224494D02*
X228431D01*
X224218Y94924D02*
X228155D01*
Y92955D02*
Y94924D01*
X224218Y92955D02*
X228155D01*
X224218D02*
Y94924D01*
X182745Y320356D02*
Y324293D01*
X180776Y320356D02*
X182745D01*
X180776D02*
Y324293D01*
X182745D01*
X182834Y247906D02*
Y251843D01*
X180866Y247906D02*
X182834D01*
X180866D02*
Y251843D01*
X182834D01*
X180904Y179297D02*
X182873D01*
X180904Y175360D02*
Y179297D01*
Y175360D02*
X182873D01*
Y179297D01*
X182597Y98901D02*
Y102838D01*
X180629Y98901D02*
X182597D01*
X180629D02*
Y102838D01*
X182597D01*
X228516Y282120D02*
X232453D01*
X228516D02*
Y284088D01*
X232453D01*
Y282120D02*
Y284088D01*
X228606Y209669D02*
X232542D01*
X228606D02*
Y211637D01*
X232542D01*
Y209669D02*
Y211637D01*
X232581Y137124D02*
Y139092D01*
X228644D02*
X232581D01*
X228644Y137124D02*
Y139092D01*
Y137124D02*
X232581D01*
X228368Y60664D02*
X232306D01*
X228368D02*
Y62633D01*
X232306D01*
Y60664D02*
Y62633D01*
X228484Y323095D02*
X232421D01*
X228484D02*
Y325063D01*
X232421D01*
Y323095D02*
Y325063D01*
X228574Y250644D02*
X232511D01*
X228574D02*
Y252612D01*
X232511D01*
Y250644D02*
Y252612D01*
X232550Y178098D02*
Y180067D01*
X228613D02*
X232550D01*
X228613Y178098D02*
Y180067D01*
Y178098D02*
X232550D01*
X228337Y101639D02*
X232274D01*
X228337D02*
Y103608D01*
X232274D01*
Y101639D02*
Y103608D01*
X160774Y327098D02*
X164711D01*
Y325130D02*
Y327098D01*
X160774Y325130D02*
X164711D01*
X160774D02*
Y327098D01*
X160864Y254647D02*
X164801D01*
Y252679D02*
Y254647D01*
X160864Y252679D02*
X164801D01*
X160864D02*
Y254647D01*
X160903Y180133D02*
Y182102D01*
Y180133D02*
X164840D01*
Y182102D01*
X160903D02*
X164840D01*
X160627Y105643D02*
X164564D01*
Y103674D02*
Y105643D01*
X160627Y103674D02*
X164564D01*
X160627D02*
Y105643D01*
X307287Y329537D02*
X311224D01*
X307287D02*
Y331505D01*
X311224D01*
Y329537D02*
Y331505D01*
X307376Y257086D02*
X311313D01*
X307376D02*
Y259054D01*
X311313D01*
Y257086D02*
Y259054D01*
X307415Y184540D02*
X311352D01*
X307415D02*
Y186509D01*
X311352D01*
Y184540D02*
Y186509D01*
X307139Y108081D02*
X311076D01*
X307139D02*
Y110049D01*
X311076D01*
Y108081D02*
Y110049D01*
X299314Y326682D02*
X303251D01*
X299314D02*
Y328651D01*
X303251D01*
Y326682D02*
Y328651D01*
X299404Y254231D02*
X303341D01*
X299404D02*
Y256200D01*
X303341D01*
Y254231D02*
Y256200D01*
X299443Y181686D02*
X303380D01*
X299443D02*
Y183655D01*
X303380D01*
Y181686D02*
Y183655D01*
X299167Y105227D02*
X303104D01*
X299167D02*
Y107195D01*
X303104D01*
Y105227D02*
Y107195D01*
X312503Y274221D02*
Y278158D01*
X310535Y274221D02*
X312503D01*
X310535D02*
Y278158D01*
X312503D01*
X312593Y201771D02*
Y205708D01*
X310624Y201771D02*
X312593D01*
X310624D02*
Y205708D01*
X312593D01*
X312632Y129225D02*
Y133162D01*
X310663Y129225D02*
X312632D01*
X310663D02*
Y133162D01*
X312632D01*
X312356Y52766D02*
Y56703D01*
X310387Y52766D02*
X312356D01*
X310387D02*
Y56703D01*
X312356D01*
X307287Y323926D02*
X311224D01*
X307287D02*
Y325895D01*
X311224D01*
Y323926D02*
Y325895D01*
X307376Y251476D02*
X311313D01*
X307376D02*
Y253444D01*
X311313D01*
Y251476D02*
Y253444D01*
X307415Y178930D02*
X311352D01*
X307415D02*
Y180899D01*
X311352D01*
Y178930D02*
Y180899D01*
X307139Y102471D02*
X311076D01*
X307139D02*
Y104439D01*
X311076D01*
Y102471D02*
Y104439D01*
X299314Y332292D02*
X303251D01*
X299314D02*
Y334261D01*
X303251D01*
Y332292D02*
Y334261D01*
X299404Y259842D02*
X303341D01*
X299404D02*
Y261810D01*
X303341D01*
Y259842D02*
Y261810D01*
X299443Y187296D02*
X303380D01*
X299443D02*
Y189265D01*
X303380D01*
Y187296D02*
Y189265D01*
X299167Y110837D02*
X303104D01*
X299167D02*
Y112805D01*
X303104D01*
Y110837D02*
Y112805D01*
X209549Y289838D02*
X213486D01*
Y287869D02*
Y289838D01*
X209549Y287869D02*
X213486D01*
X209549D02*
Y289838D01*
X209639Y217387D02*
X213576D01*
Y215419D02*
Y217387D01*
X209639Y215419D02*
X213576D01*
X209639D02*
Y217387D01*
X209677Y142873D02*
Y144842D01*
Y142873D02*
X213614D01*
Y144842D01*
X209677D02*
X213614D01*
X209401Y68382D02*
X213338D01*
Y66414D02*
Y68382D01*
X209401Y66414D02*
X213338D01*
X209401D02*
Y68382D01*
X90820Y286278D02*
X92789D01*
X90820D02*
Y290215D01*
X92789D01*
Y286278D02*
Y290215D01*
X92879Y213827D02*
Y217764D01*
X90910D02*
X92879D01*
X90910Y213827D02*
Y217764D01*
Y213827D02*
X92879D01*
X90949Y141282D02*
X92917D01*
X90949D02*
Y145219D01*
X92917D01*
Y141282D02*
Y145219D01*
X90870Y65019D02*
X92838D01*
X90870D02*
Y68956D01*
X92838D01*
Y65019D02*
Y68956D01*
X86703Y286278D02*
X88672D01*
X86703D02*
Y290215D01*
X88672D01*
Y286278D02*
Y290215D01*
X88761Y213827D02*
Y217764D01*
X86793D02*
X88761D01*
X86793Y213827D02*
Y217764D01*
Y213827D02*
X88761D01*
X86831Y141282D02*
X88800D01*
X86831D02*
Y145219D01*
X88800D01*
Y141282D02*
Y145219D01*
X86752Y65019D02*
X88721D01*
X86752D02*
Y68956D01*
X88721D01*
Y65019D02*
Y68956D01*
X210184Y330863D02*
X214121D01*
Y328894D02*
Y330863D01*
X210184Y328894D02*
X214121D01*
X210184D02*
Y330863D01*
X210274Y256444D02*
Y258412D01*
Y256444D02*
X214211D01*
Y258412D01*
X210274D02*
X214211D01*
X210313Y183898D02*
Y185867D01*
Y183898D02*
X214250D01*
Y185867D01*
X210313D02*
X214250D01*
X210037Y109408D02*
X213974D01*
Y107439D02*
Y109408D01*
X210037Y107439D02*
X213974D01*
X210037D02*
Y109408D01*
X161327Y318145D02*
Y322082D01*
X159358Y318145D02*
X161327D01*
X159358D02*
Y322082D01*
X161327D01*
X159448Y249632D02*
X161416D01*
X159448Y245694D02*
Y249632D01*
Y245694D02*
X161416D01*
Y249632D01*
X159487Y177086D02*
X161455D01*
X159487Y173149D02*
Y177086D01*
Y173149D02*
X161455D01*
Y177086D01*
X161179Y96690D02*
Y100627D01*
X159211Y96690D02*
X161179D01*
X159211D02*
Y100627D01*
X161179D01*
X210669Y280836D02*
Y284772D01*
X208700Y280836D02*
X210669D01*
X208700D02*
Y284772D01*
X210669D01*
X208790Y212322D02*
X210758D01*
X208790Y208385D02*
Y212322D01*
Y208385D02*
X210758D01*
Y212322D01*
X208829Y139776D02*
X210797D01*
X208829Y135839D02*
Y139776D01*
Y135839D02*
X210797D01*
Y139776D01*
X210521Y59380D02*
Y63317D01*
X208553Y59380D02*
X210521D01*
X208553D02*
Y63317D01*
X210521D01*
X210537Y321810D02*
Y325747D01*
X208569Y321810D02*
X210537D01*
X208569D02*
Y325747D01*
X210537D01*
X208658Y253296D02*
X210627D01*
X208658Y249359D02*
Y253296D01*
Y249359D02*
X210627D01*
Y253296D01*
X208697Y180751D02*
X210665D01*
X208697Y176814D02*
Y180751D01*
Y176814D02*
X210665D01*
Y180751D01*
X210389Y100355D02*
Y104292D01*
X208421Y100355D02*
X210389D01*
X208421D02*
Y104292D01*
X210389D01*
X152277Y327068D02*
X156214D01*
Y325100D02*
Y327068D01*
X152277Y325100D02*
X156214D01*
X152277D02*
Y327068D01*
X152367Y252649D02*
Y254617D01*
Y252649D02*
X156304D01*
Y254617D01*
X152367D02*
X156304D01*
X152406Y180104D02*
Y182072D01*
Y180104D02*
X156342D01*
Y182072D01*
X152406D02*
X156342D01*
X152130Y105613D02*
X156067D01*
Y103644D02*
Y105613D01*
X152130Y103644D02*
X156067D01*
X152130D02*
Y105613D01*
X204400Y280836D02*
Y284772D01*
X206369D01*
Y280836D02*
Y284772D01*
X204400Y280836D02*
X206369D01*
X204490Y208385D02*
X206458D01*
Y212322D01*
X204490D02*
X206458D01*
X204490Y208385D02*
Y212322D01*
X204529Y135839D02*
X206497D01*
Y139776D01*
X204529D02*
X206497D01*
X204529Y135839D02*
Y139776D01*
X204253Y59380D02*
Y63317D01*
X206221D01*
Y59380D02*
Y63317D01*
X204253Y59380D02*
X206221D01*
X202486Y330867D02*
X206423D01*
Y328899D02*
Y330867D01*
X202486Y328899D02*
X206423D01*
X202486D02*
Y330867D01*
X202575Y258416D02*
X206512D01*
Y256448D02*
Y258416D01*
X202575Y256448D02*
X206512D01*
X202575D02*
Y258416D01*
X202614Y183903D02*
Y185871D01*
Y183903D02*
X206551D01*
Y185871D01*
X202614D02*
X206551D01*
X202339Y109412D02*
X206276D01*
Y107443D02*
Y109412D01*
X202339Y107443D02*
X206276D01*
X202339D02*
Y109412D01*
X157972Y50571D02*
X164272D01*
Y53760D01*
X157972D02*
X164272D01*
X157972Y50571D02*
Y53760D01*
X367271Y72071D02*
X370460D01*
X367271Y65772D02*
Y72071D01*
Y65772D02*
X370460D01*
Y72071D01*
X367271Y59473D02*
X370460D01*
X367271Y53174D02*
Y59473D01*
Y53174D02*
X370460D01*
Y59473D01*
X270318Y49887D02*
X276617D01*
Y53076D01*
X270318D02*
X276617D01*
X270318Y49887D02*
Y53076D01*
X198206Y43057D02*
Y45025D01*
X194269Y43057D02*
X198206D01*
X194269D02*
Y45025D01*
X198206D01*
X310710Y44950D02*
X314647D01*
X310710Y42981D02*
Y44950D01*
Y42981D02*
X314647D01*
Y44950D01*
X189151Y43848D02*
X191120D01*
X189151D02*
Y47785D01*
X191120D01*
Y43848D02*
Y47785D01*
X307561Y43773D02*
Y47710D01*
X305592D02*
X307561D01*
X305592Y43773D02*
Y47710D01*
Y43773D02*
X307561D01*
X191218Y35970D02*
X193187D01*
X191218D02*
Y39907D01*
X193187D01*
Y35970D02*
Y39907D01*
X305315Y35925D02*
Y39862D01*
X303346D02*
X305315D01*
X303346Y35925D02*
Y39862D01*
Y35925D02*
X305315D01*
X181961Y52741D02*
X183929D01*
Y48804D02*
Y52741D01*
X181961Y48804D02*
X183929D01*
X181961D02*
Y52741D01*
X287992Y46457D02*
Y50394D01*
Y46457D02*
X289961D01*
Y50394D01*
X287992D02*
X289961D01*
X416385Y98814D02*
X418353D01*
X416385D02*
Y102751D01*
X418353D01*
Y98814D02*
Y102751D01*
X164380Y315193D02*
X168317D01*
Y313224D02*
Y315193D01*
X164380Y313224D02*
X168317D01*
X164380D02*
Y315193D01*
X164470Y240773D02*
Y242742D01*
Y240773D02*
X168407D01*
Y242742D01*
X164470D02*
X168407D01*
X164508Y168228D02*
Y170196D01*
Y168228D02*
X168446D01*
Y170196D01*
X164508D02*
X168446D01*
X164233Y93737D02*
X168170D01*
Y91769D02*
Y93737D01*
X164233Y91769D02*
X168170D01*
X164233D02*
Y93737D01*
X214016Y277888D02*
X217953D01*
Y275920D02*
Y277888D01*
X214016Y275920D02*
X217953D01*
X214016D02*
Y277888D01*
X214106Y203469D02*
Y205437D01*
Y203469D02*
X218042D01*
Y205437D01*
X214106D02*
X218042D01*
X214144Y130924D02*
Y132892D01*
Y130924D02*
X218081D01*
Y132892D01*
X214144D02*
X218081D01*
X213868Y56433D02*
X217806D01*
Y54464D02*
Y56433D01*
X213868Y54464D02*
X217806D01*
X213868D02*
Y56433D01*
X213784Y318763D02*
X217721D01*
Y316794D02*
Y318763D01*
X213784Y316794D02*
X217721D01*
X213784D02*
Y318763D01*
X213874Y244344D02*
Y246312D01*
Y244344D02*
X217811D01*
Y246312D01*
X213874D02*
X217811D01*
X213913Y171798D02*
Y173767D01*
Y171798D02*
X217850D01*
Y173767D01*
X213913D02*
X217850D01*
X213637Y97308D02*
X217574D01*
Y95339D02*
Y97308D01*
X213637Y95339D02*
X217574D01*
X213637D02*
Y97308D01*
X187057Y320373D02*
Y324310D01*
X185089Y320373D02*
X187057D01*
X185089D02*
Y324310D01*
X187057D01*
X185178Y251859D02*
X187146D01*
X185178Y247922D02*
Y251859D01*
Y247922D02*
X187146D01*
Y251859D01*
X185217Y179314D02*
X187185D01*
X185217Y175377D02*
Y179314D01*
Y175377D02*
X187185D01*
Y179314D01*
X186909Y98917D02*
Y102854D01*
X184941Y98917D02*
X186909D01*
X184941D02*
Y102854D01*
X186909D01*
X232316Y288207D02*
X236253D01*
Y286239D02*
Y288207D01*
X232316Y286239D02*
X236253D01*
X232316D02*
Y288207D01*
X232405Y213788D02*
Y215756D01*
Y213788D02*
X236343D01*
Y215756D01*
X232405D02*
X236343D01*
X232444Y141243D02*
Y143211D01*
Y141243D02*
X236381D01*
Y143211D01*
X232444D02*
X236381D01*
X232169Y66752D02*
X236105D01*
Y64783D02*
Y66752D01*
X232169Y64783D02*
X236105D01*
X232169D02*
Y66752D01*
X232284Y329263D02*
X236221D01*
Y327294D02*
Y329263D01*
X232284Y327294D02*
X236221D01*
X232284D02*
Y329263D01*
X232374Y254844D02*
Y256812D01*
Y254844D02*
X236311D01*
Y256812D01*
X232374D02*
X236311D01*
X232413Y182298D02*
Y184267D01*
Y182298D02*
X236350D01*
Y184267D01*
X232413D02*
X236350D01*
X232137Y107808D02*
X236074D01*
Y105839D02*
Y107808D01*
X232137Y105839D02*
X236074D01*
X232137D02*
Y107808D01*
X358845Y131937D02*
Y135874D01*
X356876D02*
X358845D01*
X356876Y131937D02*
Y135874D01*
Y131937D02*
X358845D01*
X357743Y139716D02*
X361680D01*
Y141684D01*
X357743D02*
X361680D01*
X357743Y139716D02*
Y141684D01*
X352631Y122984D02*
X356569D01*
X352631Y121016D02*
Y122984D01*
Y121016D02*
X356569D01*
Y122984D01*
X352559Y156595D02*
X358858D01*
X352559Y153405D02*
Y156595D01*
Y153405D02*
X358858D01*
Y156595D01*
X169873Y319905D02*
X170266Y319511D01*
X169873Y320299D02*
X170660Y319511D01*
X169873Y320692D02*
X171054Y319511D01*
X169873Y321086D02*
X171448Y319511D01*
X169873Y321480D02*
X171841Y319511D01*
X169873Y321874D02*
X172235Y319511D01*
X169873Y322267D02*
X172629Y319511D01*
X169873Y322661D02*
X173022Y319511D01*
X169873Y323055D02*
X173416Y319511D01*
X169873Y323448D02*
X173810Y319511D01*
X169873Y325811D02*
X174597D01*
Y319511D02*
Y325811D01*
X169873Y319511D02*
X174597D01*
X169873D02*
Y325811D01*
X169962Y247061D02*
Y253360D01*
Y247061D02*
X174687D01*
Y253360D01*
X169962D02*
X174687D01*
X169962Y250998D02*
X173899Y247061D01*
X169962Y250604D02*
X173505Y247061D01*
X169962Y250210D02*
X173112Y247061D01*
X169962Y249817D02*
X172718Y247061D01*
X169962Y249423D02*
X172324Y247061D01*
X169962Y249029D02*
X171931Y247061D01*
X169962Y248636D02*
X171537Y247061D01*
X169962Y248242D02*
X171143Y247061D01*
X169962Y247848D02*
X170750Y247061D01*
X169962Y247454D02*
X170356Y247061D01*
X170001Y174909D02*
X170395Y174515D01*
X170001Y175303D02*
X170788Y174515D01*
X170001Y175696D02*
X171182Y174515D01*
X170001Y176090D02*
X171576Y174515D01*
X170001Y176484D02*
X171969Y174515D01*
X170001Y176877D02*
X172363Y174515D01*
X170001Y177271D02*
X172757Y174515D01*
X170001Y177665D02*
X173151Y174515D01*
X170001Y178059D02*
X173544Y174515D01*
X170001Y178452D02*
X173938Y174515D01*
X170001Y180815D02*
X174725D01*
Y174515D02*
Y180815D01*
X170001Y174515D02*
X174725D01*
X170001D02*
Y180815D01*
X169922Y98646D02*
X170316Y98253D01*
X169922Y99040D02*
X170709Y98253D01*
X169922Y99434D02*
X171103Y98253D01*
X169922Y99828D02*
X171497Y98253D01*
X169922Y100221D02*
X171890Y98253D01*
X169922Y100615D02*
X172284Y98253D01*
X169922Y101009D02*
X172678Y98253D01*
X169922Y101402D02*
X173072Y98253D01*
X169922Y101796D02*
X173465Y98253D01*
X169922Y102190D02*
X173859Y98253D01*
X169922Y104552D02*
X174646D01*
Y98253D02*
Y104552D01*
X169922Y98253D02*
X174646D01*
X169922D02*
Y104552D01*
X219214Y282695D02*
X219608Y282302D01*
X219214Y283089D02*
X220002Y282302D01*
X219214Y283483D02*
X220395Y282302D01*
X219214Y283876D02*
X220789Y282302D01*
X219214Y284270D02*
X221183Y282302D01*
X219214Y284664D02*
X221577Y282302D01*
X219214Y285057D02*
X221970Y282302D01*
X219214Y285451D02*
X222364Y282302D01*
X219214Y285845D02*
X222758Y282302D01*
X219214Y286239D02*
X223151Y282302D01*
X219214Y288601D02*
X223939D01*
Y282302D02*
Y288601D01*
X219214Y282302D02*
X223939D01*
X219214D02*
Y288601D01*
X219304Y209851D02*
Y216150D01*
Y209851D02*
X224028D01*
Y216150D01*
X219304D02*
X224028D01*
X219304Y213788D02*
X223241Y209851D01*
X219304Y213394D02*
X222847Y209851D01*
X219304Y213000D02*
X222453Y209851D01*
X219304Y212607D02*
X222060Y209851D01*
X219304Y212213D02*
X221666Y209851D01*
X219304Y211819D02*
X221272Y209851D01*
X219304Y211426D02*
X220879Y209851D01*
X219304Y211032D02*
X220485Y209851D01*
X219304Y210638D02*
X220091Y209851D01*
X219304Y210245D02*
X219698Y209851D01*
X219343Y137699D02*
X219737Y137306D01*
X219343Y138093D02*
X220130Y137306D01*
X219343Y138487D02*
X220524Y137306D01*
X219343Y138880D02*
X220918Y137306D01*
X219343Y139274D02*
X221311Y137306D01*
X219343Y139668D02*
X221705Y137306D01*
X219343Y140061D02*
X222099Y137306D01*
X219343Y140455D02*
X222492Y137306D01*
X219343Y140849D02*
X222886Y137306D01*
X219343Y141243D02*
X223280Y137306D01*
X219343Y143605D02*
X224067D01*
Y137306D02*
Y143605D01*
X219343Y137306D02*
X224067D01*
X219343D02*
Y143605D01*
X219264Y61437D02*
X219657Y61043D01*
X219264Y61830D02*
X220051Y61043D01*
X219264Y62224D02*
X220445Y61043D01*
X219264Y62618D02*
X220838Y61043D01*
X219264Y63011D02*
X221232Y61043D01*
X219264Y63405D02*
X221626Y61043D01*
X219264Y63799D02*
X222020Y61043D01*
X219264Y64193D02*
X222413Y61043D01*
X219264Y64586D02*
X222807Y61043D01*
X219264Y64980D02*
X223201Y61043D01*
X219264Y67342D02*
X223988D01*
Y61043D02*
Y67342D01*
X219264Y61043D02*
X223988D01*
X219264D02*
Y67342D01*
X219183Y323620D02*
X219576Y323226D01*
X219183Y324013D02*
X219970Y323226D01*
X219183Y324407D02*
X220364Y323226D01*
X219183Y324801D02*
X220758Y323226D01*
X219183Y325195D02*
X221151Y323226D01*
X219183Y325588D02*
X221545Y323226D01*
X219183Y325982D02*
X221939Y323226D01*
X219183Y326376D02*
X222332Y323226D01*
X219183Y326769D02*
X222726Y323226D01*
X219183Y327163D02*
X223120Y323226D01*
X219183Y329525D02*
X223907D01*
Y323226D02*
Y329525D01*
X219183Y323226D02*
X223907D01*
X219183D02*
Y329525D01*
X219272Y250775D02*
Y257074D01*
Y250775D02*
X223997D01*
Y257074D01*
X219272D02*
X223997D01*
X219272Y254712D02*
X223209Y250775D01*
X219272Y254319D02*
X222815Y250775D01*
X219272Y253925D02*
X222422Y250775D01*
X219272Y253531D02*
X222028Y250775D01*
X219272Y253137D02*
X221634Y250775D01*
X219272Y252744D02*
X221241Y250775D01*
X219272Y252350D02*
X220847Y250775D01*
X219272Y251956D02*
X220453Y250775D01*
X219272Y251563D02*
X220060Y250775D01*
X219272Y251169D02*
X219666Y250775D01*
X219311Y178624D02*
X219705Y178230D01*
X219311Y179017D02*
X220098Y178230D01*
X219311Y179411D02*
X220492Y178230D01*
X219311Y179805D02*
X220886Y178230D01*
X219311Y180198D02*
X221280Y178230D01*
X219311Y180592D02*
X221673Y178230D01*
X219311Y180986D02*
X222067Y178230D01*
X219311Y181379D02*
X222461Y178230D01*
X219311Y181773D02*
X222854Y178230D01*
X219311Y182167D02*
X223248Y178230D01*
X219311Y184529D02*
X224035D01*
Y178230D02*
Y184529D01*
X219311Y178230D02*
X224035D01*
X219311D02*
Y184529D01*
X94404Y30741D02*
Y37040D01*
X81805D02*
X94404D01*
X81805Y30741D02*
Y37040D01*
Y30741D02*
X94404D01*
X243831Y46872D02*
Y59471D01*
X250131D01*
Y46872D02*
Y59471D01*
X243831Y46872D02*
X250131D01*
X32099Y11950D02*
Y18250D01*
Y11950D02*
X44698D01*
Y18250D01*
X32099D02*
X44698D01*
X32101Y378350D02*
X44699D01*
Y372050D02*
Y378350D01*
X32101Y372050D02*
X44699D01*
X32101D02*
Y378350D01*
X130301Y363650D02*
Y369950D01*
Y363650D02*
X142899D01*
Y369950D01*
X130301D02*
X142899D01*
X120951Y276644D02*
Y282747D01*
X112093Y276644D02*
X120951D01*
X112093Y282747D02*
X120951D01*
X112093Y276644D02*
Y282747D01*
X120951Y276644D02*
Y282747D01*
X112093Y276644D02*
Y282747D01*
Y276644D02*
X120951D01*
X112093Y282747D02*
X120951D01*
X112182Y210296D02*
X121041D01*
X112182Y204193D02*
X121041D01*
X112182D02*
Y210296D01*
X121041Y204193D02*
Y210296D01*
X112182Y204193D02*
Y210296D01*
X121041D01*
X112182Y204193D02*
X121041D01*
Y210296D01*
X121080Y131648D02*
Y137750D01*
X112221Y131648D02*
X121080D01*
X112221Y137750D02*
X121080D01*
X112221Y131648D02*
Y137750D01*
X121080Y131648D02*
Y137750D01*
X112221Y131648D02*
Y137750D01*
Y131648D02*
X121080D01*
X112221Y137750D02*
X121080D01*
X94502Y23729D02*
Y26918D01*
X88203Y23729D02*
X94502D01*
X88203D02*
Y26918D01*
X94502D01*
X236820Y46774D02*
X240009D01*
X236820D02*
Y53073D01*
X240009D01*
Y46774D02*
Y53073D01*
X32001Y22005D02*
Y25194D01*
X38300D01*
Y22005D02*
Y25194D01*
X32001Y22005D02*
X38300D01*
X31950Y365005D02*
Y368195D01*
X38250D01*
Y365005D02*
Y368195D01*
X31950Y365005D02*
X38250D01*
X130202Y356705D02*
Y359894D01*
X136502D01*
Y356705D02*
Y359894D01*
X130202Y356705D02*
X136502D01*
M02*
