G04*
G04 #@! TF.GenerationSoftware,Altium Limited,Altium Designer,21.0.9 (235)*
G04*
G04 Layer_Color=255*
%FSLAX25Y25*%
%MOIN*%
G70*
G04*
G04 #@! TF.SameCoordinates,4626A756-FD0A-4D7F-A62D-B668EF0F2538*
G04*
G04*
G04 #@! TF.FilePolarity,Positive*
G04*
G01*
G75*
%ADD13R,0.02441X0.02284*%
%ADD24R,0.02284X0.02441*%
%ADD40R,0.03937X0.03740*%
%ADD45R,0.03937X0.03740*%
%ADD48R,0.02441X0.02441*%
%ADD49R,0.02441X0.02441*%
%ADD54R,0.03937X0.03543*%
%ADD111C,0.19685*%
%ADD112C,0.23622*%
%ADD113C,0.06299*%
%ADD115R,0.02244X0.01181*%
%ADD116R,0.06299X0.10236*%
%ADD117R,0.03347X0.01181*%
%ADD118R,0.06102X0.02362*%
%ADD119R,0.01968X0.01968*%
%ADD120R,0.05118X0.02126*%
D13*
X363300Y76671D02*
D03*
Y80372D02*
D03*
X264054Y102323D02*
D03*
Y106024D02*
D03*
X264173Y327284D02*
D03*
Y330984D02*
D03*
X265823Y254918D02*
D03*
Y258618D02*
D03*
X264628Y182284D02*
D03*
Y185985D02*
D03*
X164643Y318263D02*
D03*
Y321964D02*
D03*
X164732Y245813D02*
D03*
Y249513D02*
D03*
X164771Y176968D02*
D03*
Y173267D02*
D03*
X164495Y96808D02*
D03*
Y100509D02*
D03*
X214024Y280961D02*
D03*
Y284662D02*
D03*
X214113Y208511D02*
D03*
Y212212D02*
D03*
X214152Y139666D02*
D03*
Y135965D02*
D03*
X213876Y59506D02*
D03*
Y63207D02*
D03*
X213953Y325629D02*
D03*
Y321928D02*
D03*
X214042Y249478D02*
D03*
Y253178D02*
D03*
X214081Y180633D02*
D03*
Y176932D02*
D03*
X213805Y100473D02*
D03*
Y104174D02*
D03*
X183514Y311731D02*
D03*
Y315432D02*
D03*
X183603Y239280D02*
D03*
Y242981D02*
D03*
X183445Y170239D02*
D03*
Y166538D02*
D03*
X183366Y90276D02*
D03*
Y93976D02*
D03*
X181760Y324175D02*
D03*
Y320475D02*
D03*
X181850Y251725D02*
D03*
Y248024D02*
D03*
X181889Y175479D02*
D03*
Y179179D02*
D03*
X181613Y102720D02*
D03*
Y99019D02*
D03*
X311519Y278040D02*
D03*
Y274340D02*
D03*
X311609Y205590D02*
D03*
Y201889D02*
D03*
X311647Y133044D02*
D03*
Y129344D02*
D03*
X311371Y56585D02*
D03*
Y52884D02*
D03*
X160343Y321964D02*
D03*
Y318263D02*
D03*
X160432Y245813D02*
D03*
Y249513D02*
D03*
X160471Y173267D02*
D03*
Y176968D02*
D03*
X160195Y100509D02*
D03*
Y96808D02*
D03*
X209684Y284654D02*
D03*
Y280954D02*
D03*
X209774Y208503D02*
D03*
Y212204D02*
D03*
X209813Y135958D02*
D03*
Y139658D02*
D03*
X209537Y63199D02*
D03*
Y59498D02*
D03*
X209553Y325629D02*
D03*
Y321928D02*
D03*
X209642Y249478D02*
D03*
Y253178D02*
D03*
X209681Y176932D02*
D03*
Y180633D02*
D03*
X209405Y104174D02*
D03*
Y100473D02*
D03*
X205384Y280954D02*
D03*
Y284654D02*
D03*
X205474Y212204D02*
D03*
Y208503D02*
D03*
X205513Y139658D02*
D03*
Y135958D02*
D03*
X205237Y59498D02*
D03*
Y63199D02*
D03*
X186073Y324192D02*
D03*
Y320491D02*
D03*
X186162Y248040D02*
D03*
Y251741D02*
D03*
X186201Y175495D02*
D03*
Y179196D02*
D03*
X185925Y102736D02*
D03*
Y99035D02*
D03*
D24*
X206166Y43431D02*
D03*
X209867D02*
D03*
X299150Y40400D02*
D03*
X302850D02*
D03*
X178793Y316064D02*
D03*
X175092D02*
D03*
X178883Y243613D02*
D03*
X175182D02*
D03*
X175221Y171068D02*
D03*
X178921D02*
D03*
X178646Y94609D02*
D03*
X174945D02*
D03*
X228235Y278904D02*
D03*
X224534D02*
D03*
X228324Y206453D02*
D03*
X224624D02*
D03*
X224662Y133908D02*
D03*
X228363D02*
D03*
X228087Y57449D02*
D03*
X224387D02*
D03*
X228203Y319779D02*
D03*
X224502D02*
D03*
X228293Y247328D02*
D03*
X224592D02*
D03*
X224631Y174783D02*
D03*
X228331D02*
D03*
X228056Y98323D02*
D03*
X224355D02*
D03*
X232334Y278904D02*
D03*
X236035D02*
D03*
X232424Y206453D02*
D03*
X236124D02*
D03*
X236163Y133908D02*
D03*
X232462D02*
D03*
X232187Y57449D02*
D03*
X235887D02*
D03*
X232303Y319779D02*
D03*
X236004D02*
D03*
X232393Y247328D02*
D03*
X236093D02*
D03*
X236132Y174783D02*
D03*
X232432D02*
D03*
X232156Y98323D02*
D03*
X235856D02*
D03*
X175069Y311711D02*
D03*
X178770D02*
D03*
X175158Y239261D02*
D03*
X178859D02*
D03*
X178898Y166715D02*
D03*
X175197D02*
D03*
X174921Y90256D02*
D03*
X178622D02*
D03*
X231935Y274623D02*
D03*
X228234D02*
D03*
X232024Y202172D02*
D03*
X228324D02*
D03*
X228362Y129627D02*
D03*
X232063D02*
D03*
X231787Y53167D02*
D03*
X228087D02*
D03*
X224483Y315395D02*
D03*
X228184D02*
D03*
X224573Y242944D02*
D03*
X228274D02*
D03*
X228313Y170399D02*
D03*
X224612D02*
D03*
X224336Y93940D02*
D03*
X228037D02*
D03*
X232335Y283104D02*
D03*
X228634D02*
D03*
X232424Y210653D02*
D03*
X228724D02*
D03*
X228762Y138108D02*
D03*
X232463D02*
D03*
X232187Y61649D02*
D03*
X228487D02*
D03*
X232303Y324079D02*
D03*
X228602D02*
D03*
X232393Y251628D02*
D03*
X228692D02*
D03*
X228731Y179083D02*
D03*
X232432D02*
D03*
X232156Y102623D02*
D03*
X228455D02*
D03*
X160892Y326114D02*
D03*
X164593D02*
D03*
X160982Y253663D02*
D03*
X164683D02*
D03*
X164722Y181118D02*
D03*
X161021D02*
D03*
X160745Y104658D02*
D03*
X164446D02*
D03*
X311106Y330521D02*
D03*
X307405D02*
D03*
X311195Y258070D02*
D03*
X307494D02*
D03*
X311234Y185525D02*
D03*
X307533D02*
D03*
X310958Y109065D02*
D03*
X307257D02*
D03*
X303133Y327666D02*
D03*
X299432D02*
D03*
X303223Y255216D02*
D03*
X299522D02*
D03*
X303261Y182670D02*
D03*
X299561D02*
D03*
X302986Y106211D02*
D03*
X299285D02*
D03*
X311106Y324910D02*
D03*
X307405D02*
D03*
X311195Y252460D02*
D03*
X307494D02*
D03*
X311234Y179914D02*
D03*
X307533D02*
D03*
X310958Y103455D02*
D03*
X307257D02*
D03*
X303133Y333277D02*
D03*
X299432D02*
D03*
X303223Y260826D02*
D03*
X299522D02*
D03*
X303261Y188280D02*
D03*
X299561D02*
D03*
X302986Y111821D02*
D03*
X299285D02*
D03*
X209667Y288854D02*
D03*
X213368D02*
D03*
X209757Y216403D02*
D03*
X213457D02*
D03*
X213496Y143858D02*
D03*
X209796D02*
D03*
X209520Y67398D02*
D03*
X213220D02*
D03*
X210302Y329879D02*
D03*
X214003D02*
D03*
X214093Y257428D02*
D03*
X210392D02*
D03*
X214131Y184883D02*
D03*
X210431D02*
D03*
X210155Y108423D02*
D03*
X213856D02*
D03*
X152395Y326084D02*
D03*
X156096D02*
D03*
X156185Y253633D02*
D03*
X152485D02*
D03*
X156224Y181088D02*
D03*
X152524D02*
D03*
X152248Y104628D02*
D03*
X155948D02*
D03*
X202604Y329883D02*
D03*
X206305D02*
D03*
X202694Y257432D02*
D03*
X206394D02*
D03*
X206433Y184887D02*
D03*
X202732D02*
D03*
X202457Y108427D02*
D03*
X206157D02*
D03*
X164498Y314208D02*
D03*
X168199D02*
D03*
X168289Y241757D02*
D03*
X164588D02*
D03*
X168327Y169212D02*
D03*
X164627D02*
D03*
X164351Y92753D02*
D03*
X168052D02*
D03*
X214134Y276904D02*
D03*
X217835D02*
D03*
X217924Y204453D02*
D03*
X214224D02*
D03*
X217963Y131908D02*
D03*
X214262D02*
D03*
X213987Y55449D02*
D03*
X217687D02*
D03*
X213902Y317779D02*
D03*
X217603D02*
D03*
X217693Y245328D02*
D03*
X213992D02*
D03*
X217731Y172783D02*
D03*
X214031D02*
D03*
X213755Y96323D02*
D03*
X217456D02*
D03*
X232434Y287223D02*
D03*
X236135D02*
D03*
X236224Y214772D02*
D03*
X232524D02*
D03*
X236263Y142227D02*
D03*
X232562D02*
D03*
X232287Y65768D02*
D03*
X235987D02*
D03*
X232402Y328279D02*
D03*
X236103D02*
D03*
X236193Y255828D02*
D03*
X232492D02*
D03*
X236231Y183283D02*
D03*
X232531D02*
D03*
X232255Y106823D02*
D03*
X235956D02*
D03*
D40*
X301135Y49518D02*
D03*
Y55424D02*
D03*
X301283Y270973D02*
D03*
Y276879D02*
D03*
X301372Y198523D02*
D03*
Y204428D02*
D03*
X301411Y125977D02*
D03*
Y131883D02*
D03*
X294491Y270678D02*
D03*
Y276977D02*
D03*
X294581Y198228D02*
D03*
Y204527D02*
D03*
X294620Y125682D02*
D03*
Y131981D02*
D03*
X294344Y55522D02*
D03*
Y49223D02*
D03*
X100622Y290138D02*
D03*
Y283839D02*
D03*
X100712Y211388D02*
D03*
Y217687D02*
D03*
X100750Y145142D02*
D03*
Y138842D02*
D03*
X100475Y68682D02*
D03*
Y62383D02*
D03*
X78933Y290138D02*
D03*
Y283839D02*
D03*
X79023Y211388D02*
D03*
Y217687D02*
D03*
X79061Y145142D02*
D03*
Y138842D02*
D03*
X78786Y68682D02*
D03*
Y62383D02*
D03*
D45*
X106422Y290095D02*
D03*
Y283796D02*
D03*
X106511Y211345D02*
D03*
Y217645D02*
D03*
X106550Y145099D02*
D03*
Y138800D02*
D03*
X106274Y68640D02*
D03*
Y62341D02*
D03*
X73033Y290138D02*
D03*
Y283839D02*
D03*
X73123Y211388D02*
D03*
Y217687D02*
D03*
X73161Y145142D02*
D03*
Y138842D02*
D03*
X72886Y68682D02*
D03*
Y62383D02*
D03*
X355842Y63911D02*
D03*
Y57612D02*
D03*
D48*
X306991Y274418D02*
D03*
Y277962D02*
D03*
X307081Y201968D02*
D03*
Y205511D02*
D03*
X307120Y129422D02*
D03*
Y132966D02*
D03*
X306844Y52963D02*
D03*
Y56506D02*
D03*
X205334Y273316D02*
D03*
Y276859D02*
D03*
X205424Y200865D02*
D03*
Y204408D02*
D03*
X205463Y131863D02*
D03*
Y128320D02*
D03*
X205187Y51860D02*
D03*
Y55404D02*
D03*
D49*
X239428Y102623D02*
D03*
X235885D02*
D03*
X221292Y272695D02*
D03*
X217748D02*
D03*
X217641Y200047D02*
D03*
X221184D02*
D03*
X217877Y127699D02*
D03*
X221420D02*
D03*
X221144Y51239D02*
D03*
X217601D02*
D03*
X206172Y325629D02*
D03*
X202629D02*
D03*
X206262Y253178D02*
D03*
X202718D02*
D03*
X202757Y180633D02*
D03*
X206300D02*
D03*
X206025Y104174D02*
D03*
X202481D02*
D03*
X239576Y324079D02*
D03*
X236032D02*
D03*
X239665Y251628D02*
D03*
X236122D02*
D03*
X236161Y179083D02*
D03*
X239704D02*
D03*
D54*
X368865Y65772D02*
D03*
Y72071D02*
D03*
Y53174D02*
D03*
Y59473D02*
D03*
D111*
X14000Y21701D02*
D03*
Y371701D02*
D03*
D112*
X229921Y364567D02*
D03*
X111811Y29921D02*
D03*
X229921D02*
D03*
X111811Y364567D02*
D03*
D113*
X400846Y31854D02*
D03*
X390846D02*
D03*
X400846Y41854D02*
D03*
X390846D02*
D03*
X400846Y51854D02*
D03*
X390846D02*
D03*
Y111854D02*
D03*
X400846D02*
D03*
X390846Y121854D02*
D03*
X400846D02*
D03*
X390846Y131854D02*
D03*
X400846D02*
D03*
Y141854D02*
D03*
X390846D02*
D03*
X400846Y151854D02*
D03*
X390846D02*
D03*
Y61854D02*
D03*
X400846D02*
D03*
X390846Y71854D02*
D03*
X400846D02*
D03*
X390846Y81854D02*
D03*
X400846D02*
D03*
Y91854D02*
D03*
X390846D02*
D03*
X400846Y101854D02*
D03*
X390846D02*
D03*
D115*
X218484Y103148D02*
D03*
Y105117D02*
D03*
Y107086D02*
D03*
X224704D02*
D03*
Y105117D02*
D03*
Y103148D02*
D03*
X169125Y320692D02*
D03*
Y322661D02*
D03*
Y324629D02*
D03*
X175345D02*
D03*
Y322661D02*
D03*
Y320692D02*
D03*
X175435Y248242D02*
D03*
Y250210D02*
D03*
Y252179D02*
D03*
X169214D02*
D03*
Y250210D02*
D03*
Y248242D02*
D03*
X169253Y175696D02*
D03*
Y177665D02*
D03*
Y179633D02*
D03*
X175473D02*
D03*
Y177665D02*
D03*
Y175696D02*
D03*
X169174Y99434D02*
D03*
Y101402D02*
D03*
Y103371D02*
D03*
X175394D02*
D03*
Y101402D02*
D03*
Y99434D02*
D03*
X218466Y283483D02*
D03*
Y285451D02*
D03*
Y287420D02*
D03*
X224687D02*
D03*
Y285451D02*
D03*
Y283483D02*
D03*
X224776Y211032D02*
D03*
Y213000D02*
D03*
Y214969D02*
D03*
X218556D02*
D03*
Y213000D02*
D03*
Y211032D02*
D03*
X218595Y138487D02*
D03*
Y140455D02*
D03*
Y142424D02*
D03*
X224815D02*
D03*
Y140455D02*
D03*
Y138487D02*
D03*
X218516Y62224D02*
D03*
Y64193D02*
D03*
Y66161D02*
D03*
X224736D02*
D03*
Y64193D02*
D03*
Y62224D02*
D03*
X218435Y324407D02*
D03*
Y326376D02*
D03*
Y328344D02*
D03*
X224655D02*
D03*
Y326376D02*
D03*
Y324407D02*
D03*
X224745Y251956D02*
D03*
Y253925D02*
D03*
Y255893D02*
D03*
X218524D02*
D03*
Y253925D02*
D03*
Y251956D02*
D03*
X218563Y179411D02*
D03*
Y181379D02*
D03*
Y183348D02*
D03*
X224783D02*
D03*
Y181379D02*
D03*
Y179411D02*
D03*
D116*
X350442Y74461D02*
D03*
D117*
X344733Y79382D02*
D03*
X344733Y77414D02*
D03*
Y75445D02*
D03*
Y73477D02*
D03*
Y71508D02*
D03*
Y69540D02*
D03*
X356151D02*
D03*
Y71508D02*
D03*
Y73477D02*
D03*
Y75445D02*
D03*
Y77414D02*
D03*
Y79382D02*
D03*
D118*
X287779Y62731D02*
D03*
Y67731D02*
D03*
Y72731D02*
D03*
Y77731D02*
D03*
Y82731D02*
D03*
Y87731D02*
D03*
Y92731D02*
D03*
X309039Y72731D02*
D03*
Y77731D02*
D03*
Y82731D02*
D03*
Y87731D02*
D03*
Y92731D02*
D03*
Y97731D02*
D03*
X287779D02*
D03*
X309039Y67731D02*
D03*
Y62731D02*
D03*
X287927Y283989D02*
D03*
Y288989D02*
D03*
Y293989D02*
D03*
Y298989D02*
D03*
Y303989D02*
D03*
Y308989D02*
D03*
Y313989D02*
D03*
X309187Y293989D02*
D03*
Y298989D02*
D03*
Y303989D02*
D03*
Y308989D02*
D03*
Y313989D02*
D03*
Y318989D02*
D03*
X287927D02*
D03*
X309187Y288989D02*
D03*
Y283989D02*
D03*
X309079Y211539D02*
D03*
Y216539D02*
D03*
X287820Y246538D02*
D03*
X309079D02*
D03*
Y241539D02*
D03*
Y236539D02*
D03*
Y231539D02*
D03*
Y226538D02*
D03*
Y221538D02*
D03*
X287820Y241539D02*
D03*
Y236539D02*
D03*
Y231539D02*
D03*
Y226538D02*
D03*
Y221538D02*
D03*
Y216539D02*
D03*
Y211539D02*
D03*
X309118Y138993D02*
D03*
Y143993D02*
D03*
X287858Y173993D02*
D03*
X309118D02*
D03*
Y168993D02*
D03*
Y163993D02*
D03*
Y158993D02*
D03*
Y153993D02*
D03*
Y148993D02*
D03*
X287858Y168993D02*
D03*
Y163993D02*
D03*
Y158993D02*
D03*
Y153993D02*
D03*
Y148993D02*
D03*
Y143993D02*
D03*
Y138993D02*
D03*
D119*
X254654Y237971D02*
D03*
X254802Y89152D02*
D03*
X254650Y310518D02*
D03*
Y165396D02*
D03*
D120*
X251898Y228719D02*
D03*
X252046Y79900D02*
D03*
X251894Y301266D02*
D03*
Y156144D02*
D03*
M02*
