G04*
G04 #@! TF.GenerationSoftware,Altium Limited,Altium Designer,21.1.0 (24)*
G04*
G04 Layer_Color=32768*
%FSLAX25Y25*%
%MOIN*%
G70*
G04*
G04 #@! TF.SameCoordinates,59D5B773-27E9-4806-B489-B34453608D3F*
G04*
G04*
G04 #@! TF.FilePolarity,Positive*
G04*
G01*
G75*
%ADD55C,0.00197*%
D55*
X374457Y113967D02*
G03*
X374457Y113967I-1378J0D01*
G01*
X209395Y43431D02*
G03*
X209395Y43431I-1378J0D01*
G01*
X364678Y78521D02*
G03*
X364678Y78521I-1378J0D01*
G01*
X265432Y104174D02*
G03*
X265432Y104174I-1378J0D01*
G01*
X265551Y329134D02*
G03*
X265551Y329134I-1378J0D01*
G01*
X267200Y256768D02*
G03*
X267200Y256768I-1378J0D01*
G01*
X266006Y184134D02*
G03*
X266006Y184134I-1378J0D01*
G01*
X302378Y40400D02*
G03*
X302378Y40400I-1378J0D01*
G01*
X81699Y94737D02*
G03*
X81699Y94737I-1378J0D01*
G01*
X81778Y171000D02*
G03*
X81778Y171000I-1378J0D01*
G01*
X81739Y243545D02*
G03*
X81739Y243545I-1378J0D01*
G01*
X81650Y315996D02*
G03*
X81650Y315996I-1378J0D01*
G01*
X222972Y105117D02*
G03*
X222972Y105117I-1378J0D01*
G01*
X351820Y74461D02*
G03*
X351820Y74461I-1378J0D01*
G01*
X349626Y133905D02*
G03*
X349626Y133905I-1378J0D01*
G01*
X323178Y133700D02*
G03*
X323178Y133700I-1378J0D01*
G01*
X252778Y358300D02*
G03*
X252778Y358300I-1378J0D01*
G01*
X361036Y127300D02*
G03*
X361036Y127300I-1378J0D01*
G01*
X91200Y80837D02*
G03*
X91200Y80837I-1378J0D01*
G01*
X139197Y80790D02*
G03*
X139197Y80790I-1378J0D01*
G01*
X328526Y40861D02*
G03*
X328526Y40861I-1378J0D01*
G01*
X302513Y52471D02*
G03*
X302513Y52471I-1378J0D01*
G01*
X117949Y52378D02*
G03*
X117949Y52378I-1378J0D01*
G01*
X347152Y110401D02*
G03*
X347152Y110401I-1378J0D01*
G01*
X356921D02*
G03*
X356921Y110401I-1378J0D01*
G01*
X335887Y152700D02*
G03*
X335887Y152700I-1378J0D01*
G01*
X325987D02*
G03*
X325987Y152700I-1378J0D01*
G01*
X346180D02*
G03*
X346180Y152700I-1378J0D01*
G01*
X117900Y273636D02*
G03*
X117900Y273636I-1378J0D01*
G01*
X117990Y201185D02*
G03*
X117990Y201185I-1378J0D01*
G01*
X118028Y128640D02*
G03*
X118028Y128640I-1378J0D01*
G01*
X96230Y275213D02*
G03*
X96230Y275213I-1378J0D01*
G01*
X96319Y202762D02*
G03*
X96319Y202762I-1378J0D01*
G01*
X96358Y130217D02*
G03*
X96358Y130217I-1378J0D01*
G01*
X96279Y53954D02*
G03*
X96279Y53954I-1378J0D01*
G01*
X302661Y273926D02*
G03*
X302661Y273926I-1378J0D01*
G01*
X302750Y201476D02*
G03*
X302750Y201476I-1378J0D01*
G01*
X302789Y128930D02*
G03*
X302789Y128930I-1378J0D01*
G01*
X347632Y40861D02*
G03*
X347632Y40861I-1378J0D01*
G01*
X337874D02*
G03*
X337874Y40861I-1378J0D01*
G01*
X173917Y23130D02*
G03*
X173917Y23130I-1378J0D01*
G01*
X286046Y23085D02*
G03*
X286046Y23085I-1378J0D01*
G01*
X91150Y302095D02*
G03*
X91150Y302095I-1378J0D01*
G01*
X91240Y229645D02*
G03*
X91240Y229645I-1378J0D01*
G01*
X91279Y157099D02*
G03*
X91279Y157099I-1378J0D01*
G01*
X139148Y302048D02*
G03*
X139148Y302048I-1378J0D01*
G01*
X139237Y229597D02*
G03*
X139237Y229597I-1378J0D01*
G01*
X139276Y157052D02*
G03*
X139276Y157052I-1378J0D01*
G01*
X166021Y320114D02*
G03*
X166021Y320114I-1378J0D01*
G01*
X166110Y247663D02*
G03*
X166110Y247663I-1378J0D01*
G01*
X166149Y175118D02*
G03*
X166149Y175118I-1378J0D01*
G01*
X165873Y98658D02*
G03*
X165873Y98658I-1378J0D01*
G01*
X215402Y282812D02*
G03*
X215402Y282812I-1378J0D01*
G01*
X215491Y210361D02*
G03*
X215491Y210361I-1378J0D01*
G01*
X215530Y137816D02*
G03*
X215530Y137816I-1378J0D01*
G01*
X215254Y61357D02*
G03*
X215254Y61357I-1378J0D01*
G01*
X215331Y323779D02*
G03*
X215331Y323779I-1378J0D01*
G01*
X215420Y251328D02*
G03*
X215420Y251328I-1378J0D01*
G01*
X215459Y178783D02*
G03*
X215459Y178783I-1378J0D01*
G01*
X215183Y102323D02*
G03*
X215183Y102323I-1378J0D01*
G01*
X178321Y316064D02*
G03*
X178321Y316064I-1378J0D01*
G01*
X178410Y243613D02*
G03*
X178410Y243613I-1378J0D01*
G01*
X178449Y171068D02*
G03*
X178449Y171068I-1378J0D01*
G01*
X178173Y94609D02*
G03*
X178173Y94609I-1378J0D01*
G01*
X227763Y278904D02*
G03*
X227763Y278904I-1378J0D01*
G01*
X227852Y206453D02*
G03*
X227852Y206453I-1378J0D01*
G01*
X227891Y133908D02*
G03*
X227891Y133908I-1378J0D01*
G01*
X227615Y57449D02*
G03*
X227615Y57449I-1378J0D01*
G01*
X227731Y319779D02*
G03*
X227731Y319779I-1378J0D01*
G01*
X227820Y247328D02*
G03*
X227820Y247328I-1378J0D01*
G01*
X227859Y174783D02*
G03*
X227859Y174783I-1378J0D01*
G01*
X227583Y98323D02*
G03*
X227583Y98323I-1378J0D01*
G01*
X184892Y313581D02*
G03*
X184892Y313581I-1378J0D01*
G01*
X184981Y241131D02*
G03*
X184981Y241131I-1378J0D01*
G01*
X184823Y168388D02*
G03*
X184823Y168388I-1378J0D01*
G01*
X184744Y92126D02*
G03*
X184744Y92126I-1378J0D01*
G01*
X235562Y278904D02*
G03*
X235562Y278904I-1378J0D01*
G01*
X235652Y206453D02*
G03*
X235652Y206453I-1378J0D01*
G01*
X235691Y133908D02*
G03*
X235691Y133908I-1378J0D01*
G01*
X235415Y57449D02*
G03*
X235415Y57449I-1378J0D01*
G01*
X235531Y319779D02*
G03*
X235531Y319779I-1378J0D01*
G01*
X235621Y247328D02*
G03*
X235621Y247328I-1378J0D01*
G01*
X235660Y174783D02*
G03*
X235660Y174783I-1378J0D01*
G01*
X235384Y98323D02*
G03*
X235384Y98323I-1378J0D01*
G01*
X178297Y311711D02*
G03*
X178297Y311711I-1378J0D01*
G01*
X178387Y239261D02*
G03*
X178387Y239261I-1378J0D01*
G01*
X178426Y166715D02*
G03*
X178426Y166715I-1378J0D01*
G01*
X178150Y90256D02*
G03*
X178150Y90256I-1378J0D01*
G01*
X231463Y274623D02*
G03*
X231463Y274623I-1378J0D01*
G01*
X231552Y202172D02*
G03*
X231552Y202172I-1378J0D01*
G01*
X231591Y129627D02*
G03*
X231591Y129627I-1378J0D01*
G01*
X231315Y53167D02*
G03*
X231315Y53167I-1378J0D01*
G01*
X227712Y315395D02*
G03*
X227712Y315395I-1378J0D01*
G01*
X227801Y242944D02*
G03*
X227801Y242944I-1378J0D01*
G01*
X227840Y170399D02*
G03*
X227840Y170399I-1378J0D01*
G01*
X227564Y93940D02*
G03*
X227564Y93940I-1378J0D01*
G01*
X183138Y322325D02*
G03*
X183138Y322325I-1378J0D01*
G01*
X183228Y249874D02*
G03*
X183228Y249874I-1378J0D01*
G01*
X183266Y177329D02*
G03*
X183266Y177329I-1378J0D01*
G01*
X182991Y100870D02*
G03*
X182991Y100870I-1378J0D01*
G01*
X231862Y283104D02*
G03*
X231862Y283104I-1378J0D01*
G01*
X231952Y210653D02*
G03*
X231952Y210653I-1378J0D01*
G01*
X231991Y138108D02*
G03*
X231991Y138108I-1378J0D01*
G01*
X231715Y61649D02*
G03*
X231715Y61649I-1378J0D01*
G01*
X231831Y324079D02*
G03*
X231831Y324079I-1378J0D01*
G01*
X231920Y251628D02*
G03*
X231920Y251628I-1378J0D01*
G01*
X231959Y179083D02*
G03*
X231959Y179083I-1378J0D01*
G01*
X231683Y102623D02*
G03*
X231683Y102623I-1378J0D01*
G01*
X164121Y326114D02*
G03*
X164121Y326114I-1378J0D01*
G01*
X164210Y253663D02*
G03*
X164210Y253663I-1378J0D01*
G01*
X164249Y181118D02*
G03*
X164249Y181118I-1378J0D01*
G01*
X163973Y104658D02*
G03*
X163973Y104658I-1378J0D01*
G01*
X310633Y330521D02*
G03*
X310633Y330521I-1378J0D01*
G01*
X310723Y258070D02*
G03*
X310723Y258070I-1378J0D01*
G01*
X310761Y185525D02*
G03*
X310761Y185525I-1378J0D01*
G01*
X310486Y109065D02*
G03*
X310486Y109065I-1378J0D01*
G01*
X302661Y327666D02*
G03*
X302661Y327666I-1378J0D01*
G01*
X302750Y255216D02*
G03*
X302750Y255216I-1378J0D01*
G01*
X302789Y182670D02*
G03*
X302789Y182670I-1378J0D01*
G01*
X302513Y106211D02*
G03*
X302513Y106211I-1378J0D01*
G01*
X312897Y276190D02*
G03*
X312897Y276190I-1378J0D01*
G01*
X312986Y203739D02*
G03*
X312986Y203739I-1378J0D01*
G01*
X313025Y131194D02*
G03*
X313025Y131194I-1378J0D01*
G01*
X312749Y54735D02*
G03*
X312749Y54735I-1378J0D01*
G01*
X310633Y324910D02*
G03*
X310633Y324910I-1378J0D01*
G01*
X310723Y252460D02*
G03*
X310723Y252460I-1378J0D01*
G01*
X310761Y179914D02*
G03*
X310761Y179914I-1378J0D01*
G01*
X310486Y103455D02*
G03*
X310486Y103455I-1378J0D01*
G01*
X302661Y333277D02*
G03*
X302661Y333277I-1378J0D01*
G01*
X302750Y260826D02*
G03*
X302750Y260826I-1378J0D01*
G01*
X302789Y188280D02*
G03*
X302789Y188280I-1378J0D01*
G01*
X302513Y111821D02*
G03*
X302513Y111821I-1378J0D01*
G01*
X212895Y288854D02*
G03*
X212895Y288854I-1378J0D01*
G01*
X212985Y216403D02*
G03*
X212985Y216403I-1378J0D01*
G01*
X213024Y143858D02*
G03*
X213024Y143858I-1378J0D01*
G01*
X212748Y67398D02*
G03*
X212748Y67398I-1378J0D01*
G01*
X93183Y288246D02*
G03*
X93183Y288246I-1378J0D01*
G01*
X93272Y215796D02*
G03*
X93272Y215796I-1378J0D01*
G01*
X93311Y143250D02*
G03*
X93311Y143250I-1378J0D01*
G01*
X93232Y66988D02*
G03*
X93232Y66988I-1378J0D01*
G01*
X89065Y288246D02*
G03*
X89065Y288246I-1378J0D01*
G01*
X89155Y215796D02*
G03*
X89155Y215796I-1378J0D01*
G01*
X89194Y143250D02*
G03*
X89194Y143250I-1378J0D01*
G01*
X89115Y66988D02*
G03*
X89115Y66988I-1378J0D01*
G01*
X213531Y329879D02*
G03*
X213531Y329879I-1378J0D01*
G01*
X213620Y257428D02*
G03*
X213620Y257428I-1378J0D01*
G01*
X213659Y184883D02*
G03*
X213659Y184883I-1378J0D01*
G01*
X213383Y108423D02*
G03*
X213383Y108423I-1378J0D01*
G01*
X161721Y320114D02*
G03*
X161721Y320114I-1378J0D01*
G01*
X161810Y247663D02*
G03*
X161810Y247663I-1378J0D01*
G01*
X161849Y175118D02*
G03*
X161849Y175118I-1378J0D01*
G01*
X161573Y98658D02*
G03*
X161573Y98658I-1378J0D01*
G01*
X211063Y282804D02*
G03*
X211063Y282804I-1378J0D01*
G01*
X211152Y210353D02*
G03*
X211152Y210353I-1378J0D01*
G01*
X211191Y137808D02*
G03*
X211191Y137808I-1378J0D01*
G01*
X210915Y61349D02*
G03*
X210915Y61349I-1378J0D01*
G01*
X210931Y323779D02*
G03*
X210931Y323779I-1378J0D01*
G01*
X211020Y251328D02*
G03*
X211020Y251328I-1378J0D01*
G01*
X211059Y178783D02*
G03*
X211059Y178783I-1378J0D01*
G01*
X210783Y102323D02*
G03*
X210783Y102323I-1378J0D01*
G01*
X155624Y326084D02*
G03*
X155624Y326084I-1378J0D01*
G01*
X155713Y253633D02*
G03*
X155713Y253633I-1378J0D01*
G01*
X155752Y181088D02*
G03*
X155752Y181088I-1378J0D01*
G01*
X155476Y104628D02*
G03*
X155476Y104628I-1378J0D01*
G01*
X206763Y282804D02*
G03*
X206763Y282804I-1378J0D01*
G01*
X206852Y210353D02*
G03*
X206852Y210353I-1378J0D01*
G01*
X206891Y137808D02*
G03*
X206891Y137808I-1378J0D01*
G01*
X206615Y61349D02*
G03*
X206615Y61349I-1378J0D01*
G01*
X205833Y329883D02*
G03*
X205833Y329883I-1378J0D01*
G01*
X205922Y257432D02*
G03*
X205922Y257432I-1378J0D01*
G01*
X205961Y184887D02*
G03*
X205961Y184887I-1378J0D01*
G01*
X205685Y108427D02*
G03*
X205685Y108427I-1378J0D01*
G01*
X162500Y52165D02*
G03*
X162500Y52165I-1378J0D01*
G01*
X370244Y68922D02*
G03*
X370244Y68922I-1378J0D01*
G01*
Y56323D02*
G03*
X370244Y56323I-1378J0D01*
G01*
X274846Y51481D02*
G03*
X274846Y51481I-1378J0D01*
G01*
X197616Y44041D02*
G03*
X197616Y44041I-1378J0D01*
G01*
X314057Y43966D02*
G03*
X314057Y43966I-1378J0D01*
G01*
X191513Y45816D02*
G03*
X191513Y45816I-1378J0D01*
G01*
X307954Y45741D02*
G03*
X307954Y45741I-1378J0D01*
G01*
X193580Y37939D02*
G03*
X193580Y37939I-1378J0D01*
G01*
X305709Y37894D02*
G03*
X305709Y37894I-1378J0D01*
G01*
X184323Y50772D02*
G03*
X184323Y50772I-1378J0D01*
G01*
X290354Y48425D02*
G03*
X290354Y48425I-1378J0D01*
G01*
X418747Y100783D02*
G03*
X418747Y100783I-1378J0D01*
G01*
X167727Y314208D02*
G03*
X167727Y314208I-1378J0D01*
G01*
X167816Y241757D02*
G03*
X167816Y241757I-1378J0D01*
G01*
X167855Y169212D02*
G03*
X167855Y169212I-1378J0D01*
G01*
X167579Y92753D02*
G03*
X167579Y92753I-1378J0D01*
G01*
X217362Y276904D02*
G03*
X217362Y276904I-1378J0D01*
G01*
X217452Y204453D02*
G03*
X217452Y204453I-1378J0D01*
G01*
X217491Y131908D02*
G03*
X217491Y131908I-1378J0D01*
G01*
X217215Y55449D02*
G03*
X217215Y55449I-1378J0D01*
G01*
X217131Y317779D02*
G03*
X217131Y317779I-1378J0D01*
G01*
X217220Y245328D02*
G03*
X217220Y245328I-1378J0D01*
G01*
X217259Y172783D02*
G03*
X217259Y172783I-1378J0D01*
G01*
X216983Y96323D02*
G03*
X216983Y96323I-1378J0D01*
G01*
X187451Y322341D02*
G03*
X187451Y322341I-1378J0D01*
G01*
X187540Y249890D02*
G03*
X187540Y249890I-1378J0D01*
G01*
X187579Y177345D02*
G03*
X187579Y177345I-1378J0D01*
G01*
X187303Y100886D02*
G03*
X187303Y100886I-1378J0D01*
G01*
X235663Y287223D02*
G03*
X235663Y287223I-1378J0D01*
G01*
X235752Y214772D02*
G03*
X235752Y214772I-1378J0D01*
G01*
X235791Y142227D02*
G03*
X235791Y142227I-1378J0D01*
G01*
X235515Y65768D02*
G03*
X235515Y65768I-1378J0D01*
G01*
X235631Y328279D02*
G03*
X235631Y328279I-1378J0D01*
G01*
X235720Y255828D02*
G03*
X235720Y255828I-1378J0D01*
G01*
X235759Y183283D02*
G03*
X235759Y183283I-1378J0D01*
G01*
X235483Y106823D02*
G03*
X235483Y106823I-1378J0D01*
G01*
X359239Y133905D02*
G03*
X359239Y133905I-1378J0D01*
G01*
X361089Y140700D02*
G03*
X361089Y140700I-1378J0D01*
G01*
X355978Y122000D02*
G03*
X355978Y122000I-1378J0D01*
G01*
X357087Y155000D02*
G03*
X357087Y155000I-1378J0D01*
G01*
X173613Y322661D02*
G03*
X173613Y322661I-1378J0D01*
G01*
X173702Y250210D02*
G03*
X173702Y250210I-1378J0D01*
G01*
X173741Y177665D02*
G03*
X173741Y177665I-1378J0D01*
G01*
X173662Y101402D02*
G03*
X173662Y101402I-1378J0D01*
G01*
X222955Y285451D02*
G03*
X222955Y285451I-1378J0D01*
G01*
X223044Y213000D02*
G03*
X223044Y213000I-1378J0D01*
G01*
X223083Y140455D02*
G03*
X223083Y140455I-1378J0D01*
G01*
X223004Y64193D02*
G03*
X223004Y64193I-1378J0D01*
G01*
X222923Y326376D02*
G03*
X222923Y326376I-1378J0D01*
G01*
X223012Y253925D02*
G03*
X223012Y253925I-1378J0D01*
G01*
X223051Y181379D02*
G03*
X223051Y181379I-1378J0D01*
G01*
X92731Y25324D02*
G03*
X92731Y25324I-1378J0D01*
G01*
X239792Y49924D02*
G03*
X239792Y49924I-1378J0D01*
G01*
X36528Y23600D02*
G03*
X36528Y23600I-1378J0D01*
G01*
X36478Y366600D02*
G03*
X36478Y366600I-1378J0D01*
G01*
X134730Y358300D02*
G03*
X134730Y358300I-1378J0D01*
G01*
X371268Y110384D02*
Y117549D01*
Y110384D02*
X374890D01*
Y117549D01*
X371268D02*
X374890D01*
X371111Y113967D02*
X375048D01*
X373079Y111998D02*
Y115935D01*
X204434Y45242D02*
X211599D01*
Y41620D02*
Y45242D01*
X204434Y41620D02*
X211599D01*
X204434D02*
Y45242D01*
X208017Y41462D02*
Y45399D01*
X206048Y43431D02*
X209985D01*
X361489Y74939D02*
Y82104D01*
X365111D01*
Y74939D02*
Y82104D01*
X361489Y74939D02*
X365111D01*
X361332Y78521D02*
X365268D01*
X363300Y76553D02*
Y80490D01*
X262243Y100591D02*
Y107756D01*
X265865D01*
Y100591D02*
Y107756D01*
X262243Y100591D02*
X265865D01*
X262085Y104174D02*
X266022D01*
X264054Y102205D02*
Y106142D01*
X262362Y325551D02*
Y332716D01*
X265984D01*
Y325551D02*
Y332716D01*
X262362Y325551D02*
X265984D01*
X262205Y329134D02*
X266142D01*
X264173Y327165D02*
Y331102D01*
X264012Y253185D02*
Y260351D01*
X267634D01*
Y253185D02*
Y260351D01*
X264012Y253185D02*
X267634D01*
X263854Y256768D02*
X267791D01*
X265823Y254800D02*
Y258737D01*
X262817Y180551D02*
Y187717D01*
X266439D01*
Y180551D02*
Y187717D01*
X262817Y180551D02*
X266439D01*
X262659Y184134D02*
X266596D01*
X264628Y182166D02*
Y186103D01*
X297417Y42211D02*
X304583D01*
Y38589D02*
Y42211D01*
X297417Y38589D02*
X304583D01*
X297417D02*
Y42211D01*
X301000Y38432D02*
Y42369D01*
X299031Y40400D02*
X302969D01*
X324583Y74221D02*
X347417D01*
X324583Y50599D02*
Y74221D01*
Y50599D02*
X347417D01*
Y74221D01*
X78352Y94737D02*
X82289D01*
X80321Y92769D02*
Y96706D01*
X84140Y92730D02*
Y96745D01*
X76502Y92730D02*
X84140D01*
X76502D02*
Y96745D01*
X84140D01*
X78431Y171000D02*
X82368D01*
X80400Y169032D02*
Y172968D01*
X84219Y168992D02*
Y173008D01*
X76581Y168992D02*
X84219D01*
X76581D02*
Y173008D01*
X84219D01*
X78393Y243545D02*
X82330D01*
X80361Y241577D02*
Y245514D01*
X84180Y241537D02*
Y245553D01*
X76542Y241537D02*
X84180D01*
X76542D02*
Y245553D01*
X84180D01*
X78303Y315996D02*
X82240D01*
X80272Y314028D02*
Y317965D01*
X84091Y313988D02*
Y318004D01*
X76453Y313988D02*
X84091D01*
X76453D02*
Y318004D01*
X84091D01*
X216673Y109054D02*
X226516D01*
Y101180D02*
Y109054D01*
X216673Y101180D02*
X226516D01*
X216673D02*
Y109054D01*
X221594Y103148D02*
Y107086D01*
X219626Y105117D02*
X223563D01*
X350442Y72493D02*
Y76430D01*
X348473Y74461D02*
X352410D01*
X342076Y81351D02*
X358808D01*
X342076Y67571D02*
Y81351D01*
Y67571D02*
X358808D01*
Y81351D01*
X355335Y125441D02*
Y142370D01*
X341161D02*
X355335D01*
X341161Y125441D02*
Y142370D01*
Y125441D02*
X355335D01*
X346280Y133905D02*
X350217D01*
X348248Y131937D02*
Y135874D01*
X280703Y46521D02*
X297632D01*
X280703Y32348D02*
Y46521D01*
Y32348D02*
X297632D01*
Y46521D01*
X283645Y59561D02*
Y100900D01*
X313173Y59561D02*
Y100900D01*
X283645Y59561D02*
X313173D01*
X283645Y100900D02*
X313173D01*
X296441Y80231D02*
X300378D01*
X298409Y78262D02*
Y82199D01*
X321800Y131731D02*
Y135669D01*
X319831Y133700D02*
X323768D01*
X317469Y124999D02*
X326131D01*
X317469D02*
Y142401D01*
X326131D01*
Y124999D02*
Y142401D01*
X245495Y355347D02*
X257306D01*
X245495Y361253D02*
X257306D01*
Y355347D02*
Y361253D01*
X245495Y355347D02*
Y361253D01*
X251400Y356331D02*
Y360268D01*
X249431Y358300D02*
X253368D01*
X356076Y129111D02*
X363241D01*
X356076Y125489D02*
Y129111D01*
Y125489D02*
X363241D01*
Y129111D01*
X359658Y125331D02*
Y129269D01*
X357690Y127300D02*
X361627D01*
X89822Y78868D02*
Y82805D01*
X87853Y80837D02*
X91790D01*
X81357Y72372D02*
Y89301D01*
Y72372D02*
X98286D01*
Y89301D01*
X81357D02*
X98286D01*
X135851Y80790D02*
X139788D01*
X137819Y78821D02*
Y82758D01*
X129355Y89254D02*
X146284D01*
X129355Y72325D02*
Y89254D01*
Y72325D02*
X146284D01*
Y89254D01*
X248355Y226672D02*
X252685D01*
X248355Y230766D02*
X252685D01*
X248355Y226672D02*
Y230766D01*
X252685Y217498D02*
Y226672D01*
Y217498D02*
X275126D01*
Y239939D01*
X252685D02*
X275126D01*
X252685Y230766D02*
Y239939D01*
X65208Y150904D02*
Y161246D01*
X77806D01*
Y150904D02*
Y161246D01*
X65208Y150904D02*
X77806D01*
X65129Y74641D02*
X77727D01*
Y84984D01*
X65129D02*
X77727D01*
X65129Y74641D02*
Y84984D01*
X124761Y70151D02*
Y86923D01*
X107990D02*
X124761D01*
X107990Y70151D02*
Y86923D01*
Y70151D02*
X124761D01*
X109977Y62571D02*
X123461D01*
X109977Y54303D02*
Y62571D01*
Y54303D02*
X123461D01*
Y62571D01*
X116571Y57256D02*
Y59618D01*
X115390Y58437D02*
X117753D01*
X316970Y25350D02*
Y29287D01*
X315001Y27318D02*
X318938D01*
X313230Y20625D02*
X320710D01*
X313230D02*
Y34011D01*
X320710D01*
Y20625D02*
Y34011D01*
X106516Y51986D02*
Y55923D01*
X104547Y53954D02*
X108484D01*
X103563Y60056D02*
X109468D01*
Y47852D02*
Y60056D01*
X103563Y47852D02*
X109468D01*
X103563D02*
Y60056D01*
X304331Y25492D02*
X308268D01*
X306299Y23524D02*
Y27461D01*
X312598Y16240D02*
Y34744D01*
X300000D02*
X312598D01*
X300000Y16240D02*
Y34744D01*
Y16240D02*
X312598D01*
X331676Y31708D02*
Y50015D01*
X322621D02*
X331676D01*
X322621Y31708D02*
Y50015D01*
Y31708D02*
X331676D01*
X325180Y40861D02*
X329117D01*
X327148Y38893D02*
Y42830D01*
X254648Y365619D02*
Y367981D01*
X253467Y366800D02*
X255829D01*
X245396Y362272D02*
X263900D01*
X245396Y371328D02*
X263900D01*
Y362272D02*
Y371328D01*
X245396Y362272D02*
Y371328D01*
X266375Y40445D02*
Y47925D01*
X279761D01*
X266375Y40445D02*
X279761D01*
X271887Y44185D02*
X274249D01*
X273068Y43004D02*
Y45366D01*
X279761Y40445D02*
Y47925D01*
X298183Y46565D02*
Y58376D01*
X304088D01*
Y46565D02*
Y58376D01*
X298183Y46565D02*
X304088D01*
X299167Y52471D02*
X303104D01*
X301135Y50502D02*
Y54439D01*
X291287Y25685D02*
X293649D01*
X292468Y24504D02*
Y26866D01*
X295421Y19583D02*
Y31787D01*
X289515Y19583D02*
Y31787D01*
X295421D01*
X289515Y19583D02*
X295421D01*
X114603Y52378D02*
X118540D01*
X116571Y50409D02*
Y54346D01*
X120272Y50488D02*
Y54267D01*
X112871Y50488D02*
X120272D01*
X112871D02*
Y54267D01*
X120272D01*
X235688Y102623D02*
X239625D01*
X237656Y100655D02*
Y104592D01*
X241239Y100812D02*
Y104434D01*
X234074D02*
X241239D01*
X234074Y100812D02*
Y104434D01*
Y100812D02*
X241239D01*
X252833Y81947D02*
Y91120D01*
X275274D01*
Y68679D02*
Y91120D01*
X252833Y68679D02*
X275274D01*
X252833D02*
Y77853D01*
X248503D02*
Y81947D01*
X252833D01*
X248503Y77853D02*
X252833D01*
X252681Y303313D02*
Y312486D01*
X275122D01*
Y290045D02*
Y312486D01*
X252681Y290045D02*
X275122D01*
X252681D02*
Y299219D01*
X248351D02*
Y303313D01*
X252681D01*
X248351Y299219D02*
X252681D01*
X248351Y154096D02*
X252681D01*
X248351Y158191D02*
X252681D01*
X248351Y154096D02*
Y158191D01*
X252681Y144923D02*
Y154096D01*
Y144923D02*
X275122D01*
Y167364D01*
X252681D02*
X275122D01*
X252681Y158191D02*
Y167364D01*
X350302Y101247D02*
Y119554D01*
X341247D02*
X350302D01*
X341247Y101247D02*
Y119554D01*
Y101247D02*
X350302D01*
X343806Y110401D02*
X347743D01*
X345774Y108432D02*
Y112369D01*
X360070Y101247D02*
Y119554D01*
X351015D02*
X360070D01*
X351015Y101247D02*
Y119554D01*
Y101247D02*
X360070D01*
X353574Y110401D02*
X357511D01*
X355542Y108432D02*
Y112369D01*
X336319Y112598D02*
X338681D01*
X337500Y111417D02*
Y113779D01*
X340453Y106496D02*
Y118701D01*
X334547Y106496D02*
Y118701D01*
X340453D01*
X334547Y106496D02*
X340453D01*
X329981Y143546D02*
Y161854D01*
Y143546D02*
X339036D01*
Y161854D01*
X329981D02*
X339036D01*
X332540Y152700D02*
X336477D01*
X334509Y150732D02*
Y154668D01*
X320081Y143546D02*
Y161854D01*
Y143546D02*
X329136D01*
Y161854D01*
X320081D02*
X329136D01*
X322640Y152700D02*
X326577D01*
X324609Y150732D02*
Y154668D01*
X344802Y150732D02*
Y154668D01*
X342834Y152700D02*
X346771D01*
X340275Y161854D02*
X349330D01*
Y143546D02*
Y161854D01*
X340275Y143546D02*
X349330D01*
X340275D02*
Y161854D01*
X327856Y136447D02*
Y142353D01*
X340061Y136447D02*
Y142353D01*
X327856D02*
X340061D01*
X327856Y136447D02*
X340061D01*
X332777Y139400D02*
X335139D01*
X333958Y138219D02*
Y140581D01*
X363251Y143460D02*
Y150940D01*
X349865Y143460D02*
X363251D01*
X349865Y150940D02*
X363251D01*
X355377Y147200D02*
X357739D01*
X356558Y146019D02*
Y148381D01*
X349865Y143460D02*
Y150940D01*
X113198Y268284D02*
Y275449D01*
X109576D02*
X113198D01*
X109576Y268284D02*
Y275449D01*
Y268284D02*
X113198D01*
X109419Y271866D02*
X113356D01*
X111387Y269898D02*
Y273835D01*
X111477Y197447D02*
Y201384D01*
X109508Y199415D02*
X113445D01*
X109666Y195833D02*
X113288D01*
X109666D02*
Y202998D01*
X113288D01*
Y195833D02*
Y202998D01*
X113327Y123287D02*
Y130453D01*
X109705D02*
X113327D01*
X109705Y123287D02*
Y130453D01*
Y123287D02*
X113327D01*
X109547Y126870D02*
X113484D01*
X111516Y124902D02*
Y128839D01*
X113248Y47025D02*
Y54190D01*
X109626D02*
X113248D01*
X109626Y47025D02*
Y54190D01*
Y47025D02*
X113248D01*
X109468Y50608D02*
X113405D01*
X111437Y48639D02*
Y52576D01*
X114553Y273636D02*
X118491D01*
X116522Y271668D02*
Y275605D01*
X120223Y271746D02*
Y275526D01*
X112821Y271746D02*
X120223D01*
X112821D02*
Y275526D01*
X120223D01*
X112911Y203075D02*
X120312D01*
X112911Y199296D02*
Y203075D01*
Y199296D02*
X120312D01*
Y203075D01*
X116612Y199217D02*
Y203154D01*
X114643Y201185D02*
X118580D01*
X114682Y128640D02*
X118619D01*
X116650Y126672D02*
Y130609D01*
X120351Y126750D02*
Y130530D01*
X112950Y126750D02*
X120351D01*
X112950D02*
Y130530D01*
X120351D01*
X109239Y285784D02*
X116405D01*
Y289406D01*
X109239D02*
X116405D01*
X109239Y285784D02*
Y289406D01*
X112822Y285627D02*
Y289564D01*
X110854Y287595D02*
X114790D01*
X110943Y215145D02*
X114880D01*
X112912Y213176D02*
Y217113D01*
X109329Y213334D02*
Y216956D01*
X116494D01*
Y213334D02*
Y216956D01*
X109329Y213334D02*
X116494D01*
X109368Y140788D02*
X116533D01*
Y144410D01*
X109368D02*
X116533D01*
X109368Y140788D02*
Y144410D01*
X112950Y140631D02*
Y144568D01*
X110982Y142599D02*
X114919D01*
X109289Y64526D02*
X116454D01*
Y68148D01*
X109289D02*
X116454D01*
X109289Y64526D02*
Y68148D01*
X112871Y64368D02*
Y68305D01*
X110903Y66337D02*
X114840D01*
X116439Y285784D02*
X123605D01*
Y289406D01*
X116439D02*
X123605D01*
X116439Y285784D02*
Y289406D01*
X120022Y285627D02*
Y289564D01*
X118053Y287595D02*
X121991D01*
X118143Y215145D02*
X122080D01*
X120112Y213176D02*
Y217113D01*
X116529Y213334D02*
Y216956D01*
X123694D01*
Y213334D02*
Y216956D01*
X116529Y213334D02*
X123694D01*
X116568Y140788D02*
X123733D01*
Y144410D01*
X116568D02*
X123733D01*
X116568Y140788D02*
Y144410D01*
X120150Y140631D02*
Y144568D01*
X118182Y142599D02*
X122119D01*
X116489Y64526D02*
X123654D01*
Y68148D01*
X116489D02*
X123654D01*
X116489Y64526D02*
Y68148D01*
X120071Y64368D02*
Y68305D01*
X118103Y66337D02*
X122040D01*
X94852Y273244D02*
Y277181D01*
X92883Y275213D02*
X96820D01*
X91899Y281118D02*
X97805D01*
Y269307D02*
Y281118D01*
X91899Y269307D02*
X97805D01*
X91899D02*
Y281118D01*
X91989Y196856D02*
Y208667D01*
Y196856D02*
X97894D01*
Y208667D01*
X91989D02*
X97894D01*
X92973Y202762D02*
X96910D01*
X94942Y200793D02*
Y204730D01*
X94980Y128248D02*
Y132185D01*
X93012Y130217D02*
X96949D01*
X92027Y136122D02*
X97933D01*
Y124311D02*
Y136122D01*
X92027Y124311D02*
X97933D01*
X92027D02*
Y136122D01*
X94901Y51986D02*
Y55923D01*
X92933Y53954D02*
X96870D01*
X91948Y59860D02*
X97854D01*
Y48048D02*
Y59860D01*
X91948Y48048D02*
X97854D01*
X91948D02*
Y59860D01*
X98823Y270402D02*
Y277567D01*
Y270402D02*
X102445D01*
Y277567D01*
X98823D02*
X102445D01*
X98665Y273984D02*
X102602D01*
X100634Y272016D02*
Y275953D01*
X100723Y199565D02*
Y203502D01*
X98755Y201534D02*
X102692D01*
X98912Y205116D02*
X102534D01*
Y197951D02*
Y205116D01*
X98912Y197951D02*
X102534D01*
X98912D02*
Y205116D01*
X98951Y125406D02*
Y132571D01*
Y125406D02*
X102573D01*
Y132571D01*
X98951D02*
X102573D01*
X98793Y128988D02*
X102730D01*
X100762Y127020D02*
Y130957D01*
X98872Y49143D02*
Y56308D01*
Y49143D02*
X102494D01*
Y56308D01*
X98872D02*
X102494D01*
X98714Y52726D02*
X102651D01*
X100683Y50757D02*
Y54694D01*
X298330Y268021D02*
Y279832D01*
X304236D01*
Y268021D02*
Y279832D01*
X298330Y268021D02*
X304236D01*
X299314Y273926D02*
X303251D01*
X301283Y271958D02*
Y275895D01*
X298419Y195570D02*
Y207381D01*
X304325D01*
Y195570D02*
Y207381D01*
X298419Y195570D02*
X304325D01*
X299404Y201476D02*
X303341D01*
X301372Y199507D02*
Y203444D01*
X298458Y123025D02*
Y134836D01*
X304364D01*
Y123025D02*
Y134836D01*
X298458Y123025D02*
X304364D01*
X299443Y128930D02*
X303380D01*
X301411Y126962D02*
Y130899D01*
X306991Y274221D02*
Y278158D01*
X305023Y276190D02*
X308960D01*
X305180Y272607D02*
X308803D01*
Y279773D01*
X305180D02*
X308803D01*
X305180Y272607D02*
Y279773D01*
X307081Y201771D02*
Y205708D01*
X305112Y203739D02*
X309049D01*
X305270Y200157D02*
X308892D01*
Y207322D01*
X305270D02*
X308892D01*
X305270Y200157D02*
Y207322D01*
X307120Y129225D02*
Y133162D01*
X305151Y131194D02*
X309088D01*
X305309Y127611D02*
X308931D01*
Y134777D01*
X305309D02*
X308931D01*
X305309Y127611D02*
Y134777D01*
X306844Y52766D02*
Y56703D01*
X304875Y54735D02*
X308812D01*
X305033Y51152D02*
X308655D01*
Y58317D01*
X305033D02*
X308655D01*
X305033Y51152D02*
Y58317D01*
X148852Y283543D02*
Y289449D01*
X136647Y283543D02*
Y289449D01*
Y283543D02*
X148852D01*
X136647Y289449D02*
X148852D01*
X141569Y286496D02*
X143931D01*
X142750Y285315D02*
Y287677D01*
X142839Y212864D02*
Y215227D01*
X141658Y214045D02*
X144020D01*
X136737Y216998D02*
X148942D01*
X136737Y211093D02*
X148942D01*
X136737D02*
Y216998D01*
X148942Y211093D02*
Y216998D01*
X148980Y138547D02*
Y144453D01*
X136776Y138547D02*
Y144453D01*
Y138547D02*
X148980D01*
X136776Y144453D02*
X148980D01*
X141697Y141500D02*
X144059D01*
X142878Y140319D02*
Y142681D01*
X148901Y62285D02*
Y68190D01*
X136697Y62285D02*
Y68190D01*
Y62285D02*
X148901D01*
X136697Y68190D02*
X148901D01*
X141618Y65237D02*
X143980D01*
X142799Y64056D02*
Y66419D01*
X137139Y293007D02*
X144305D01*
X137139Y289385D02*
Y293007D01*
Y289385D02*
X144305D01*
Y293007D01*
X140722Y289228D02*
Y293165D01*
X138753Y291196D02*
X142691D01*
X138843Y218745D02*
X142780D01*
X140812Y216777D02*
Y220714D01*
X144394Y216934D02*
Y220556D01*
X137229Y216934D02*
X144394D01*
X137229D02*
Y220556D01*
X144394D01*
X137268Y148011D02*
X144433D01*
X137268Y144389D02*
Y148011D01*
Y144389D02*
X144433D01*
Y148011D01*
X140850Y144231D02*
Y148169D01*
X138882Y146200D02*
X142819D01*
X137189Y71749D02*
X144354D01*
X137189Y68126D02*
Y71749D01*
Y68126D02*
X144354D01*
Y71749D01*
X140771Y67969D02*
Y71906D01*
X138803Y69937D02*
X142740D01*
X77824Y269307D02*
Y276787D01*
X91210D01*
X77824Y269307D02*
X91210D01*
X83336Y273047D02*
X85698D01*
X84517Y271866D02*
Y274228D01*
X91210Y269307D02*
Y276787D01*
X91300Y196856D02*
Y204337D01*
X84607Y199415D02*
Y201778D01*
X83426Y200596D02*
X85788D01*
X77914Y196856D02*
X91300D01*
X77914Y204337D02*
X91300D01*
X77914Y196856D02*
Y204337D01*
X91339Y124311D02*
Y131791D01*
X84646Y126870D02*
Y129232D01*
X83465Y128051D02*
X85827D01*
X77953Y124311D02*
X91339D01*
X77953Y131791D02*
X91339D01*
X77953Y124311D02*
Y131791D01*
X91260Y48048D02*
Y55529D01*
X84567Y50608D02*
Y52970D01*
X83386Y51789D02*
X85748D01*
X77874Y48048D02*
X91260D01*
X77874Y55529D02*
X91260D01*
X77874Y48048D02*
Y55529D01*
X103469Y280843D02*
X109375D01*
X103469Y293048D02*
X109375D01*
Y280843D02*
Y293048D01*
X103469Y280843D02*
Y293048D01*
X106422Y285765D02*
Y288127D01*
X105241Y286946D02*
X107603D01*
X105330Y214495D02*
X107693D01*
X106511Y213314D02*
Y215676D01*
X103559Y208393D02*
Y220597D01*
X109464Y208393D02*
Y220597D01*
X103559D02*
X109464D01*
X103559Y208393D02*
X109464D01*
X103598Y135847D02*
X109503D01*
X103598Y148052D02*
X109503D01*
Y135847D02*
Y148052D01*
X103598Y135847D02*
Y148052D01*
X106550Y140769D02*
Y143131D01*
X105369Y141950D02*
X107731D01*
X103322Y59388D02*
X109227D01*
X103322Y71593D02*
X109227D01*
Y59388D02*
Y71593D01*
X103322Y59388D02*
Y71593D01*
X106274Y64309D02*
Y66671D01*
X105093Y65490D02*
X107456D01*
X97733Y284664D02*
Y291829D01*
X94111D02*
X97733D01*
X94111Y284664D02*
Y291829D01*
Y284664D02*
X97733D01*
X93954Y288246D02*
X97891D01*
X95922Y286278D02*
Y290215D01*
X96012Y213827D02*
Y217764D01*
X94043Y215796D02*
X97980D01*
X94200Y212213D02*
X97823D01*
X94200D02*
Y219378D01*
X97823D01*
Y212213D02*
Y219378D01*
X97861Y139668D02*
Y146833D01*
X94239D02*
X97861D01*
X94239Y139668D02*
Y146833D01*
Y139668D02*
X97861D01*
X94082Y143250D02*
X98019D01*
X96050Y141282D02*
Y145219D01*
X97782Y63405D02*
Y70571D01*
X94160D02*
X97782D01*
X94160Y63405D02*
Y70571D01*
Y63405D02*
X97782D01*
X94003Y66988D02*
X97940D01*
X95971Y65019D02*
Y68956D01*
X70080Y280886D02*
X75986D01*
X70080Y293091D02*
X75986D01*
Y280886D02*
Y293091D01*
X70080Y280886D02*
Y293091D01*
X73033Y285807D02*
Y288169D01*
X71852Y286988D02*
X74214D01*
X71941Y214538D02*
X74304D01*
X73123Y213356D02*
Y215719D01*
X70170Y208435D02*
Y220640D01*
X76075Y208435D02*
Y220640D01*
X70170D02*
X76075D01*
X70170Y208435D02*
X76075D01*
X70209Y135890D02*
X76114D01*
X70209Y148094D02*
X76114D01*
Y135890D02*
Y148094D01*
X70209Y135890D02*
Y148094D01*
X73161Y140811D02*
Y143173D01*
X71980Y141992D02*
X74343D01*
X69933Y59430D02*
X75838D01*
X69933Y71635D02*
X75838D01*
Y59430D02*
Y71635D01*
X69933Y59430D02*
Y71635D01*
X72886Y64352D02*
Y66714D01*
X71704Y65533D02*
X74067D01*
X85381Y284664D02*
Y291829D01*
X81759D02*
X85381D01*
X81759Y284664D02*
Y291829D01*
Y284664D02*
X85381D01*
X81602Y288246D02*
X85539D01*
X83570Y286278D02*
Y290215D01*
X83660Y213827D02*
Y217764D01*
X81691Y215796D02*
X85628D01*
X81849Y212213D02*
X85471D01*
X81849D02*
Y219378D01*
X85471D01*
Y212213D02*
Y219378D01*
X85509Y139668D02*
Y146833D01*
X81887D02*
X85509D01*
X81887Y139668D02*
Y146833D01*
Y139668D02*
X85509D01*
X81730Y143250D02*
X85667D01*
X83698Y141282D02*
Y145219D01*
X85430Y63405D02*
Y70571D01*
X81808D02*
X85430D01*
X81808Y63405D02*
Y70571D01*
Y63405D02*
X85430D01*
X81651Y66988D02*
X85588D01*
X83619Y65019D02*
Y68956D01*
X217551Y272695D02*
X221488D01*
X219520Y270726D02*
Y274663D01*
X223103Y270883D02*
Y274506D01*
X215937D02*
X223103D01*
X215937Y270883D02*
Y274506D01*
Y270883D02*
X223103D01*
X215830Y198236D02*
X222995D01*
X215830D02*
Y201858D01*
X222995D01*
Y198236D02*
Y201858D01*
X219413Y198079D02*
Y202015D01*
X217444Y200047D02*
X221381D01*
X216066Y125888D02*
X223231D01*
X216066D02*
Y129509D01*
X223231D01*
Y125888D02*
Y129509D01*
X219648Y125730D02*
Y129667D01*
X217680Y127699D02*
X221617D01*
X217404Y51239D02*
X221341D01*
X219372Y49271D02*
Y53208D01*
X222955Y49428D02*
Y53050D01*
X215790D02*
X222955D01*
X215790Y49428D02*
Y53050D01*
Y49428D02*
X222955D01*
X205334Y273119D02*
Y277056D01*
X203366Y275087D02*
X207303D01*
X203523Y271505D02*
X207145D01*
Y278670D01*
X203523D02*
X207145D01*
X203523Y271505D02*
Y278670D01*
X205424Y200668D02*
Y204605D01*
X203455Y202637D02*
X207392D01*
X203613Y199054D02*
X207235D01*
Y206219D01*
X203613D02*
X207235D01*
X203613Y199054D02*
Y206219D01*
X203651Y126509D02*
Y133674D01*
X207274D01*
Y126509D02*
Y133674D01*
X203651Y126509D02*
X207274D01*
X203494Y130091D02*
X207431D01*
X205463Y128123D02*
Y132060D01*
X205187Y51664D02*
Y55601D01*
X203218Y53632D02*
X207155D01*
X203376Y50049D02*
X206998D01*
Y57215D01*
X203376D02*
X206998D01*
X203376Y50049D02*
Y57215D01*
X202432Y325629D02*
X206369D01*
X204400Y323661D02*
Y327598D01*
X207983Y323818D02*
Y327440D01*
X200818D02*
X207983D01*
X200818Y323818D02*
Y327440D01*
Y323818D02*
X207983D01*
X202521Y253178D02*
X206458D01*
X204490Y251210D02*
Y255147D01*
X208073Y251367D02*
Y254989D01*
X200907D02*
X208073D01*
X200907Y251367D02*
Y254989D01*
Y251367D02*
X208073D01*
X200946Y178822D02*
X208112D01*
X200946D02*
Y182444D01*
X208112D01*
Y178822D02*
Y182444D01*
X204529Y178665D02*
Y182602D01*
X202560Y180633D02*
X206497D01*
X202285Y104174D02*
X206222D01*
X204253Y102205D02*
Y106142D01*
X207836Y102363D02*
Y105985D01*
X200670D02*
X207836D01*
X200670Y102363D02*
Y105985D01*
Y102363D02*
X207836D01*
X235835Y324079D02*
X239772D01*
X237804Y322110D02*
Y326047D01*
X241387Y322268D02*
Y325890D01*
X234221D02*
X241387D01*
X234221Y322268D02*
Y325890D01*
Y322268D02*
X241387D01*
X235925Y251628D02*
X239862D01*
X237893Y249659D02*
Y253596D01*
X241476Y249817D02*
Y253439D01*
X234311D02*
X241476D01*
X234311Y249817D02*
Y253439D01*
Y249817D02*
X241476D01*
X234350Y177272D02*
X241515D01*
X234350D02*
Y180894D01*
X241515D01*
Y177272D02*
Y180894D01*
X237932Y177114D02*
Y181051D01*
X235964Y179083D02*
X239901D01*
X340125Y74237D02*
X347606D01*
X342684Y80930D02*
X345047D01*
X343865Y79748D02*
Y82111D01*
X340125Y74237D02*
Y87623D01*
X347606Y74237D02*
Y87623D01*
X340125D02*
X347606D01*
X333531Y83390D02*
X335893D01*
X334712Y82209D02*
Y84571D01*
X330184Y74138D02*
Y92642D01*
X339240Y74138D02*
Y92642D01*
X330184Y74138D02*
X339240D01*
X330184Y92642D02*
X339240D01*
X323662Y83576D02*
X326024D01*
X324843Y82395D02*
Y84758D01*
X320316Y74325D02*
Y92828D01*
X329371Y74325D02*
Y92828D01*
X320316Y74325D02*
X329371D01*
X320316Y92828D02*
X329371D01*
X350782Y31708D02*
Y50015D01*
X341727D02*
X350782D01*
X341727Y31708D02*
Y50015D01*
Y31708D02*
X350782D01*
X344286Y40861D02*
X348223D01*
X346254Y38893D02*
Y42830D01*
X341024Y31708D02*
Y50015D01*
X331969D02*
X341024D01*
X331969Y31708D02*
Y50015D01*
Y31708D02*
X341024D01*
X334528Y40861D02*
X338465D01*
X336496Y38893D02*
Y42830D01*
X359446Y62301D02*
Y74900D01*
X377950D01*
Y62301D02*
Y74900D01*
X359446Y62301D02*
X377950D01*
X366730Y68601D02*
X370667D01*
X368698Y66632D02*
Y70569D01*
X359482Y48817D02*
Y61415D01*
X377986D01*
Y48817D02*
Y61415D01*
X359482Y48817D02*
X377986D01*
X366766Y55116D02*
X370703D01*
X368734Y53148D02*
Y57085D01*
X368792Y86693D02*
Y90630D01*
X366823Y88661D02*
X370760D01*
X359540Y94960D02*
X378044D01*
X359540Y82362D02*
Y94960D01*
Y82362D02*
X378044D01*
Y94960D01*
X375590Y75787D02*
Y81693D01*
X363386Y75787D02*
Y81693D01*
Y75787D02*
X375590D01*
X363386Y81693D02*
X375590D01*
X368307Y78740D02*
X370669D01*
X369488Y77559D02*
Y79921D01*
X352889Y54659D02*
X358795D01*
X352889Y66864D02*
X358795D01*
Y54659D02*
Y66864D01*
X352889Y54659D02*
Y66864D01*
X355842Y59580D02*
Y61942D01*
X354661Y60761D02*
X357023D01*
X352889Y94413D02*
X358795D01*
X352889Y82208D02*
X358795D01*
Y94413D01*
X352889Y82208D02*
Y94413D01*
X355842Y87130D02*
Y89492D01*
X354661Y88311D02*
X357023D01*
X155040Y13872D02*
X167639D01*
X155040D02*
Y32376D01*
X167639D01*
Y13872D02*
Y32376D01*
X161339Y21156D02*
Y25093D01*
X159371Y23124D02*
X163308D01*
X271499Y23079D02*
X275436D01*
X273468Y21111D02*
Y25048D01*
X279767Y13828D02*
Y32331D01*
X267168D02*
X279767D01*
X267168Y13828D02*
Y32331D01*
Y13828D02*
X279767D01*
X141840Y13872D02*
X154439D01*
X141840D02*
Y32376D01*
X154439D01*
Y13872D02*
Y32376D01*
X148139Y21156D02*
Y25093D01*
X146171Y23124D02*
X150108D01*
X258299Y23079D02*
X262236D01*
X260268Y21111D02*
Y25048D01*
X266567Y13828D02*
Y32331D01*
X253969D02*
X266567D01*
X253969Y13828D02*
Y32331D01*
Y13828D02*
X266567D01*
X155437Y33877D02*
Y39783D01*
X167642Y33877D02*
Y39783D01*
X155437D02*
X167642D01*
X155437Y33877D02*
X167642D01*
X160358Y36830D02*
X162721D01*
X161539Y35649D02*
Y38011D01*
X273668Y35604D02*
Y37966D01*
X272487Y36785D02*
X274849D01*
X267565Y33832D02*
X279770D01*
X267565Y39738D02*
X279770D01*
Y33832D02*
Y39738D01*
X267565Y33832D02*
Y39738D01*
X187872Y16285D02*
X200470D01*
X187872D02*
Y34789D01*
X200470D01*
Y16285D02*
Y34789D01*
X194171Y23569D02*
Y27505D01*
X192202Y25537D02*
X196139D01*
X177387Y19628D02*
X183292D01*
X177387Y31832D02*
X183292D01*
X177387Y19628D02*
Y31832D01*
X183292Y19628D02*
Y31832D01*
X180339Y24549D02*
Y26911D01*
X179158Y25730D02*
X181520D01*
X167632Y40490D02*
Y47970D01*
X160939Y43049D02*
Y45411D01*
X159758Y44230D02*
X162120D01*
X154246Y40490D02*
X167632D01*
X154246Y47970D02*
X167632D01*
X154246Y40490D02*
Y47970D01*
X168209Y14429D02*
Y31831D01*
Y14429D02*
X176870D01*
Y31831D01*
X168209D02*
X176870D01*
X170571Y23130D02*
X174508D01*
X172539Y21161D02*
Y25098D01*
X284668Y21116D02*
Y25054D01*
X282699Y23085D02*
X286636D01*
X280337Y31786D02*
X288998D01*
Y14384D02*
Y31786D01*
X280337Y14384D02*
X288998D01*
X280337D02*
Y31786D01*
X107940Y291409D02*
X124712D01*
X107940D02*
Y308181D01*
X124712D01*
Y291409D02*
Y308181D01*
X108030Y218959D02*
X124801D01*
X108030D02*
Y235730D01*
X124801D01*
Y218959D02*
Y235730D01*
X108069Y146413D02*
X124840D01*
X108069D02*
Y163185D01*
X124840D01*
Y146413D02*
Y163185D01*
X283793Y280820D02*
Y322159D01*
X313320Y280820D02*
Y322159D01*
X283793Y280820D02*
X313320D01*
X283793Y322159D02*
X313320D01*
X296588Y301489D02*
X300525D01*
X298557Y299521D02*
Y303458D01*
X298449Y227070D02*
Y231007D01*
X296481Y229039D02*
X300418D01*
X283686Y249708D02*
X313213D01*
X283686Y208369D02*
X313213D01*
Y249708D01*
X283686Y208369D02*
Y249708D01*
X298488Y154525D02*
Y158462D01*
X296520Y156493D02*
X300457D01*
X283724Y177162D02*
X313252D01*
X283724Y135824D02*
X313252D01*
Y177162D01*
X283724Y135824D02*
Y177162D01*
X89772Y300127D02*
Y304064D01*
X87804Y302095D02*
X91741D01*
X81308Y293631D02*
Y310560D01*
Y293631D02*
X98237D01*
Y310560D01*
X81308D02*
X98237D01*
X81397Y238109D02*
X98326D01*
Y221180D02*
Y238109D01*
X81397Y221180D02*
X98326D01*
X81397D02*
Y238109D01*
X87893Y229645D02*
X91830D01*
X89862Y227676D02*
Y231613D01*
X89901Y155131D02*
Y159068D01*
X87932Y157099D02*
X91869D01*
X81436Y148635D02*
Y165564D01*
Y148635D02*
X98365D01*
Y165564D01*
X81436D02*
X98365D01*
X135802Y302048D02*
X139739D01*
X137770Y300079D02*
Y304016D01*
X129306Y310513D02*
X146235D01*
X129306Y293583D02*
Y310513D01*
Y293583D02*
X146235D01*
Y310513D01*
X146324Y221133D02*
Y238062D01*
X129395Y221133D02*
X146324D01*
X129395D02*
Y238062D01*
X146324D01*
X137860Y227629D02*
Y231566D01*
X135891Y229597D02*
X139828D01*
X135930Y157052D02*
X139867D01*
X137898Y155084D02*
Y159020D01*
X129434Y165517D02*
X146363D01*
X129434Y148587D02*
Y165517D01*
Y148587D02*
X146363D01*
Y165517D01*
X149372Y295934D02*
Y306277D01*
X161971D01*
Y295934D02*
Y306277D01*
X149372Y295934D02*
X161971D01*
X149462Y223484D02*
Y233826D01*
X162060D01*
Y223484D02*
Y233826D01*
X149462Y223484D02*
X162060D01*
X149501Y150938D02*
Y161281D01*
X162099D01*
Y150938D02*
Y161281D01*
X149501Y150938D02*
X162099D01*
X149422Y74676D02*
X162020D01*
Y85018D01*
X149422D02*
X162020D01*
X149422Y74676D02*
Y85018D01*
X65079Y295900D02*
Y306242D01*
X77678D01*
Y295900D02*
Y306242D01*
X65079Y295900D02*
X77678D01*
X65169Y223449D02*
Y233791D01*
X77767D01*
Y223449D02*
Y233791D01*
X65169Y223449D02*
X77767D01*
X185504Y32393D02*
Y46566D01*
X168575Y32393D02*
X185504D01*
X168575D02*
Y46566D01*
X185504D01*
X291539Y267725D02*
Y279930D01*
X297444D01*
Y267725D02*
Y279930D01*
X291539Y267725D02*
X297444D01*
X292523Y273828D02*
X296460D01*
X294491Y271859D02*
Y275796D01*
X291628Y195275D02*
Y207479D01*
X297534D01*
Y195275D02*
Y207479D01*
X291628Y195275D02*
X297534D01*
X292612Y201377D02*
X296549D01*
X294581Y199409D02*
Y203346D01*
X291667Y122729D02*
Y134934D01*
X297572D01*
Y122729D02*
Y134934D01*
X291667Y122729D02*
X297572D01*
X292651Y128832D02*
X296588D01*
X294620Y126863D02*
Y130800D01*
X294344Y50404D02*
Y54341D01*
X292375Y52372D02*
X296312D01*
X291391Y46270D02*
X297297D01*
Y58475D01*
X291391D02*
X297297D01*
X291391Y46270D02*
Y58475D01*
X140781Y280396D02*
X144718D01*
X142750Y278428D02*
Y282365D01*
X148852Y277443D02*
Y283349D01*
X136647Y277443D02*
X148852D01*
X136647D02*
Y283349D01*
X148852D01*
X136737Y210898D02*
X148942D01*
X136737Y204993D02*
Y210898D01*
Y204993D02*
X148942D01*
Y210898D01*
X142839Y205977D02*
Y209914D01*
X140871Y207945D02*
X144808D01*
X140910Y135400D02*
X144846D01*
X142878Y133431D02*
Y137369D01*
X148980Y132447D02*
Y138353D01*
X136776Y132447D02*
X148980D01*
X136776D02*
Y138353D01*
X148980D01*
X140830Y59137D02*
X144767D01*
X142799Y57169D02*
Y61106D01*
X148901Y56185D02*
Y62090D01*
X136697Y56185D02*
X148901D01*
X136697D02*
Y62090D01*
X148901D01*
X100622Y285020D02*
Y288957D01*
X98654Y286988D02*
X102591D01*
X97669Y280886D02*
X103575D01*
Y293091D01*
X97669D02*
X103575D01*
X97669Y280886D02*
Y293091D01*
X97759Y208435D02*
Y220640D01*
X103664D01*
Y208435D02*
Y220640D01*
X97759Y208435D02*
X103664D01*
X98743Y214538D02*
X102680D01*
X100712Y212569D02*
Y216506D01*
X100750Y140024D02*
Y143961D01*
X98782Y141992D02*
X102719D01*
X97798Y135890D02*
X103703D01*
Y148094D01*
X97798D02*
X103703D01*
X97798Y135890D02*
Y148094D01*
X100475Y63564D02*
Y67501D01*
X98506Y65533D02*
X102443D01*
X97522Y59430D02*
X103427D01*
Y71635D01*
X97522D02*
X103427D01*
X97522Y59430D02*
Y71635D01*
X78933Y285020D02*
Y288957D01*
X76965Y286988D02*
X80902D01*
X75980Y280886D02*
X81886D01*
Y293091D01*
X75980D02*
X81886D01*
X75980Y280886D02*
Y293091D01*
X76070Y208435D02*
Y220640D01*
X81975D01*
Y208435D02*
Y220640D01*
X76070Y208435D02*
X81975D01*
X77054Y214538D02*
X80991D01*
X79023Y212569D02*
Y216506D01*
X79061Y140024D02*
Y143961D01*
X77093Y141992D02*
X81030D01*
X76109Y135890D02*
X82014D01*
Y148094D01*
X76109D02*
X82014D01*
X76109Y135890D02*
Y148094D01*
X78786Y63564D02*
Y67501D01*
X76817Y65533D02*
X80754D01*
X75833Y59430D02*
X81738D01*
Y71635D01*
X75833D02*
X81738D01*
X75833Y59430D02*
Y71635D01*
X364567Y110138D02*
Y114075D01*
X362598Y112106D02*
X366535D01*
X360827Y105413D02*
X368307D01*
X360827D02*
Y118799D01*
X368307D01*
Y105413D02*
Y118799D01*
X106466Y273244D02*
Y277181D01*
X104498Y275213D02*
X108435D01*
X103513Y281315D02*
X109419D01*
Y269110D02*
Y281315D01*
X103513Y269110D02*
X109419D01*
X103513D02*
Y281315D01*
X103603Y196660D02*
Y208864D01*
Y196660D02*
X109508D01*
Y208864D01*
X103603D02*
X109508D01*
X104587Y202762D02*
X108524D01*
X106556Y200793D02*
Y204730D01*
X106595Y128248D02*
Y132185D01*
X104626Y130217D02*
X108563D01*
X103642Y136319D02*
X109547D01*
Y124114D02*
Y136319D01*
X103642Y124114D02*
X109547D01*
X103642D02*
Y136319D01*
X148524Y36516D02*
Y40453D01*
X146555Y38484D02*
X150492D01*
X144783Y31791D02*
X152264D01*
X144783D02*
Y45177D01*
X152264D01*
Y31791D02*
Y45177D01*
X260268Y36580D02*
Y40517D01*
X258299Y38549D02*
X262236D01*
X256528Y31856D02*
X264008D01*
X256528D02*
Y45242D01*
X264008D01*
Y31856D02*
Y45242D01*
X204841Y25395D02*
Y29332D01*
X202873Y27363D02*
X206810D01*
X201101Y20670D02*
X208582D01*
X201101D02*
Y34056D01*
X208582D01*
Y20670D02*
Y34056D01*
X162832Y316531D02*
Y323696D01*
X166454D01*
Y316531D02*
Y323696D01*
X162832Y316531D02*
X166454D01*
X162674Y320114D02*
X166611D01*
X164643Y318145D02*
Y322082D01*
X162921Y244080D02*
Y251246D01*
X166543D01*
Y244080D02*
Y251246D01*
X162921Y244080D02*
X166543D01*
X162764Y247663D02*
X166701D01*
X164732Y245694D02*
Y249632D01*
X164771Y173149D02*
Y177086D01*
X162803Y175118D02*
X166740D01*
X162960Y171535D02*
X166582D01*
Y178700D01*
X162960D02*
X166582D01*
X162960Y171535D02*
Y178700D01*
X162684Y95076D02*
Y102241D01*
X166306D01*
Y95076D02*
Y102241D01*
X162684Y95076D02*
X166306D01*
X162527Y98658D02*
X166464D01*
X164495Y96690D02*
Y100627D01*
X212213Y279229D02*
Y286395D01*
X215835D01*
Y279229D02*
Y286395D01*
X212213Y279229D02*
X215835D01*
X212055Y282812D02*
X215992D01*
X214024Y280843D02*
Y284780D01*
X212302Y206779D02*
Y213944D01*
X215924D01*
Y206779D02*
Y213944D01*
X212302Y206779D02*
X215924D01*
X212145Y210361D02*
X216082D01*
X214113Y208393D02*
Y212330D01*
X214152Y135847D02*
Y139784D01*
X212184Y137816D02*
X216121D01*
X212341Y134233D02*
X215963D01*
Y141399D01*
X212341D02*
X215963D01*
X212341Y134233D02*
Y141399D01*
X212065Y57774D02*
Y64939D01*
X215687D01*
Y57774D02*
Y64939D01*
X212065Y57774D02*
X215687D01*
X211908Y61357D02*
X215845D01*
X213876Y59388D02*
Y63325D01*
X212142Y320196D02*
Y327361D01*
X215764D01*
Y320196D02*
Y327361D01*
X212142Y320196D02*
X215764D01*
X211984Y323779D02*
X215921D01*
X213953Y321810D02*
Y325747D01*
X212231Y247745D02*
Y254911D01*
X215853D01*
Y247745D02*
Y254911D01*
X212231Y247745D02*
X215853D01*
X212074Y251328D02*
X216011D01*
X214042Y249359D02*
Y253296D01*
X214081Y176814D02*
Y180751D01*
X212113Y178783D02*
X216050D01*
X212270Y175200D02*
X215892D01*
Y182365D01*
X212270D02*
X215892D01*
X212270Y175200D02*
Y182365D01*
X211994Y98741D02*
Y105906D01*
X215616D01*
Y98741D02*
Y105906D01*
X211994Y98741D02*
X215616D01*
X211837Y102323D02*
X215774D01*
X213805Y100355D02*
Y104292D01*
X173360Y314253D02*
X180525D01*
X173360D02*
Y317875D01*
X180525D01*
Y314253D02*
Y317875D01*
X176943Y314096D02*
Y318033D01*
X174974Y316064D02*
X178911D01*
X173450Y241802D02*
X180615D01*
X173450D02*
Y245424D01*
X180615D01*
Y241802D02*
Y245424D01*
X177032Y241645D02*
Y245582D01*
X175064Y243613D02*
X179001D01*
X175103Y171068D02*
X179040D01*
X177071Y169100D02*
Y173037D01*
X180654Y169257D02*
Y172879D01*
X173488D02*
X180654D01*
X173488Y169257D02*
Y172879D01*
Y169257D02*
X180654D01*
X173213Y92798D02*
X180378D01*
X173213D02*
Y96420D01*
X180378D01*
Y92798D02*
Y96420D01*
X176795Y92640D02*
Y96577D01*
X174827Y94609D02*
X178764D01*
X222802Y277093D02*
X229967D01*
X222802D02*
Y280715D01*
X229967D01*
Y277093D02*
Y280715D01*
X226384Y276936D02*
Y280873D01*
X224416Y278904D02*
X228353D01*
X222891Y204642D02*
X230057D01*
X222891D02*
Y208264D01*
X230057D01*
Y204642D02*
Y208264D01*
X226474Y204485D02*
Y208422D01*
X224505Y206453D02*
X228443D01*
X224544Y133908D02*
X228481D01*
X226513Y131939D02*
Y135876D01*
X230096Y132097D02*
Y135719D01*
X222930D02*
X230096D01*
X222930Y132097D02*
Y135719D01*
Y132097D02*
X230096D01*
X222654Y55638D02*
X229820D01*
X222654D02*
Y59260D01*
X229820D01*
Y55638D02*
Y59260D01*
X226237Y55480D02*
Y59417D01*
X224269Y57449D02*
X228205D01*
X222770Y317968D02*
X229935D01*
X222770D02*
Y321590D01*
X229935D01*
Y317968D02*
Y321590D01*
X226353Y317810D02*
Y321747D01*
X224384Y319779D02*
X228321D01*
X222860Y245517D02*
X230025D01*
X222860D02*
Y249139D01*
X230025D01*
Y245517D02*
Y249139D01*
X226442Y245359D02*
Y249296D01*
X224474Y247328D02*
X228411D01*
X224513Y174783D02*
X228450D01*
X226481Y172814D02*
Y176751D01*
X230064Y172972D02*
Y176594D01*
X222898D02*
X230064D01*
X222898Y172972D02*
Y176594D01*
Y172972D02*
X230064D01*
X222622Y96512D02*
X229788D01*
X222622D02*
Y100134D01*
X229788D01*
Y96512D02*
Y100134D01*
X226205Y96355D02*
Y100292D01*
X224237Y98323D02*
X228174D01*
X181703Y309999D02*
Y317164D01*
X185325D01*
Y309999D02*
Y317164D01*
X181703Y309999D02*
X185325D01*
X181545Y313581D02*
X185482D01*
X183514Y311613D02*
Y315550D01*
X181792Y237548D02*
Y244713D01*
X185414D01*
Y237548D02*
Y244713D01*
X181792Y237548D02*
X185414D01*
X181635Y241131D02*
X185572D01*
X183603Y239162D02*
Y243099D01*
X183445Y166420D02*
Y170357D01*
X181477Y168388D02*
X185414D01*
X181634Y164806D02*
X185256D01*
Y171971D01*
X181634D02*
X185256D01*
X181634Y164806D02*
Y171971D01*
X181555Y88543D02*
Y95709D01*
X185177D01*
Y88543D02*
Y95709D01*
X181555Y88543D02*
X185177D01*
X181398Y92126D02*
X185335D01*
X183366Y90158D02*
Y94095D01*
X230602Y280715D02*
X237767D01*
Y277093D02*
Y280715D01*
X230602Y277093D02*
X237767D01*
X230602D02*
Y280715D01*
X234185Y276936D02*
Y280873D01*
X232216Y278904D02*
X236153D01*
X230691Y208264D02*
X237857D01*
Y204642D02*
Y208264D01*
X230691Y204642D02*
X237857D01*
X230691D02*
Y208264D01*
X234274Y204485D02*
Y208422D01*
X232306Y206453D02*
X236243D01*
X232344Y133908D02*
X236281D01*
X234313Y131939D02*
Y135876D01*
X230730Y132097D02*
Y135719D01*
Y132097D02*
X237895D01*
Y135719D01*
X230730D02*
X237895D01*
X230454Y59260D02*
X237620D01*
Y55638D02*
Y59260D01*
X230454Y55638D02*
X237620D01*
X230454D02*
Y59260D01*
X234037Y55480D02*
Y59417D01*
X232068Y57449D02*
X236005D01*
X230571Y321590D02*
X237736D01*
Y317968D02*
Y321590D01*
X230571Y317968D02*
X237736D01*
X230571D02*
Y321590D01*
X234154Y317810D02*
Y321747D01*
X232185Y319779D02*
X236122D01*
X230660Y249139D02*
X237826D01*
Y245517D02*
Y249139D01*
X230660Y245517D02*
X237826D01*
X230660D02*
Y249139D01*
X234243Y245359D02*
Y249296D01*
X232275Y247328D02*
X236211D01*
X232313Y174783D02*
X236250D01*
X234282Y172814D02*
Y176751D01*
X230699Y172972D02*
Y176594D01*
Y172972D02*
X237865D01*
Y176594D01*
X230699D02*
X237865D01*
X230423Y100134D02*
X237589D01*
Y96512D02*
Y100134D01*
X230423Y96512D02*
X237589D01*
X230423D02*
Y100134D01*
X234006Y96355D02*
Y100292D01*
X232037Y98323D02*
X235975D01*
X173336Y313522D02*
X180502D01*
Y309900D02*
Y313522D01*
X173336Y309900D02*
X180502D01*
X173336D02*
Y313522D01*
X176919Y309743D02*
Y313680D01*
X174951Y311711D02*
X178888D01*
X173426Y241072D02*
X180591D01*
Y237450D02*
Y241072D01*
X173426Y237450D02*
X180591D01*
X173426D02*
Y241072D01*
X177009Y237292D02*
Y241229D01*
X175040Y239261D02*
X178977D01*
X175079Y166715D02*
X179016D01*
X177048Y164747D02*
Y168684D01*
X173465Y164904D02*
Y168526D01*
Y164904D02*
X180630D01*
Y168526D01*
X173465D02*
X180630D01*
X173189Y92067D02*
X180354D01*
Y88445D02*
Y92067D01*
X173189Y88445D02*
X180354D01*
X173189D02*
Y92067D01*
X176772Y88287D02*
Y92224D01*
X174803Y90256D02*
X178740D01*
X226502Y272812D02*
X233667D01*
X226502D02*
Y276434D01*
X233667D01*
Y272812D02*
Y276434D01*
X230084Y272654D02*
Y276591D01*
X228116Y274623D02*
X232053D01*
X226591Y200361D02*
X233757D01*
X226591D02*
Y203983D01*
X233757D01*
Y200361D02*
Y203983D01*
X230174Y200204D02*
Y204141D01*
X228205Y202172D02*
X232142D01*
X228244Y129627D02*
X232181D01*
X230213Y127658D02*
Y131595D01*
X233795Y127816D02*
Y131438D01*
X226630D02*
X233795D01*
X226630Y127816D02*
Y131438D01*
Y127816D02*
X233795D01*
X226354Y51356D02*
X233520D01*
X226354D02*
Y54979D01*
X233520D01*
Y51356D02*
Y54979D01*
X229937Y51199D02*
Y55136D01*
X227969Y53167D02*
X231906D01*
X222751Y317206D02*
X229917D01*
Y313584D02*
Y317206D01*
X222751Y313584D02*
X229917D01*
X222751D02*
Y317206D01*
X226334Y313427D02*
Y317364D01*
X224365Y315395D02*
X228302D01*
X222841Y244756D02*
X230006D01*
Y241133D02*
Y244756D01*
X222841Y241133D02*
X230006D01*
X222841D02*
Y244756D01*
X226423Y240976D02*
Y244913D01*
X224455Y242944D02*
X228392D01*
X224494Y170399D02*
X228431D01*
X226462Y168431D02*
Y172368D01*
X222880Y168588D02*
Y172210D01*
Y168588D02*
X230045D01*
Y172210D01*
X222880D02*
X230045D01*
X222604Y95751D02*
X229769D01*
Y92129D02*
Y95751D01*
X222604Y92129D02*
X229769D01*
X222604D02*
Y95751D01*
X226186Y91971D02*
Y95908D01*
X224218Y93940D02*
X228155D01*
X183571Y318742D02*
Y325908D01*
X179949Y318742D02*
X183571D01*
X179949D02*
Y325908D01*
X183571D01*
X179792Y322325D02*
X183729D01*
X181760Y320356D02*
Y324293D01*
X183661Y246292D02*
Y253457D01*
X180039Y246292D02*
X183661D01*
X180039D02*
Y253457D01*
X183661D01*
X179881Y249874D02*
X183818D01*
X181850Y247906D02*
Y251843D01*
X181889Y175360D02*
Y179297D01*
X179920Y177329D02*
X183857D01*
X180078Y180912D02*
X183700D01*
X180078Y173746D02*
Y180912D01*
Y173746D02*
X183700D01*
Y180912D01*
X183424Y97287D02*
Y104452D01*
X179802Y97287D02*
X183424D01*
X179802D02*
Y104452D01*
X183424D01*
X179644Y100870D02*
X183581D01*
X181613Y98901D02*
Y102838D01*
X226902Y281293D02*
X234067D01*
X226902D02*
Y284915D01*
X234067D01*
Y281293D02*
Y284915D01*
X230485Y281136D02*
Y285072D01*
X228516Y283104D02*
X232453D01*
X226991Y208842D02*
X234157D01*
X226991D02*
Y212464D01*
X234157D01*
Y208842D02*
Y212464D01*
X230574Y208685D02*
Y212622D01*
X228606Y210653D02*
X232542D01*
X228644Y138108D02*
X232581D01*
X230613Y136139D02*
Y140076D01*
X234195Y136297D02*
Y139919D01*
X227030D02*
X234195D01*
X227030Y136297D02*
Y139919D01*
Y136297D02*
X234195D01*
X226754Y59838D02*
X233920D01*
X226754D02*
Y63460D01*
X233920D01*
Y59838D02*
Y63460D01*
X230337Y59680D02*
Y63617D01*
X228368Y61649D02*
X232306D01*
X226870Y322268D02*
X234035D01*
X226870D02*
Y325890D01*
X234035D01*
Y322268D02*
Y325890D01*
X230453Y322110D02*
Y326047D01*
X228484Y324079D02*
X232421D01*
X226960Y249817D02*
X234125D01*
X226960D02*
Y253439D01*
X234125D01*
Y249817D02*
Y253439D01*
X230542Y249659D02*
Y253596D01*
X228574Y251628D02*
X232511D01*
X228613Y179083D02*
X232550D01*
X230581Y177114D02*
Y181051D01*
X234164Y177272D02*
Y180894D01*
X226998D02*
X234164D01*
X226998Y177272D02*
Y180894D01*
Y177272D02*
X234164D01*
X226723Y100812D02*
X233888D01*
X226723D02*
Y104434D01*
X233888D01*
Y100812D02*
Y104434D01*
X230305Y100655D02*
Y104592D01*
X228337Y102623D02*
X232274D01*
X159160Y327925D02*
X166325D01*
Y324303D02*
Y327925D01*
X159160Y324303D02*
X166325D01*
X159160D02*
Y327925D01*
X162743Y324145D02*
Y328082D01*
X160774Y326114D02*
X164711D01*
X159250Y255474D02*
X166415D01*
Y251852D02*
Y255474D01*
X159250Y251852D02*
X166415D01*
X159250D02*
Y255474D01*
X162832Y251694D02*
Y255631D01*
X160864Y253663D02*
X164801D01*
X160903Y181118D02*
X164840D01*
X162871Y179149D02*
Y183086D01*
X159288Y179307D02*
Y182929D01*
Y179307D02*
X166454D01*
Y182929D01*
X159288D02*
X166454D01*
X159012Y106469D02*
X166178D01*
Y102847D02*
Y106469D01*
X159012Y102847D02*
X166178D01*
X159012D02*
Y106469D01*
X162595Y102690D02*
Y106627D01*
X160627Y104658D02*
X164564D01*
X305673Y328710D02*
X312838D01*
X305673D02*
Y332332D01*
X312838D01*
Y328710D02*
Y332332D01*
X309255Y328552D02*
Y332489D01*
X307287Y330521D02*
X311224D01*
X305762Y256259D02*
X312927D01*
X305762D02*
Y259881D01*
X312927D01*
Y256259D02*
Y259881D01*
X309345Y256101D02*
Y260038D01*
X307376Y258070D02*
X311313D01*
X305801Y183714D02*
X312966D01*
X305801D02*
Y187336D01*
X312966D01*
Y183714D02*
Y187336D01*
X309384Y183556D02*
Y187493D01*
X307415Y185525D02*
X311352D01*
X305525Y107254D02*
X312690D01*
X305525D02*
Y110876D01*
X312690D01*
Y107254D02*
Y110876D01*
X309108Y107097D02*
Y111034D01*
X307139Y109065D02*
X311076D01*
X297700Y325855D02*
X304866D01*
X297700D02*
Y329477D01*
X304866D01*
Y325855D02*
Y329477D01*
X301283Y325698D02*
Y329635D01*
X299314Y327666D02*
X303251D01*
X297790Y253405D02*
X304955D01*
X297790D02*
Y257027D01*
X304955D01*
Y253405D02*
Y257027D01*
X301372Y253247D02*
Y257184D01*
X299404Y255216D02*
X303341D01*
X297828Y180859D02*
X304994D01*
X297828D02*
Y184481D01*
X304994D01*
Y180859D02*
Y184481D01*
X301411Y180702D02*
Y184639D01*
X299443Y182670D02*
X303380D01*
X297553Y104400D02*
X304718D01*
X297553D02*
Y108022D01*
X304718D01*
Y104400D02*
Y108022D01*
X301135Y104243D02*
Y108179D01*
X299167Y106211D02*
X303104D01*
X313330Y272607D02*
Y279773D01*
X309708Y272607D02*
X313330D01*
X309708D02*
Y279773D01*
X313330D01*
X309550Y276190D02*
X313488D01*
X311519Y274221D02*
Y278158D01*
X313420Y200157D02*
Y207322D01*
X309797Y200157D02*
X313420D01*
X309797D02*
Y207322D01*
X313420D01*
X309640Y203739D02*
X313577D01*
X311609Y201771D02*
Y205708D01*
X313458Y127611D02*
Y134777D01*
X309836Y127611D02*
X313458D01*
X309836D02*
Y134777D01*
X313458D01*
X309679Y131194D02*
X313616D01*
X311647Y129225D02*
Y133162D01*
X313182Y51152D02*
Y58317D01*
X309560Y51152D02*
X313182D01*
X309560D02*
Y58317D01*
X313182D01*
X309403Y54735D02*
X313340D01*
X311371Y52766D02*
Y56703D01*
X305673Y323099D02*
X312838D01*
X305673D02*
Y326722D01*
X312838D01*
Y323099D02*
Y326722D01*
X309255Y322942D02*
Y326879D01*
X307287Y324910D02*
X311224D01*
X305762Y250649D02*
X312927D01*
X305762D02*
Y254271D01*
X312927D01*
Y250649D02*
Y254271D01*
X309345Y250491D02*
Y254428D01*
X307376Y252460D02*
X311313D01*
X305801Y178103D02*
X312966D01*
X305801D02*
Y181725D01*
X312966D01*
Y178103D02*
Y181725D01*
X309384Y177946D02*
Y181883D01*
X307415Y179914D02*
X311352D01*
X305525Y101644D02*
X312690D01*
X305525D02*
Y105266D01*
X312690D01*
Y101644D02*
Y105266D01*
X309108Y101487D02*
Y105424D01*
X307139Y103455D02*
X311076D01*
X297700Y331466D02*
X304866D01*
X297700D02*
Y335088D01*
X304866D01*
Y331466D02*
Y335088D01*
X301283Y331308D02*
Y335245D01*
X299314Y333277D02*
X303251D01*
X297790Y259015D02*
X304955D01*
X297790D02*
Y262637D01*
X304955D01*
Y259015D02*
Y262637D01*
X301372Y258857D02*
Y262794D01*
X299404Y260826D02*
X303341D01*
X297828Y186469D02*
X304994D01*
X297828D02*
Y190092D01*
X304994D01*
Y186469D02*
Y190092D01*
X301411Y186312D02*
Y190249D01*
X299443Y188280D02*
X303380D01*
X297553Y110010D02*
X304718D01*
X297553D02*
Y113632D01*
X304718D01*
Y110010D02*
Y113632D01*
X301135Y109853D02*
Y113790D01*
X299167Y111821D02*
X303104D01*
X207935Y290665D02*
X215100D01*
Y287043D02*
Y290665D01*
X207935Y287043D02*
X215100D01*
X207935D02*
Y290665D01*
X211518Y286885D02*
Y290822D01*
X209549Y288854D02*
X213486D01*
X208024Y218214D02*
X215190D01*
Y214592D02*
Y218214D01*
X208024Y214592D02*
X215190D01*
X208024D02*
Y218214D01*
X211607Y214434D02*
Y218371D01*
X209639Y216403D02*
X213576D01*
X209677Y143858D02*
X213614D01*
X211646Y141889D02*
Y145826D01*
X208063Y142046D02*
Y145669D01*
Y142046D02*
X215229D01*
Y145669D01*
X208063D02*
X215229D01*
X207787Y69209D02*
X214953D01*
Y65587D02*
Y69209D01*
X207787Y65587D02*
X214953D01*
X207787D02*
Y69209D01*
X211370Y65430D02*
Y69367D01*
X209401Y67398D02*
X213338D01*
X91805Y286278D02*
Y290215D01*
X89836Y288246D02*
X93773D01*
X89994Y284664D02*
X93616D01*
X89994D02*
Y291829D01*
X93616D01*
Y284664D02*
Y291829D01*
X93705Y212213D02*
Y219378D01*
X90083D02*
X93705D01*
X90083Y212213D02*
Y219378D01*
Y212213D02*
X93705D01*
X89926Y215796D02*
X93863D01*
X91894Y213827D02*
Y217764D01*
X91933Y141282D02*
Y145219D01*
X89965Y143250D02*
X93902D01*
X90122Y139668D02*
X93744D01*
X90122D02*
Y146833D01*
X93744D01*
Y139668D02*
Y146833D01*
X91854Y65019D02*
Y68956D01*
X89885Y66988D02*
X93822D01*
X90043Y63405D02*
X93665D01*
X90043D02*
Y70571D01*
X93665D01*
Y63405D02*
Y70571D01*
X87687Y286278D02*
Y290215D01*
X85719Y288246D02*
X89656D01*
X85876Y284664D02*
X89498D01*
X85876D02*
Y291829D01*
X89498D01*
Y284664D02*
Y291829D01*
X89588Y212213D02*
Y219378D01*
X85966D02*
X89588D01*
X85966Y212213D02*
Y219378D01*
Y212213D02*
X89588D01*
X85808Y215796D02*
X89745D01*
X87777Y213827D02*
Y217764D01*
X87816Y141282D02*
Y145219D01*
X85847Y143250D02*
X89784D01*
X86005Y139668D02*
X89627D01*
X86005D02*
Y146833D01*
X89627D01*
Y139668D02*
Y146833D01*
X87737Y65019D02*
Y68956D01*
X85768Y66988D02*
X89705D01*
X85926Y63405D02*
X89548D01*
X85926D02*
Y70571D01*
X89548D01*
Y63405D02*
Y70571D01*
X208570Y331690D02*
X215735D01*
Y328068D02*
Y331690D01*
X208570Y328068D02*
X215735D01*
X208570D02*
Y331690D01*
X212153Y327910D02*
Y331847D01*
X210184Y329879D02*
X214121D01*
X210274Y257428D02*
X214211D01*
X212242Y255459D02*
Y259397D01*
X208660Y255617D02*
Y259239D01*
Y255617D02*
X215825D01*
Y259239D01*
X208660D02*
X215825D01*
X210313Y184883D02*
X214250D01*
X212281Y182914D02*
Y186851D01*
X208698Y183072D02*
Y186694D01*
Y183072D02*
X215864D01*
Y186694D01*
X208698D02*
X215864D01*
X208422Y110234D02*
X215588D01*
Y106612D02*
Y110234D01*
X208422Y106612D02*
X215588D01*
X208422D02*
Y110234D01*
X212005Y106455D02*
Y110392D01*
X210037Y108423D02*
X213974D01*
X162154Y316531D02*
Y323696D01*
X158532Y316531D02*
X162154D01*
X158532D02*
Y323696D01*
X162154D01*
X158374Y320114D02*
X162311D01*
X160343Y318145D02*
Y322082D01*
X160432Y245694D02*
Y249632D01*
X158464Y247663D02*
X162401D01*
X158621Y251246D02*
X162243D01*
X158621Y244080D02*
Y251246D01*
Y244080D02*
X162243D01*
Y251246D01*
X160471Y173149D02*
Y177086D01*
X158503Y175118D02*
X162440D01*
X158660Y178700D02*
X162282D01*
X158660Y171535D02*
Y178700D01*
Y171535D02*
X162282D01*
Y178700D01*
X162006Y95076D02*
Y102241D01*
X158384Y95076D02*
X162006D01*
X158384D02*
Y102241D01*
X162006D01*
X158227Y98658D02*
X162164D01*
X160195Y96690D02*
Y100627D01*
X211495Y279221D02*
Y286387D01*
X207874Y279221D02*
X211495D01*
X207874D02*
Y286387D01*
X211495D01*
X207716Y282804D02*
X211653D01*
X209684Y280836D02*
Y284772D01*
X209774Y208385D02*
Y212322D01*
X207805Y210353D02*
X211742D01*
X207963Y213936D02*
X211585D01*
X207963Y206771D02*
Y213936D01*
Y206771D02*
X211585D01*
Y213936D01*
X209813Y135839D02*
Y139776D01*
X207844Y137808D02*
X211781D01*
X208002Y141391D02*
X211624D01*
X208002Y134225D02*
Y141391D01*
Y134225D02*
X211624D01*
Y141391D01*
X211348Y57766D02*
Y64931D01*
X207726Y57766D02*
X211348D01*
X207726D02*
Y64931D01*
X211348D01*
X207569Y61349D02*
X211506D01*
X209537Y59380D02*
Y63317D01*
X211364Y320196D02*
Y327361D01*
X207742Y320196D02*
X211364D01*
X207742D02*
Y327361D01*
X211364D01*
X207584Y323779D02*
X211521D01*
X209553Y321810D02*
Y325747D01*
X209642Y249359D02*
Y253296D01*
X207674Y251328D02*
X211611D01*
X207831Y254911D02*
X211453D01*
X207831Y247745D02*
Y254911D01*
Y247745D02*
X211453D01*
Y254911D01*
X209681Y176814D02*
Y180751D01*
X207713Y178783D02*
X211650D01*
X207870Y182365D02*
X211492D01*
X207870Y175200D02*
Y182365D01*
Y175200D02*
X211492D01*
Y182365D01*
X211216Y98741D02*
Y105906D01*
X207594Y98741D02*
X211216D01*
X207594D02*
Y105906D01*
X211216D01*
X207437Y102323D02*
X211374D01*
X209405Y100355D02*
Y104292D01*
X150663Y327895D02*
X157828D01*
Y324273D02*
Y327895D01*
X150663Y324273D02*
X157828D01*
X150663D02*
Y327895D01*
X154246Y324115D02*
Y328052D01*
X152277Y326084D02*
X156214D01*
X152367Y253633D02*
X156304D01*
X154335Y251665D02*
Y255602D01*
X150752Y251822D02*
Y255444D01*
Y251822D02*
X157918D01*
Y255444D01*
X150752D02*
X157918D01*
X152406Y181088D02*
X156342D01*
X154374Y179119D02*
Y183056D01*
X150791Y179277D02*
Y182899D01*
Y179277D02*
X157957D01*
Y182899D01*
X150791D02*
X157957D01*
X150515Y106439D02*
X157681D01*
Y102817D02*
Y106439D01*
X150515Y102817D02*
X157681D01*
X150515D02*
Y106439D01*
X154098Y102660D02*
Y106597D01*
X152130Y104628D02*
X156067D01*
X203573Y279221D02*
Y286387D01*
X207195D01*
Y279221D02*
Y286387D01*
X203573Y279221D02*
X207195D01*
X203416Y282804D02*
X207353D01*
X205384Y280836D02*
Y284772D01*
X205474Y208385D02*
Y212322D01*
X203505Y210353D02*
X207442D01*
X203663Y206771D02*
X207285D01*
Y213936D01*
X203663D02*
X207285D01*
X203663Y206771D02*
Y213936D01*
X205513Y135839D02*
Y139776D01*
X203544Y137808D02*
X207481D01*
X203702Y134225D02*
X207324D01*
Y141391D01*
X203702D02*
X207324D01*
X203702Y134225D02*
Y141391D01*
X203426Y57766D02*
Y64931D01*
X207048D01*
Y57766D02*
Y64931D01*
X203426Y57766D02*
X207048D01*
X203269Y61349D02*
X207206D01*
X205237Y59380D02*
Y63317D01*
X200872Y331694D02*
X208037D01*
Y328072D02*
Y331694D01*
X200872Y328072D02*
X208037D01*
X200872D02*
Y331694D01*
X204455Y327914D02*
Y331851D01*
X202486Y329883D02*
X206423D01*
X200961Y259243D02*
X208127D01*
Y255621D02*
Y259243D01*
X200961Y255621D02*
X208127D01*
X200961D02*
Y259243D01*
X204544Y255464D02*
Y259401D01*
X202575Y257432D02*
X206512D01*
X202614Y184887D02*
X206551D01*
X204583Y182918D02*
Y186855D01*
X201000Y183076D02*
Y186698D01*
Y183076D02*
X208166D01*
Y186698D01*
X201000D02*
X208166D01*
X200724Y110238D02*
X207890D01*
Y106616D02*
Y110238D01*
X200724Y106616D02*
X207890D01*
X200724D02*
Y110238D01*
X204307Y106459D02*
Y110396D01*
X202339Y108427D02*
X206276D01*
X159153Y52165D02*
X163091D01*
X161122Y50197D02*
Y54134D01*
X155217Y49213D02*
Y55118D01*
X167028Y49213D02*
Y55118D01*
X155217D02*
X167028D01*
X155217Y49213D02*
X167028D01*
X371818Y63016D02*
Y74827D01*
X365913Y63016D02*
Y74827D01*
Y63016D02*
X371818D01*
X365913Y74827D02*
X371818D01*
X366897Y68922D02*
X370834D01*
X368865Y66953D02*
Y70890D01*
X371818Y50418D02*
Y62229D01*
X365913Y50418D02*
Y62229D01*
Y50418D02*
X371818D01*
X365913Y62229D02*
X371818D01*
X366897Y56323D02*
X370834D01*
X368865Y54355D02*
Y58292D01*
X271499Y51481D02*
X275436D01*
X273468Y49513D02*
Y53450D01*
X267562Y48528D02*
Y54434D01*
X279373Y48528D02*
Y54434D01*
X267562D02*
X279373D01*
X267562Y48528D02*
X279373D01*
X194269Y44041D02*
X198206D01*
X196238Y42072D02*
Y46009D01*
X199820Y42230D02*
Y45852D01*
X192655Y42230D02*
X199820D01*
X192655D02*
Y45852D01*
X199820D01*
X309096Y45777D02*
X316262D01*
X309096Y42155D02*
Y45777D01*
Y42155D02*
X316262D01*
Y45777D01*
X312679Y41997D02*
Y45934D01*
X310710Y43966D02*
X314647D01*
X190135Y43848D02*
Y47785D01*
X188167Y45816D02*
X192104D01*
X188324Y42234D02*
X191946D01*
X188324D02*
Y49399D01*
X191946D01*
Y42234D02*
Y49399D01*
X308387Y42158D02*
Y49324D01*
X304765D02*
X308387D01*
X304765Y42158D02*
Y49324D01*
Y42158D02*
X308387D01*
X304608Y45741D02*
X308545D01*
X306576Y43773D02*
Y47710D01*
X192202Y35970D02*
Y39907D01*
X190234Y37939D02*
X194171D01*
X190391Y34356D02*
X194013D01*
X190391D02*
Y41521D01*
X194013D01*
Y34356D02*
Y41521D01*
X306142Y34311D02*
Y41476D01*
X302520D02*
X306142D01*
X302520Y34311D02*
Y41476D01*
Y34311D02*
X306142D01*
X302362Y37894D02*
X306299D01*
X304331Y35925D02*
Y39862D01*
X182945Y48804D02*
Y52741D01*
X180976Y50772D02*
X184913D01*
X181134Y54355D02*
X184756D01*
Y47190D02*
Y54355D01*
X181134Y47190D02*
X184756D01*
X181134D02*
Y54355D01*
X287165Y44842D02*
Y52008D01*
Y44842D02*
X290787D01*
Y52008D01*
X287165D02*
X290787D01*
X287008Y48425D02*
X290945D01*
X288976Y46457D02*
Y50394D01*
X417369Y98814D02*
Y102751D01*
X415400Y100783D02*
X419337D01*
X415558Y97200D02*
X419180D01*
X415558D02*
Y104365D01*
X419180D01*
Y97200D02*
Y104365D01*
X162766Y316019D02*
X169931D01*
Y312397D02*
Y316019D01*
X162766Y312397D02*
X169931D01*
X162766D02*
Y316019D01*
X166349Y312240D02*
Y316177D01*
X164380Y314208D02*
X168317D01*
X164470Y241757D02*
X168407D01*
X166438Y239789D02*
Y243726D01*
X162856Y239947D02*
Y243569D01*
Y239947D02*
X170021D01*
Y243569D01*
X162856D02*
X170021D01*
X164508Y169212D02*
X168446D01*
X166477Y167244D02*
Y171181D01*
X162894Y167401D02*
Y171023D01*
Y167401D02*
X170060D01*
Y171023D01*
X162894D02*
X170060D01*
X162618Y94564D02*
X169784D01*
Y90942D02*
Y94564D01*
X162618Y90942D02*
X169784D01*
X162618D02*
Y94564D01*
X166201Y90784D02*
Y94721D01*
X164233Y92753D02*
X168170D01*
X212402Y278715D02*
X219567D01*
Y275093D02*
Y278715D01*
X212402Y275093D02*
X219567D01*
X212402D02*
Y278715D01*
X215985Y274936D02*
Y278872D01*
X214016Y276904D02*
X217953D01*
X214106Y204453D02*
X218042D01*
X216074Y202485D02*
Y206422D01*
X212491Y202642D02*
Y206264D01*
Y202642D02*
X219657D01*
Y206264D01*
X212491D02*
X219657D01*
X214144Y131908D02*
X218081D01*
X216113Y129939D02*
Y133876D01*
X212530Y130097D02*
Y133719D01*
Y130097D02*
X219695D01*
Y133719D01*
X212530D02*
X219695D01*
X212254Y57260D02*
X219420D01*
Y53638D02*
Y57260D01*
X212254Y53638D02*
X219420D01*
X212254D02*
Y57260D01*
X215837Y53480D02*
Y57417D01*
X213868Y55449D02*
X217806D01*
X212170Y319590D02*
X219335D01*
Y315968D02*
Y319590D01*
X212170Y315968D02*
X219335D01*
X212170D02*
Y319590D01*
X215753Y315810D02*
Y319747D01*
X213784Y317779D02*
X217721D01*
X213874Y245328D02*
X217811D01*
X215842Y243359D02*
Y247297D01*
X212260Y243517D02*
Y247139D01*
Y243517D02*
X219425D01*
Y247139D01*
X212260D02*
X219425D01*
X213913Y172783D02*
X217850D01*
X215881Y170814D02*
Y174751D01*
X212298Y170972D02*
Y174594D01*
Y170972D02*
X219464D01*
Y174594D01*
X212298D02*
X219464D01*
X212022Y98134D02*
X219188D01*
Y94512D02*
Y98134D01*
X212022Y94512D02*
X219188D01*
X212022D02*
Y98134D01*
X215605Y94355D02*
Y98292D01*
X213637Y96323D02*
X217574D01*
X187884Y318759D02*
Y325924D01*
X184262Y318759D02*
X187884D01*
X184262D02*
Y325924D01*
X187884D01*
X184104Y322341D02*
X188041D01*
X186073Y320373D02*
Y324310D01*
X186162Y247922D02*
Y251859D01*
X184194Y249890D02*
X188131D01*
X184351Y253473D02*
X187973D01*
X184351Y246308D02*
Y253473D01*
Y246308D02*
X187973D01*
Y253473D01*
X186201Y175377D02*
Y179314D01*
X184232Y177345D02*
X188170D01*
X184390Y180928D02*
X188012D01*
X184390Y173763D02*
Y180928D01*
Y173763D02*
X188012D01*
Y180928D01*
X187736Y97303D02*
Y104469D01*
X184114Y97303D02*
X187736D01*
X184114D02*
Y104469D01*
X187736D01*
X183957Y100886D02*
X187894D01*
X185925Y98917D02*
Y102854D01*
X230702Y289034D02*
X237867D01*
Y285412D02*
Y289034D01*
X230702Y285412D02*
X237867D01*
X230702D02*
Y289034D01*
X234284Y285254D02*
Y289191D01*
X232316Y287223D02*
X236253D01*
X232405Y214772D02*
X236343D01*
X234374Y212804D02*
Y216741D01*
X230791Y212961D02*
Y216583D01*
Y212961D02*
X237957D01*
Y216583D01*
X230791D02*
X237957D01*
X232444Y142227D02*
X236381D01*
X234413Y140258D02*
Y144195D01*
X230830Y140416D02*
Y144038D01*
Y140416D02*
X237996D01*
Y144038D01*
X230830D02*
X237996D01*
X230554Y67579D02*
X237720D01*
Y63956D02*
Y67579D01*
X230554Y63956D02*
X237720D01*
X230554D02*
Y67579D01*
X234137Y63799D02*
Y67736D01*
X232169Y65768D02*
X236105D01*
X230670Y330090D02*
X237835D01*
Y326468D02*
Y330090D01*
X230670Y326468D02*
X237835D01*
X230670D02*
Y330090D01*
X234253Y326310D02*
Y330247D01*
X232284Y328279D02*
X236221D01*
X232374Y255828D02*
X236311D01*
X234342Y253859D02*
Y257797D01*
X230760Y254017D02*
Y257639D01*
Y254017D02*
X237925D01*
Y257639D01*
X230760D02*
X237925D01*
X232413Y183283D02*
X236350D01*
X234381Y181314D02*
Y185251D01*
X230798Y181472D02*
Y185094D01*
Y181472D02*
X237964D01*
Y185094D01*
X230798D02*
X237964D01*
X230522Y108634D02*
X237688D01*
Y105012D02*
Y108634D01*
X230522Y105012D02*
X237688D01*
X230522D02*
Y108634D01*
X234105Y104855D02*
Y108792D01*
X232137Y106823D02*
X236074D01*
X359672Y130323D02*
Y137488D01*
X356050D02*
X359672D01*
X356050Y130323D02*
Y137488D01*
Y130323D02*
X359672D01*
X355892Y133905D02*
X359829D01*
X357861Y131937D02*
Y135874D01*
X356128Y138889D02*
X363294D01*
Y142511D01*
X356128D02*
X363294D01*
X356128Y138889D02*
Y142511D01*
X359711Y138732D02*
Y142668D01*
X357743Y140700D02*
X361680D01*
X351017Y123811D02*
X358183D01*
X351017Y120189D02*
Y123811D01*
Y120189D02*
X358183D01*
Y123811D01*
X354600Y120031D02*
Y123969D01*
X352631Y122000D02*
X356569D01*
X353740Y155000D02*
X357677D01*
X355709Y153032D02*
Y156968D01*
X361614Y152047D02*
Y157953D01*
X349803Y152047D02*
Y157953D01*
Y152047D02*
X361614D01*
X349803Y157953D02*
X361614D01*
X167314Y326598D02*
X177156D01*
Y318724D02*
Y326598D01*
X167314Y318724D02*
X177156D01*
X167314D02*
Y326598D01*
X172235Y320692D02*
Y324629D01*
X170266Y322661D02*
X174203D01*
X170356Y250210D02*
X174293D01*
X172324Y248242D02*
Y252179D01*
X167403Y246273D02*
Y254147D01*
Y246273D02*
X177246D01*
Y254147D01*
X167403D02*
X177246D01*
X167442Y181602D02*
X177285D01*
Y173728D02*
Y181602D01*
X167442Y173728D02*
X177285D01*
X167442D02*
Y181602D01*
X172363Y175696D02*
Y179633D01*
X170395Y177665D02*
X174332D01*
X167363Y105339D02*
X177205D01*
Y97465D02*
Y105339D01*
X167363Y97465D02*
X177205D01*
X167363D02*
Y105339D01*
X172284Y99434D02*
Y103371D01*
X170316Y101402D02*
X174253D01*
X216655Y289388D02*
X226498D01*
Y281514D02*
Y289388D01*
X216655Y281514D02*
X226498D01*
X216655D02*
Y289388D01*
X221577Y283483D02*
Y287420D01*
X219608Y285451D02*
X223545D01*
X219698Y213000D02*
X223635D01*
X221666Y211032D02*
Y214969D01*
X216745Y209064D02*
Y216937D01*
Y209064D02*
X226587D01*
Y216937D01*
X216745D02*
X226587D01*
X216784Y144392D02*
X226626D01*
Y136518D02*
Y144392D01*
X216784Y136518D02*
X226626D01*
X216784D02*
Y144392D01*
X221705Y138487D02*
Y142424D01*
X219737Y140455D02*
X223674D01*
X216705Y68130D02*
X226547D01*
Y60256D02*
Y68130D01*
X216705Y60256D02*
X226547D01*
X216705D02*
Y68130D01*
X221626Y62224D02*
Y66161D01*
X219657Y64193D02*
X223594D01*
X216624Y330313D02*
X226466D01*
Y322439D02*
Y330313D01*
X216624Y322439D02*
X226466D01*
X216624D02*
Y330313D01*
X221545Y324407D02*
Y328344D01*
X219576Y326376D02*
X223513D01*
X219666Y253925D02*
X223603D01*
X221634Y251956D02*
Y255893D01*
X216713Y249988D02*
Y257862D01*
Y249988D02*
X226556D01*
Y257862D01*
X216713D02*
X226556D01*
X216752Y185317D02*
X226594D01*
Y177443D02*
Y185317D01*
X216752Y177443D02*
X226594D01*
X216752D02*
Y185317D01*
X221673Y179411D02*
Y183348D01*
X219705Y181379D02*
X223642D01*
X88105Y32709D02*
Y35071D01*
X86924Y33890D02*
X89286D01*
X78853Y38418D02*
X97357D01*
X78853Y29363D02*
X97357D01*
X78853D02*
Y38418D01*
X97357Y29363D02*
Y38418D01*
X242453Y43920D02*
X251508D01*
X242453Y62424D02*
X251508D01*
X242453Y43920D02*
Y62424D01*
X251508Y43920D02*
Y62424D01*
X246981Y51990D02*
Y54353D01*
X245800Y53172D02*
X248162D01*
X38398Y13919D02*
Y16281D01*
X37217Y15100D02*
X39579D01*
X29146Y10572D02*
X47650D01*
X29146Y19628D02*
X47650D01*
Y10572D02*
Y19628D01*
X29146Y10572D02*
Y19628D01*
X29148Y370672D02*
Y379728D01*
X47652Y370672D02*
Y379728D01*
X29148D02*
X47652D01*
X29148Y370672D02*
X47652D01*
X37219Y375200D02*
X39581D01*
X38400Y374019D02*
Y376381D01*
X136600Y365619D02*
Y367981D01*
X135419Y366800D02*
X137781D01*
X127348Y362272D02*
X145852D01*
X127348Y371328D02*
X145852D01*
Y362272D02*
Y371328D01*
X127348Y362272D02*
Y371328D01*
X115341Y279695D02*
X117703D01*
X116522Y278514D02*
Y280876D01*
X123412Y275561D02*
Y283829D01*
X109927Y275561D02*
X123412D01*
X109927D02*
Y283829D01*
X123412D01*
X110017Y211378D02*
X123501D01*
X110017Y203111D02*
Y211378D01*
Y203111D02*
X123501D01*
Y211378D01*
X116612Y206064D02*
Y208426D01*
X115430Y207245D02*
X117793D01*
X115469Y134699D02*
X117832D01*
X116650Y133518D02*
Y135880D01*
X123540Y130565D02*
Y138833D01*
X110056Y130565D02*
X123540D01*
X110056D02*
Y138833D01*
X123540D01*
X85447Y28276D02*
X97258D01*
X85447Y22371D02*
X97258D01*
X85447D02*
Y28276D01*
X97258Y22371D02*
Y28276D01*
X91353Y23355D02*
Y27292D01*
X89384Y25324D02*
X93321D01*
X241367Y44018D02*
Y55829D01*
X235461Y44018D02*
Y55829D01*
X241367D01*
X235461Y44018D02*
X241367D01*
X236446Y49924D02*
X240383D01*
X238414Y47955D02*
Y51892D01*
X29245Y20647D02*
X41056D01*
X29245Y26553D02*
X41056D01*
Y20647D02*
Y26553D01*
X29245Y20647D02*
Y26553D01*
X35150Y21632D02*
Y25569D01*
X33182Y23600D02*
X37119D01*
X29195Y363647D02*
X41006D01*
X29195Y369553D02*
X41006D01*
Y363647D02*
Y369553D01*
X29195Y363647D02*
Y369553D01*
X35100Y364632D02*
Y368568D01*
X33132Y366600D02*
X37069D01*
X127446Y355347D02*
X139258D01*
X127446Y361253D02*
X139258D01*
Y355347D02*
Y361253D01*
X127446Y355347D02*
Y361253D01*
X133352Y356331D02*
Y360268D01*
X131384Y358300D02*
X135320D01*
M02*
