G04*
G04 #@! TF.GenerationSoftware,Altium Limited,Altium Designer,21.1.0 (24)*
G04*
G04 Layer_Physical_Order=1*
G04 Layer_Color=255*
%FSLAX25Y25*%
%MOIN*%
G70*
G04*
G04 #@! TF.SameCoordinates,59D5B773-27E9-4806-B489-B34453608D3F*
G04*
G04*
G04 #@! TF.FilePolarity,Positive*
G04*
G01*
G75*
%ADD10C,0.00787*%
%ADD11C,0.00984*%
%ADD12C,0.01000*%
%ADD13R,0.02441X0.02284*%
%ADD14R,0.20866X0.07874*%
%ADD15R,0.02795X0.02835*%
%ADD16R,0.33858X0.04331*%
%ADD17R,0.05906X0.03937*%
%ADD18R,0.01181X0.03150*%
%ADD19R,0.09764X0.06890*%
%ADD20R,0.03150X0.00984*%
%ADD21R,0.06890X0.09646*%
%ADD22R,0.04252X0.03622*%
%ADD23R,0.03543X0.03937*%
%ADD24R,0.02284X0.02441*%
%ADD25R,0.07480X0.07480*%
%ADD26O,0.02756X0.01181*%
%ADD27O,0.01181X0.02756*%
%ADD28O,0.02953X0.01181*%
%ADD29O,0.01181X0.02953*%
%ADD30R,0.07677X0.07677*%
%ADD31R,0.01378X0.01181*%
%ADD32R,0.00591X0.00591*%
%ADD33R,0.02559X0.03740*%
%ADD34R,0.03150X0.01181*%
%ADD35R,0.03110X0.01181*%
%ADD36R,0.01181X0.03110*%
%ADD37R,0.06693X0.06693*%
%ADD38R,0.04134X0.06299*%
%ADD39R,0.05512X0.04134*%
%ADD40R,0.03937X0.03740*%
%ADD41R,0.10630X0.04528*%
%ADD42R,0.07087X0.04528*%
%ADD43R,0.04528X0.07087*%
%ADD44R,0.04134X0.05512*%
%ADD45R,0.03937X0.03740*%
%ADD46R,0.02559X0.02559*%
%ADD47R,0.03740X0.03937*%
%ADD48R,0.02441X0.02441*%
%ADD49R,0.02441X0.02441*%
%ADD50R,0.05512X0.04134*%
%ADD51R,0.07087X0.04528*%
%ADD52R,0.04528X0.10630*%
%ADD53R,0.03740X0.03937*%
%ADD54R,0.03937X0.03543*%
%ADD61C,0.01197*%
%ADD62C,0.01398*%
%ADD63C,0.01417*%
%ADD64C,0.01575*%
%ADD65C,0.01181*%
%ADD66C,0.01968*%
%ADD67C,0.19685*%
%ADD68C,0.23622*%
%ADD69C,0.06299*%
%ADD70C,0.01968*%
G36*
X426691Y9190D02*
X27999D01*
X24809Y12379D01*
Y15639D01*
X25309Y15689D01*
X25335Y15562D01*
X25726Y14976D01*
X26879Y13823D01*
X27465Y13431D01*
X28157Y13294D01*
X29442D01*
Y10769D01*
X35544D01*
Y19431D01*
X29442D01*
Y16906D01*
X28905D01*
X28810Y17001D01*
Y21699D01*
X28905Y21794D01*
X29442D01*
Y20844D01*
X34560D01*
Y26356D01*
X29442D01*
Y25406D01*
X28157D01*
X27465Y25269D01*
X26879Y24877D01*
X25726Y23724D01*
X25581Y23507D01*
X24809D01*
Y31900D01*
X24748Y32210D01*
X24572Y32472D01*
X24310Y32648D01*
X24000Y32709D01*
X2635D01*
X-2391Y37735D01*
Y74793D01*
X12051D01*
Y77959D01*
X13429D01*
Y79337D01*
X31358D01*
Y79868D01*
X32004Y80136D01*
X32264Y80310D01*
X32264Y80310D01*
X32928Y80974D01*
X33103Y81235D01*
X33103Y81235D01*
X33462Y82103D01*
X33523Y82410D01*
Y83350D01*
X33462Y83657D01*
X33103Y84525D01*
X32928Y84786D01*
X32264Y85450D01*
X32004Y85624D01*
X32004Y85624D01*
X31161Y85973D01*
Y88589D01*
X42563D01*
Y89935D01*
X73175D01*
Y89383D01*
X84096D01*
X84235Y88331D01*
X84271Y88244D01*
Y86152D01*
X84347Y85570D01*
X84018Y85194D01*
X82932D01*
X82394Y85088D01*
X81938Y84783D01*
X81753Y84506D01*
X80905Y84618D01*
X75251D01*
X74018Y84455D01*
X73739Y84340D01*
X69656D01*
Y83749D01*
X68180D01*
Y82371D01*
X67688D01*
Y81879D01*
X65326D01*
Y80993D01*
Y80304D01*
X67688D01*
Y79320D01*
X65326D01*
Y78434D01*
Y77745D01*
X67688D01*
Y77253D01*
X68180D01*
Y75875D01*
X69656D01*
Y75285D01*
X73933D01*
X74018Y75250D01*
X75251Y75087D01*
Y75004D01*
X75452Y75087D01*
X80905D01*
X82139Y75250D01*
X82226Y75286D01*
X84507D01*
X85088Y75362D01*
X85464Y75033D01*
Y73947D01*
X85556Y73485D01*
X85129Y73058D01*
X84284D01*
X83785Y72959D01*
X83361Y72676D01*
X82767Y72082D01*
X82484Y71658D01*
X82385Y71159D01*
Y70767D01*
X81612D01*
Y66752D01*
Y65708D01*
X83619D01*
Y65216D01*
X84111D01*
Y63208D01*
X85229D01*
X85627Y63208D01*
Y63208D01*
X85729D01*
Y63208D01*
X89745D01*
Y63208D01*
X89846D01*
Y63208D01*
X91362D01*
Y65137D01*
X92346D01*
Y63208D01*
X93862D01*
X93862Y63208D01*
X93963D01*
Y63208D01*
X94362Y63208D01*
X95479D01*
Y65216D01*
X95971D01*
Y65708D01*
X97979D01*
Y66752D01*
Y70767D01*
X97284D01*
Y71174D01*
X97184Y71677D01*
X96899Y72103D01*
X96307Y72695D01*
X95881Y72979D01*
X95379Y73079D01*
X94373D01*
X94087Y73484D01*
X94179Y73947D01*
Y75033D01*
X94555Y75362D01*
X95137Y75286D01*
X97582D01*
X97669Y75250D01*
X98902Y75087D01*
X110512D01*
X111746Y75250D01*
X112241Y75009D01*
Y74403D01*
X113698D01*
Y70348D01*
X113763D01*
Y68345D01*
X111592D01*
Y66337D01*
Y64329D01*
X112759D01*
Y62374D01*
X109977D01*
Y58943D01*
X109271D01*
Y59761D01*
X103760D01*
Y54446D01*
X108953D01*
X109286Y54405D01*
X109429Y54011D01*
Y53897D01*
X109271Y53462D01*
X108929Y53462D01*
X103760D01*
Y52808D01*
X102691D01*
Y54005D01*
X100683D01*
X98675D01*
Y52808D01*
X97657D01*
Y53659D01*
X92145D01*
Y52808D01*
X90964D01*
Y55332D01*
X85256D01*
Y48245D01*
X90964D01*
Y49195D01*
X92145D01*
Y48344D01*
X97657D01*
Y49195D01*
X98675D01*
Y48946D01*
X102691D01*
Y49195D01*
X103760D01*
Y48147D01*
X109271Y48147D01*
X109429Y47712D01*
Y46828D01*
X110945D01*
Y48836D01*
X111437D01*
Y49328D01*
X113445D01*
Y50311D01*
X117890D01*
Y52378D01*
X118382D01*
Y52870D01*
X120449D01*
Y54445D01*
X120926Y54500D01*
X123166D01*
Y62374D01*
X120184D01*
Y64329D01*
X121351D01*
Y66337D01*
Y68345D01*
X118987D01*
Y70348D01*
X119053D01*
Y74403D01*
X120509D01*
Y75094D01*
X121009Y75283D01*
X121204Y75202D01*
X122437Y75040D01*
X128806D01*
X130039Y75202D01*
X130126Y75239D01*
X132603D01*
X133086Y75302D01*
X133462Y74972D01*
Y73801D01*
X133569Y73264D01*
X133873Y72808D01*
X134329Y72503D01*
X134867Y72396D01*
X135404Y72503D01*
X135851Y72802D01*
X136298Y72503D01*
X136835Y72396D01*
X136921Y72337D01*
X136992Y71918D01*
Y67930D01*
Y62482D01*
X137491D01*
Y61893D01*
X136992D01*
Y56382D01*
X142307D01*
Y61893D01*
X140116D01*
Y62482D01*
X142307D01*
Y67930D01*
X143291D01*
Y65730D01*
X145456D01*
Y67993D01*
X144551D01*
Y69445D01*
X142543D01*
Y69937D01*
X142051D01*
Y71945D01*
X141068D01*
X141019Y72445D01*
X141310Y72503D01*
X141766Y72808D01*
X142070Y73264D01*
X142177Y73801D01*
Y74972D01*
X142553Y75302D01*
X143036Y75239D01*
X144808D01*
X145043Y75270D01*
X145129Y75234D01*
X146362Y75072D01*
X151981D01*
X153214Y75234D01*
X153420Y75319D01*
X159002D01*
X159094Y75281D01*
X160327Y75119D01*
X240043D01*
X241269Y74958D01*
X242554Y75127D01*
X243751Y75622D01*
X244779Y76411D01*
X245568Y77439D01*
X246064Y78636D01*
X246233Y79921D01*
X246064Y81206D01*
X245568Y82403D01*
X244779Y83431D01*
X243751Y84220D01*
X242554Y84716D01*
X241269Y84885D01*
X239984Y84716D01*
X239824Y84649D01*
X160327D01*
X159094Y84487D01*
X158823Y84374D01*
X153371D01*
X153214Y84439D01*
X151981Y84602D01*
X146362D01*
X145929Y84545D01*
X145801Y84736D01*
X145345Y85040D01*
X145234Y85062D01*
Y86920D01*
X149065Y90751D01*
X149350Y91177D01*
X149450Y91679D01*
Y93957D01*
X149806Y94490D01*
X149943Y95182D01*
X149806Y95873D01*
X149414Y96459D01*
X148828Y96851D01*
X148137Y96988D01*
X147446Y96851D01*
X146860Y96459D01*
X146468Y95873D01*
X146331Y95182D01*
X146468Y94490D01*
X146825Y93957D01*
Y92223D01*
X142994Y88392D01*
X142709Y87966D01*
X142673Y87787D01*
X142177Y87778D01*
X142085Y88242D01*
Y89277D01*
X143842Y91034D01*
X144126Y91460D01*
X144226Y91962D01*
Y97201D01*
X144582Y97734D01*
X144720Y98425D01*
X144582Y99116D01*
X144191Y99703D01*
X143605Y100094D01*
X142913Y100232D01*
X142222Y100094D01*
X141636Y99703D01*
X141244Y99116D01*
X141107Y98425D01*
X141244Y97734D01*
X141601Y97201D01*
Y94636D01*
X141308Y94480D01*
X141101Y94415D01*
X140472Y94540D01*
X139781Y94402D01*
X139195Y94011D01*
X138803Y93425D01*
X138678Y92796D01*
X138208Y92326D01*
X137711Y92375D01*
X137673Y92432D01*
X137326Y92779D01*
X137200Y93408D01*
X136809Y93994D01*
X136223Y94385D01*
X135531Y94523D01*
X134840Y94385D01*
X134254Y93994D01*
X133880Y93433D01*
X133588Y93386D01*
X133352Y93404D01*
X132994Y93940D01*
X132408Y94331D01*
X131717Y94469D01*
X131026Y94331D01*
X130596Y94044D01*
X130004Y94030D01*
X129418Y94422D01*
X128727Y94559D01*
X128035Y94422D01*
X127449Y94030D01*
X127058Y93444D01*
X126920Y92753D01*
X127058Y92062D01*
X127449Y91475D01*
X128035Y91084D01*
X128274Y91036D01*
X130404Y88906D01*
Y85062D01*
X130294Y85040D01*
X129838Y84736D01*
X129653Y84459D01*
X128806Y84570D01*
X122437D01*
X121204Y84408D01*
X121097Y84364D01*
X119053D01*
Y86726D01*
X113698D01*
Y84364D01*
X111967D01*
X111746Y84455D01*
X110512Y84618D01*
X98902D01*
X97903Y84486D01*
X97705Y84783D01*
X97249Y85088D01*
X96711Y85194D01*
X95137D01*
X94849Y85137D01*
X94349Y85364D01*
X94122Y85864D01*
X94179Y86152D01*
Y87726D01*
X94073Y88264D01*
X93768Y88720D01*
X93514Y88890D01*
X93603Y89565D01*
Y90471D01*
X93440Y91704D01*
X93381Y91848D01*
X93344Y92216D01*
X92835Y93894D01*
X92009Y95440D01*
X90896Y96796D01*
X89541Y97908D01*
X87994Y98735D01*
X87467Y98895D01*
Y100092D01*
X73175D01*
Y99503D01*
X69963D01*
X69678Y99465D01*
X42563D01*
Y100400D01*
X31161D01*
Y103015D01*
X32004Y103364D01*
X32264Y103538D01*
X32264Y103538D01*
X32928Y104202D01*
X33103Y104463D01*
X33103Y104463D01*
X33462Y105331D01*
X33523Y105638D01*
Y106578D01*
X33462Y106885D01*
X33103Y107754D01*
X32928Y108014D01*
X32264Y108678D01*
X32004Y108853D01*
X32004Y108853D01*
X31358Y109120D01*
Y109652D01*
X13429D01*
Y111030D01*
X12051D01*
Y114195D01*
X-2391D01*
Y144793D01*
X12051D01*
Y147959D01*
X13429D01*
Y149337D01*
X31358D01*
Y149868D01*
X32004Y150136D01*
X32264Y150310D01*
X32264Y150310D01*
X32928Y150974D01*
X33103Y151235D01*
X33103Y151235D01*
X33462Y152103D01*
X33523Y152410D01*
Y153350D01*
X33462Y153657D01*
X33103Y154525D01*
X32928Y154786D01*
X32264Y155450D01*
X32004Y155624D01*
X32004Y155624D01*
X31161Y155973D01*
Y158589D01*
X42563D01*
Y159729D01*
X56415D01*
X57648Y159891D01*
X57704Y159915D01*
X58712Y159994D01*
X60952Y160531D01*
X63080Y161413D01*
X65044Y162617D01*
X66422Y163794D01*
X66789Y164107D01*
X67139Y164434D01*
X67152Y164446D01*
X67920Y165076D01*
X69227Y165775D01*
X70646Y166205D01*
X71623Y166302D01*
X72129Y166235D01*
X73254D01*
Y165646D01*
X84160D01*
X84314Y164479D01*
X84350Y164392D01*
Y162414D01*
X84426Y161833D01*
X84097Y161457D01*
X83011D01*
X82473Y161350D01*
X82018Y161045D01*
X81839Y160778D01*
X81063Y160880D01*
X75330D01*
X74097Y160718D01*
X73818Y160602D01*
X69735D01*
Y160012D01*
X68259D01*
Y158634D01*
X67767D01*
Y158142D01*
X65405D01*
Y157256D01*
Y156567D01*
X67767D01*
Y155583D01*
X65405D01*
Y154697D01*
Y154008D01*
X67767D01*
Y153516D01*
X68259D01*
Y152138D01*
X69735D01*
Y151547D01*
X74012D01*
X74097Y151512D01*
X75330Y151350D01*
X81063D01*
X82297Y151512D01*
X82384Y151548D01*
X84586D01*
X85167Y151625D01*
X85543Y151295D01*
Y150209D01*
X85635Y149748D01*
X85208Y149321D01*
X84363D01*
X83864Y149221D01*
X83440Y148939D01*
X82846Y148344D01*
X82563Y147921D01*
X82464Y147422D01*
Y147030D01*
X81691D01*
Y143014D01*
Y141971D01*
X83698D01*
Y141479D01*
X84190D01*
Y139471D01*
X85308D01*
X85706Y139471D01*
Y139471D01*
X85808D01*
Y139471D01*
X89824D01*
Y139471D01*
X89925D01*
Y139471D01*
X91441D01*
Y141400D01*
X92425D01*
Y139471D01*
X93941D01*
X93941Y139471D01*
X94042D01*
Y139471D01*
X94441Y139471D01*
X95558D01*
Y141479D01*
X96050D01*
Y141971D01*
X98058D01*
Y143014D01*
Y147030D01*
X97363D01*
Y147437D01*
X97263Y147939D01*
X96978Y148365D01*
X96386Y148957D01*
X95960Y149242D01*
X95458Y149342D01*
X94452D01*
X94166Y149747D01*
X94258Y150209D01*
Y151295D01*
X94634Y151625D01*
X95216Y151548D01*
X97269D01*
X97442Y151477D01*
X98675Y151314D01*
X110608D01*
X111820Y151474D01*
X111845Y151474D01*
X112320Y151170D01*
Y150665D01*
X113777D01*
Y146610D01*
X113842D01*
Y144607D01*
X111671D01*
Y142599D01*
Y140591D01*
X112838D01*
Y138636D01*
X110056D01*
Y135206D01*
X109350D01*
Y136024D01*
X103839D01*
Y130709D01*
X109032D01*
X109365Y130667D01*
X109508Y130274D01*
Y130159D01*
X109350Y129724D01*
X109008Y129724D01*
X103839D01*
Y129070D01*
X102770D01*
Y130268D01*
X100762D01*
X98754D01*
Y129070D01*
X97736D01*
Y129921D01*
X92224D01*
Y129070D01*
X91043D01*
Y131595D01*
X85335D01*
Y124508D01*
X91043D01*
Y125457D01*
X92224D01*
Y124606D01*
X97736D01*
Y125457D01*
X98754D01*
Y125209D01*
X102770D01*
Y125457D01*
X103839D01*
Y124409D01*
X109350Y124409D01*
X109508Y123975D01*
Y123091D01*
X111024D01*
Y125099D01*
X111516D01*
Y125591D01*
X113524D01*
Y126573D01*
X117969D01*
Y128640D01*
X118461D01*
Y129132D01*
X120528D01*
Y130707D01*
X121005Y130762D01*
X123245D01*
Y138636D01*
X120263D01*
Y140591D01*
X121430D01*
Y142599D01*
Y144607D01*
X119066D01*
Y146610D01*
X119132D01*
Y150665D01*
X120588D01*
Y151357D01*
X121088Y151546D01*
X121283Y151465D01*
X122516Y151303D01*
X128991D01*
X130224Y151465D01*
X130312Y151501D01*
X132682D01*
X133165Y151565D01*
X133541Y151235D01*
Y150064D01*
X133648Y149526D01*
X133952Y149070D01*
X134408Y148766D01*
X134946Y148659D01*
X135483Y148766D01*
X135930Y149064D01*
X136377Y148766D01*
X136914Y148659D01*
X137000Y148599D01*
X137071Y148180D01*
Y144192D01*
Y138744D01*
X137570D01*
Y138156D01*
X137071D01*
Y132644D01*
X142386D01*
Y138156D01*
X140195D01*
Y138744D01*
X142386D01*
Y144192D01*
X143370D01*
Y141992D01*
X145536D01*
Y144256D01*
X144630D01*
Y145708D01*
X142622D01*
Y146200D01*
X142130D01*
Y148208D01*
X141147D01*
X141098Y148708D01*
X141389Y148766D01*
X141845Y149070D01*
X142149Y149526D01*
X142256Y150064D01*
Y151235D01*
X142632Y151565D01*
X143115Y151501D01*
X145303D01*
X145315Y151496D01*
X146548Y151334D01*
X152060D01*
X153293Y151496D01*
X153499Y151582D01*
X159191D01*
X159548Y151535D01*
X159866D01*
X160895Y151400D01*
X160931D01*
X161290Y151352D01*
X240419D01*
X241300Y151236D01*
X242585Y151405D01*
X243782Y151901D01*
X244810Y152690D01*
X245599Y153718D01*
X246095Y154915D01*
X246264Y156200D01*
X246095Y157485D01*
X245599Y158682D01*
X244810Y159710D01*
X243782Y160499D01*
X242585Y160995D01*
X241300Y161164D01*
X240015Y160995D01*
X239745Y160883D01*
X161290D01*
X160057Y160720D01*
X159931Y160668D01*
X159600D01*
X159540Y160676D01*
X159243Y160637D01*
X153450D01*
X153293Y160702D01*
X152060Y160864D01*
X146548D01*
X146016Y160794D01*
X145880Y160998D01*
X145424Y161303D01*
X145313Y161325D01*
Y163182D01*
X149144Y167014D01*
X149429Y167439D01*
X149529Y167942D01*
Y170220D01*
X149885Y170753D01*
X150022Y171444D01*
X149885Y172136D01*
X149494Y172722D01*
X148907Y173113D01*
X148216Y173251D01*
X147525Y173113D01*
X146939Y172722D01*
X146547Y172136D01*
X146410Y171444D01*
X146547Y170753D01*
X146904Y170220D01*
Y168485D01*
X143073Y164654D01*
X142788Y164229D01*
X142752Y164049D01*
X142256Y164040D01*
X142164Y164504D01*
Y165540D01*
X143921Y167297D01*
X144205Y167722D01*
X144305Y168225D01*
Y173463D01*
X144661Y173996D01*
X144799Y174688D01*
X144661Y175379D01*
X144270Y175965D01*
X143684Y176357D01*
X142992Y176494D01*
X142301Y176357D01*
X141715Y175965D01*
X141324Y175379D01*
X141186Y174688D01*
X141324Y173996D01*
X141680Y173463D01*
Y170899D01*
X141387Y170742D01*
X141180Y170677D01*
X140551Y170802D01*
X139860Y170665D01*
X139274Y170273D01*
X138882Y169687D01*
X138757Y169058D01*
X138287Y168588D01*
X137790Y168637D01*
X137752Y168694D01*
X137405Y169041D01*
X137279Y169670D01*
X136888Y170256D01*
X136302Y170648D01*
X135610Y170785D01*
X134919Y170648D01*
X134333Y170256D01*
X133959Y169696D01*
X133667Y169649D01*
X133431Y169667D01*
X133073Y170202D01*
X132487Y170594D01*
X131796Y170731D01*
X131105Y170594D01*
X130675Y170307D01*
X130083Y170293D01*
X129497Y170684D01*
X128806Y170822D01*
X128114Y170684D01*
X127528Y170293D01*
X127137Y169707D01*
X126999Y169015D01*
X127137Y168324D01*
X127528Y167738D01*
X128114Y167347D01*
X128353Y167299D01*
X130483Y165169D01*
Y161325D01*
X130373Y161303D01*
X129917Y160998D01*
X129740Y160734D01*
X128991Y160833D01*
X122516D01*
X121283Y160670D01*
X121176Y160626D01*
X119132D01*
Y162988D01*
X113777D01*
Y160626D01*
X111977D01*
X111841Y160682D01*
X110608Y160845D01*
X98675D01*
X97979Y160753D01*
X97784Y161045D01*
X97328Y161350D01*
X96790Y161457D01*
X95216D01*
X94928Y161400D01*
X94428Y161627D01*
X94201Y162127D01*
X94258Y162414D01*
Y163989D01*
X94152Y164527D01*
X93847Y164982D01*
X93607Y165143D01*
X93682Y165712D01*
Y166733D01*
X93519Y167966D01*
X93460Y168110D01*
X93424Y168478D01*
X92914Y170156D01*
X92088Y171703D01*
X90975Y173058D01*
X89620Y174171D01*
X88073Y174997D01*
X87546Y175157D01*
Y176354D01*
X73254D01*
Y175765D01*
X72129D01*
X70896Y175603D01*
X70864Y175590D01*
X69918Y175528D01*
X67751Y175097D01*
X65660Y174387D01*
X63679Y173410D01*
X61843Y172183D01*
X60547Y171046D01*
X60217Y170757D01*
X60178Y170727D01*
X59812Y170402D01*
X59095Y169852D01*
X57802Y169317D01*
X56890Y169197D01*
X56415Y169259D01*
X42563D01*
Y170400D01*
X31161D01*
Y173015D01*
X32004Y173364D01*
X32264Y173538D01*
X32264Y173538D01*
X32928Y174203D01*
X33103Y174463D01*
X33103Y174463D01*
X33462Y175331D01*
X33523Y175638D01*
Y176578D01*
X33462Y176885D01*
X33103Y177754D01*
X32928Y178014D01*
X32264Y178679D01*
X32004Y178853D01*
X32004Y178853D01*
X31358Y179120D01*
Y179652D01*
X13429D01*
Y181029D01*
X12051D01*
Y184195D01*
X-2391D01*
Y214793D01*
X12051D01*
Y217959D01*
X13429D01*
Y219337D01*
X31358D01*
Y219868D01*
X32004Y220136D01*
X32264Y220310D01*
X32264Y220310D01*
X32928Y220974D01*
X33103Y221235D01*
X33103Y221235D01*
X33462Y222103D01*
X33523Y222410D01*
Y223350D01*
X33462Y223657D01*
X33103Y224525D01*
X32928Y224786D01*
X32264Y225450D01*
X32004Y225624D01*
X32004Y225624D01*
X31161Y225973D01*
Y228589D01*
X42563D01*
Y229729D01*
X48560D01*
X49794Y229891D01*
X49801Y229894D01*
X51298Y229992D01*
X53982Y230526D01*
X56573Y231406D01*
X59027Y232616D01*
X59914Y233209D01*
X60433Y233423D01*
X61420Y234181D01*
X64454Y237215D01*
X64745Y237595D01*
X65475Y238155D01*
X66768Y238690D01*
X67981Y238850D01*
X68155Y238827D01*
X69201D01*
X69423Y238857D01*
X70003Y238780D01*
X73216D01*
Y238191D01*
X84130D01*
X84275Y237087D01*
X84311Y237000D01*
Y234960D01*
X84388Y234378D01*
X84058Y234002D01*
X82972D01*
X82434Y233895D01*
X81979Y233591D01*
X81803Y233328D01*
X81063Y233425D01*
X75249D01*
X74015Y233263D01*
X73737Y233148D01*
X69697D01*
Y232557D01*
X68220D01*
Y231179D01*
X67728D01*
Y230687D01*
X65366D01*
Y229801D01*
Y229112D01*
X67728D01*
Y228128D01*
X65366D01*
Y227242D01*
Y226553D01*
X67728D01*
Y226061D01*
X68220D01*
Y224683D01*
X69697D01*
Y224093D01*
X73931D01*
X74015Y224058D01*
X75249Y223895D01*
X81063D01*
X82297Y224058D01*
X82384Y224094D01*
X84547D01*
X85128Y224170D01*
X85504Y223840D01*
Y222755D01*
X85596Y222293D01*
X85169Y221866D01*
X84324D01*
X83825Y221767D01*
X83402Y221484D01*
X82807Y220889D01*
X82524Y220466D01*
X82425Y219967D01*
Y219575D01*
X81652D01*
Y215560D01*
Y214516D01*
X83660D01*
Y214024D01*
X84152D01*
Y212016D01*
X85269D01*
X85667Y212016D01*
Y212016D01*
X85769D01*
Y212016D01*
X89785D01*
Y212016D01*
X89886D01*
Y212016D01*
X91402D01*
Y213945D01*
X92386D01*
Y212016D01*
X93902D01*
X93902Y212016D01*
X94004D01*
Y212016D01*
X94402Y212016D01*
X95519D01*
Y214024D01*
X96012D01*
Y214516D01*
X98019D01*
Y215560D01*
Y219575D01*
X97324D01*
Y219982D01*
X97224Y220485D01*
X96940Y220910D01*
X96347Y221503D01*
X95921Y221787D01*
X95419Y221887D01*
X94413D01*
X94128Y222292D01*
X94220Y222755D01*
Y223840D01*
X94596Y224170D01*
X95177Y224094D01*
X96647D01*
X96812Y224026D01*
X98045Y223863D01*
X110554D01*
X111782Y224025D01*
X111787Y224026D01*
X112282Y223739D01*
Y223211D01*
X113738D01*
Y219156D01*
X113804D01*
Y217152D01*
X111632D01*
Y215145D01*
Y213137D01*
X112799D01*
Y211182D01*
X110017D01*
Y207751D01*
X109312D01*
Y208569D01*
X103800D01*
Y203254D01*
X108993D01*
X109327Y203213D01*
X109469Y202819D01*
Y202705D01*
X109311Y202270D01*
X108969Y202270D01*
X103800D01*
Y201616D01*
X102731D01*
Y202813D01*
X100723D01*
X98715D01*
Y201616D01*
X97697D01*
Y202467D01*
X92186D01*
Y201616D01*
X91005D01*
Y204140D01*
X85296D01*
Y197053D01*
X91005D01*
Y198003D01*
X92186D01*
Y197152D01*
X97697D01*
Y198003D01*
X98715D01*
Y197754D01*
X102731D01*
Y198003D01*
X103800D01*
Y196955D01*
X109311Y196955D01*
X109469Y196520D01*
Y195636D01*
X110985D01*
Y197644D01*
X111477D01*
Y198136D01*
X113485D01*
Y199119D01*
X117930D01*
Y201185D01*
X118423D01*
Y201678D01*
X120490D01*
Y203252D01*
X120967Y203308D01*
X123206D01*
Y211182D01*
X120224D01*
Y213137D01*
X121391D01*
Y215145D01*
Y217152D01*
X119027D01*
Y219156D01*
X119093D01*
Y223211D01*
X120549D01*
Y223902D01*
X121049Y224091D01*
X121244Y224010D01*
X122477Y223848D01*
X128991D01*
X130224Y224010D01*
X130312Y224046D01*
X132643D01*
X133126Y224110D01*
X133502Y223780D01*
Y222609D01*
X133609Y222072D01*
X133913Y221616D01*
X134369Y221311D01*
X134907Y221204D01*
X135444Y221311D01*
X135891Y221609D01*
X136338Y221311D01*
X136875Y221204D01*
X136961Y221145D01*
X137032Y220726D01*
Y216738D01*
Y211289D01*
X137531D01*
Y210701D01*
X137032D01*
Y205189D01*
X142347D01*
Y210701D01*
X140156D01*
Y211289D01*
X142347D01*
Y216738D01*
X143331D01*
Y214538D01*
X145497D01*
Y216801D01*
X144591D01*
Y218253D01*
X142583D01*
Y218745D01*
X142091D01*
Y220753D01*
X141108D01*
X141059Y221253D01*
X141350Y221311D01*
X141806Y221616D01*
X142110Y222072D01*
X142217Y222609D01*
Y223780D01*
X142593Y224110D01*
X143076Y224046D01*
X145303D01*
X145315Y224042D01*
X146548Y223879D01*
X152021D01*
X153254Y224042D01*
X153461Y224127D01*
X158886D01*
X159134Y224025D01*
X160368Y223862D01*
X239878D01*
X240015Y223805D01*
X241300Y223636D01*
X242585Y223805D01*
X243782Y224301D01*
X244810Y225090D01*
X245599Y226118D01*
X246095Y227315D01*
X246264Y228600D01*
X246095Y229885D01*
X245599Y231082D01*
X244810Y232110D01*
X243782Y232899D01*
X242585Y233395D01*
X241300Y233564D01*
X240015Y233395D01*
X240010Y233393D01*
X160368D01*
X159134Y233230D01*
X159019Y233182D01*
X153411D01*
X153254Y233247D01*
X152021Y233410D01*
X146548D01*
X145981Y233335D01*
X145841Y233543D01*
X145385Y233848D01*
X145275Y233870D01*
Y235728D01*
X149106Y239559D01*
X149390Y239985D01*
X149490Y240487D01*
Y242765D01*
X149846Y243298D01*
X149984Y243990D01*
X149846Y244681D01*
X149455Y245267D01*
X148869Y245658D01*
X148177Y245796D01*
X147486Y245658D01*
X146900Y245267D01*
X146509Y244681D01*
X146371Y243990D01*
X146509Y243298D01*
X146865Y242765D01*
Y241031D01*
X143034Y237200D01*
X142749Y236774D01*
X142714Y236595D01*
X142217Y236585D01*
X142125Y237050D01*
Y238085D01*
X143882Y239842D01*
X144166Y240268D01*
X144266Y240770D01*
Y246009D01*
X144622Y246542D01*
X144760Y247233D01*
X144622Y247924D01*
X144231Y248510D01*
X143645Y248902D01*
X142954Y249039D01*
X142262Y248902D01*
X141676Y248510D01*
X141285Y247924D01*
X141147Y247233D01*
X141285Y246542D01*
X141641Y246009D01*
Y243444D01*
X141349Y243288D01*
X141141Y243223D01*
X140512Y243348D01*
X139821Y243210D01*
X139235Y242819D01*
X138844Y242233D01*
X138718Y241604D01*
X138248Y241134D01*
X137751Y241183D01*
X137713Y241240D01*
X137366Y241587D01*
X137241Y242216D01*
X136849Y242802D01*
X136263Y243193D01*
X135572Y243331D01*
X134880Y243193D01*
X134294Y242802D01*
X133920Y242241D01*
X133628Y242194D01*
X133392Y242212D01*
X133035Y242748D01*
X132448Y243139D01*
X131757Y243277D01*
X131066Y243139D01*
X130636Y242852D01*
X130044Y242838D01*
X129458Y243230D01*
X128767Y243367D01*
X128076Y243230D01*
X127489Y242838D01*
X127098Y242252D01*
X126960Y241561D01*
X127098Y240869D01*
X127489Y240283D01*
X128076Y239892D01*
X128314Y239844D01*
X130445Y237714D01*
Y233870D01*
X130334Y233848D01*
X129878Y233543D01*
X129705Y233284D01*
X128991Y233378D01*
X122477D01*
X121244Y233216D01*
X121137Y233171D01*
X119093D01*
Y235534D01*
X113738D01*
Y233171D01*
X111931D01*
X111787Y233231D01*
X110554Y233394D01*
X98045D01*
X97891Y233373D01*
X97745Y233591D01*
X97289Y233895D01*
X96752Y234002D01*
X95177D01*
X94889Y233945D01*
X94389Y234172D01*
X94162Y234672D01*
X94220Y234960D01*
Y236534D01*
X94113Y237072D01*
X93808Y237528D01*
X93560Y237693D01*
X93643Y238321D01*
Y239278D01*
X93480Y240512D01*
X93421Y240655D01*
X93385Y241023D01*
X92876Y242702D01*
X92049Y244248D01*
X90937Y245603D01*
X89581Y246716D01*
X88035Y247543D01*
X87507Y247703D01*
Y248900D01*
X73216D01*
Y248310D01*
X70003D01*
X69155Y248199D01*
X68155D01*
X68067Y248187D01*
X65859Y248013D01*
X63618Y247476D01*
X61490Y246594D01*
X59526Y245390D01*
X58757Y244734D01*
X58701Y244711D01*
X57715Y243954D01*
X54705Y240945D01*
X53829Y240407D01*
X52149Y239711D01*
X50380Y239287D01*
X49110Y239187D01*
X48560Y239259D01*
X42563D01*
Y240400D01*
X31161D01*
Y243015D01*
X32004Y243364D01*
X32264Y243538D01*
X32264Y243538D01*
X32928Y244202D01*
X33103Y244463D01*
X33103Y244463D01*
X33462Y245331D01*
X33523Y245638D01*
Y246578D01*
X33462Y246885D01*
X33103Y247754D01*
X32928Y248014D01*
X32264Y248678D01*
X32004Y248853D01*
X32004Y248853D01*
X31358Y249120D01*
Y249652D01*
X13429D01*
Y251029D01*
X12051D01*
Y254195D01*
X-2391D01*
Y282743D01*
Y284793D01*
X12051D01*
Y287959D01*
X13429D01*
Y289337D01*
X31358D01*
Y289868D01*
X32004Y290136D01*
X32264Y290310D01*
X32264Y290310D01*
X32928Y290974D01*
X33103Y291235D01*
X33103Y291235D01*
X33462Y292103D01*
X33523Y292410D01*
Y293350D01*
X33462Y293657D01*
X33103Y294525D01*
X32928Y294786D01*
X32264Y295450D01*
X32004Y295624D01*
X32004Y295624D01*
X31161Y295973D01*
Y298589D01*
X42563D01*
Y299729D01*
X48652D01*
X49885Y299891D01*
X49941Y299915D01*
X50949Y299994D01*
X53189Y300532D01*
X55317Y301413D01*
X57281Y302617D01*
X58050Y303273D01*
X58106Y303296D01*
X59092Y304053D01*
X64704Y309665D01*
X64996Y310046D01*
X65726Y310606D01*
X67019Y311141D01*
X68232Y311301D01*
X68406Y311278D01*
X69111D01*
X69333Y311307D01*
X69914Y311231D01*
X73126D01*
Y310642D01*
X84060D01*
X84185Y309688D01*
X84222Y309601D01*
Y307410D01*
X84298Y306829D01*
X83968Y306453D01*
X82883D01*
X82345Y306346D01*
X81889Y306042D01*
X81721Y305790D01*
X81063Y305876D01*
X75202D01*
X73968Y305714D01*
X73690Y305598D01*
X69607D01*
Y305008D01*
X68131D01*
Y303630D01*
X67639D01*
Y303138D01*
X65276D01*
Y302252D01*
Y301563D01*
X67639D01*
Y300579D01*
X65276D01*
Y299693D01*
Y299004D01*
X67639D01*
Y298512D01*
X68131D01*
Y297134D01*
X69607D01*
Y296543D01*
X73883D01*
X73968Y296508D01*
X75202Y296346D01*
X81063D01*
X82297Y296508D01*
X82384Y296544D01*
X84457D01*
X85039Y296621D01*
X85415Y296291D01*
Y295205D01*
X85507Y294744D01*
X85079Y294317D01*
X84234D01*
X83735Y294217D01*
X83312Y293935D01*
X82718Y293340D01*
X82435Y292917D01*
X82336Y292418D01*
Y292026D01*
X81562D01*
Y288010D01*
Y286967D01*
X83570D01*
Y286475D01*
X84062D01*
Y284467D01*
X85180D01*
X85578Y284467D01*
Y284467D01*
X85680D01*
Y284467D01*
X89695D01*
Y284467D01*
X89797D01*
Y284467D01*
X91313D01*
Y286396D01*
X92297D01*
Y284467D01*
X93813D01*
X93813Y284467D01*
X93914D01*
Y284467D01*
X94313Y284467D01*
X95430D01*
Y286475D01*
X95922D01*
Y286967D01*
X97930D01*
Y288010D01*
Y292026D01*
X97235D01*
Y292433D01*
X97135Y292935D01*
X96850Y293361D01*
X96258Y293953D01*
X95832Y294238D01*
X95330Y294338D01*
X94324D01*
X94038Y294743D01*
X94130Y295205D01*
Y296291D01*
X94506Y296621D01*
X95087Y296544D01*
X96609D01*
X96697Y296508D01*
X97930Y296346D01*
X110463D01*
X111696Y296508D01*
X112192Y296268D01*
Y295661D01*
X113649D01*
Y291606D01*
X113714D01*
Y289603D01*
X111542D01*
Y287595D01*
Y285587D01*
X112709D01*
Y283632D01*
X109927D01*
Y280202D01*
X109222D01*
Y281020D01*
X103710D01*
Y275705D01*
X108904D01*
X109237Y275663D01*
X109379Y275270D01*
Y275155D01*
X109222Y274721D01*
X108879Y274721D01*
X103710D01*
Y274066D01*
X102641D01*
Y275264D01*
X100634D01*
X98626D01*
Y274066D01*
X97608D01*
Y274917D01*
X92096D01*
Y274066D01*
X90915D01*
Y276590D01*
X85206D01*
Y269504D01*
X90915D01*
Y270454D01*
X92096D01*
Y269602D01*
X97608D01*
Y270454D01*
X98626D01*
Y270205D01*
X102641D01*
Y270454D01*
X103710D01*
Y269406D01*
X109222Y269406D01*
X109379Y268971D01*
Y268087D01*
X110895D01*
Y270094D01*
X111387D01*
Y270587D01*
X113395D01*
Y271569D01*
X117841D01*
Y273636D01*
X118333D01*
Y274128D01*
X120400D01*
Y275703D01*
X120877Y275758D01*
X123117D01*
Y283632D01*
X120135D01*
Y285587D01*
X121302D01*
Y287595D01*
Y289603D01*
X118938D01*
Y291606D01*
X119003D01*
Y295661D01*
X120460D01*
Y296353D01*
X120960Y296542D01*
X121155Y296461D01*
X122388Y296299D01*
X128952D01*
X130185Y296461D01*
X130273Y296497D01*
X132554D01*
X133036Y296561D01*
X133412Y296231D01*
Y295060D01*
X133519Y294522D01*
X133824Y294066D01*
X134280Y293762D01*
X134817Y293655D01*
X135355Y293762D01*
X135802Y294060D01*
X136248Y293762D01*
X136786Y293655D01*
X136872Y293595D01*
X136943Y293176D01*
Y289188D01*
Y283740D01*
X137442D01*
Y283152D01*
X136943D01*
Y277640D01*
X142257D01*
Y283152D01*
X140067D01*
Y283740D01*
X142257D01*
Y289188D01*
X143242D01*
Y286988D01*
X145407D01*
Y289252D01*
X144502D01*
Y290704D01*
X142494D01*
Y291196D01*
X142002D01*
Y293204D01*
X141019D01*
X140969Y293704D01*
X141261Y293762D01*
X141716Y294066D01*
X142021Y294522D01*
X142128Y295060D01*
Y296231D01*
X142504Y296561D01*
X142987Y296497D01*
X145132D01*
X146282Y296346D01*
X151926D01*
X153159Y296508D01*
X153328Y296578D01*
X158844D01*
X159045Y296495D01*
X160278Y296333D01*
X240395D01*
X241269Y296217D01*
X242554Y296387D01*
X243751Y296882D01*
X244779Y297671D01*
X245568Y298699D01*
X246064Y299896D01*
X246233Y301181D01*
X246064Y302466D01*
X245568Y303663D01*
X244779Y304691D01*
X243751Y305480D01*
X242554Y305976D01*
X241269Y306145D01*
X239984Y305976D01*
X239712Y305863D01*
X160278D01*
X159045Y305700D01*
X158882Y305633D01*
X153354D01*
X153159Y305714D01*
X151926Y305876D01*
X146282D01*
X145867Y305822D01*
X145752Y305994D01*
X145296Y306299D01*
X145185Y306321D01*
Y308179D01*
X149016Y312010D01*
X149301Y312435D01*
X149400Y312938D01*
Y315216D01*
X149757Y315749D01*
X149894Y316440D01*
X149757Y317132D01*
X149365Y317718D01*
X148779Y318109D01*
X148088Y318247D01*
X147397Y318109D01*
X146810Y317718D01*
X146419Y317132D01*
X146282Y316440D01*
X146419Y315749D01*
X146775Y315216D01*
Y313481D01*
X142944Y309650D01*
X142660Y309225D01*
X142624Y309045D01*
X142128Y309036D01*
X142035Y309500D01*
Y310536D01*
X143792Y312293D01*
X144077Y312718D01*
X144177Y313221D01*
Y318459D01*
X144533Y318992D01*
X144670Y319684D01*
X144533Y320375D01*
X144141Y320961D01*
X143555Y321353D01*
X142864Y321490D01*
X142173Y321353D01*
X141587Y320961D01*
X141195Y320375D01*
X141058Y319684D01*
X141195Y318992D01*
X141551Y318459D01*
Y315895D01*
X141259Y315739D01*
X141051Y315673D01*
X140423Y315798D01*
X139732Y315661D01*
X139146Y315269D01*
X138754Y314683D01*
X138629Y314054D01*
X138159Y313584D01*
X137661Y313633D01*
X137623Y313690D01*
X137276Y314037D01*
X137151Y314666D01*
X136759Y315252D01*
X136173Y315644D01*
X135482Y315781D01*
X134791Y315644D01*
X134205Y315252D01*
X133830Y314692D01*
X133539Y314645D01*
X133303Y314663D01*
X132945Y315198D01*
X132359Y315590D01*
X131668Y315727D01*
X130976Y315590D01*
X130547Y315303D01*
X129955Y315289D01*
X129368Y315680D01*
X128677Y315818D01*
X127986Y315680D01*
X127400Y315289D01*
X127008Y314703D01*
X126871Y314011D01*
X127008Y313320D01*
X127400Y312734D01*
X127986Y312343D01*
X128225Y312295D01*
X130355Y310165D01*
Y306321D01*
X130244Y306299D01*
X129788Y305994D01*
X129619Y305741D01*
X128952Y305829D01*
X122388D01*
X121155Y305667D01*
X121047Y305622D01*
X119003D01*
Y307984D01*
X113649D01*
Y305622D01*
X111918D01*
X111696Y305714D01*
X110463Y305876D01*
X97930D01*
X97779Y305856D01*
X97656Y306042D01*
X97200Y306346D01*
X96662Y306453D01*
X95087D01*
X94800Y306396D01*
X94300Y306623D01*
X94073Y307123D01*
X94130Y307410D01*
Y308985D01*
X94023Y309523D01*
X93719Y309979D01*
X93453Y310156D01*
X93553Y310921D01*
Y311729D01*
X93391Y312963D01*
X93331Y313106D01*
X93295Y313474D01*
X92786Y315152D01*
X91960Y316699D01*
X90847Y318054D01*
X89492Y319167D01*
X87945Y319993D01*
X87417Y320153D01*
Y321350D01*
X73126D01*
Y320761D01*
X69914D01*
X69065Y320650D01*
X68406D01*
X68318Y320638D01*
X66109Y320464D01*
X63869Y319926D01*
X61741Y319045D01*
X59777Y317841D01*
X59008Y317185D01*
X58952Y317162D01*
X57965Y316404D01*
X52354Y310792D01*
X52062Y310412D01*
X51332Y309852D01*
X50039Y309317D01*
X49128Y309197D01*
X48652Y309259D01*
X42563D01*
Y310400D01*
X31161D01*
Y313015D01*
X32004Y313364D01*
X32264Y313538D01*
X32264Y313538D01*
X32928Y314202D01*
X33103Y314463D01*
X33103Y314463D01*
X33462Y315331D01*
X33523Y315638D01*
Y316578D01*
X33462Y316885D01*
X33103Y317754D01*
X32928Y318014D01*
X32264Y318678D01*
X32004Y318853D01*
X32004Y318853D01*
X31358Y319120D01*
Y319652D01*
X13429D01*
Y321029D01*
X12051D01*
Y324195D01*
X-2391D01*
Y357537D01*
X1163Y361091D01*
X13330D01*
X14000Y361038D01*
X14670Y361091D01*
X24000D01*
X24310Y361152D01*
X24572Y361328D01*
X24748Y361590D01*
X24809Y361900D01*
Y366908D01*
X25020Y366980D01*
X25309Y366991D01*
X25654Y366476D01*
X26807Y365323D01*
X27393Y364931D01*
X28084Y364794D01*
X29391D01*
Y363844D01*
X34509D01*
Y369356D01*
X29391D01*
Y368406D01*
X28832D01*
X28737Y368501D01*
Y373299D01*
X28832Y373394D01*
X29443D01*
Y370869D01*
X35546D01*
Y379531D01*
X29443D01*
Y377006D01*
X28084D01*
X27393Y376869D01*
X26807Y376477D01*
X25654Y375324D01*
X25309Y374809D01*
X25020Y374820D01*
X24809Y374892D01*
Y381091D01*
X426691D01*
X426691Y9190D01*
D02*
G37*
G36*
X156951Y299826D02*
X155770Y298645D01*
X154392D01*
Y303566D01*
X156951D01*
Y299826D01*
D02*
G37*
G36*
X72658Y299791D02*
X71477Y298610D01*
X70099D01*
Y303532D01*
X72658D01*
Y299791D01*
D02*
G37*
G36*
X157041Y227375D02*
X155860Y226194D01*
X154482D01*
Y231115D01*
X157041D01*
Y227375D01*
D02*
G37*
G36*
X72748Y227341D02*
X71567Y226160D01*
X70189D01*
Y231081D01*
X72748D01*
Y227341D01*
D02*
G37*
G36*
X157080Y154830D02*
X155898Y153649D01*
X154520D01*
Y158570D01*
X157080D01*
Y154830D01*
D02*
G37*
G36*
X72787Y154795D02*
X71605Y153614D01*
X70227D01*
Y158535D01*
X72787D01*
Y154795D01*
D02*
G37*
G36*
X157001Y78567D02*
X155819Y77386D01*
X154441D01*
Y82308D01*
X157001D01*
Y78567D01*
D02*
G37*
G36*
X72708Y78533D02*
X71526Y77352D01*
X70148D01*
Y82273D01*
X72708D01*
Y78533D01*
D02*
G37*
%LPC*%
G36*
X47357Y379531D02*
X44798D01*
Y375692D01*
X47357D01*
Y379531D01*
D02*
G37*
G36*
X43813D02*
X41254D01*
Y375692D01*
X43813D01*
Y379531D01*
D02*
G37*
G36*
X47357Y374708D02*
X44798D01*
Y370869D01*
X47357D01*
Y374708D01*
D02*
G37*
G36*
X43813D02*
X41254D01*
Y370869D01*
X43813D01*
Y374708D01*
D02*
G37*
G36*
X263605Y371131D02*
X261046D01*
Y367292D01*
X263605D01*
Y371131D01*
D02*
G37*
G36*
X260061D02*
X257502D01*
Y367292D01*
X260061D01*
Y371131D01*
D02*
G37*
G36*
X145557D02*
X142998D01*
Y367292D01*
X145557D01*
Y371131D01*
D02*
G37*
G36*
X142013D02*
X139454D01*
Y367292D01*
X142013D01*
Y371131D01*
D02*
G37*
G36*
X40809Y369356D02*
X38742D01*
Y367092D01*
X40809D01*
Y369356D01*
D02*
G37*
G36*
X37758D02*
X35691D01*
Y367092D01*
X37758D01*
Y369356D01*
D02*
G37*
G36*
X40809Y366108D02*
X38742D01*
Y363844D01*
X40809D01*
Y366108D01*
D02*
G37*
G36*
X37758D02*
X35691D01*
Y363844D01*
X37758D01*
Y366108D01*
D02*
G37*
G36*
X263605Y366308D02*
X261046D01*
Y362469D01*
X263605D01*
Y366308D01*
D02*
G37*
G36*
X260061D02*
X257502D01*
Y362469D01*
X260061D01*
Y366308D01*
D02*
G37*
G36*
X145557D02*
X142998D01*
Y362469D01*
X145557D01*
Y366308D01*
D02*
G37*
G36*
X142013D02*
X139454D01*
Y362469D01*
X142013D01*
Y366308D01*
D02*
G37*
G36*
X257109Y361056D02*
X255042D01*
Y358792D01*
X257109D01*
Y361056D01*
D02*
G37*
G36*
X254058D02*
X251991D01*
Y358792D01*
X254058D01*
Y361056D01*
D02*
G37*
G36*
X139061D02*
X136994D01*
Y358792D01*
X139061D01*
Y361056D01*
D02*
G37*
G36*
X136010D02*
X133942D01*
Y358792D01*
X136010D01*
Y361056D01*
D02*
G37*
G36*
X257109Y357808D02*
X255042D01*
Y355544D01*
X257109D01*
Y357808D01*
D02*
G37*
G36*
X254058D02*
X251991D01*
Y355544D01*
X254058D01*
Y357808D01*
D02*
G37*
G36*
X229921Y377204D02*
X227944Y377049D01*
X226016Y376586D01*
X224184Y375827D01*
X222493Y374791D01*
X220985Y373503D01*
X219697Y371995D01*
X218661Y370304D01*
X217902Y368472D01*
X217440Y366544D01*
X217284Y364567D01*
X217440Y362590D01*
X217902Y360662D01*
X218661Y358830D01*
X219697Y357139D01*
X220985Y355631D01*
X222493Y354343D01*
X224184Y353307D01*
X226016Y352548D01*
X227944Y352085D01*
X229921Y351930D01*
X231898Y352085D01*
X233826Y352548D01*
X235659Y353307D01*
X237349Y354343D01*
X238857Y355631D01*
X240145Y357139D01*
X241181Y358830D01*
X241940Y360662D01*
X242403Y362590D01*
X242417Y362761D01*
X245691D01*
Y362469D01*
X246444D01*
Y361056D01*
X245691D01*
Y355544D01*
X250809D01*
Y361056D01*
X250057D01*
Y362469D01*
X251794D01*
Y371131D01*
X245691D01*
Y366373D01*
X242417D01*
X242403Y366544D01*
X241940Y368472D01*
X241181Y370304D01*
X240145Y371995D01*
X238857Y373503D01*
X237349Y374791D01*
X235659Y375827D01*
X233826Y376586D01*
X231898Y377049D01*
X229921Y377204D01*
D02*
G37*
G36*
X139061Y357808D02*
X136994D01*
Y355544D01*
X139061D01*
Y357808D01*
D02*
G37*
G36*
X136010D02*
X133942D01*
Y355544D01*
X136010D01*
Y357808D01*
D02*
G37*
G36*
X111811Y377204D02*
X109834Y377049D01*
X107906Y376586D01*
X106074Y375827D01*
X104383Y374791D01*
X102875Y373503D01*
X101587Y371995D01*
X100551Y370304D01*
X99792Y368472D01*
X99329Y366544D01*
X99174Y364567D01*
X99329Y362590D01*
X99792Y360662D01*
X100551Y358830D01*
X101587Y357139D01*
X102875Y355631D01*
X104383Y354343D01*
X106074Y353307D01*
X107906Y352548D01*
X109834Y352085D01*
X111811Y351930D01*
X113788Y352085D01*
X115716Y352548D01*
X117548Y353307D01*
X119239Y354343D01*
X120747Y355631D01*
X122035Y357139D01*
X123071Y358830D01*
X123830Y360662D01*
X124293Y362590D01*
X124306Y362761D01*
X127643D01*
Y362469D01*
X128396D01*
Y361056D01*
X127643D01*
Y355544D01*
X132761D01*
Y361056D01*
X132009D01*
Y362469D01*
X133746D01*
Y371131D01*
X127643D01*
Y366373D01*
X124306D01*
X124293Y366544D01*
X123830Y368472D01*
X123071Y370304D01*
X122035Y371995D01*
X120747Y373503D01*
X119239Y374791D01*
X117548Y375827D01*
X115716Y376586D01*
X113788Y377049D01*
X111811Y377204D01*
D02*
G37*
G36*
X232402Y330109D02*
X231711Y329972D01*
X231125Y329580D01*
X230930Y329289D01*
X230329D01*
X230167Y329531D01*
X229581Y329922D01*
X228890Y330060D01*
X228199Y329922D01*
X227612Y329531D01*
X227221Y328945D01*
X227083Y328254D01*
X227221Y327562D01*
X227612Y326976D01*
X228199Y326585D01*
X228890Y326447D01*
X229581Y326585D01*
X230167Y326976D01*
X230362Y327268D01*
X230963D01*
X231125Y327026D01*
X231711Y326634D01*
X232402Y326497D01*
X233094Y326634D01*
X233680Y327026D01*
X233967Y327456D01*
X234053Y327480D01*
X234483Y327469D01*
X234522Y327456D01*
X234826Y327001D01*
X235412Y326610D01*
X236103Y326472D01*
X236794Y326610D01*
X237380Y327001D01*
X237772Y327588D01*
X237910Y328279D01*
X237772Y328970D01*
X237380Y329556D01*
X236794Y329948D01*
X236103Y330085D01*
X235412Y329948D01*
X234826Y329556D01*
X234539Y329126D01*
X234452Y329102D01*
X234023Y329112D01*
X233983Y329126D01*
X233680Y329580D01*
X233094Y329972D01*
X232402Y330109D01*
D02*
G37*
G36*
X202604Y331689D02*
X201913Y331552D01*
X201327Y331160D01*
X200935Y330574D01*
X200798Y329883D01*
X200935Y329191D01*
X201327Y328606D01*
X201913Y328214D01*
X202604Y328076D01*
X203295Y328214D01*
X203882Y328606D01*
X204273Y329191D01*
X204411Y329883D01*
X204273Y330574D01*
X203882Y331160D01*
X203295Y331552D01*
X202604Y331689D01*
D02*
G37*
G36*
X152395Y327890D02*
X151704Y327753D01*
X151118Y327361D01*
X150726Y326775D01*
X150589Y326084D01*
X150726Y325393D01*
X151118Y324807D01*
X151704Y324415D01*
X152395Y324277D01*
X153086Y324415D01*
X153673Y324807D01*
X154064Y325393D01*
X154202Y326084D01*
X154064Y326775D01*
X153673Y327361D01*
X153086Y327753D01*
X152395Y327890D01*
D02*
G37*
G36*
X31358Y324195D02*
X14807D01*
Y322408D01*
X31358D01*
Y324195D01*
D02*
G37*
G36*
X209553Y327435D02*
X208861Y327298D01*
X208276Y326906D01*
X207884Y326320D01*
X207746Y325629D01*
X207884Y324938D01*
X208276Y324352D01*
X208717Y324057D01*
X208737Y323994D01*
Y323563D01*
X208717Y323501D01*
X208276Y323206D01*
X207884Y322620D01*
X207746Y321928D01*
X207884Y321237D01*
X208276Y320651D01*
X208861Y320259D01*
X209553Y320122D01*
X210244Y320259D01*
X210830Y320651D01*
X211222Y321237D01*
X211359Y321928D01*
X211222Y322620D01*
X210830Y323206D01*
X210388Y323501D01*
X210368Y323563D01*
Y323994D01*
X210388Y324057D01*
X210830Y324352D01*
X211222Y324938D01*
X211359Y325629D01*
X211222Y326320D01*
X210830Y326906D01*
X210244Y327298D01*
X209553Y327435D01*
D02*
G37*
G36*
X192024Y322499D02*
X191333Y322361D01*
X190747Y321970D01*
X190355Y321384D01*
X190217Y320692D01*
X190355Y320001D01*
X190747Y319415D01*
X191333Y319024D01*
X192024Y318886D01*
X192715Y319024D01*
X193301Y319415D01*
X193693Y320001D01*
X193830Y320692D01*
X193693Y321384D01*
X193301Y321970D01*
X192715Y322361D01*
X192024Y322499D01*
D02*
G37*
G36*
X186073Y325998D02*
X185381Y325861D01*
X184795Y325469D01*
X184404Y324883D01*
X184266Y324192D01*
X184404Y323500D01*
X184795Y322914D01*
X185237Y322619D01*
X185257Y322557D01*
Y322126D01*
X185237Y322063D01*
X184795Y321768D01*
X184404Y321182D01*
X184266Y320491D01*
X184404Y319800D01*
X184795Y319214D01*
X185381Y318822D01*
X186073Y318685D01*
X186764Y318822D01*
X187350Y319214D01*
X187742Y319800D01*
X187879Y320491D01*
X187742Y321182D01*
X187350Y321768D01*
X186908Y322063D01*
X186889Y322126D01*
Y322557D01*
X186908Y322619D01*
X187350Y322914D01*
X187742Y323500D01*
X187879Y324192D01*
X187742Y324883D01*
X187350Y325469D01*
X186764Y325861D01*
X186073Y325998D01*
D02*
G37*
G36*
X217603Y319585D02*
X216912Y319448D01*
X216326Y319056D01*
X216031Y318614D01*
X215968Y318595D01*
X215537D01*
X215475Y318614D01*
X215180Y319056D01*
X214594Y319448D01*
X213902Y319585D01*
X213211Y319448D01*
X212625Y319056D01*
X212233Y318470D01*
X212096Y317779D01*
X212233Y317088D01*
X212625Y316501D01*
X213211Y316110D01*
X213902Y315972D01*
X214594Y316110D01*
X215180Y316501D01*
X215475Y316943D01*
X215537Y316963D01*
X215968D01*
X216031Y316943D01*
X216326Y316501D01*
X216912Y316110D01*
X217603Y315972D01*
X218294Y316110D01*
X218880Y316501D01*
X219272Y317088D01*
X219409Y317779D01*
X219272Y318470D01*
X218880Y319056D01*
X218294Y319448D01*
X217603Y319585D01*
D02*
G37*
G36*
X236004Y321585D02*
X235313Y321448D01*
X234727Y321056D01*
X234335Y320470D01*
X234198Y319779D01*
X234335Y319088D01*
X234727Y318501D01*
X235313Y318110D01*
X236004Y317972D01*
X236695Y318110D01*
X237281Y318501D01*
X237673Y319088D01*
X237810Y319779D01*
X237673Y320470D01*
X237281Y321056D01*
X236695Y321448D01*
X236004Y321585D01*
D02*
G37*
G36*
X168199Y316015D02*
X167508Y315877D01*
X166922Y315486D01*
X166626Y315044D01*
X166564Y315024D01*
X166133D01*
X166071Y315044D01*
X165776Y315486D01*
X165190Y315877D01*
X164498Y316015D01*
X163807Y315877D01*
X163221Y315486D01*
X162829Y314899D01*
X162692Y314208D01*
X162829Y313517D01*
X163221Y312931D01*
X163807Y312539D01*
X164498Y312402D01*
X165190Y312539D01*
X165776Y312931D01*
X166071Y313373D01*
X166133Y313392D01*
X166564D01*
X166626Y313373D01*
X166922Y312931D01*
X167508Y312539D01*
X168199Y312402D01*
X168890Y312539D01*
X169476Y312931D01*
X169868Y313517D01*
X170005Y314208D01*
X169868Y314899D01*
X169476Y315486D01*
X168890Y315877D01*
X168199Y316015D01*
D02*
G37*
G36*
X224483Y317201D02*
X223792Y317064D01*
X223206Y316672D01*
X222815Y316086D01*
X222677Y315395D01*
X222815Y314704D01*
X223206Y314118D01*
X223792Y313726D01*
X224483Y313589D01*
X225175Y313726D01*
X225761Y314118D01*
X226152Y314704D01*
X226290Y315395D01*
X226152Y316086D01*
X225761Y316672D01*
X225175Y317064D01*
X224483Y317201D01*
D02*
G37*
G36*
X234363Y315226D02*
X233672Y315088D01*
X233086Y314697D01*
X232694Y314111D01*
X232557Y313420D01*
X232694Y312728D01*
X233086Y312142D01*
X233672Y311751D01*
X234363Y311613D01*
X235054Y311751D01*
X235641Y312142D01*
X236032Y312728D01*
X236170Y313420D01*
X236032Y314111D01*
X235641Y314697D01*
X235054Y315088D01*
X234363Y315226D01*
D02*
G37*
G36*
X175069Y313518D02*
X174378Y313380D01*
X173792Y312989D01*
X173400Y312403D01*
X173262Y311711D01*
X173400Y311020D01*
X173792Y310434D01*
X174378Y310043D01*
X175069Y309905D01*
X175760Y310043D01*
X176346Y310434D01*
X176738Y311020D01*
X176875Y311711D01*
X176738Y312403D01*
X176346Y312989D01*
X175760Y313380D01*
X175069Y313518D01*
D02*
G37*
G36*
X287927Y310926D02*
X287236Y310789D01*
X286650Y310397D01*
X286258Y309811D01*
X286121Y309120D01*
X286258Y308429D01*
X286650Y307842D01*
X287236Y307451D01*
X287927Y307313D01*
X288618Y307451D01*
X289204Y307842D01*
X289596Y308429D01*
X289733Y309120D01*
X289596Y309811D01*
X289204Y310397D01*
X288618Y310789D01*
X287927Y310926D01*
D02*
G37*
G36*
X67146Y305008D02*
X65276D01*
Y304122D01*
X67146D01*
Y305008D01*
D02*
G37*
G36*
X281638Y306620D02*
X280947Y306483D01*
X280361Y306091D01*
X279970Y305505D01*
X279832Y304814D01*
X279970Y304123D01*
X280361Y303537D01*
X280947Y303145D01*
X281638Y303008D01*
X282330Y303145D01*
X282916Y303537D01*
X283307Y304123D01*
X283445Y304814D01*
X283307Y305505D01*
X282916Y306091D01*
X282330Y306483D01*
X281638Y306620D01*
D02*
G37*
G36*
X287927Y305796D02*
X287236Y305658D01*
X286650Y305266D01*
X286258Y304680D01*
X286121Y303989D01*
X286258Y303298D01*
X286650Y302712D01*
X287236Y302320D01*
X287927Y302183D01*
X288618Y302320D01*
X289204Y302712D01*
X289596Y303298D01*
X289733Y303989D01*
X289596Y304680D01*
X289204Y305266D01*
X288618Y305658D01*
X287927Y305796D01*
D02*
G37*
G36*
Y300890D02*
X287236Y300753D01*
X286650Y300361D01*
X286258Y299775D01*
X286121Y299084D01*
X286258Y298392D01*
X286650Y297806D01*
X287236Y297415D01*
X287927Y297277D01*
X288618Y297415D01*
X289204Y297806D01*
X289596Y298392D01*
X289733Y299084D01*
X289596Y299775D01*
X289204Y300361D01*
X288618Y300753D01*
X287927Y300890D01*
D02*
G37*
G36*
X67146Y298020D02*
X65276D01*
Y297134D01*
X67146D01*
Y298020D01*
D02*
G37*
G36*
X287927Y295796D02*
X287236Y295658D01*
X286650Y295267D01*
X286258Y294681D01*
X286121Y293989D01*
X286258Y293298D01*
X286650Y292712D01*
X287236Y292320D01*
X287927Y292183D01*
X288618Y292320D01*
X289204Y292712D01*
X289596Y293298D01*
X289733Y293989D01*
X289596Y294681D01*
X289204Y295267D01*
X288618Y295658D01*
X287927Y295796D01*
D02*
G37*
G36*
X144502Y293204D02*
X142986D01*
Y291688D01*
X144502D01*
Y293204D01*
D02*
G37*
G36*
X123802Y289603D02*
X122286D01*
Y288087D01*
X123802D01*
Y289603D01*
D02*
G37*
G36*
X110558D02*
X109043D01*
Y288087D01*
X110558D01*
Y289603D01*
D02*
G37*
G36*
X236135Y289029D02*
X235444Y288892D01*
X234858Y288500D01*
X234562Y288058D01*
X234500Y288039D01*
X234069D01*
X234007Y288058D01*
X233711Y288500D01*
X233125Y288892D01*
X232434Y289029D01*
X231743Y288892D01*
X231157Y288500D01*
X230765Y287914D01*
X230628Y287223D01*
X230765Y286532D01*
X231157Y285946D01*
X231743Y285554D01*
X232434Y285417D01*
X233125Y285554D01*
X233711Y285946D01*
X234007Y286388D01*
X234069Y286407D01*
X234500D01*
X234562Y286388D01*
X234858Y285946D01*
X235444Y285554D01*
X236135Y285417D01*
X236826Y285554D01*
X237412Y285946D01*
X237804Y286532D01*
X237941Y287223D01*
X237804Y287914D01*
X237412Y288500D01*
X236826Y288892D01*
X236135Y289029D01*
D02*
G37*
G36*
X287927Y290796D02*
X287236Y290658D01*
X286650Y290266D01*
X286258Y289681D01*
X286121Y288989D01*
X286258Y288298D01*
X286650Y287712D01*
X287236Y287320D01*
X287927Y287183D01*
X288618Y287320D01*
X289204Y287712D01*
X289596Y288298D01*
X289733Y288989D01*
X289596Y289681D01*
X289204Y290266D01*
X288618Y290658D01*
X287927Y290796D01*
D02*
G37*
G36*
X148557Y289252D02*
X146391D01*
Y286988D01*
X148557D01*
Y289252D01*
D02*
G37*
G36*
X123802Y287103D02*
X122286D01*
Y285587D01*
X123802D01*
Y287103D01*
D02*
G37*
G36*
X110558D02*
X109043D01*
Y285587D01*
X110558D01*
Y287103D01*
D02*
G37*
G36*
X31358Y286581D02*
X14807D01*
Y284793D01*
X31358D01*
Y286581D01*
D02*
G37*
G36*
X97930Y285983D02*
X96414D01*
Y284467D01*
X97930D01*
Y285983D01*
D02*
G37*
G36*
X83078D02*
X81562D01*
Y284467D01*
X83078D01*
Y285983D01*
D02*
G37*
G36*
X148557Y286004D02*
X146391D01*
Y283740D01*
X148557D01*
Y286004D01*
D02*
G37*
G36*
X145407D02*
X143242D01*
Y283740D01*
X145407D01*
Y286004D01*
D02*
G37*
G36*
X287927Y285796D02*
X287236Y285658D01*
X286650Y285266D01*
X286258Y284681D01*
X286121Y283989D01*
X286258Y283298D01*
X286650Y282712D01*
X287236Y282320D01*
X287927Y282183D01*
X288618Y282320D01*
X289204Y282712D01*
X289596Y283298D01*
X289733Y283989D01*
X289596Y284681D01*
X289204Y285266D01*
X288618Y285658D01*
X287927Y285796D01*
D02*
G37*
G36*
X100522Y285602D02*
X99831Y285465D01*
X99245Y285073D01*
X98853Y284487D01*
X98716Y283796D01*
X98853Y283105D01*
X99245Y282519D01*
X99831Y282127D01*
X100522Y281990D01*
X101213Y282127D01*
X101799Y282519D01*
X102191Y283105D01*
X102328Y283796D01*
X102191Y284487D01*
X101799Y285073D01*
X101213Y285465D01*
X100522Y285602D01*
D02*
G37*
G36*
X78833D02*
X78142Y285465D01*
X77556Y285073D01*
X77164Y284487D01*
X77027Y283796D01*
X77164Y283105D01*
X77556Y282519D01*
X78142Y282127D01*
X78833Y281990D01*
X79524Y282127D01*
X80110Y282519D01*
X80502Y283105D01*
X80639Y283796D01*
X80502Y284487D01*
X80110Y285073D01*
X79524Y285465D01*
X78833Y285602D01*
D02*
G37*
G36*
X209684Y282760D02*
X208993Y282623D01*
X208407Y282231D01*
X208016Y281645D01*
X207878Y280954D01*
X208016Y280262D01*
X208407Y279676D01*
X208993Y279285D01*
X209684Y279147D01*
X210376Y279285D01*
X210962Y279676D01*
X211353Y280262D01*
X211491Y280954D01*
X211353Y281645D01*
X210962Y282231D01*
X210376Y282623D01*
X209684Y282760D01*
D02*
G37*
G36*
X97608Y280823D02*
X95344D01*
Y278658D01*
X97608D01*
Y280823D01*
D02*
G37*
G36*
X94360D02*
X92096D01*
Y278658D01*
X94360D01*
Y280823D01*
D02*
G37*
G36*
X148557Y283152D02*
X143242D01*
Y277640D01*
X148557D01*
Y283152D01*
D02*
G37*
G36*
X102641Y277764D02*
X101126D01*
Y276248D01*
X102641D01*
Y277764D01*
D02*
G37*
G36*
X100141D02*
X98626D01*
Y276248D01*
X100141D01*
Y277764D01*
D02*
G37*
G36*
X311519Y279847D02*
X310828Y279709D01*
X310242Y279318D01*
X309850Y278732D01*
X309713Y278040D01*
X309850Y277349D01*
X310242Y276763D01*
X310828Y276372D01*
X311519Y276234D01*
X312210Y276372D01*
X312796Y276763D01*
X313188Y277349D01*
X313325Y278040D01*
X313188Y278732D01*
X312796Y279318D01*
X312210Y279709D01*
X311519Y279847D01*
D02*
G37*
G36*
X97608Y277673D02*
X95344D01*
Y275508D01*
X97608D01*
Y277673D01*
D02*
G37*
G36*
X94360D02*
X92096D01*
Y275508D01*
X94360D01*
Y277673D01*
D02*
G37*
G36*
X214134Y278710D02*
X213443Y278573D01*
X212857Y278181D01*
X212465Y277595D01*
X212328Y276904D01*
X212465Y276213D01*
X212857Y275627D01*
X213443Y275235D01*
X214134Y275098D01*
X214825Y275235D01*
X215411Y275627D01*
X215803Y276213D01*
X215940Y276904D01*
X215803Y277595D01*
X215411Y278181D01*
X214825Y278573D01*
X214134Y278710D01*
D02*
G37*
G36*
X205334Y278665D02*
X204643Y278528D01*
X204057Y278136D01*
X203665Y277550D01*
X203528Y276859D01*
X203665Y276168D01*
X204057Y275582D01*
X204643Y275190D01*
X205334Y275053D01*
X206025Y275190D01*
X206611Y275582D01*
X207003Y276168D01*
X207140Y276859D01*
X207003Y277550D01*
X206611Y278136D01*
X206025Y278528D01*
X205334Y278665D01*
D02*
G37*
G36*
X83828Y276590D02*
X81466D01*
Y273539D01*
X83828D01*
Y276590D01*
D02*
G37*
G36*
X80482D02*
X78120D01*
Y273539D01*
X80482D01*
Y276590D01*
D02*
G37*
G36*
X231935Y276429D02*
X231244Y276292D01*
X230658Y275900D01*
X230266Y275314D01*
X230129Y274623D01*
X230266Y273932D01*
X230658Y273346D01*
X231244Y272954D01*
X231935Y272816D01*
X232626Y272954D01*
X233212Y273346D01*
X233604Y273932D01*
X233741Y274623D01*
X233604Y275314D01*
X233212Y275900D01*
X232626Y276292D01*
X231935Y276429D01*
D02*
G37*
G36*
X120400Y273144D02*
X118825D01*
Y271569D01*
X120400D01*
Y273144D01*
D02*
G37*
G36*
X217748Y274501D02*
X217057Y274363D01*
X216471Y273972D01*
X216079Y273386D01*
X215942Y272695D01*
X216079Y272003D01*
X216471Y271417D01*
X217057Y271026D01*
X217748Y270888D01*
X218440Y271026D01*
X219026Y271417D01*
X219417Y272003D01*
X219555Y272695D01*
X219417Y273386D01*
X219026Y273972D01*
X218440Y274363D01*
X217748Y274501D01*
D02*
G37*
G36*
X224970Y273421D02*
X224279Y273284D01*
X223693Y272892D01*
X223301Y272306D01*
X223164Y271615D01*
X223301Y270923D01*
X223693Y270337D01*
X224279Y269946D01*
X224970Y269808D01*
X225661Y269946D01*
X226247Y270337D01*
X226639Y270923D01*
X226776Y271615D01*
X226639Y272306D01*
X226247Y272892D01*
X225661Y273284D01*
X224970Y273421D01*
D02*
G37*
G36*
X196977Y273178D02*
X196286Y273041D01*
X195700Y272649D01*
X195309Y272063D01*
X195171Y271372D01*
X195309Y270680D01*
X195700Y270094D01*
X196286Y269703D01*
X196977Y269565D01*
X197669Y269703D01*
X198255Y270094D01*
X198646Y270680D01*
X198784Y271372D01*
X198646Y272063D01*
X198255Y272649D01*
X197669Y273041D01*
X196977Y273178D01*
D02*
G37*
G36*
X83828Y272555D02*
X81466D01*
Y269504D01*
X83828D01*
Y272555D01*
D02*
G37*
G36*
X80482D02*
X78120D01*
Y269504D01*
X80482D01*
Y272555D01*
D02*
G37*
G36*
X294491Y272484D02*
X293800Y272347D01*
X293214Y271955D01*
X292823Y271369D01*
X292685Y270678D01*
X292823Y269987D01*
X293214Y269401D01*
X293800Y269009D01*
X294491Y268872D01*
X295183Y269009D01*
X295769Y269401D01*
X296160Y269987D01*
X296298Y270678D01*
X296160Y271369D01*
X295769Y271955D01*
X295183Y272347D01*
X294491Y272484D01*
D02*
G37*
G36*
X113395Y269602D02*
X111880D01*
Y268087D01*
X113395D01*
Y269602D01*
D02*
G37*
G36*
X350602Y262681D02*
X349911Y262544D01*
X349453Y262238D01*
X322956D01*
X322561Y262502D01*
X321870Y262639D01*
X321179Y262502D01*
X320593Y262110D01*
X320201Y261524D01*
X320064Y260833D01*
X320201Y260141D01*
X320593Y259556D01*
X321179Y259164D01*
X321870Y259026D01*
X322561Y259164D01*
X322956Y259428D01*
X349579D01*
X349911Y259206D01*
X350602Y259068D01*
X351293Y259206D01*
X351879Y259598D01*
X352271Y260184D01*
X352408Y260875D01*
X352271Y261566D01*
X351879Y262152D01*
X351293Y262544D01*
X350602Y262681D01*
D02*
G37*
G36*
X232492Y257659D02*
X231801Y257521D01*
X231215Y257130D01*
X231020Y256838D01*
X230418D01*
X230257Y257080D01*
X229671Y257472D01*
X228979Y257609D01*
X228288Y257472D01*
X227702Y257080D01*
X227310Y256494D01*
X227173Y255803D01*
X227310Y255112D01*
X227702Y254525D01*
X228288Y254134D01*
X228979Y253996D01*
X229671Y254134D01*
X230257Y254525D01*
X230451Y254817D01*
X231053D01*
X231215Y254575D01*
X231801Y254184D01*
X232492Y254046D01*
X233183Y254184D01*
X233769Y254575D01*
X234056Y255005D01*
X234143Y255029D01*
X234572Y255019D01*
X234612Y255005D01*
X234915Y254551D01*
X235501Y254159D01*
X236193Y254022D01*
X236884Y254159D01*
X237470Y254551D01*
X237861Y255137D01*
X237999Y255828D01*
X237861Y256519D01*
X237470Y257105D01*
X236884Y257497D01*
X236193Y257634D01*
X235501Y257497D01*
X234915Y257105D01*
X234628Y256676D01*
X234542Y256651D01*
X234112Y256662D01*
X234073Y256676D01*
X233769Y257130D01*
X233183Y257521D01*
X232492Y257659D01*
D02*
G37*
G36*
X202694Y259238D02*
X202002Y259101D01*
X201416Y258709D01*
X201025Y258123D01*
X200887Y257432D01*
X201025Y256741D01*
X201416Y256155D01*
X202002Y255763D01*
X202694Y255626D01*
X203385Y255763D01*
X203971Y256155D01*
X204363Y256741D01*
X204500Y257432D01*
X204363Y258123D01*
X203971Y258709D01*
X203385Y259101D01*
X202694Y259238D01*
D02*
G37*
G36*
X31358Y254195D02*
X14807D01*
Y252408D01*
X31358D01*
Y254195D01*
D02*
G37*
G36*
X152288Y255243D02*
X151597Y255105D01*
X151011Y254714D01*
X150619Y254128D01*
X150482Y253436D01*
X150619Y252745D01*
X151011Y252159D01*
X151597Y251767D01*
X152288Y251630D01*
X152979Y251767D01*
X153565Y252159D01*
X153957Y252745D01*
X154094Y253436D01*
X153957Y254128D01*
X153565Y254714D01*
X152979Y255105D01*
X152288Y255243D01*
D02*
G37*
G36*
X319755Y254273D02*
X319064Y254135D01*
X318478Y253744D01*
X318086Y253158D01*
X317949Y252467D01*
X318086Y251775D01*
X318478Y251189D01*
X319064Y250798D01*
X319755Y250660D01*
X320446Y250798D01*
X320786Y251025D01*
X341117D01*
X341512Y250761D01*
X342203Y250624D01*
X342895Y250761D01*
X343480Y251153D01*
X343872Y251739D01*
X344010Y252430D01*
X343872Y253121D01*
X343480Y253708D01*
X342895Y254099D01*
X342203Y254237D01*
X341512Y254099D01*
X341117Y253835D01*
X320896D01*
X320446Y254135D01*
X319755Y254273D01*
D02*
G37*
G36*
X209642Y254985D02*
X208951Y254847D01*
X208365Y254456D01*
X207973Y253870D01*
X207836Y253178D01*
X207973Y252487D01*
X208365Y251901D01*
X208807Y251606D01*
X208826Y251543D01*
Y251113D01*
X208807Y251050D01*
X208365Y250755D01*
X207973Y250169D01*
X207836Y249478D01*
X207973Y248786D01*
X208365Y248200D01*
X208951Y247809D01*
X209642Y247671D01*
X210333Y247809D01*
X210919Y248200D01*
X211311Y248786D01*
X211449Y249478D01*
X211311Y250169D01*
X210919Y250755D01*
X210478Y251050D01*
X210458Y251113D01*
Y251543D01*
X210478Y251606D01*
X210919Y251901D01*
X211311Y252487D01*
X211449Y253178D01*
X211311Y253870D01*
X210919Y254456D01*
X210333Y254847D01*
X209642Y254985D01*
D02*
G37*
G36*
X192113Y250048D02*
X191422Y249911D01*
X190836Y249519D01*
X190445Y248933D01*
X190307Y248242D01*
X190445Y247551D01*
X190836Y246965D01*
X191422Y246573D01*
X192113Y246435D01*
X192805Y246573D01*
X193391Y246965D01*
X193782Y247551D01*
X193920Y248242D01*
X193782Y248933D01*
X193391Y249519D01*
X192805Y249911D01*
X192113Y250048D01*
D02*
G37*
G36*
X186162Y253547D02*
X185471Y253410D01*
X184885Y253018D01*
X184493Y252432D01*
X184356Y251741D01*
X184493Y251050D01*
X184885Y250464D01*
X185327Y250168D01*
X185346Y250106D01*
Y249675D01*
X185327Y249613D01*
X184885Y249317D01*
X184493Y248731D01*
X184356Y248040D01*
X184493Y247349D01*
X184885Y246763D01*
X185471Y246371D01*
X186162Y246234D01*
X186854Y246371D01*
X187440Y246763D01*
X187831Y247349D01*
X187969Y248040D01*
X187831Y248731D01*
X187440Y249317D01*
X186998Y249613D01*
X186978Y249675D01*
Y250106D01*
X186998Y250168D01*
X187440Y250464D01*
X187831Y251050D01*
X187969Y251741D01*
X187831Y252432D01*
X187440Y253018D01*
X186854Y253410D01*
X186162Y253547D01*
D02*
G37*
G36*
X217693Y247134D02*
X217001Y246997D01*
X216415Y246605D01*
X216120Y246163D01*
X216058Y246144D01*
X215627D01*
X215564Y246163D01*
X215269Y246605D01*
X214683Y246997D01*
X213992Y247134D01*
X213301Y246997D01*
X212715Y246605D01*
X212323Y246019D01*
X212186Y245328D01*
X212323Y244637D01*
X212715Y244051D01*
X213301Y243659D01*
X213992Y243522D01*
X214683Y243659D01*
X215269Y244051D01*
X215564Y244493D01*
X215627Y244512D01*
X216058D01*
X216120Y244493D01*
X216415Y244051D01*
X217001Y243659D01*
X217693Y243522D01*
X218384Y243659D01*
X218970Y244051D01*
X219361Y244637D01*
X219499Y245328D01*
X219361Y246019D01*
X218970Y246605D01*
X218384Y246997D01*
X217693Y247134D01*
D02*
G37*
G36*
X236093Y249134D02*
X235402Y248997D01*
X234816Y248605D01*
X234425Y248019D01*
X234287Y247328D01*
X234425Y246637D01*
X234816Y246051D01*
X235402Y245659D01*
X236093Y245522D01*
X236785Y245659D01*
X237371Y246051D01*
X237762Y246637D01*
X237900Y247328D01*
X237762Y248019D01*
X237371Y248605D01*
X236785Y248997D01*
X236093Y249134D01*
D02*
G37*
G36*
X168289Y243564D02*
X167597Y243426D01*
X167011Y243035D01*
X166716Y242593D01*
X166654Y242573D01*
X166223D01*
X166160Y242593D01*
X165865Y243035D01*
X165279Y243426D01*
X164588Y243564D01*
X163897Y243426D01*
X163311Y243035D01*
X162919Y242449D01*
X162781Y241757D01*
X162919Y241066D01*
X163311Y240480D01*
X163897Y240089D01*
X164588Y239951D01*
X165279Y240089D01*
X165865Y240480D01*
X166160Y240922D01*
X166223Y240942D01*
X166654D01*
X166716Y240922D01*
X167011Y240480D01*
X167597Y240089D01*
X168289Y239951D01*
X168980Y240089D01*
X169566Y240480D01*
X169957Y241066D01*
X170095Y241757D01*
X169957Y242449D01*
X169566Y243035D01*
X168980Y243426D01*
X168289Y243564D01*
D02*
G37*
G36*
X224573Y244751D02*
X223882Y244613D01*
X223296Y244222D01*
X222904Y243636D01*
X222767Y242944D01*
X222904Y242253D01*
X223296Y241667D01*
X223882Y241276D01*
X224573Y241138D01*
X225264Y241276D01*
X225850Y241667D01*
X226242Y242253D01*
X226379Y242944D01*
X226242Y243636D01*
X225850Y244222D01*
X225264Y244613D01*
X224573Y244751D01*
D02*
G37*
G36*
X234453Y242775D02*
X233762Y242638D01*
X233175Y242246D01*
X232784Y241660D01*
X232646Y240969D01*
X232784Y240278D01*
X233175Y239691D01*
X233762Y239300D01*
X234453Y239162D01*
X235144Y239300D01*
X235730Y239691D01*
X236122Y240278D01*
X236259Y240969D01*
X236122Y241660D01*
X235730Y242246D01*
X235144Y242638D01*
X234453Y242775D01*
D02*
G37*
G36*
X175158Y241067D02*
X174467Y240930D01*
X173881Y240538D01*
X173489Y239952D01*
X173352Y239261D01*
X173489Y238569D01*
X173881Y237983D01*
X174467Y237592D01*
X175158Y237454D01*
X175849Y237592D01*
X176436Y237983D01*
X176827Y238569D01*
X176965Y239261D01*
X176827Y239952D01*
X176436Y240538D01*
X175849Y240930D01*
X175158Y241067D01*
D02*
G37*
G36*
X288016Y238475D02*
X287325Y238338D01*
X286739Y237946D01*
X286348Y237360D01*
X286210Y236669D01*
X286348Y235978D01*
X286739Y235392D01*
X287325Y235000D01*
X288016Y234863D01*
X288708Y235000D01*
X289294Y235392D01*
X289685Y235978D01*
X289823Y236669D01*
X289685Y237360D01*
X289294Y237946D01*
X288708Y238338D01*
X288016Y238475D01*
D02*
G37*
G36*
X67236Y232557D02*
X65366D01*
Y231671D01*
X67236D01*
Y232557D01*
D02*
G37*
G36*
X281728Y234170D02*
X281037Y234032D01*
X280451Y233641D01*
X280059Y233054D01*
X279922Y232363D01*
X280059Y231672D01*
X280451Y231086D01*
X281037Y230694D01*
X281728Y230557D01*
X282419Y230694D01*
X283005Y231086D01*
X283397Y231672D01*
X283534Y232363D01*
X283397Y233054D01*
X283005Y233641D01*
X282419Y234032D01*
X281728Y234170D01*
D02*
G37*
G36*
X288016Y233345D02*
X287325Y233207D01*
X286739Y232816D01*
X286348Y232230D01*
X286210Y231539D01*
X286348Y230847D01*
X286739Y230261D01*
X287325Y229870D01*
X288016Y229732D01*
X288708Y229870D01*
X289294Y230261D01*
X289685Y230847D01*
X289823Y231539D01*
X289685Y232230D01*
X289294Y232816D01*
X288708Y233207D01*
X288016Y233345D01*
D02*
G37*
G36*
Y228439D02*
X287325Y228302D01*
X286739Y227910D01*
X286348Y227324D01*
X286210Y226633D01*
X286348Y225942D01*
X286739Y225356D01*
X287325Y224964D01*
X288016Y224827D01*
X288708Y224964D01*
X289294Y225356D01*
X289685Y225942D01*
X289823Y226633D01*
X289685Y227324D01*
X289294Y227910D01*
X288708Y228302D01*
X288016Y228439D01*
D02*
G37*
G36*
X67236Y225569D02*
X65366D01*
Y224683D01*
X67236D01*
Y225569D01*
D02*
G37*
G36*
X288016Y223345D02*
X287325Y223207D01*
X286739Y222816D01*
X286348Y222230D01*
X286210Y221538D01*
X286348Y220847D01*
X286739Y220261D01*
X287325Y219870D01*
X288016Y219732D01*
X288708Y219870D01*
X289294Y220261D01*
X289685Y220847D01*
X289823Y221538D01*
X289685Y222230D01*
X289294Y222816D01*
X288708Y223207D01*
X288016Y223345D01*
D02*
G37*
G36*
X144591Y220753D02*
X143075D01*
Y219237D01*
X144591D01*
Y220753D01*
D02*
G37*
G36*
X123891Y217152D02*
X122375D01*
Y215637D01*
X123891D01*
Y217152D01*
D02*
G37*
G36*
X110648D02*
X109132D01*
Y215637D01*
X110648D01*
Y217152D01*
D02*
G37*
G36*
X236224Y216579D02*
X235533Y216441D01*
X234947Y216050D01*
X234652Y215608D01*
X234589Y215588D01*
X234159D01*
X234096Y215608D01*
X233801Y216050D01*
X233215Y216441D01*
X232524Y216579D01*
X231832Y216441D01*
X231246Y216050D01*
X230855Y215463D01*
X230717Y214772D01*
X230855Y214081D01*
X231246Y213495D01*
X231832Y213103D01*
X232524Y212966D01*
X233215Y213103D01*
X233801Y213495D01*
X234096Y213937D01*
X234159Y213956D01*
X234589D01*
X234652Y213937D01*
X234947Y213495D01*
X235533Y213103D01*
X236224Y212966D01*
X236916Y213103D01*
X237502Y213495D01*
X237893Y214081D01*
X238031Y214772D01*
X237893Y215463D01*
X237502Y216050D01*
X236916Y216441D01*
X236224Y216579D01*
D02*
G37*
G36*
X31358Y216581D02*
X14807D01*
Y214793D01*
X31358D01*
Y216581D01*
D02*
G37*
G36*
X288016Y218345D02*
X287325Y218207D01*
X286739Y217816D01*
X286348Y217230D01*
X286210Y216539D01*
X286348Y215847D01*
X286739Y215261D01*
X287325Y214870D01*
X288016Y214732D01*
X288708Y214870D01*
X289294Y215261D01*
X289685Y215847D01*
X289823Y216539D01*
X289685Y217230D01*
X289294Y217816D01*
X288708Y218207D01*
X288016Y218345D01*
D02*
G37*
G36*
X148646Y216801D02*
X146481D01*
Y214538D01*
X148646D01*
Y216801D01*
D02*
G37*
G36*
X123891Y214652D02*
X122375D01*
Y213137D01*
X123891D01*
Y214652D01*
D02*
G37*
G36*
X110648D02*
X109132D01*
Y213137D01*
X110648D01*
Y214652D01*
D02*
G37*
G36*
X98019Y213532D02*
X96504D01*
Y212016D01*
X98019D01*
Y213532D01*
D02*
G37*
G36*
X83167D02*
X81652D01*
Y212016D01*
X83167D01*
Y213532D01*
D02*
G37*
G36*
X148646Y213553D02*
X146481D01*
Y211289D01*
X148646D01*
Y213553D01*
D02*
G37*
G36*
X145497D02*
X143331D01*
Y211289D01*
X145497D01*
Y213553D01*
D02*
G37*
G36*
X288016Y213345D02*
X287325Y213207D01*
X286739Y212816D01*
X286348Y212230D01*
X286210Y211539D01*
X286348Y210847D01*
X286739Y210261D01*
X287325Y209870D01*
X288016Y209732D01*
X288708Y209870D01*
X289294Y210261D01*
X289685Y210847D01*
X289823Y211539D01*
X289685Y212230D01*
X289294Y212816D01*
X288708Y213207D01*
X288016Y213345D01*
D02*
G37*
G36*
X100611Y213152D02*
X99920Y213014D01*
X99334Y212623D01*
X98943Y212037D01*
X98805Y211345D01*
X98943Y210654D01*
X99334Y210068D01*
X99920Y209677D01*
X100611Y209539D01*
X101303Y209677D01*
X101889Y210068D01*
X102280Y210654D01*
X102418Y211345D01*
X102280Y212037D01*
X101889Y212623D01*
X101303Y213014D01*
X100611Y213152D01*
D02*
G37*
G36*
X78923D02*
X78231Y213014D01*
X77645Y212623D01*
X77254Y212037D01*
X77116Y211345D01*
X77254Y210654D01*
X77645Y210068D01*
X78231Y209677D01*
X78923Y209539D01*
X79614Y209677D01*
X80200Y210068D01*
X80591Y210654D01*
X80729Y211345D01*
X80591Y212037D01*
X80200Y212623D01*
X79614Y213014D01*
X78923Y213152D01*
D02*
G37*
G36*
X209774Y210309D02*
X209083Y210172D01*
X208497Y209780D01*
X208105Y209194D01*
X207968Y208503D01*
X208105Y207812D01*
X208497Y207226D01*
X209083Y206834D01*
X209774Y206697D01*
X210465Y206834D01*
X211051Y207226D01*
X211443Y207812D01*
X211580Y208503D01*
X211443Y209194D01*
X211051Y209780D01*
X210465Y210172D01*
X209774Y210309D01*
D02*
G37*
G36*
X97697Y208372D02*
X95434D01*
Y206207D01*
X97697D01*
Y208372D01*
D02*
G37*
G36*
X94449D02*
X92186D01*
Y206207D01*
X94449D01*
Y208372D01*
D02*
G37*
G36*
X148646Y210701D02*
X143331D01*
Y205189D01*
X148646D01*
Y210701D01*
D02*
G37*
G36*
X102731Y205313D02*
X101215D01*
Y203797D01*
X102731D01*
Y205313D01*
D02*
G37*
G36*
X100231D02*
X98715D01*
Y203797D01*
X100231D01*
Y205313D01*
D02*
G37*
G36*
X311609Y207396D02*
X310917Y207259D01*
X310331Y206867D01*
X309940Y206281D01*
X309802Y205590D01*
X309940Y204898D01*
X310331Y204312D01*
X310917Y203921D01*
X311609Y203783D01*
X312300Y203921D01*
X312886Y204312D01*
X313277Y204898D01*
X313415Y205590D01*
X313277Y206281D01*
X312886Y206867D01*
X312300Y207259D01*
X311609Y207396D01*
D02*
G37*
G36*
X97697Y205223D02*
X95434D01*
Y203057D01*
X97697D01*
Y205223D01*
D02*
G37*
G36*
X94449D02*
X92186D01*
Y203057D01*
X94449D01*
Y205223D01*
D02*
G37*
G36*
X214224Y206260D02*
X213532Y206122D01*
X212946Y205731D01*
X212555Y205145D01*
X212417Y204453D01*
X212555Y203762D01*
X212946Y203176D01*
X213532Y202784D01*
X214224Y202647D01*
X214915Y202784D01*
X215501Y203176D01*
X215893Y203762D01*
X216030Y204453D01*
X215893Y205145D01*
X215501Y205731D01*
X214915Y206122D01*
X214224Y206260D01*
D02*
G37*
G36*
X205424Y206215D02*
X204732Y206077D01*
X204146Y205686D01*
X203755Y205100D01*
X203617Y204408D01*
X203755Y203717D01*
X204146Y203131D01*
X204732Y202740D01*
X205424Y202602D01*
X206115Y202740D01*
X206701Y203131D01*
X207092Y203717D01*
X207230Y204408D01*
X207092Y205100D01*
X206701Y205686D01*
X206115Y206077D01*
X205424Y206215D01*
D02*
G37*
G36*
X83918Y204140D02*
X81556D01*
Y201089D01*
X83918D01*
Y204140D01*
D02*
G37*
G36*
X80571D02*
X78209D01*
Y201089D01*
X80571D01*
Y204140D01*
D02*
G37*
G36*
X232024Y203978D02*
X231333Y203841D01*
X230747Y203450D01*
X230356Y202863D01*
X230218Y202172D01*
X230356Y201481D01*
X230747Y200895D01*
X231333Y200503D01*
X232024Y200366D01*
X232716Y200503D01*
X233302Y200895D01*
X233693Y201481D01*
X233831Y202172D01*
X233693Y202863D01*
X233302Y203450D01*
X232716Y203841D01*
X232024Y203978D01*
D02*
G37*
G36*
X120490Y200693D02*
X118915D01*
Y199119D01*
X120490D01*
Y200693D01*
D02*
G37*
G36*
X224176Y201853D02*
X223485Y201716D01*
X222899Y201324D01*
X222508Y200738D01*
X222370Y200047D01*
X222508Y199356D01*
X222899Y198770D01*
X223485Y198378D01*
X224176Y198241D01*
X224868Y198378D01*
X225454Y198770D01*
X225845Y199356D01*
X225983Y200047D01*
X225845Y200738D01*
X225454Y201324D01*
X224868Y201716D01*
X224176Y201853D01*
D02*
G37*
G36*
X217641D02*
X216950Y201716D01*
X216364Y201324D01*
X215972Y200738D01*
X215835Y200047D01*
X215972Y199356D01*
X216364Y198770D01*
X216950Y198378D01*
X217641Y198241D01*
X218332Y198378D01*
X218918Y198770D01*
X219310Y199356D01*
X219447Y200047D01*
X219310Y200738D01*
X218918Y201324D01*
X218332Y201716D01*
X217641Y201853D01*
D02*
G37*
G36*
X197067Y200727D02*
X196376Y200590D01*
X195790Y200198D01*
X195398Y199612D01*
X195261Y198921D01*
X195398Y198230D01*
X195790Y197644D01*
X196376Y197252D01*
X197067Y197115D01*
X197758Y197252D01*
X198344Y197644D01*
X198736Y198230D01*
X198873Y198921D01*
X198736Y199612D01*
X198344Y200198D01*
X197758Y200590D01*
X197067Y200727D01*
D02*
G37*
G36*
X83918Y200104D02*
X81556D01*
Y197053D01*
X83918D01*
Y200104D01*
D02*
G37*
G36*
X80571D02*
X78209D01*
Y197053D01*
X80571D01*
Y200104D01*
D02*
G37*
G36*
X294384Y199837D02*
X293693Y199699D01*
X293107Y199308D01*
X292715Y198722D01*
X292578Y198031D01*
X292715Y197339D01*
X293107Y196753D01*
X293693Y196362D01*
X294384Y196224D01*
X295075Y196362D01*
X295661Y196753D01*
X296053Y197339D01*
X296191Y198031D01*
X296053Y198722D01*
X295661Y199308D01*
X295075Y199699D01*
X294384Y199837D01*
D02*
G37*
G36*
X113485Y197152D02*
X111969D01*
Y195636D01*
X113485D01*
Y197152D01*
D02*
G37*
G36*
X350602Y190122D02*
X349911Y189984D01*
X349325Y189593D01*
X348933Y189007D01*
X348796Y188315D01*
X348933Y187624D01*
X349325Y187038D01*
X349911Y186647D01*
X350602Y186509D01*
X351293Y186647D01*
X351879Y187038D01*
X352271Y187624D01*
X352408Y188315D01*
X352271Y189007D01*
X351879Y189593D01*
X351293Y189984D01*
X350602Y190122D01*
D02*
G37*
G36*
X321870Y190094D02*
X321179Y189956D01*
X320593Y189565D01*
X320201Y188979D01*
X320064Y188287D01*
X320201Y187596D01*
X320593Y187010D01*
X321179Y186618D01*
X321870Y186481D01*
X322561Y186618D01*
X323148Y187010D01*
X323539Y187596D01*
X323676Y188287D01*
X323539Y188979D01*
X323148Y189565D01*
X322561Y189956D01*
X321870Y190094D01*
D02*
G37*
G36*
X232531Y185113D02*
X231839Y184976D01*
X231253Y184584D01*
X231059Y184293D01*
X230457D01*
X230295Y184535D01*
X229709Y184926D01*
X229018Y185064D01*
X228327Y184926D01*
X227741Y184535D01*
X227349Y183949D01*
X227212Y183257D01*
X227349Y182566D01*
X227741Y181980D01*
X228327Y181589D01*
X229018Y181451D01*
X229709Y181589D01*
X230295Y181980D01*
X230490Y182272D01*
X231092D01*
X231253Y182030D01*
X231839Y181638D01*
X232531Y181501D01*
X233222Y181638D01*
X233808Y182030D01*
X234095Y182459D01*
X234182Y182484D01*
X234611Y182473D01*
X234651Y182459D01*
X234954Y182005D01*
X235540Y181614D01*
X236231Y181476D01*
X236923Y181614D01*
X237509Y182005D01*
X237900Y182591D01*
X238038Y183283D01*
X237900Y183974D01*
X237509Y184560D01*
X236923Y184951D01*
X236231Y185089D01*
X235540Y184951D01*
X234954Y184560D01*
X234667Y184130D01*
X234580Y184106D01*
X234151Y184116D01*
X234111Y184130D01*
X233808Y184584D01*
X233222Y184976D01*
X232531Y185113D01*
D02*
G37*
G36*
X202732Y186693D02*
X202041Y186556D01*
X201455Y186164D01*
X201064Y185578D01*
X200926Y184887D01*
X201064Y184195D01*
X201455Y183609D01*
X202041Y183218D01*
X202732Y183080D01*
X203424Y183218D01*
X204010Y183609D01*
X204401Y184195D01*
X204539Y184887D01*
X204401Y185578D01*
X204010Y186164D01*
X203424Y186556D01*
X202732Y186693D01*
D02*
G37*
G36*
X31358Y184195D02*
X14807D01*
Y182407D01*
X31358D01*
Y184195D01*
D02*
G37*
G36*
X342203Y184476D02*
X341512Y184338D01*
X340926Y183947D01*
X340534Y183361D01*
X340397Y182669D01*
X340534Y181978D01*
X340926Y181392D01*
X341512Y181001D01*
X342203Y180863D01*
X342895Y181001D01*
X343480Y181392D01*
X343872Y181978D01*
X344010Y182669D01*
X343872Y183361D01*
X343480Y183947D01*
X342895Y184338D01*
X342203Y184476D01*
D02*
G37*
G36*
X152524Y182894D02*
X151832Y182757D01*
X151246Y182365D01*
X150855Y181779D01*
X150717Y181088D01*
X150855Y180397D01*
X151246Y179811D01*
X151832Y179419D01*
X152524Y179281D01*
X153215Y179419D01*
X153801Y179811D01*
X154192Y180397D01*
X154330Y181088D01*
X154192Y181779D01*
X153801Y182365D01*
X153215Y182757D01*
X152524Y182894D01*
D02*
G37*
G36*
X319755Y181728D02*
X319064Y181590D01*
X318478Y181199D01*
X318086Y180613D01*
X317949Y179921D01*
X318086Y179230D01*
X318478Y178644D01*
X319064Y178252D01*
X319755Y178115D01*
X320446Y178252D01*
X321032Y178644D01*
X321424Y179230D01*
X321561Y179921D01*
X321424Y180613D01*
X321032Y181199D01*
X320446Y181590D01*
X319755Y181728D01*
D02*
G37*
G36*
X209681Y182439D02*
X208990Y182302D01*
X208404Y181910D01*
X208012Y181324D01*
X207875Y180633D01*
X208012Y179942D01*
X208404Y179356D01*
X208846Y179060D01*
X208865Y178998D01*
Y178567D01*
X208846Y178505D01*
X208404Y178210D01*
X208012Y177623D01*
X207875Y176932D01*
X208012Y176241D01*
X208404Y175655D01*
X208990Y175263D01*
X209681Y175126D01*
X210372Y175263D01*
X210958Y175655D01*
X211350Y176241D01*
X211488Y176932D01*
X211350Y177623D01*
X210958Y178210D01*
X210516Y178505D01*
X210497Y178567D01*
Y178998D01*
X210516Y179060D01*
X210958Y179356D01*
X211350Y179942D01*
X211488Y180633D01*
X211350Y181324D01*
X210958Y181910D01*
X210372Y182302D01*
X209681Y182439D01*
D02*
G37*
G36*
X192152Y177503D02*
X191461Y177365D01*
X190875Y176974D01*
X190483Y176388D01*
X190346Y175696D01*
X190483Y175005D01*
X190875Y174419D01*
X191461Y174028D01*
X192152Y173890D01*
X192843Y174028D01*
X193430Y174419D01*
X193821Y175005D01*
X193959Y175696D01*
X193821Y176388D01*
X193430Y176974D01*
X192843Y177365D01*
X192152Y177503D01*
D02*
G37*
G36*
X186201Y181002D02*
X185510Y180864D01*
X184924Y180473D01*
X184532Y179887D01*
X184395Y179196D01*
X184532Y178504D01*
X184924Y177918D01*
X185366Y177623D01*
X185385Y177560D01*
Y177130D01*
X185366Y177067D01*
X184924Y176772D01*
X184532Y176186D01*
X184395Y175495D01*
X184532Y174803D01*
X184924Y174217D01*
X185510Y173826D01*
X186201Y173688D01*
X186892Y173826D01*
X187478Y174217D01*
X187870Y174803D01*
X188007Y175495D01*
X187870Y176186D01*
X187478Y176772D01*
X187036Y177067D01*
X187017Y177130D01*
Y177560D01*
X187036Y177623D01*
X187478Y177918D01*
X187870Y178504D01*
X188007Y179196D01*
X187870Y179887D01*
X187478Y180473D01*
X186892Y180864D01*
X186201Y181002D01*
D02*
G37*
G36*
X217731Y174589D02*
X217040Y174451D01*
X216454Y174060D01*
X216159Y173618D01*
X216096Y173598D01*
X215666D01*
X215603Y173618D01*
X215308Y174060D01*
X214722Y174451D01*
X214031Y174589D01*
X213339Y174451D01*
X212753Y174060D01*
X212362Y173474D01*
X212224Y172783D01*
X212362Y172091D01*
X212753Y171505D01*
X213339Y171114D01*
X214031Y170976D01*
X214722Y171114D01*
X215308Y171505D01*
X215603Y171947D01*
X215666Y171967D01*
X216096D01*
X216159Y171947D01*
X216454Y171505D01*
X217040Y171114D01*
X217731Y170976D01*
X218423Y171114D01*
X219009Y171505D01*
X219400Y172091D01*
X219538Y172783D01*
X219400Y173474D01*
X219009Y174060D01*
X218423Y174451D01*
X217731Y174589D01*
D02*
G37*
G36*
X235935Y176392D02*
X235244Y176255D01*
X234658Y175863D01*
X234267Y175277D01*
X234129Y174586D01*
X234267Y173895D01*
X234658Y173309D01*
X235244Y172917D01*
X235935Y172780D01*
X236627Y172917D01*
X237213Y173309D01*
X237604Y173895D01*
X237742Y174586D01*
X237604Y175277D01*
X237213Y175863D01*
X236627Y176255D01*
X235935Y176392D01*
D02*
G37*
G36*
X168327Y171019D02*
X167636Y170881D01*
X167050Y170490D01*
X166755Y170047D01*
X166692Y170028D01*
X166262D01*
X166199Y170047D01*
X165904Y170490D01*
X165318Y170881D01*
X164627Y171019D01*
X163935Y170881D01*
X163349Y170490D01*
X162958Y169904D01*
X162820Y169212D01*
X162958Y168521D01*
X163349Y167935D01*
X163935Y167543D01*
X164627Y167406D01*
X165318Y167543D01*
X165904Y167935D01*
X166199Y168377D01*
X166262Y168396D01*
X166692D01*
X166755Y168377D01*
X167050Y167935D01*
X167636Y167543D01*
X168327Y167406D01*
X169019Y167543D01*
X169605Y167935D01*
X169996Y168521D01*
X170134Y169212D01*
X169996Y169904D01*
X169605Y170490D01*
X169019Y170881D01*
X168327Y171019D01*
D02*
G37*
G36*
X224612Y172205D02*
X223921Y172068D01*
X223335Y171676D01*
X222943Y171090D01*
X222806Y170399D01*
X222943Y169708D01*
X223335Y169122D01*
X223921Y168730D01*
X224612Y168593D01*
X225303Y168730D01*
X225889Y169122D01*
X226281Y169708D01*
X226418Y170399D01*
X226281Y171090D01*
X225889Y171676D01*
X225303Y172068D01*
X224612Y172205D01*
D02*
G37*
G36*
X324508Y170409D02*
X323817Y170271D01*
X323231Y169880D01*
X322839Y169294D01*
X322702Y168602D01*
X322839Y167911D01*
X323231Y167325D01*
X323817Y166934D01*
X324508Y166796D01*
X325199Y166934D01*
X325785Y167325D01*
X326177Y167911D01*
X326314Y168602D01*
X326177Y169294D01*
X325785Y169880D01*
X325199Y170271D01*
X324508Y170409D01*
D02*
G37*
G36*
X234492Y170230D02*
X233800Y170092D01*
X233214Y169701D01*
X232823Y169115D01*
X232685Y168423D01*
X232823Y167732D01*
X233214Y167146D01*
X233800Y166755D01*
X234492Y166617D01*
X235183Y166755D01*
X235769Y167146D01*
X236160Y167732D01*
X236298Y168423D01*
X236160Y169115D01*
X235769Y169701D01*
X235183Y170092D01*
X234492Y170230D01*
D02*
G37*
G36*
X175197Y168522D02*
X174506Y168384D01*
X173920Y167993D01*
X173528Y167406D01*
X173391Y166715D01*
X173528Y166024D01*
X173920Y165438D01*
X174506Y165046D01*
X175197Y164909D01*
X175888Y165046D01*
X176474Y165438D01*
X176866Y166024D01*
X177004Y166715D01*
X176866Y167406D01*
X176474Y167993D01*
X175888Y168384D01*
X175197Y168522D01*
D02*
G37*
G36*
X288055Y165930D02*
X287364Y165793D01*
X286778Y165401D01*
X286386Y164815D01*
X286249Y164124D01*
X286386Y163433D01*
X286778Y162846D01*
X287364Y162455D01*
X288055Y162317D01*
X288747Y162455D01*
X289333Y162846D01*
X289724Y163433D01*
X289862Y164124D01*
X289724Y164815D01*
X289333Y165401D01*
X288747Y165793D01*
X288055Y165930D01*
D02*
G37*
G36*
X317790Y165808D02*
X317099Y165670D01*
X316512Y165278D01*
X316121Y164692D01*
X315984Y164001D01*
X316121Y163310D01*
X316512Y162724D01*
X317099Y162332D01*
X317790Y162195D01*
X318481Y162332D01*
X319067Y162724D01*
X319459Y163310D01*
X319596Y164001D01*
X319459Y164692D01*
X319067Y165278D01*
X318481Y165670D01*
X317790Y165808D01*
D02*
G37*
G36*
X67275Y160012D02*
X65405D01*
Y159126D01*
X67275D01*
Y160012D01*
D02*
G37*
G36*
X349133Y161657D02*
X345294D01*
Y159098D01*
X349133D01*
Y161657D01*
D02*
G37*
G36*
X344310D02*
X340472D01*
Y159098D01*
X344310D01*
Y161657D01*
D02*
G37*
G36*
X338839D02*
X335001D01*
Y159098D01*
X338839D01*
Y161657D01*
D02*
G37*
G36*
X334016D02*
X330178D01*
Y159098D01*
X334016D01*
Y161657D01*
D02*
G37*
G36*
X328939D02*
X325101D01*
Y159098D01*
X328939D01*
Y161657D01*
D02*
G37*
G36*
X324116D02*
X320278D01*
Y159098D01*
X324116D01*
Y161657D01*
D02*
G37*
G36*
X281767Y161624D02*
X281075Y161487D01*
X280489Y161095D01*
X280098Y160509D01*
X279960Y159818D01*
X280098Y159127D01*
X280489Y158541D01*
X281075Y158149D01*
X281767Y158011D01*
X282458Y158149D01*
X283044Y158541D01*
X283436Y159127D01*
X283573Y159818D01*
X283436Y160509D01*
X283044Y161095D01*
X282458Y161487D01*
X281767Y161624D01*
D02*
G37*
G36*
X288055Y160800D02*
X287364Y160662D01*
X286778Y160271D01*
X286386Y159684D01*
X286249Y158993D01*
X286386Y158302D01*
X286778Y157716D01*
X287364Y157324D01*
X288055Y157187D01*
X288747Y157324D01*
X289333Y157716D01*
X289724Y158302D01*
X289862Y158993D01*
X289724Y159684D01*
X289333Y160271D01*
X288747Y160662D01*
X288055Y160800D01*
D02*
G37*
G36*
X349133Y158113D02*
X345294D01*
Y155554D01*
X349133D01*
Y158113D01*
D02*
G37*
G36*
X344310D02*
X340472D01*
Y155554D01*
X344310D01*
Y158113D01*
D02*
G37*
G36*
X338839D02*
X335001D01*
Y155554D01*
X338839D01*
Y158113D01*
D02*
G37*
G36*
X334016D02*
X330178D01*
Y155554D01*
X334016D01*
Y158113D01*
D02*
G37*
G36*
X328939D02*
X325101D01*
Y155554D01*
X328939D01*
Y158113D01*
D02*
G37*
G36*
X324116D02*
X320278D01*
Y155554D01*
X324116D01*
Y158113D01*
D02*
G37*
G36*
X361417Y157756D02*
X359350D01*
Y155492D01*
X361417D01*
Y157756D01*
D02*
G37*
G36*
X358366D02*
X356299D01*
Y155492D01*
X358366D01*
Y157756D01*
D02*
G37*
G36*
X391831Y155696D02*
Y152839D01*
X394688D01*
X394682Y152882D01*
X394285Y153840D01*
X393654Y154662D01*
X392832Y155293D01*
X391874Y155690D01*
X391831Y155696D01*
D02*
G37*
G36*
X389862D02*
X389819Y155690D01*
X388861Y155293D01*
X388038Y154662D01*
X387407Y153840D01*
X387011Y152882D01*
X387005Y152839D01*
X389862D01*
Y155696D01*
D02*
G37*
G36*
X288055Y155894D02*
X287364Y155756D01*
X286778Y155365D01*
X286386Y154779D01*
X286249Y154088D01*
X286386Y153396D01*
X286778Y152810D01*
X287364Y152419D01*
X288055Y152281D01*
X288747Y152419D01*
X289333Y152810D01*
X289724Y153396D01*
X289862Y154088D01*
X289724Y154779D01*
X289333Y155365D01*
X288747Y155756D01*
X288055Y155894D01*
D02*
G37*
G36*
X361417Y154508D02*
X359350D01*
Y152244D01*
X361417D01*
Y154508D01*
D02*
G37*
G36*
X358366D02*
X356299D01*
Y152244D01*
X358366D01*
Y154508D01*
D02*
G37*
G36*
X67275Y153024D02*
X65405D01*
Y152138D01*
X67275D01*
Y153024D01*
D02*
G37*
G36*
X389862Y150870D02*
X387005D01*
X387011Y150827D01*
X387407Y149869D01*
X388038Y149047D01*
X388861Y148415D01*
X389819Y148019D01*
X389862Y148013D01*
Y150870D01*
D02*
G37*
G36*
X394688D02*
X391831D01*
Y148013D01*
X391874Y148019D01*
X392832Y148415D01*
X393654Y149047D01*
X394285Y149869D01*
X394682Y150827D01*
X394688Y150870D01*
D02*
G37*
G36*
X400846Y155825D02*
X399819Y155690D01*
X398861Y155293D01*
X398039Y154662D01*
X397408Y153840D01*
X397011Y152882D01*
X396876Y151854D01*
X397011Y150827D01*
X397408Y149869D01*
X398039Y149047D01*
X398861Y148415D01*
X399819Y148019D01*
X400846Y147883D01*
X401874Y148019D01*
X402832Y148415D01*
X403654Y149047D01*
X404285Y149869D01*
X404682Y150827D01*
X404817Y151854D01*
X404682Y152882D01*
X404285Y153840D01*
X403654Y154662D01*
X402832Y155293D01*
X401874Y155690D01*
X400846Y155825D01*
D02*
G37*
G36*
X362956Y150743D02*
X360594D01*
Y147692D01*
X362956D01*
Y150743D01*
D02*
G37*
G36*
X359610D02*
X357247D01*
Y147692D01*
X359610D01*
Y150743D01*
D02*
G37*
G36*
X288055Y150800D02*
X287364Y150662D01*
X286778Y150270D01*
X286386Y149684D01*
X286249Y148993D01*
X286386Y148302D01*
X286778Y147716D01*
X287364Y147324D01*
X288055Y147187D01*
X288747Y147324D01*
X289333Y147716D01*
X289724Y148302D01*
X289862Y148993D01*
X289724Y149684D01*
X289333Y150270D01*
X288747Y150662D01*
X288055Y150800D01*
D02*
G37*
G36*
X144630Y148208D02*
X143114D01*
Y146692D01*
X144630D01*
Y148208D01*
D02*
G37*
G36*
X355118Y157756D02*
X350000D01*
Y152244D01*
X351255D01*
Y150743D01*
X350161D01*
Y145502D01*
X349633Y144974D01*
X349133Y145181D01*
Y149846D01*
X348354D01*
X348339Y149856D01*
X348031Y149917D01*
X319225Y149917D01*
X318917Y149856D01*
X318657Y149682D01*
X318483Y149421D01*
X318422Y149114D01*
X318422Y137500D01*
X318483Y137193D01*
X318657Y136932D01*
X318917Y136758D01*
X319225Y136697D01*
X328151Y136697D01*
Y136644D01*
X330316D01*
Y139400D01*
X331301D01*
Y136644D01*
X333466D01*
Y136697D01*
X334450D01*
Y136644D01*
X339765D01*
Y136697D01*
X342579Y136697D01*
Y134398D01*
X348248D01*
X353917D01*
Y138138D01*
X353563D01*
Y139395D01*
X355931D01*
Y138692D01*
X356556D01*
Y137685D01*
X355853D01*
Y133827D01*
Y132547D01*
X357861D01*
X359869D01*
Y133827D01*
Y137685D01*
X359165D01*
Y138692D01*
X363491D01*
Y142708D01*
X355931D01*
Y142005D01*
X353563D01*
Y142173D01*
X351521D01*
Y143172D01*
X352006Y143657D01*
X355869D01*
Y150743D01*
X353864D01*
Y152244D01*
X355118D01*
Y157756D01*
D02*
G37*
G36*
X31358Y146581D02*
X14807D01*
Y144793D01*
X31358D01*
Y146581D01*
D02*
G37*
G36*
X362956Y146708D02*
X360594D01*
Y143657D01*
X362956D01*
Y146708D01*
D02*
G37*
G36*
X359610D02*
X357247D01*
Y143657D01*
X359610D01*
Y146708D01*
D02*
G37*
G36*
X123930Y144607D02*
X122414D01*
Y143091D01*
X123930D01*
Y144607D01*
D02*
G37*
G36*
X110687D02*
X109171D01*
Y143091D01*
X110687D01*
Y144607D01*
D02*
G37*
G36*
X236263Y144033D02*
X235572Y143896D01*
X234986Y143504D01*
X234691Y143062D01*
X234628Y143043D01*
X234197D01*
X234135Y143062D01*
X233840Y143504D01*
X233254Y143896D01*
X232562Y144033D01*
X231871Y143896D01*
X231285Y143504D01*
X230894Y142918D01*
X230756Y142227D01*
X230894Y141536D01*
X231285Y140949D01*
X231871Y140558D01*
X232562Y140420D01*
X233254Y140558D01*
X233840Y140949D01*
X234135Y141392D01*
X234197Y141411D01*
X234628D01*
X234691Y141392D01*
X234986Y140949D01*
X235572Y140558D01*
X236263Y140420D01*
X236954Y140558D01*
X237541Y140949D01*
X237932Y141536D01*
X238070Y142227D01*
X237932Y142918D01*
X237541Y143504D01*
X236954Y143896D01*
X236263Y144033D01*
D02*
G37*
G36*
X288055Y145800D02*
X287364Y145662D01*
X286778Y145271D01*
X286386Y144684D01*
X286249Y143993D01*
X286386Y143302D01*
X286778Y142716D01*
X287364Y142324D01*
X288055Y142187D01*
X288747Y142324D01*
X289333Y142716D01*
X289724Y143302D01*
X289862Y143993D01*
X289724Y144684D01*
X289333Y145271D01*
X288747Y145662D01*
X288055Y145800D01*
D02*
G37*
G36*
X148685Y144256D02*
X146520D01*
Y141992D01*
X148685D01*
Y144256D01*
D02*
G37*
G36*
X123930Y142107D02*
X122414D01*
Y140591D01*
X123930D01*
Y142107D01*
D02*
G37*
G36*
X110687D02*
X109171D01*
Y140591D01*
X110687D01*
Y142107D01*
D02*
G37*
G36*
X98058Y140987D02*
X96543D01*
Y139471D01*
X98058D01*
Y140987D01*
D02*
G37*
G36*
X83206D02*
X81691D01*
Y139471D01*
X83206D01*
Y140987D01*
D02*
G37*
G36*
X148685Y141008D02*
X146520D01*
Y138744D01*
X148685D01*
Y141008D01*
D02*
G37*
G36*
X145536D02*
X143370D01*
Y138744D01*
X145536D01*
Y141008D01*
D02*
G37*
G36*
X400846Y145825D02*
X399819Y145690D01*
X398861Y145293D01*
X398039Y144662D01*
X397408Y143840D01*
X397011Y142882D01*
X396876Y141854D01*
X397011Y140827D01*
X397408Y139869D01*
X398039Y139047D01*
X398861Y138415D01*
X399819Y138019D01*
X400846Y137883D01*
X401874Y138019D01*
X402832Y138415D01*
X403654Y139047D01*
X404285Y139869D01*
X404682Y140827D01*
X404817Y141854D01*
X404682Y142882D01*
X404285Y143840D01*
X403654Y144662D01*
X402832Y145293D01*
X401874Y145690D01*
X400846Y145825D01*
D02*
G37*
G36*
X390846D02*
X389819Y145690D01*
X388861Y145293D01*
X388038Y144662D01*
X387407Y143840D01*
X387011Y142882D01*
X386876Y141854D01*
X387011Y140827D01*
X387407Y139869D01*
X388038Y139047D01*
X388861Y138415D01*
X389819Y138019D01*
X390846Y137883D01*
X391874Y138019D01*
X392832Y138415D01*
X393654Y139047D01*
X394285Y139869D01*
X394682Y140827D01*
X394817Y141854D01*
X394682Y142882D01*
X394285Y143840D01*
X393654Y144662D01*
X392832Y145293D01*
X391874Y145690D01*
X390846Y145825D01*
D02*
G37*
G36*
X288055Y140799D02*
X287364Y140662D01*
X286778Y140270D01*
X286386Y139684D01*
X286249Y138993D01*
X286386Y138302D01*
X286778Y137716D01*
X287364Y137324D01*
X288055Y137187D01*
X288747Y137324D01*
X289333Y137716D01*
X289724Y138302D01*
X289862Y138993D01*
X289724Y139684D01*
X289333Y140270D01*
X288747Y140662D01*
X288055Y140799D01*
D02*
G37*
G36*
X100650Y140606D02*
X99959Y140469D01*
X99373Y140077D01*
X98981Y139491D01*
X98844Y138800D01*
X98981Y138109D01*
X99373Y137523D01*
X99959Y137131D01*
X100650Y136994D01*
X101342Y137131D01*
X101928Y137523D01*
X102319Y138109D01*
X102457Y138800D01*
X102319Y139491D01*
X101928Y140077D01*
X101342Y140469D01*
X100650Y140606D01*
D02*
G37*
G36*
X78961D02*
X78270Y140469D01*
X77684Y140077D01*
X77293Y139491D01*
X77155Y138800D01*
X77293Y138109D01*
X77684Y137523D01*
X78270Y137131D01*
X78961Y136994D01*
X79653Y137131D01*
X80239Y137523D01*
X80630Y138109D01*
X80768Y138800D01*
X80630Y139491D01*
X80239Y140077D01*
X79653Y140469D01*
X78961Y140606D01*
D02*
G37*
G36*
X209813Y137764D02*
X209122Y137626D01*
X208536Y137235D01*
X208144Y136649D01*
X208007Y135958D01*
X208144Y135266D01*
X208536Y134680D01*
X209122Y134289D01*
X209813Y134151D01*
X210504Y134289D01*
X211090Y134680D01*
X211482Y135266D01*
X211619Y135958D01*
X211482Y136649D01*
X211090Y137235D01*
X210504Y137626D01*
X209813Y137764D01*
D02*
G37*
G36*
X97736Y135827D02*
X95472D01*
Y133661D01*
X97736D01*
Y135827D01*
D02*
G37*
G36*
X94488D02*
X92224D01*
Y133661D01*
X94488D01*
Y135827D01*
D02*
G37*
G36*
X148685Y138156D02*
X143370D01*
Y132644D01*
X148685D01*
Y138156D01*
D02*
G37*
G36*
X102770Y132768D02*
X101254D01*
Y131252D01*
X102770D01*
Y132768D01*
D02*
G37*
G36*
X100270D02*
X98754D01*
Y131252D01*
X100270D01*
Y132768D01*
D02*
G37*
G36*
X97736Y132677D02*
X95472D01*
Y130512D01*
X97736D01*
Y132677D01*
D02*
G37*
G36*
X94488D02*
X92224D01*
Y130512D01*
X94488D01*
Y132677D01*
D02*
G37*
G36*
X359869Y131563D02*
X358353D01*
Y130126D01*
X359869D01*
Y131563D01*
D02*
G37*
G36*
X357369D02*
X355853D01*
Y130126D01*
X357369D01*
Y131563D01*
D02*
G37*
G36*
X214263Y133714D02*
X213571Y133577D01*
X212985Y133185D01*
X212594Y132599D01*
X212456Y131908D01*
X212594Y131217D01*
X212985Y130631D01*
X213571Y130239D01*
X214263Y130102D01*
X214954Y130239D01*
X215540Y130631D01*
X215931Y131217D01*
X216069Y131908D01*
X215931Y132599D01*
X215540Y133185D01*
X214954Y133577D01*
X214263Y133714D01*
D02*
G37*
G36*
X205463Y133669D02*
X204771Y133532D01*
X204185Y133140D01*
X203794Y132554D01*
X203656Y131863D01*
X203794Y131172D01*
X204185Y130586D01*
X204771Y130194D01*
X205463Y130057D01*
X206154Y130194D01*
X206740Y130586D01*
X207131Y131172D01*
X207269Y131863D01*
X207131Y132554D01*
X206740Y133140D01*
X206154Y133532D01*
X205463Y133669D01*
D02*
G37*
G36*
X83957Y131595D02*
X81595D01*
Y128543D01*
X83957D01*
Y131595D01*
D02*
G37*
G36*
X80610D02*
X78248D01*
Y128543D01*
X80610D01*
Y131595D01*
D02*
G37*
G36*
X324713Y129999D02*
X322292D01*
Y127893D01*
X324713D01*
Y129999D01*
D02*
G37*
G36*
X321308D02*
X318887D01*
Y127893D01*
X321308D01*
Y129999D01*
D02*
G37*
G36*
X400846Y135825D02*
X399819Y135690D01*
X398861Y135293D01*
X398039Y134662D01*
X397408Y133840D01*
X397011Y132882D01*
X396876Y131854D01*
X397011Y130827D01*
X397408Y129869D01*
X398039Y129046D01*
X398861Y128415D01*
X399819Y128019D01*
X400846Y127883D01*
X401874Y128019D01*
X402832Y128415D01*
X403654Y129046D01*
X404285Y129869D01*
X404682Y130827D01*
X404817Y131854D01*
X404682Y132882D01*
X404285Y133840D01*
X403654Y134662D01*
X402832Y135293D01*
X401874Y135690D01*
X400846Y135825D01*
D02*
G37*
G36*
X390846D02*
X389819Y135690D01*
X388861Y135293D01*
X388038Y134662D01*
X387407Y133840D01*
X387011Y132882D01*
X386876Y131854D01*
X387011Y130827D01*
X387407Y129869D01*
X388038Y129046D01*
X388861Y128415D01*
X389819Y128019D01*
X390846Y127883D01*
X391874Y128019D01*
X392832Y128415D01*
X393654Y129046D01*
X394285Y129869D01*
X394682Y130827D01*
X394817Y131854D01*
X394682Y132882D01*
X394285Y133840D01*
X393654Y134662D01*
X392832Y135293D01*
X391874Y135690D01*
X390846Y135825D01*
D02*
G37*
G36*
X232063Y131433D02*
X231372Y131296D01*
X230786Y130904D01*
X230394Y130318D01*
X230257Y129627D01*
X230394Y128936D01*
X230786Y128349D01*
X231372Y127958D01*
X232063Y127821D01*
X232754Y127958D01*
X233341Y128349D01*
X233732Y128936D01*
X233870Y129627D01*
X233732Y130318D01*
X233341Y130904D01*
X232754Y131296D01*
X232063Y131433D01*
D02*
G37*
G36*
X363438Y129308D02*
X362001D01*
Y127792D01*
X363438D01*
Y129308D01*
D02*
G37*
G36*
X120528Y128148D02*
X118954D01*
Y126573D01*
X120528D01*
Y128148D01*
D02*
G37*
G36*
X224803Y129759D02*
X224112Y129622D01*
X223526Y129230D01*
X223134Y128644D01*
X222997Y127953D01*
X223134Y127261D01*
X223526Y126675D01*
X224112Y126284D01*
X224803Y126146D01*
X225494Y126284D01*
X226080Y126675D01*
X226472Y127261D01*
X226609Y127953D01*
X226472Y128644D01*
X226080Y129230D01*
X225494Y129622D01*
X224803Y129759D01*
D02*
G37*
G36*
X217877Y129505D02*
X217185Y129367D01*
X216599Y128976D01*
X216208Y128390D01*
X216070Y127699D01*
X216208Y127007D01*
X216599Y126421D01*
X217185Y126030D01*
X217877Y125892D01*
X218568Y126030D01*
X219154Y126421D01*
X219546Y127007D01*
X219683Y127699D01*
X219546Y128390D01*
X219154Y128976D01*
X218568Y129367D01*
X217877Y129505D01*
D02*
G37*
G36*
X324713Y126909D02*
X322292D01*
Y124802D01*
X324713D01*
Y126909D01*
D02*
G37*
G36*
X321308D02*
X318887D01*
Y124802D01*
X321308D01*
Y126909D01*
D02*
G37*
G36*
X197106Y128182D02*
X196414Y128044D01*
X195828Y127653D01*
X195437Y127067D01*
X195299Y126376D01*
X195437Y125684D01*
X195828Y125098D01*
X196414Y124707D01*
X197106Y124569D01*
X197797Y124707D01*
X198383Y125098D01*
X198775Y125684D01*
X198912Y126376D01*
X198775Y127067D01*
X198383Y127653D01*
X197797Y128044D01*
X197106Y128182D01*
D02*
G37*
G36*
X83957Y127559D02*
X81595D01*
Y124508D01*
X83957D01*
Y127559D01*
D02*
G37*
G36*
X80610D02*
X78248D01*
Y124508D01*
X80610D01*
Y127559D01*
D02*
G37*
G36*
X294423Y127292D02*
X293732Y127154D01*
X293146Y126763D01*
X292754Y126177D01*
X292617Y125485D01*
X292754Y124794D01*
X293146Y124208D01*
X293732Y123816D01*
X294423Y123679D01*
X295114Y123816D01*
X295700Y124208D01*
X296092Y124794D01*
X296229Y125485D01*
X296092Y126177D01*
X295700Y126763D01*
X295114Y127154D01*
X294423Y127292D01*
D02*
G37*
G36*
X113524Y124606D02*
X112008D01*
Y123091D01*
X113524D01*
Y124606D01*
D02*
G37*
G36*
X400846Y125825D02*
X399819Y125690D01*
X398861Y125293D01*
X398039Y124662D01*
X397408Y123840D01*
X397011Y122882D01*
X396876Y121854D01*
X397011Y120827D01*
X397408Y119869D01*
X398039Y119046D01*
X398861Y118415D01*
X399819Y118019D01*
X400846Y117883D01*
X401874Y118019D01*
X402832Y118415D01*
X403654Y119046D01*
X404285Y119869D01*
X404682Y120827D01*
X404817Y121854D01*
X404682Y122882D01*
X404285Y123840D01*
X403654Y124662D01*
X402832Y125293D01*
X401874Y125690D01*
X400846Y125825D01*
D02*
G37*
G36*
X390846D02*
X389819Y125690D01*
X388861Y125293D01*
X388038Y124662D01*
X387407Y123840D01*
X387011Y122882D01*
X386876Y121854D01*
X387011Y120827D01*
X387407Y119869D01*
X388038Y119046D01*
X388861Y118415D01*
X389819Y118019D01*
X390846Y117883D01*
X391874Y118019D01*
X392832Y118415D01*
X393654Y119046D01*
X394285Y119869D01*
X394682Y120827D01*
X394817Y121854D01*
X394682Y122882D01*
X394285Y123840D01*
X393654Y124662D01*
X392832Y125293D01*
X391874Y125690D01*
X390846Y125825D01*
D02*
G37*
G36*
X401831Y115696D02*
Y112839D01*
X404688D01*
X404682Y112882D01*
X404285Y113840D01*
X403654Y114662D01*
X402832Y115293D01*
X401874Y115690D01*
X401831Y115696D01*
D02*
G37*
G36*
X399862D02*
X399819Y115690D01*
X398861Y115293D01*
X398039Y114662D01*
X397408Y113840D01*
X397011Y112882D01*
X397005Y112839D01*
X399862D01*
Y115696D01*
D02*
G37*
G36*
X31358Y114195D02*
X14807D01*
Y112408D01*
X31358D01*
Y114195D01*
D02*
G37*
G36*
X340256Y112106D02*
X337992D01*
Y109941D01*
X340256D01*
Y112106D01*
D02*
G37*
G36*
X337008D02*
X334744D01*
Y109941D01*
X337008D01*
Y112106D01*
D02*
G37*
G36*
X399862Y110870D02*
X397005D01*
X397011Y110827D01*
X397408Y109869D01*
X398039Y109046D01*
X398861Y108415D01*
X399819Y108019D01*
X399862Y108013D01*
Y110870D01*
D02*
G37*
G36*
X404688D02*
X401831D01*
Y108013D01*
X401874Y108019D01*
X402832Y108415D01*
X403654Y109046D01*
X404285Y109869D01*
X404682Y110827D01*
X404688Y110870D01*
D02*
G37*
G36*
X390846Y115825D02*
X389819Y115690D01*
X388861Y115293D01*
X388038Y114662D01*
X387407Y113840D01*
X387011Y112882D01*
X386876Y111854D01*
X387011Y110827D01*
X387407Y109869D01*
X388038Y109046D01*
X388861Y108415D01*
X389819Y108019D01*
X390846Y107883D01*
X391874Y108019D01*
X392832Y108415D01*
X393654Y109046D01*
X394285Y109869D01*
X394682Y110827D01*
X394817Y111854D01*
X394682Y112882D01*
X394285Y113840D01*
X393654Y114662D01*
X392832Y115293D01*
X391874Y115690D01*
X390846Y115825D01*
D02*
G37*
G36*
X340256Y108957D02*
X337992D01*
Y106791D01*
X340256D01*
Y108957D01*
D02*
G37*
G36*
X337008D02*
X334744D01*
Y106791D01*
X337008D01*
Y108957D01*
D02*
G37*
G36*
X202457Y110234D02*
X201765Y110096D01*
X201179Y109705D01*
X200788Y109119D01*
X200650Y108427D01*
X200788Y107736D01*
X201179Y107150D01*
X201765Y106758D01*
X202457Y106621D01*
X203148Y106758D01*
X203734Y107150D01*
X204125Y107736D01*
X204263Y108427D01*
X204125Y109119D01*
X203734Y109705D01*
X203148Y110096D01*
X202457Y110234D01*
D02*
G37*
G36*
X368110Y111221D02*
X361024D01*
Y105512D01*
X368110D01*
Y111221D01*
D02*
G37*
G36*
X228939Y108801D02*
X228248Y108664D01*
X227662Y108272D01*
X227270Y107686D01*
X227133Y106995D01*
X227270Y106304D01*
X227662Y105718D01*
X228248Y105326D01*
X228939Y105189D01*
X229630Y105326D01*
X230216Y105718D01*
X230239Y105751D01*
X230840D01*
X230978Y105546D01*
X231564Y105154D01*
X232255Y105017D01*
X232946Y105154D01*
X233532Y105546D01*
X233827Y105988D01*
X233890Y106008D01*
X234321D01*
X234383Y105988D01*
X234678Y105546D01*
X235264Y105154D01*
X235956Y105017D01*
X236647Y105154D01*
X237233Y105546D01*
X237625Y106132D01*
X237762Y106823D01*
X237625Y107515D01*
X237233Y108101D01*
X236647Y108492D01*
X235956Y108630D01*
X235264Y108492D01*
X234678Y108101D01*
X234383Y107659D01*
X234321Y107639D01*
X233890D01*
X233827Y107659D01*
X233532Y108101D01*
X232946Y108492D01*
X232255Y108630D01*
X231564Y108492D01*
X230978Y108101D01*
X230955Y108067D01*
X230354D01*
X230216Y108272D01*
X229630Y108664D01*
X228939Y108801D01*
D02*
G37*
G36*
X359873Y107546D02*
X356035D01*
Y104987D01*
X359873D01*
Y107546D01*
D02*
G37*
G36*
X350105D02*
X346266D01*
Y104987D01*
X350105D01*
Y107546D01*
D02*
G37*
G36*
X345282D02*
X341443D01*
Y104987D01*
X345282D01*
Y107546D01*
D02*
G37*
G36*
X355050D02*
X351212D01*
Y104987D01*
X355050D01*
Y107546D01*
D02*
G37*
G36*
X152248Y106435D02*
X151557Y106297D01*
X150970Y105906D01*
X150579Y105320D01*
X150441Y104628D01*
X150579Y103937D01*
X150970Y103351D01*
X151557Y102960D01*
X152248Y102822D01*
X152939Y102960D01*
X153525Y103351D01*
X153917Y103937D01*
X154054Y104628D01*
X153917Y105320D01*
X153525Y105906D01*
X152939Y106297D01*
X152248Y106435D01*
D02*
G37*
G36*
X359873Y104003D02*
X356035D01*
Y101444D01*
X359873D01*
Y104003D01*
D02*
G37*
G36*
X355050D02*
X351212D01*
Y101444D01*
X355050D01*
Y104003D01*
D02*
G37*
G36*
X350105D02*
X346266D01*
Y101444D01*
X350105D01*
Y104003D01*
D02*
G37*
G36*
X345282D02*
X341443D01*
Y101444D01*
X345282D01*
Y104003D01*
D02*
G37*
G36*
X209405Y105980D02*
X208714Y105843D01*
X208128Y105451D01*
X207736Y104865D01*
X207599Y104174D01*
X207736Y103482D01*
X208128Y102896D01*
X208570Y102601D01*
X208590Y102539D01*
Y102108D01*
X208570Y102046D01*
X208128Y101750D01*
X207736Y101164D01*
X207599Y100473D01*
X207736Y99782D01*
X208128Y99196D01*
X208714Y98804D01*
X209405Y98667D01*
X210097Y98804D01*
X210683Y99196D01*
X211074Y99782D01*
X211212Y100473D01*
X211074Y101164D01*
X210683Y101750D01*
X210241Y102046D01*
X210221Y102108D01*
Y102539D01*
X210241Y102601D01*
X210683Y102896D01*
X211074Y103482D01*
X211212Y104174D01*
X211074Y104865D01*
X210683Y105451D01*
X210097Y105843D01*
X209405Y105980D01*
D02*
G37*
G36*
X400846Y105825D02*
X399819Y105690D01*
X398861Y105293D01*
X398039Y104662D01*
X397408Y103840D01*
X397011Y102882D01*
X396876Y101854D01*
X397011Y100827D01*
X397408Y99869D01*
X398039Y99046D01*
X398861Y98415D01*
X399819Y98019D01*
X400846Y97883D01*
X401874Y98019D01*
X402832Y98415D01*
X403654Y99046D01*
X404285Y99869D01*
X404682Y100827D01*
X404817Y101854D01*
X404682Y102882D01*
X404285Y103840D01*
X403654Y104662D01*
X402832Y105293D01*
X401874Y105690D01*
X400846Y105825D01*
D02*
G37*
G36*
X390846D02*
X389819Y105690D01*
X388861Y105293D01*
X388038Y104662D01*
X387407Y103840D01*
X387011Y102882D01*
X386876Y101854D01*
X387011Y100827D01*
X387407Y99869D01*
X388038Y99046D01*
X388861Y98415D01*
X389819Y98019D01*
X390846Y97883D01*
X391874Y98019D01*
X392832Y98415D01*
X393654Y99046D01*
X394285Y99869D01*
X394682Y100827D01*
X394817Y101854D01*
X394682Y102882D01*
X394285Y103840D01*
X393654Y104662D01*
X392832Y105293D01*
X391874Y105690D01*
X390846Y105825D01*
D02*
G37*
G36*
X192073Y101240D02*
X191382Y101103D01*
X190796Y100711D01*
X190404Y100125D01*
X190267Y99434D01*
X190404Y98743D01*
X190796Y98157D01*
X191382Y97765D01*
X192073Y97628D01*
X192764Y97765D01*
X193351Y98157D01*
X193742Y98743D01*
X193880Y99434D01*
X193742Y100125D01*
X193351Y100711D01*
X192764Y101103D01*
X192073Y101240D01*
D02*
G37*
G36*
X185925Y104543D02*
X185234Y104405D01*
X184648Y104014D01*
X184256Y103428D01*
X184119Y102736D01*
X184256Y102045D01*
X184648Y101459D01*
X185090Y101164D01*
X185109Y101101D01*
Y100671D01*
X185090Y100608D01*
X184648Y100313D01*
X184256Y99727D01*
X184119Y99035D01*
X184256Y98344D01*
X184648Y97758D01*
X185234Y97367D01*
X185925Y97229D01*
X186617Y97367D01*
X187203Y97758D01*
X187594Y98344D01*
X187732Y99035D01*
X187594Y99727D01*
X187203Y100313D01*
X186760Y100608D01*
X186741Y100671D01*
Y101101D01*
X186760Y101164D01*
X187203Y101459D01*
X187594Y102045D01*
X187732Y102736D01*
X187594Y103428D01*
X187203Y104014D01*
X186617Y104405D01*
X185925Y104543D01*
D02*
G37*
G36*
X217456Y98130D02*
X216764Y97992D01*
X216178Y97601D01*
X215883Y97159D01*
X215821Y97139D01*
X215390D01*
X215327Y97159D01*
X215032Y97601D01*
X214446Y97992D01*
X213755Y98130D01*
X213064Y97992D01*
X212478Y97601D01*
X212086Y97015D01*
X211948Y96323D01*
X212086Y95632D01*
X212478Y95046D01*
X213064Y94654D01*
X213755Y94517D01*
X214446Y94654D01*
X215032Y95046D01*
X215327Y95488D01*
X215390Y95508D01*
X215821D01*
X215883Y95488D01*
X216178Y95046D01*
X216764Y94654D01*
X217456Y94517D01*
X218147Y94654D01*
X218733Y95046D01*
X219125Y95632D01*
X219262Y96323D01*
X219125Y97015D01*
X218733Y97601D01*
X218147Y97992D01*
X217456Y98130D01*
D02*
G37*
G36*
X419377Y104562D02*
X415361D01*
Y100704D01*
Y97003D01*
X419377D01*
Y100704D01*
Y104562D01*
D02*
G37*
G36*
X235856Y100130D02*
X235165Y99992D01*
X234579Y99601D01*
X234188Y99015D01*
X234050Y98323D01*
X234188Y97632D01*
X234579Y97046D01*
X235165Y96654D01*
X235856Y96517D01*
X236548Y96654D01*
X237134Y97046D01*
X237525Y97632D01*
X237663Y98323D01*
X237525Y99015D01*
X237134Y99601D01*
X236548Y99992D01*
X235856Y100130D01*
D02*
G37*
G36*
X168052Y94559D02*
X167360Y94422D01*
X166774Y94030D01*
X166479Y93588D01*
X166417Y93569D01*
X165986D01*
X165923Y93588D01*
X165628Y94030D01*
X165042Y94422D01*
X164351Y94559D01*
X163660Y94422D01*
X163073Y94030D01*
X162682Y93444D01*
X162544Y92753D01*
X162682Y92062D01*
X163073Y91475D01*
X163660Y91084D01*
X164351Y90947D01*
X165042Y91084D01*
X165628Y91475D01*
X165923Y91918D01*
X165986Y91937D01*
X166417D01*
X166479Y91918D01*
X166774Y91475D01*
X167360Y91084D01*
X168052Y90947D01*
X168743Y91084D01*
X169329Y91475D01*
X169720Y92062D01*
X169858Y92753D01*
X169720Y93444D01*
X169329Y94030D01*
X168743Y94422D01*
X168052Y94559D01*
D02*
G37*
G36*
X224336Y95746D02*
X223645Y95609D01*
X223059Y95217D01*
X222667Y94631D01*
X222530Y93940D01*
X222667Y93248D01*
X223059Y92662D01*
X223645Y92271D01*
X224336Y92133D01*
X225027Y92271D01*
X225613Y92662D01*
X226005Y93248D01*
X226142Y93940D01*
X226005Y94631D01*
X225613Y95217D01*
X225027Y95609D01*
X224336Y95746D01*
D02*
G37*
G36*
X358598Y94118D02*
X356334D01*
Y91953D01*
X358598D01*
Y94118D01*
D02*
G37*
G36*
X355350D02*
X353086D01*
Y91953D01*
X355350D01*
Y94118D01*
D02*
G37*
G36*
X234413Y93967D02*
X233721Y93830D01*
X233135Y93438D01*
X232744Y92852D01*
X232606Y92161D01*
X232744Y91470D01*
X233135Y90884D01*
X233721Y90492D01*
X234413Y90355D01*
X235104Y90492D01*
X235690Y90884D01*
X236081Y91470D01*
X236219Y92161D01*
X236081Y92852D01*
X235690Y93438D01*
X235104Y93830D01*
X234413Y93967D01*
D02*
G37*
G36*
X374205Y94763D02*
X371646D01*
Y89153D01*
X374205D01*
Y94763D01*
D02*
G37*
G36*
X358598Y90968D02*
X356334D01*
Y88803D01*
X358598D01*
Y90968D01*
D02*
G37*
G36*
X355350D02*
X353086D01*
Y88803D01*
X355350D01*
Y90968D01*
D02*
G37*
G36*
X174921Y92062D02*
X174230Y91925D01*
X173644Y91533D01*
X173252Y90947D01*
X173115Y90256D01*
X173252Y89565D01*
X173644Y88979D01*
X174230Y88587D01*
X174921Y88450D01*
X175612Y88587D01*
X176199Y88979D01*
X176590Y89565D01*
X176728Y90256D01*
X176590Y90947D01*
X176199Y91533D01*
X175612Y91925D01*
X174921Y92062D01*
D02*
G37*
G36*
X311647Y134851D02*
X310956Y134713D01*
X310370Y134322D01*
X309979Y133736D01*
X309841Y133044D01*
X309979Y132353D01*
X310343Y131808D01*
Y120688D01*
X310442Y120189D01*
X310725Y119765D01*
X313854Y116637D01*
Y100905D01*
X311948D01*
X311449Y100806D01*
X311026Y100523D01*
X310449Y99946D01*
X310166Y99523D01*
X310067Y99024D01*
Y57821D01*
X309703Y57276D01*
X309565Y56585D01*
X309703Y55894D01*
X310094Y55308D01*
X310680Y54916D01*
X311371Y54779D01*
X312063Y54916D01*
X312649Y55308D01*
X313040Y55894D01*
X313178Y56585D01*
X313040Y57276D01*
X312676Y57821D01*
Y98296D01*
X336614D01*
X338120Y96789D01*
X338543Y96507D01*
X339043Y96407D01*
X376148D01*
X377292Y95263D01*
X377084Y94763D01*
X375189D01*
Y89153D01*
X377748D01*
Y94100D01*
X378248Y94307D01*
X386741Y85814D01*
X387164Y85531D01*
X387663Y85432D01*
X388221D01*
X388390Y84932D01*
X388038Y84662D01*
X387407Y83840D01*
X387011Y82882D01*
X386876Y81854D01*
X387011Y80827D01*
X387407Y79869D01*
X388038Y79046D01*
X388861Y78415D01*
X389819Y78019D01*
X390846Y77883D01*
X391874Y78019D01*
X392832Y78415D01*
X393654Y79046D01*
X394285Y79869D01*
X394682Y80827D01*
X394817Y81854D01*
X394682Y82882D01*
X394285Y83840D01*
X393654Y84662D01*
X393303Y84932D01*
X393472Y85432D01*
X395729D01*
X396228Y85531D01*
X396651Y85814D01*
X399138Y88301D01*
X399819Y88019D01*
X400846Y87883D01*
X401874Y88019D01*
X402832Y88415D01*
X403654Y89047D01*
X404285Y89869D01*
X404682Y90827D01*
X404817Y91854D01*
X404682Y92882D01*
X404285Y93840D01*
X403654Y94662D01*
X402832Y95293D01*
X401874Y95690D01*
X400846Y95825D01*
X399819Y95690D01*
X398861Y95293D01*
X398039Y94662D01*
X397408Y93840D01*
X397011Y92882D01*
X396876Y91854D01*
X397011Y90827D01*
X397293Y90146D01*
X395188Y88041D01*
X393166D01*
X392996Y88541D01*
X393654Y89047D01*
X394285Y89869D01*
X394682Y90827D01*
X394817Y91854D01*
X394682Y92882D01*
X394285Y93840D01*
X393654Y94662D01*
X392832Y95293D01*
X391874Y95690D01*
X390846Y95825D01*
X389819Y95690D01*
X388861Y95293D01*
X388038Y94662D01*
X387407Y93840D01*
X387125Y93159D01*
X385592D01*
X374384Y104367D01*
Y110187D01*
X375087D01*
Y113888D01*
Y117746D01*
X372995D01*
X365156Y125585D01*
X364733Y125867D01*
X364234Y125967D01*
X363438D01*
Y126808D01*
X361509D01*
Y127300D01*
X361017D01*
Y129308D01*
X355879D01*
Y128605D01*
X353563D01*
Y129673D01*
X353917D01*
Y133413D01*
X348248D01*
X342579D01*
Y130984D01*
X340761Y130984D01*
X340454Y130923D01*
X340194Y130749D01*
X333467Y124022D01*
X333293Y123762D01*
X333231Y123454D01*
Y113774D01*
X333293Y113467D01*
X333467Y113206D01*
X333727Y113032D01*
X334034Y112971D01*
X367347D01*
X367454Y112992D01*
X368110D01*
Y113573D01*
X368150Y113774D01*
Y117243D01*
X368150Y117243D01*
X368110Y117443D01*
Y118234D01*
X368610Y118441D01*
X371071Y115980D01*
Y113888D01*
Y110187D01*
X371775D01*
Y103826D01*
X371874Y103327D01*
X372157Y102904D01*
X375582Y99478D01*
X375391Y99016D01*
X339583D01*
X338076Y100523D01*
X337653Y100806D01*
X337154Y100905D01*
X316463D01*
Y117177D01*
X316364Y117676D01*
X316081Y118100D01*
X312952Y121228D01*
Y131808D01*
X313316Y132353D01*
X313454Y133044D01*
X313316Y133736D01*
X312925Y134322D01*
X312339Y134713D01*
X311647Y134851D01*
D02*
G37*
G36*
X329174Y92533D02*
X320513D01*
Y86431D01*
X329174D01*
Y92533D01*
D02*
G37*
G36*
X339043Y92347D02*
X330381D01*
Y86245D01*
X339043D01*
Y92347D01*
D02*
G37*
G36*
X287976Y89668D02*
X287285Y89530D01*
X286699Y89139D01*
X286307Y88552D01*
X286170Y87861D01*
X286307Y87170D01*
X286699Y86584D01*
X287285Y86192D01*
X287976Y86055D01*
X288667Y86192D01*
X289253Y86584D01*
X289645Y87170D01*
X289783Y87861D01*
X289645Y88552D01*
X289253Y89139D01*
X288667Y89530D01*
X287976Y89668D01*
D02*
G37*
G36*
X67196Y83749D02*
X65326D01*
Y82863D01*
X67196D01*
Y83749D01*
D02*
G37*
G36*
X377748Y88169D02*
X375189D01*
Y82559D01*
X377748D01*
Y88169D01*
D02*
G37*
G36*
X374205D02*
X371646D01*
Y82559D01*
X374205D01*
Y88169D01*
D02*
G37*
G36*
X358598Y87819D02*
X353086D01*
Y82504D01*
X358598D01*
Y87819D01*
D02*
G37*
G36*
X281688Y85362D02*
X280996Y85224D01*
X280410Y84833D01*
X280019Y84247D01*
X279881Y83555D01*
X280019Y82864D01*
X280410Y82278D01*
X280996Y81887D01*
X281688Y81749D01*
X282379Y81887D01*
X282965Y82278D01*
X283356Y82864D01*
X283494Y83555D01*
X283356Y84247D01*
X282965Y84833D01*
X282379Y85224D01*
X281688Y85362D01*
D02*
G37*
G36*
X347409Y87327D02*
X340322D01*
Y81619D01*
X347409D01*
Y87327D01*
D02*
G37*
G36*
X287976Y84537D02*
X287285Y84399D01*
X286699Y84008D01*
X286307Y83422D01*
X286170Y82731D01*
X286307Y82039D01*
X286699Y81453D01*
X287285Y81062D01*
X287976Y80924D01*
X288667Y81062D01*
X289253Y81453D01*
X289645Y82039D01*
X289783Y82731D01*
X289645Y83422D01*
X289253Y84008D01*
X288667Y84399D01*
X287976Y84537D01*
D02*
G37*
G36*
X375295Y81496D02*
X373130D01*
Y79232D01*
X375295D01*
Y81496D01*
D02*
G37*
G36*
X372146D02*
X369980D01*
Y79232D01*
X372146D01*
Y81496D01*
D02*
G37*
G36*
X400846Y85825D02*
X399819Y85690D01*
X398861Y85293D01*
X398039Y84662D01*
X397408Y83840D01*
X397011Y82882D01*
X396876Y81854D01*
X397011Y80827D01*
X397408Y79869D01*
X398039Y79046D01*
X398861Y78415D01*
X399819Y78019D01*
X400846Y77883D01*
X401874Y78019D01*
X402832Y78415D01*
X403654Y79046D01*
X404285Y79869D01*
X404682Y80827D01*
X404817Y81854D01*
X404682Y82882D01*
X404285Y83840D01*
X403654Y84662D01*
X402832Y85293D01*
X401874Y85690D01*
X400846Y85825D01*
D02*
G37*
G36*
X287976Y79632D02*
X287285Y79494D01*
X286699Y79102D01*
X286307Y78516D01*
X286170Y77825D01*
X286307Y77134D01*
X286699Y76548D01*
X287285Y76156D01*
X287976Y76019D01*
X288667Y76156D01*
X289253Y76548D01*
X289645Y77134D01*
X289783Y77825D01*
X289645Y78516D01*
X289253Y79102D01*
X288667Y79494D01*
X287976Y79632D01*
D02*
G37*
G36*
X375295Y78248D02*
X373130D01*
Y75984D01*
X375295D01*
Y78248D01*
D02*
G37*
G36*
X372146D02*
X369980D01*
Y75984D01*
X372146D01*
Y78248D01*
D02*
G37*
G36*
X365937Y94763D02*
X359835D01*
Y82559D01*
X365518D01*
X365960Y82487D01*
X366077Y82117D01*
X366101Y81996D01*
X365782Y81496D01*
X363681D01*
Y75984D01*
X368996D01*
Y81142D01*
X369088Y81203D01*
X369479Y81789D01*
X369617Y82480D01*
X369479Y83172D01*
X369088Y83758D01*
X368502Y84149D01*
X367811Y84287D01*
X367119Y84149D01*
X366533Y83758D01*
X366437Y83614D01*
X365937Y83765D01*
Y94763D01*
D02*
G37*
G36*
X67196Y76761D02*
X65326D01*
Y75875D01*
X67196D01*
Y76761D01*
D02*
G37*
G36*
X31358Y76581D02*
X14807D01*
Y74793D01*
X31358D01*
Y76581D01*
D02*
G37*
G36*
X287976Y74537D02*
X287285Y74400D01*
X286699Y74008D01*
X286307Y73422D01*
X286170Y72731D01*
X286307Y72039D01*
X286699Y71453D01*
X287285Y71062D01*
X287976Y70924D01*
X288667Y71062D01*
X289253Y71453D01*
X289645Y72039D01*
X289783Y72731D01*
X289645Y73422D01*
X289253Y74008D01*
X288667Y74400D01*
X287976Y74537D01*
D02*
G37*
G36*
X144551Y71945D02*
X143035D01*
Y70430D01*
X144551D01*
Y71945D01*
D02*
G37*
G36*
X365844Y74703D02*
X363285D01*
Y69093D01*
X365844D01*
Y74703D01*
D02*
G37*
G36*
X362301D02*
X359742D01*
Y69093D01*
X362301D01*
Y74703D01*
D02*
G37*
G36*
X400846Y75825D02*
X399819Y75690D01*
X398861Y75293D01*
X398039Y74662D01*
X397408Y73840D01*
X397011Y72882D01*
X396876Y71854D01*
X397011Y70827D01*
X397408Y69869D01*
X398039Y69046D01*
X398861Y68415D01*
X399819Y68019D01*
X400846Y67883D01*
X401874Y68019D01*
X402832Y68415D01*
X403654Y69046D01*
X404285Y69869D01*
X404682Y70827D01*
X404817Y71854D01*
X404682Y72882D01*
X404285Y73840D01*
X403654Y74662D01*
X402832Y75293D01*
X401874Y75690D01*
X400846Y75825D01*
D02*
G37*
G36*
X390846D02*
X389819Y75690D01*
X388861Y75293D01*
X388038Y74662D01*
X387407Y73840D01*
X387011Y72882D01*
X386876Y71854D01*
X387011Y70827D01*
X387407Y69869D01*
X388038Y69046D01*
X388861Y68415D01*
X389819Y68019D01*
X390846Y67883D01*
X391874Y68019D01*
X392832Y68415D01*
X393654Y69046D01*
X394285Y69869D01*
X394682Y70827D01*
X394817Y71854D01*
X394682Y72882D01*
X394285Y73840D01*
X393654Y74662D01*
X392832Y75293D01*
X391874Y75690D01*
X390846Y75825D01*
D02*
G37*
G36*
X123851Y68345D02*
X122335D01*
Y66829D01*
X123851D01*
Y68345D01*
D02*
G37*
G36*
X110608D02*
X109092D01*
Y66829D01*
X110608D01*
Y68345D01*
D02*
G37*
G36*
X235987Y67574D02*
X235296Y67436D01*
X234710Y67045D01*
X234415Y66603D01*
X234352Y66583D01*
X233922D01*
X233859Y66603D01*
X233564Y67045D01*
X232978Y67436D01*
X232287Y67574D01*
X231595Y67436D01*
X231009Y67045D01*
X230618Y66459D01*
X230480Y65768D01*
X230618Y65076D01*
X231009Y64490D01*
X231595Y64099D01*
X232287Y63961D01*
X232978Y64099D01*
X233564Y64490D01*
X233859Y64932D01*
X233922Y64952D01*
X234352D01*
X234415Y64932D01*
X234710Y64490D01*
X235296Y64099D01*
X235987Y63961D01*
X236679Y64099D01*
X237265Y64490D01*
X237656Y65076D01*
X237794Y65768D01*
X237656Y66459D01*
X237265Y67045D01*
X236679Y67436D01*
X235987Y67574D01*
D02*
G37*
G36*
X287976Y69537D02*
X287285Y69399D01*
X286699Y69008D01*
X286307Y68422D01*
X286170Y67731D01*
X286307Y67039D01*
X286699Y66453D01*
X287285Y66062D01*
X287976Y65924D01*
X288667Y66062D01*
X289253Y66453D01*
X289645Y67039D01*
X289783Y67731D01*
X289645Y68422D01*
X289253Y69008D01*
X288667Y69399D01*
X287976Y69537D01*
D02*
G37*
G36*
X148606Y67993D02*
X146441D01*
Y65730D01*
X148606D01*
Y67993D01*
D02*
G37*
G36*
X329174Y80722D02*
X320513D01*
Y74620D01*
X325395D01*
Y74024D01*
X324780D01*
Y64575D01*
X347220D01*
Y74024D01*
X345438D01*
Y74532D01*
X347409D01*
Y80241D01*
X340322D01*
Y74532D01*
X341825D01*
Y74024D01*
X339261D01*
X339043Y74434D01*
Y80536D01*
X330381D01*
Y74434D01*
X330163Y74024D01*
X329008D01*
Y74620D01*
X329174D01*
Y80722D01*
D02*
G37*
G36*
X123851Y65845D02*
X122335D01*
Y64329D01*
X123851D01*
Y65845D01*
D02*
G37*
G36*
X110608D02*
X109092D01*
Y64329D01*
X110608D01*
Y65845D01*
D02*
G37*
G36*
X97979Y64724D02*
X96464D01*
Y63208D01*
X97979D01*
Y64724D01*
D02*
G37*
G36*
X83127D02*
X81612D01*
Y63208D01*
X83127D01*
Y64724D01*
D02*
G37*
G36*
X377655Y74703D02*
X371553D01*
Y62498D01*
X377655D01*
Y74703D01*
D02*
G37*
G36*
X365844Y68108D02*
X363285D01*
Y62498D01*
X365844D01*
Y68108D01*
D02*
G37*
G36*
X362301D02*
X359742D01*
Y62498D01*
X362301D01*
Y68108D01*
D02*
G37*
G36*
X148606Y64745D02*
X146441D01*
Y62482D01*
X148606D01*
Y64745D01*
D02*
G37*
G36*
X145456D02*
X143291D01*
Y62482D01*
X145456D01*
Y64745D01*
D02*
G37*
G36*
X287976Y64537D02*
X287285Y64399D01*
X286699Y64008D01*
X286307Y63422D01*
X286170Y62731D01*
X286307Y62039D01*
X286699Y61453D01*
X287285Y61062D01*
X287976Y60924D01*
X288667Y61062D01*
X289253Y61453D01*
X289645Y62039D01*
X289783Y62731D01*
X289645Y63422D01*
X289253Y64008D01*
X288667Y64399D01*
X287976Y64537D01*
D02*
G37*
G36*
X100571Y64344D02*
X99880Y64206D01*
X99294Y63815D01*
X98902Y63229D01*
X98765Y62537D01*
X98902Y61846D01*
X99294Y61260D01*
X99880Y60869D01*
X100571Y60731D01*
X101263Y60869D01*
X101849Y61260D01*
X102240Y61846D01*
X102378Y62537D01*
X102240Y63229D01*
X101849Y63815D01*
X101263Y64206D01*
X100571Y64344D01*
D02*
G37*
G36*
X78882D02*
X78191Y64206D01*
X77605Y63815D01*
X77214Y63229D01*
X77076Y62537D01*
X77214Y61846D01*
X77605Y61260D01*
X78191Y60869D01*
X78882Y60731D01*
X79574Y60869D01*
X80160Y61260D01*
X80551Y61846D01*
X80689Y62537D01*
X80551Y63229D01*
X80160Y63815D01*
X79574Y64206D01*
X78882Y64344D01*
D02*
G37*
G36*
X251311Y62128D02*
X247473D01*
Y59569D01*
X251311D01*
Y62128D01*
D02*
G37*
G36*
X246489D02*
X242650D01*
Y59569D01*
X246489D01*
Y62128D01*
D02*
G37*
G36*
X400846Y65825D02*
X399819Y65690D01*
X398861Y65293D01*
X398039Y64662D01*
X397408Y63840D01*
X397011Y62882D01*
X396876Y61854D01*
X397011Y60827D01*
X397408Y59869D01*
X398039Y59047D01*
X398861Y58415D01*
X399819Y58019D01*
X400846Y57883D01*
X401874Y58019D01*
X402832Y58415D01*
X403654Y59047D01*
X404285Y59869D01*
X404682Y60827D01*
X404817Y61854D01*
X404682Y62882D01*
X404285Y63840D01*
X403654Y64662D01*
X402832Y65293D01*
X401874Y65690D01*
X400846Y65825D01*
D02*
G37*
G36*
X390846D02*
X389819Y65690D01*
X388861Y65293D01*
X388038Y64662D01*
X387407Y63840D01*
X387011Y62882D01*
X386876Y61854D01*
X387011Y60827D01*
X387407Y59869D01*
X388038Y59047D01*
X388861Y58415D01*
X389819Y58019D01*
X390846Y57883D01*
X391874Y58019D01*
X392832Y58415D01*
X393654Y59047D01*
X394285Y59869D01*
X394682Y60827D01*
X394817Y61854D01*
X394682Y62882D01*
X394285Y63840D01*
X393654Y64662D01*
X392832Y65293D01*
X391874Y65690D01*
X390846Y65825D01*
D02*
G37*
G36*
X209537Y61304D02*
X208846Y61167D01*
X208260Y60776D01*
X207868Y60189D01*
X207731Y59498D01*
X207868Y58807D01*
X208260Y58221D01*
X208846Y57829D01*
X209537Y57692D01*
X210228Y57829D01*
X210814Y58221D01*
X211206Y58807D01*
X211343Y59498D01*
X211206Y60189D01*
X210814Y60776D01*
X210228Y61167D01*
X209537Y61304D01*
D02*
G37*
G36*
X97657Y59564D02*
X95393D01*
Y57399D01*
X97657D01*
Y59564D01*
D02*
G37*
G36*
X94409D02*
X92145D01*
Y57399D01*
X94409D01*
Y59564D01*
D02*
G37*
G36*
X148606Y61893D02*
X143291D01*
Y56382D01*
X148606D01*
Y61893D01*
D02*
G37*
G36*
X251311Y58585D02*
X247473D01*
Y56026D01*
X251311D01*
Y58585D01*
D02*
G37*
G36*
X246489D02*
X242650D01*
Y56026D01*
X246489D01*
Y58585D01*
D02*
G37*
G36*
X365880Y61219D02*
X363321D01*
Y55608D01*
X365880D01*
Y61219D01*
D02*
G37*
G36*
X362337D02*
X359778D01*
Y55608D01*
X362337D01*
Y61219D01*
D02*
G37*
G36*
X102691Y56505D02*
X101175D01*
Y54989D01*
X102691D01*
Y56505D01*
D02*
G37*
G36*
X100191D02*
X98675D01*
Y54989D01*
X100191D01*
Y56505D01*
D02*
G37*
G36*
X97657Y56415D02*
X95393D01*
Y54249D01*
X97657D01*
Y56415D01*
D02*
G37*
G36*
X94409D02*
X92145D01*
Y54249D01*
X94409D01*
Y56415D01*
D02*
G37*
G36*
X213987Y57255D02*
X213295Y57117D01*
X212709Y56726D01*
X212318Y56140D01*
X212180Y55449D01*
X212318Y54757D01*
X212709Y54171D01*
X213295Y53780D01*
X213987Y53642D01*
X214678Y53780D01*
X215264Y54171D01*
X215655Y54757D01*
X215793Y55449D01*
X215655Y56140D01*
X215264Y56726D01*
X214678Y57117D01*
X213987Y57255D01*
D02*
G37*
G36*
X205187Y57210D02*
X204495Y57073D01*
X203909Y56681D01*
X203518Y56095D01*
X203380Y55404D01*
X203518Y54712D01*
X203909Y54126D01*
X204495Y53735D01*
X205187Y53597D01*
X205878Y53735D01*
X206464Y54126D01*
X206856Y54712D01*
X206993Y55404D01*
X206856Y56095D01*
X206464Y56681D01*
X205878Y57073D01*
X205187Y57210D01*
D02*
G37*
G36*
X241170Y55632D02*
X238906D01*
Y53565D01*
X241170D01*
Y55632D01*
D02*
G37*
G36*
X237922D02*
X235658D01*
Y53565D01*
X237922D01*
Y55632D01*
D02*
G37*
G36*
X184953Y54552D02*
X183437D01*
Y53115D01*
X184953D01*
Y54552D01*
D02*
G37*
G36*
X182453D02*
X180937D01*
Y53115D01*
X182453D01*
Y54552D01*
D02*
G37*
G36*
X391831Y55696D02*
Y52838D01*
X394688D01*
X394682Y52882D01*
X394285Y53840D01*
X393654Y54662D01*
X392832Y55293D01*
X391874Y55690D01*
X391831Y55696D01*
D02*
G37*
G36*
X389862Y55696D02*
X389819Y55690D01*
X388861Y55293D01*
X388038Y54662D01*
X387407Y53840D01*
X387011Y52882D01*
X387005Y52838D01*
X389862D01*
Y55696D01*
D02*
G37*
G36*
X160531Y54921D02*
X158465D01*
Y52658D01*
X160531D01*
Y54921D01*
D02*
G37*
G36*
X157480D02*
X155413D01*
Y52658D01*
X157480D01*
Y54921D01*
D02*
G37*
G36*
X83878Y55332D02*
X81516D01*
Y52281D01*
X83878D01*
Y55332D01*
D02*
G37*
G36*
X80531D02*
X78169D01*
Y52281D01*
X80531D01*
Y55332D01*
D02*
G37*
G36*
X272877Y54237D02*
X270810D01*
Y51973D01*
X272877D01*
Y54237D01*
D02*
G37*
G36*
X269826D02*
X267759D01*
Y51973D01*
X269826D01*
Y54237D01*
D02*
G37*
G36*
X231787Y54974D02*
X231096Y54836D01*
X230510Y54445D01*
X230118Y53859D01*
X229981Y53167D01*
X230118Y52476D01*
X230510Y51890D01*
X231096Y51499D01*
X231787Y51361D01*
X232479Y51499D01*
X233065Y51890D01*
X233456Y52476D01*
X233594Y53167D01*
X233456Y53859D01*
X233065Y54445D01*
X232479Y54836D01*
X231787Y54974D01*
D02*
G37*
G36*
X290984Y52205D02*
X289469D01*
Y50768D01*
X290984D01*
Y52205D01*
D02*
G37*
G36*
X288484D02*
X286968D01*
Y50768D01*
X288484D01*
Y52205D01*
D02*
G37*
G36*
X241170Y52581D02*
X238906D01*
Y50514D01*
X241170D01*
Y52581D01*
D02*
G37*
G36*
X237922D02*
X235658D01*
Y50514D01*
X237922D01*
Y52581D01*
D02*
G37*
G36*
X120449Y51885D02*
X118875D01*
Y50311D01*
X120449D01*
Y51885D01*
D02*
G37*
G36*
X224136Y53045D02*
X223445Y52908D01*
X222859Y52516D01*
X222467Y51930D01*
X222330Y51239D01*
X222467Y50548D01*
X222859Y49962D01*
X223445Y49570D01*
X224136Y49433D01*
X224828Y49570D01*
X225413Y49962D01*
X225805Y50548D01*
X225943Y51239D01*
X225805Y51930D01*
X225413Y52516D01*
X224828Y52908D01*
X224136Y53045D01*
D02*
G37*
G36*
X217601D02*
X216910Y52908D01*
X216323Y52516D01*
X215932Y51930D01*
X215794Y51239D01*
X215932Y50548D01*
X216323Y49962D01*
X216910Y49570D01*
X217601Y49433D01*
X218292Y49570D01*
X218878Y49962D01*
X219270Y50548D01*
X219407Y51239D01*
X219270Y51930D01*
X218878Y52516D01*
X218292Y52908D01*
X217601Y53045D01*
D02*
G37*
G36*
X160531Y51673D02*
X158465D01*
Y49409D01*
X160531D01*
Y51673D01*
D02*
G37*
G36*
X157480D02*
X155413D01*
Y49409D01*
X157480D01*
Y51673D01*
D02*
G37*
G36*
X251311Y50317D02*
X242650D01*
Y49073D01*
X241170D01*
Y49333D01*
X235658D01*
Y44215D01*
X236608D01*
Y42804D01*
X235182Y41379D01*
X233826Y41940D01*
X231898Y42403D01*
X229921Y42559D01*
X227944Y42403D01*
X226016Y41940D01*
X224184Y41181D01*
X222493Y40145D01*
X220985Y38857D01*
X219697Y37349D01*
X218661Y35658D01*
X217902Y33826D01*
X217440Y31898D01*
X217284Y29921D01*
X217440Y27944D01*
X217902Y26016D01*
X218661Y24184D01*
X219697Y22493D01*
X220985Y20985D01*
X222493Y19697D01*
X224184Y18661D01*
X226016Y17902D01*
X227944Y17439D01*
X229921Y17284D01*
X231898Y17439D01*
X233826Y17902D01*
X235659Y18661D01*
X237349Y19697D01*
X238857Y20985D01*
X240145Y22493D01*
X241181Y24184D01*
X241940Y26016D01*
X242403Y27944D01*
X242559Y29921D01*
X242403Y31898D01*
X241940Y33826D01*
X241181Y35658D01*
X240145Y37349D01*
X238857Y38857D01*
X238551Y39119D01*
X238531Y39619D01*
X239691Y40779D01*
X240083Y41365D01*
X240220Y42056D01*
Y44215D01*
X241170D01*
Y45460D01*
X242650D01*
Y44215D01*
X251311D01*
Y50317D01*
D02*
G37*
G36*
X377691Y61219D02*
X371589D01*
Y49014D01*
X377691D01*
Y61219D01*
D02*
G37*
G36*
X365880Y54624D02*
X363321D01*
Y49014D01*
X365880D01*
Y54624D01*
D02*
G37*
G36*
X362337D02*
X359778D01*
Y49014D01*
X362337D01*
Y54624D01*
D02*
G37*
G36*
X272877Y50989D02*
X270810D01*
Y48725D01*
X272877D01*
Y50989D01*
D02*
G37*
G36*
X269826D02*
X267759D01*
Y48725D01*
X269826D01*
Y50989D01*
D02*
G37*
G36*
X197027Y51920D02*
X196335Y51782D01*
X195749Y51390D01*
X195358Y50804D01*
X195220Y50113D01*
X195358Y49422D01*
X195749Y48836D01*
X196335Y48444D01*
X197027Y48307D01*
X197718Y48444D01*
X198304Y48836D01*
X198696Y49422D01*
X198833Y50113D01*
X198696Y50804D01*
X198304Y51390D01*
X197718Y51782D01*
X197027Y51920D01*
D02*
G37*
G36*
X83878Y51297D02*
X81516D01*
Y48245D01*
X83878D01*
Y51297D01*
D02*
G37*
G36*
X80531D02*
X78169D01*
Y48245D01*
X80531D01*
Y51297D01*
D02*
G37*
G36*
X389862Y50870D02*
X387005D01*
X387011Y50827D01*
X387407Y49869D01*
X388038Y49046D01*
X388861Y48415D01*
X389819Y48019D01*
X389862Y48013D01*
Y50870D01*
D02*
G37*
G36*
X394688D02*
X391831D01*
Y48013D01*
X391874Y48019D01*
X392832Y48415D01*
X393654Y49046D01*
X394285Y49869D01*
X394682Y50827D01*
X394688Y50870D01*
D02*
G37*
G36*
X400846Y55825D02*
X399819Y55690D01*
X398861Y55293D01*
X398039Y54662D01*
X397408Y53840D01*
X397011Y52882D01*
X396876Y51854D01*
X397011Y50827D01*
X397408Y49869D01*
X398039Y49046D01*
X398861Y48415D01*
X399819Y48019D01*
X400846Y47883D01*
X401874Y48019D01*
X402832Y48415D01*
X403654Y49046D01*
X404285Y49869D01*
X404682Y50827D01*
X404817Y51854D01*
X404682Y52882D01*
X404285Y53840D01*
X403654Y54662D01*
X402832Y55293D01*
X401874Y55690D01*
X400846Y55825D01*
D02*
G37*
G36*
X113445Y48344D02*
X111929D01*
Y46828D01*
X113445D01*
Y48344D01*
D02*
G37*
G36*
X160250Y47773D02*
X157888D01*
Y44722D01*
X160250D01*
Y47773D01*
D02*
G37*
G36*
X156904D02*
X154542D01*
Y44722D01*
X156904D01*
Y47773D01*
D02*
G37*
G36*
X272379Y47728D02*
X270017D01*
Y44677D01*
X272379D01*
Y47728D01*
D02*
G37*
G36*
X269032D02*
X266670D01*
Y44677D01*
X269032D01*
Y47728D01*
D02*
G37*
G36*
X198580Y46049D02*
Y44533D01*
X200017D01*
Y46049D01*
X198580D01*
D02*
G37*
G36*
X315021Y45974D02*
Y44458D01*
X316458D01*
Y45974D01*
X315021D01*
D02*
G37*
G36*
X347220Y60245D02*
X324780D01*
Y50796D01*
X325907D01*
Y49818D01*
X322817D01*
Y43716D01*
X331479D01*
Y49818D01*
X329520D01*
Y50796D01*
X334345D01*
Y49818D01*
X332166D01*
Y43716D01*
X340827D01*
Y49818D01*
X337957D01*
Y50796D01*
X342847D01*
Y49818D01*
X341924D01*
Y43716D01*
X350585D01*
Y49818D01*
X346459D01*
Y50796D01*
X347220D01*
Y60245D01*
D02*
G37*
G36*
X391831Y45696D02*
Y42838D01*
X394688D01*
X394682Y42882D01*
X394285Y43840D01*
X393654Y44662D01*
X392832Y45293D01*
X391874Y45690D01*
X391831Y45696D01*
D02*
G37*
G36*
X389862D02*
X389819Y45690D01*
X388861Y45293D01*
X388038Y44662D01*
X387407Y43840D01*
X387011Y42882D01*
X387005Y42838D01*
X389862D01*
Y45696D01*
D02*
G37*
G36*
X200017Y43549D02*
X198580D01*
Y42033D01*
X200017D01*
Y43549D01*
D02*
G37*
G36*
X316458Y43474D02*
X315021D01*
Y41958D01*
X316458D01*
Y43474D01*
D02*
G37*
G36*
X279176Y54237D02*
X274058D01*
Y48725D01*
X275306D01*
Y47728D01*
X273757D01*
Y40642D01*
X279465D01*
Y40788D01*
X280900D01*
Y39819D01*
X279676D01*
X279636Y39811D01*
X279377Y39862D01*
X279298D01*
X279220Y39878D01*
X274613D01*
X274306Y39816D01*
X274046Y39643D01*
X273872Y39382D01*
X273811Y39075D01*
Y34366D01*
X273176D01*
Y36293D01*
X267861D01*
Y34745D01*
X267361Y34537D01*
X264500Y37398D01*
X264240Y37572D01*
X263933Y37633D01*
X263811D01*
Y37663D01*
X256724D01*
Y37247D01*
X254177Y34700D01*
X254003Y34439D01*
X253942Y34132D01*
Y26480D01*
X254003Y26172D01*
X254177Y25912D01*
X254437Y25738D01*
X254745Y25677D01*
X286977D01*
X287284Y25738D01*
X287545Y25912D01*
X287719Y26172D01*
X287780Y26480D01*
Y31417D01*
X287780Y31417D01*
X287719Y31724D01*
X287581Y31931D01*
Y31983D01*
X287546D01*
X287545Y31985D01*
X286167Y33362D01*
X286358Y33824D01*
X289626D01*
Y30925D01*
Y26870D01*
X289687Y26563D01*
X289712Y26526D01*
Y26177D01*
X290048D01*
X290121Y26128D01*
X290429Y26067D01*
X294587D01*
X294894Y26128D01*
X294967Y26177D01*
X295224D01*
Y26372D01*
X296888Y28036D01*
X319737D01*
X320044Y28098D01*
X320203Y28204D01*
X320513D01*
Y28705D01*
X320540Y28839D01*
Y34391D01*
X320479Y34698D01*
X320305Y34959D01*
X317324Y37940D01*
X317063Y38114D01*
X316756Y38175D01*
X306339D01*
Y41673D01*
X306719Y41962D01*
X308584D01*
Y41962D01*
X308899Y41958D01*
Y41958D01*
X309083Y41958D01*
X314037D01*
Y43966D01*
Y45974D01*
X308899D01*
X308584Y46343D01*
Y49521D01*
X304569D01*
Y45226D01*
X299322D01*
X298822Y45126D01*
X298399Y44844D01*
X297897Y44342D01*
X297435Y44533D01*
Y45143D01*
X296378D01*
Y46086D01*
X296279Y46586D01*
X295996Y47009D01*
X295645Y47360D01*
X295621Y47945D01*
X296013Y48531D01*
X296150Y49223D01*
X296013Y49914D01*
X295621Y50500D01*
X295035Y50892D01*
X294344Y51029D01*
X293653Y50892D01*
X293067Y50500D01*
X292675Y49914D01*
X292538Y49223D01*
X292675Y48531D01*
X292777Y48379D01*
X292509Y47879D01*
X290984D01*
Y49784D01*
X286968D01*
Y48346D01*
Y45045D01*
X285624D01*
Y45143D01*
X280900D01*
Y43397D01*
X279465D01*
Y47728D01*
X277916D01*
Y48725D01*
X279176D01*
Y54237D01*
D02*
G37*
G36*
X160250Y43738D02*
X157888D01*
Y40687D01*
X160250D01*
Y43738D01*
D02*
G37*
G36*
X156904D02*
X154542D01*
Y40687D01*
X156904D01*
Y43738D01*
D02*
G37*
G36*
X272379Y43693D02*
X270017D01*
Y40642D01*
X272379D01*
Y43693D01*
D02*
G37*
G36*
X269032D02*
X266670D01*
Y40642D01*
X269032D01*
Y43693D01*
D02*
G37*
G36*
X166831Y54921D02*
X161713D01*
Y49409D01*
X163178D01*
Y47773D01*
X161628D01*
Y40687D01*
X167337D01*
Y40832D01*
X168772D01*
Y39864D01*
X167454D01*
X167384Y39878D01*
X162485D01*
X162178Y39816D01*
X161917Y39643D01*
X161743Y39382D01*
X161682Y39075D01*
Y34403D01*
X161047D01*
Y36338D01*
X155732D01*
Y34782D01*
X155232Y34575D01*
X152372Y37435D01*
X152112Y37609D01*
X151804Y37670D01*
X145451D01*
X145314Y37670D01*
X145314Y37670D01*
X145312Y37670D01*
X145007Y37609D01*
X144996Y37602D01*
X144980Y37598D01*
Y37591D01*
X144746Y37435D01*
X142049Y34737D01*
X141875Y34477D01*
X141814Y34170D01*
Y26517D01*
X141875Y26210D01*
X142049Y25949D01*
X142309Y25775D01*
X142616Y25714D01*
X174849D01*
X175156Y25775D01*
X175417Y25949D01*
X175591Y26210D01*
X175652Y26517D01*
Y31454D01*
X175652Y31455D01*
X175591Y31762D01*
X175453Y31968D01*
Y32028D01*
X175411D01*
X174031Y33407D01*
X174223Y33869D01*
X177498D01*
Y30962D01*
Y26908D01*
X177559Y26600D01*
X177584Y26563D01*
Y26222D01*
X177909D01*
X177993Y26166D01*
X178300Y26105D01*
X182458D01*
X182766Y26166D01*
X182850Y26222D01*
X183095D01*
Y26409D01*
X184760Y28074D01*
X207609D01*
X207916Y28135D01*
X208086Y28249D01*
X208385D01*
Y28742D01*
X208412Y28877D01*
Y34429D01*
X208412Y34429D01*
X208350Y34736D01*
X208176Y34996D01*
X208176Y34996D01*
X204745Y38427D01*
X204485Y38602D01*
X204177Y38663D01*
X194210D01*
Y41718D01*
X194580Y42033D01*
X197596D01*
Y44041D01*
Y46049D01*
X192458D01*
X192143Y46418D01*
Y49596D01*
X188128D01*
Y45270D01*
X187193D01*
X186694Y45171D01*
X186271Y44888D01*
X185769Y44387D01*
X185307Y44578D01*
Y45188D01*
X184249D01*
Y46993D01*
X184953D01*
Y50694D01*
Y52131D01*
X180937D01*
Y50694D01*
Y46993D01*
X181640D01*
Y45188D01*
X180583D01*
Y45090D01*
X173496D01*
Y45188D01*
X168772D01*
Y43442D01*
X167337D01*
Y47773D01*
X165787D01*
Y49409D01*
X166831D01*
Y54921D01*
D02*
G37*
G36*
X263811Y45143D02*
X256724D01*
Y39435D01*
X263811D01*
Y45143D01*
D02*
G37*
G36*
X152067Y45079D02*
X144980D01*
Y39370D01*
X152067D01*
Y45079D01*
D02*
G37*
G36*
X389862Y40870D02*
X387005D01*
X387011Y40826D01*
X387407Y39869D01*
X388038Y39046D01*
X388861Y38415D01*
X389819Y38019D01*
X389862Y38013D01*
Y40870D01*
D02*
G37*
G36*
X394688D02*
X391831D01*
Y38013D01*
X391874Y38019D01*
X392832Y38415D01*
X393654Y39046D01*
X394285Y39869D01*
X394682Y40826D01*
X394688Y40870D01*
D02*
G37*
G36*
X400846Y45825D02*
X399819Y45690D01*
X398861Y45293D01*
X398039Y44662D01*
X397408Y43840D01*
X397011Y42882D01*
X396876Y41854D01*
X397011Y40826D01*
X397408Y39869D01*
X398039Y39046D01*
X398861Y38415D01*
X399819Y38019D01*
X400846Y37883D01*
X401874Y38019D01*
X402832Y38415D01*
X403654Y39046D01*
X404285Y39869D01*
X404682Y40826D01*
X404817Y41854D01*
X404682Y42882D01*
X404285Y43840D01*
X403654Y44662D01*
X402832Y45293D01*
X401874Y45690D01*
X400846Y45825D01*
D02*
G37*
G36*
X161047Y39586D02*
X158882D01*
Y37322D01*
X161047D01*
Y39586D01*
D02*
G37*
G36*
X157898D02*
X155732D01*
Y37322D01*
X157898D01*
Y39586D01*
D02*
G37*
G36*
X273176Y39541D02*
X271010D01*
Y37277D01*
X273176D01*
Y39541D01*
D02*
G37*
G36*
X270026D02*
X267861D01*
Y37277D01*
X270026D01*
Y39541D01*
D02*
G37*
G36*
X331479Y38007D02*
X327640D01*
Y35448D01*
X331479D01*
Y38007D01*
D02*
G37*
G36*
X350585D02*
X346747D01*
Y35448D01*
X350585D01*
Y38007D01*
D02*
G37*
G36*
X340827D02*
X336988D01*
Y35448D01*
X340827D01*
Y38007D01*
D02*
G37*
G36*
X336004D02*
X332166D01*
Y35448D01*
X336004D01*
Y38007D01*
D02*
G37*
G36*
X326656D02*
X322817D01*
Y35448D01*
X326656D01*
Y38007D01*
D02*
G37*
G36*
X345762D02*
X341924D01*
Y35448D01*
X345762D01*
Y38007D01*
D02*
G37*
G36*
X85250Y38221D02*
X82691D01*
Y34382D01*
X85250D01*
Y38221D01*
D02*
G37*
G36*
X81707D02*
X79148D01*
Y34382D01*
X81707D01*
Y38221D01*
D02*
G37*
G36*
X82199Y33890D02*
D01*
D01*
D01*
D02*
G37*
G36*
X111811Y42559D02*
X109834Y42403D01*
X107906Y41940D01*
X106074Y41181D01*
X104383Y40145D01*
X102875Y38857D01*
X101587Y37349D01*
X100551Y35658D01*
X99792Y33826D01*
X99784Y33795D01*
X97061D01*
Y38221D01*
X90959D01*
Y29560D01*
X92696D01*
Y28080D01*
X91943D01*
Y22568D01*
X97061D01*
Y28080D01*
X96309D01*
Y29560D01*
X97061D01*
Y30182D01*
X98933D01*
X99174Y29921D01*
X99329Y27944D01*
X99792Y26016D01*
X100551Y24184D01*
X101587Y22493D01*
X102875Y20985D01*
X104383Y19697D01*
X106074Y18661D01*
X107906Y17902D01*
X109834Y17439D01*
X111811Y17284D01*
X113788Y17439D01*
X115716Y17902D01*
X117548Y18661D01*
X119239Y19697D01*
X120747Y20985D01*
X122035Y22493D01*
X123071Y24184D01*
X123830Y26016D01*
X124293Y27944D01*
X124448Y29921D01*
X124293Y31898D01*
X123830Y33826D01*
X123071Y35658D01*
X122035Y37349D01*
X120747Y38857D01*
X119239Y40145D01*
X117548Y41181D01*
X115716Y41940D01*
X113788Y42403D01*
X111811Y42559D01*
D02*
G37*
G36*
X350585Y34464D02*
X346747D01*
Y31904D01*
X350585D01*
Y34464D01*
D02*
G37*
G36*
X345762D02*
X341924D01*
Y31904D01*
X345762D01*
Y34464D01*
D02*
G37*
G36*
X340827D02*
X336988D01*
Y31904D01*
X340827D01*
Y34464D01*
D02*
G37*
G36*
X336004D02*
X332166D01*
Y31904D01*
X336004D01*
Y34464D01*
D02*
G37*
G36*
X331479D02*
X327640D01*
Y31904D01*
X331479D01*
Y34464D01*
D02*
G37*
G36*
X326656D02*
X322817D01*
Y31904D01*
X326656D01*
Y34464D01*
D02*
G37*
G36*
X85250Y33398D02*
X82691D01*
Y29560D01*
X85250D01*
Y33398D01*
D02*
G37*
G36*
X81707D02*
X79148D01*
Y29560D01*
X81707D01*
Y33398D01*
D02*
G37*
G36*
X400846Y35825D02*
X399819Y35690D01*
X398861Y35293D01*
X398039Y34662D01*
X397408Y33840D01*
X397011Y32882D01*
X396876Y31854D01*
X397011Y30827D01*
X397408Y29869D01*
X398039Y29046D01*
X398861Y28415D01*
X399819Y28019D01*
X400846Y27883D01*
X401874Y28019D01*
X402832Y28415D01*
X403654Y29046D01*
X404285Y29869D01*
X404682Y30827D01*
X404817Y31854D01*
X404682Y32882D01*
X404285Y33840D01*
X403654Y34662D01*
X402832Y35293D01*
X401874Y35690D01*
X400846Y35825D01*
D02*
G37*
G36*
X390846D02*
X389819Y35690D01*
X388861Y35293D01*
X388038Y34662D01*
X387407Y33840D01*
X387011Y32882D01*
X386876Y31854D01*
X387011Y30827D01*
X387407Y29869D01*
X388038Y29046D01*
X388861Y28415D01*
X389819Y28019D01*
X390846Y27883D01*
X391874Y28019D01*
X392832Y28415D01*
X393654Y29046D01*
X394285Y29869D01*
X394682Y30827D01*
X394817Y31854D01*
X394682Y32882D01*
X394285Y33840D01*
X393654Y34662D01*
X392832Y35293D01*
X391874Y35690D01*
X390846Y35825D01*
D02*
G37*
G36*
X90762Y28080D02*
X88695D01*
Y25816D01*
X90762D01*
Y28080D01*
D02*
G37*
G36*
X87711D02*
X85644D01*
Y25816D01*
X87711D01*
Y28080D01*
D02*
G37*
G36*
X40859Y26356D02*
X38792D01*
Y24092D01*
X40859D01*
Y26356D01*
D02*
G37*
G36*
X37808D02*
X35741D01*
Y24092D01*
X37808D01*
Y26356D01*
D02*
G37*
G36*
X183095Y25238D02*
X180832D01*
Y23072D01*
X183095D01*
Y25238D01*
D02*
G37*
G36*
X179847D02*
X177584D01*
Y23072D01*
X179847D01*
Y25238D01*
D02*
G37*
G36*
X295224Y25193D02*
X292960D01*
Y23028D01*
X295224D01*
Y25193D01*
D02*
G37*
G36*
X291976D02*
X289712D01*
Y23028D01*
X291976D01*
Y25193D01*
D02*
G37*
G36*
X90762Y24832D02*
X88695D01*
Y22568D01*
X90762D01*
Y24832D01*
D02*
G37*
G36*
X87711D02*
X85644D01*
Y22568D01*
X87711D01*
Y24832D01*
D02*
G37*
G36*
X40859Y23108D02*
X38792D01*
Y20844D01*
X40859D01*
Y23108D01*
D02*
G37*
G36*
X37808D02*
X35741D01*
Y20844D01*
X37808D01*
Y23108D01*
D02*
G37*
G36*
X208385Y26477D02*
X201298D01*
Y20769D01*
X208385D01*
Y26477D01*
D02*
G37*
G36*
X320513Y26432D02*
X313426D01*
Y20724D01*
X320513D01*
Y26432D01*
D02*
G37*
G36*
X200273Y22683D02*
X194663D01*
Y20124D01*
X200273D01*
Y22683D01*
D02*
G37*
G36*
X193679D02*
X188068D01*
Y20124D01*
X193679D01*
Y22683D01*
D02*
G37*
G36*
X312402Y22638D02*
X306791D01*
Y20079D01*
X312402D01*
Y22638D01*
D02*
G37*
G36*
X305807D02*
X300197D01*
Y20079D01*
X305807D01*
Y22638D01*
D02*
G37*
G36*
X183095Y22088D02*
X180832D01*
Y19923D01*
X183095D01*
Y22088D01*
D02*
G37*
G36*
X179847D02*
X177584D01*
Y19923D01*
X179847D01*
Y22088D01*
D02*
G37*
G36*
X295224Y22043D02*
X292960D01*
Y19878D01*
X295224D01*
Y22043D01*
D02*
G37*
G36*
X291976D02*
X289712D01*
Y19878D01*
X291976D01*
Y22043D01*
D02*
G37*
G36*
X167442Y20270D02*
X161831D01*
Y17711D01*
X167442D01*
Y20270D01*
D02*
G37*
G36*
X154242D02*
X148632D01*
Y17711D01*
X154242D01*
Y20270D01*
D02*
G37*
G36*
X160847D02*
X155237D01*
Y17711D01*
X160847D01*
Y20270D01*
D02*
G37*
G36*
X147647D02*
X142037D01*
Y17711D01*
X147647D01*
Y20270D01*
D02*
G37*
G36*
X279570Y20225D02*
X273960D01*
Y17666D01*
X279570D01*
Y20225D01*
D02*
G37*
G36*
X266370D02*
X260760D01*
Y17666D01*
X266370D01*
Y20225D01*
D02*
G37*
G36*
X272976D02*
X267365D01*
Y17666D01*
X272976D01*
Y20225D01*
D02*
G37*
G36*
X259776D02*
X254165D01*
Y17666D01*
X259776D01*
Y20225D01*
D02*
G37*
G36*
X175453Y19429D02*
X173031D01*
Y17323D01*
X175453D01*
Y19429D01*
D02*
G37*
G36*
X172047D02*
X169626D01*
Y17323D01*
X172047D01*
Y19429D01*
D02*
G37*
G36*
X287581Y19384D02*
X285160D01*
Y17278D01*
X287581D01*
Y19384D01*
D02*
G37*
G36*
X284176D02*
X281754D01*
Y17278D01*
X284176D01*
Y19384D01*
D02*
G37*
G36*
X200273Y19139D02*
X194663D01*
Y16580D01*
X200273D01*
Y19139D01*
D02*
G37*
G36*
X193679D02*
X188068D01*
Y16580D01*
X193679D01*
Y19139D01*
D02*
G37*
G36*
X312402Y19094D02*
X306791D01*
Y16535D01*
X312402D01*
Y19094D01*
D02*
G37*
G36*
X305807D02*
X300197D01*
Y16535D01*
X305807D01*
Y19094D01*
D02*
G37*
G36*
X47355Y19431D02*
X44796D01*
Y15592D01*
X47355D01*
Y19431D01*
D02*
G37*
G36*
X43812D02*
X41253D01*
Y15592D01*
X43812D01*
Y19431D01*
D02*
G37*
G36*
X175453Y16339D02*
X173031D01*
Y14232D01*
X175453D01*
Y16339D01*
D02*
G37*
G36*
X172047D02*
X169626D01*
Y14232D01*
X172047D01*
Y16339D01*
D02*
G37*
G36*
X287581Y16294D02*
X285160D01*
Y14187D01*
X287581D01*
Y16294D01*
D02*
G37*
G36*
X284176D02*
X281754D01*
Y14187D01*
X284176D01*
Y16294D01*
D02*
G37*
G36*
X167442Y16727D02*
X161831D01*
Y14168D01*
X167442D01*
Y16727D01*
D02*
G37*
G36*
X160847D02*
X155237D01*
Y14168D01*
X160847D01*
Y16727D01*
D02*
G37*
G36*
X154242D02*
X148632D01*
Y14168D01*
X154242D01*
Y16727D01*
D02*
G37*
G36*
X147647D02*
X142037D01*
Y14168D01*
X147647D01*
Y16727D01*
D02*
G37*
G36*
X279570Y16682D02*
X273960D01*
Y14123D01*
X279570D01*
Y16682D01*
D02*
G37*
G36*
X272976D02*
X267365D01*
Y14123D01*
X272976D01*
Y16682D01*
D02*
G37*
G36*
X266370D02*
X260760D01*
Y14123D01*
X266370D01*
Y16682D01*
D02*
G37*
G36*
X259776D02*
X254165D01*
Y14123D01*
X259776D01*
Y16682D01*
D02*
G37*
G36*
X47355Y14608D02*
X44796D01*
Y10769D01*
X47355D01*
Y14608D01*
D02*
G37*
G36*
X43812D02*
X41253D01*
Y10769D01*
X43812D01*
Y14608D01*
D02*
G37*
%LPD*%
G36*
X348031Y144591D02*
X347244Y143803D01*
Y142173D01*
X346870D01*
Y138138D01*
X342579D01*
Y137500D01*
X337434Y137500D01*
X333466Y137500D01*
Y142156D01*
X328151D01*
Y137500D01*
X319225Y137500D01*
X319225Y149114D01*
X348031Y149114D01*
Y144591D01*
D02*
G37*
G36*
X342579Y129673D02*
X346870D01*
Y125638D01*
X346935D01*
Y122952D01*
X347035Y122450D01*
X347320Y122024D01*
X348272Y121072D01*
X348698Y120787D01*
X349113Y120705D01*
X349412Y120406D01*
X350820D01*
Y119992D01*
X354679D01*
Y123358D01*
X361232D01*
X367347Y117243D01*
Y113774D01*
X334034D01*
Y123454D01*
X340761Y130182D01*
X340761D01*
X340761Y130182D01*
X340761Y130182D01*
X342579Y130182D01*
Y129673D01*
D02*
G37*
G36*
X319737Y34391D02*
Y28839D01*
X296556D01*
X294587Y26870D01*
X290429D01*
Y30925D01*
Y37372D01*
X292711D01*
Y37269D01*
X294947D01*
X295073Y37244D01*
X297178D01*
X297254Y37168D01*
X297677Y36885D01*
X297760Y36869D01*
X298177Y36786D01*
X300052D01*
X300468Y36869D01*
X300551Y36885D01*
X300974Y37168D01*
X301178Y37372D01*
X316756D01*
X319737Y34391D01*
D02*
G37*
G36*
X279596Y39000D02*
X279676Y39016D01*
X283262D01*
X283388Y39041D01*
X284793D01*
Y33601D01*
X286977Y31417D01*
Y26480D01*
X254745D01*
Y34132D01*
X257442Y36830D01*
X263933D01*
X267200Y33563D01*
X274613D01*
Y39075D01*
X279220D01*
X279596Y39000D01*
D02*
G37*
G36*
X172665Y33638D02*
X174849Y31455D01*
Y26517D01*
X142616D01*
Y34170D01*
X145314Y36867D01*
X151804D01*
X155071Y33600D01*
X162485D01*
Y39075D01*
X167384D01*
X167454Y39061D01*
X169029D01*
X169029Y39061D01*
X171134D01*
X171204Y39075D01*
X172665D01*
Y33638D01*
D02*
G37*
G36*
X207609Y34429D02*
Y28877D01*
X184428D01*
X182458Y26908D01*
X178300D01*
Y30962D01*
Y37860D01*
X180583D01*
Y37314D01*
X182819D01*
X182945Y37289D01*
X185049D01*
X185126Y37213D01*
X185549Y36930D01*
X185632Y36914D01*
X186048Y36831D01*
X188019D01*
X188435Y36914D01*
X188518Y36930D01*
X188941Y37213D01*
X189588Y37860D01*
X204177D01*
X207609Y34429D01*
D02*
G37*
D10*
X182945Y35050D02*
Y36822D01*
X177039Y39480D02*
X179697Y36822D01*
X182945D01*
D11*
X373079Y103826D02*
X385051Y91854D01*
X376688Y97712D02*
X387663Y86737D01*
X339043Y97712D02*
X376688D01*
X390845Y91854D02*
X390845Y91854D01*
X385051Y91854D02*
X390845D01*
X387663Y86737D02*
X395729D01*
X373079Y103826D02*
Y112116D01*
X315158Y99601D02*
X337154D01*
X311948D02*
X315158D01*
X311647Y120688D02*
X315158Y117177D01*
Y99601D02*
Y117177D01*
X311647Y120688D02*
Y133044D01*
X395729Y86737D02*
X400846Y91854D01*
X311371Y99024D02*
X311948Y99601D01*
X337154D02*
X339043Y97712D01*
X311371Y56585D02*
Y99024D01*
X186048Y38135D02*
X188019D01*
X189672Y39789D02*
X192202D01*
X188019Y38135D02*
X189672Y39789D01*
X187047Y40365D02*
X187100Y40418D01*
X182945Y40365D02*
X187047D01*
X185590Y38594D02*
X186048Y38135D01*
X182945Y38594D02*
X185590D01*
X185364Y42137D02*
X187193Y43966D01*
X182945Y42137D02*
X185364D01*
X187193Y43966D02*
X190135D01*
X350217Y125468D02*
Y128000D01*
Y125468D02*
X351022Y124662D01*
X364234D02*
X373079Y115817D01*
X351022Y124662D02*
X364234D01*
X295073Y40321D02*
X299213D01*
X299147Y40387D02*
X299213Y40321D01*
X91933Y141400D02*
X91972Y141439D01*
X91900Y141400D02*
X91933D01*
X96011Y141439D02*
X96050Y141479D01*
X96012Y213945D02*
Y214024D01*
X95971Y65137D02*
Y65216D01*
X348248Y133905D02*
Y139811D01*
X89901Y157099D02*
X90893Y158091D01*
X164483Y42137D02*
X171134D01*
X276611Y42092D02*
X283262D01*
X276611Y44185D02*
Y51481D01*
X306485Y43966D02*
X310828D01*
X306441Y43921D02*
X306546D01*
X299322D02*
X306441D01*
X352185Y127300D02*
X357808D01*
X352185Y140700D02*
X357861D01*
X90893Y158091D02*
X92853Y160052D01*
Y163202D01*
X294585Y46575D02*
X295073Y46086D01*
X288976Y46575D02*
X294585D01*
X279612Y40321D02*
X283262D01*
X279596Y40305D02*
X279612Y40321D01*
X86820Y294212D02*
Y294844D01*
X85620Y293012D02*
X86820Y294212D01*
X83640Y292418D02*
X84234Y293012D01*
X85620D01*
X83640Y290088D02*
Y292418D01*
X91805Y290097D02*
Y292428D01*
X90757Y293476D02*
X91805Y292428D01*
X90757Y293476D02*
Y295993D01*
X88788Y293476D02*
Y295993D01*
X87687Y292375D02*
X88788Y293476D01*
X87687Y290097D02*
Y292375D01*
X86909Y221761D02*
Y222393D01*
X85709Y220561D02*
X86909Y221761D01*
X83730Y219967D02*
X84324Y220561D01*
X85709D01*
X83730Y217637D02*
Y219967D01*
X91894Y217646D02*
Y219977D01*
X90846Y221025D02*
X91894Y219977D01*
X90846Y221025D02*
Y223542D01*
X88878Y221025D02*
Y223542D01*
X87777Y219924D02*
X88878Y221025D01*
X87777Y217646D02*
Y219924D01*
X86948Y149216D02*
Y149848D01*
X85748Y148016D02*
X86948Y149216D01*
X83768Y147422D02*
X84363Y148016D01*
X85748D01*
X83768Y145092D02*
Y147422D01*
X91933Y145101D02*
Y147432D01*
X90885Y148480D02*
X91933Y147432D01*
X90885Y148480D02*
Y150997D01*
X88916Y148480D02*
Y150997D01*
X87816Y147379D02*
X88916Y148480D01*
X87816Y145101D02*
Y147379D01*
X167454Y40365D02*
X169029D01*
X169029Y40365D01*
X171134D01*
Y40365D01*
X295073Y43864D02*
Y46086D01*
X306546Y43921D02*
X306576Y43891D01*
X306441Y43921D02*
X306485Y43966D01*
X86869Y72953D02*
Y73585D01*
X85669Y71754D02*
X86869Y72953D01*
X83689Y71159D02*
X84284Y71754D01*
X85669D01*
X83689Y68830D02*
Y71159D01*
X91854Y68838D02*
Y71169D01*
X90806Y72217D02*
X91854Y71169D01*
X90806Y72217D02*
Y74734D01*
X88837Y72217D02*
Y74734D01*
X87737Y71117D02*
X88837Y72217D01*
X87737Y68838D02*
Y71117D01*
X164483Y51526D02*
X164489D01*
X164483Y44230D02*
Y51526D01*
Y42137D02*
Y44230D01*
X194312Y43966D02*
X194387Y44041D01*
X190135Y43966D02*
X194312D01*
X182945Y43909D02*
Y48922D01*
X300566Y38549D02*
Y38605D01*
X301705Y39744D01*
X304331D01*
X295073Y38549D02*
X297718D01*
X298177Y38091D01*
X300052D01*
X300510Y38549D01*
X300566D01*
X276611Y42092D02*
Y44185D01*
Y51481D02*
X276617D01*
X295073Y42092D02*
X297493D01*
X299322Y43921D01*
X352185Y127300D02*
Y128000D01*
X357861Y135756D02*
Y140700D01*
X352185Y139811D02*
Y140700D01*
X352559Y147656D02*
X353015Y147200D01*
X352559Y147656D02*
Y155000D01*
X350217Y143626D02*
X350391Y143801D01*
X353015Y146511D02*
Y147200D01*
X350391Y143887D02*
X353015Y146511D01*
X350391Y143801D02*
Y143887D01*
X350217Y139811D02*
Y143626D01*
D12*
X75251Y79852D02*
G03*
X75152Y79754I0J-98D01*
G01*
X114022Y281195D02*
Y287595D01*
X112782Y281195D02*
X114022D01*
X110894Y273695D02*
X111422Y274224D01*
X114112Y208745D02*
Y215145D01*
X112871Y208745D02*
X114112D01*
X110983Y201245D02*
X111512Y201773D01*
X114150Y136199D02*
Y142599D01*
X112910Y136199D02*
X114150D01*
X111022Y128699D02*
X111550Y129228D01*
X114071Y59937D02*
Y66337D01*
X112831Y59937D02*
X114071D01*
X110943Y52437D02*
X111471Y52965D01*
X118822Y281195D02*
Y287595D01*
Y281195D02*
X120262D01*
X118912Y208745D02*
X120352D01*
X118912D02*
Y215145D01*
X118950Y136199D02*
Y142599D01*
Y136199D02*
X120391D01*
X118871Y59937D02*
Y66337D01*
Y59937D02*
X120311D01*
X138754Y281242D02*
Y295946D01*
X138844Y208791D02*
Y223495D01*
X138883Y136246D02*
Y150950D01*
X138804Y59983D02*
Y74687D01*
X95922Y290018D02*
Y292433D01*
X96012Y217567D02*
Y219982D01*
X96050Y145022D02*
Y147437D01*
X95971Y68760D02*
Y71174D01*
X352750Y122000D02*
X353015D01*
X349200D02*
X352750D01*
X143922Y79805D02*
X146331D01*
X114594Y287595D02*
X115027Y288028D01*
X118250Y287595D02*
X118822D01*
X117625Y288221D02*
Y293949D01*
Y288221D02*
X118250Y287595D01*
X115027Y288028D02*
Y293949D01*
X95330Y293025D02*
X95922Y292433D01*
X93724Y293025D02*
X95330D01*
X92725Y294024D02*
Y295993D01*
Y294024D02*
X93724Y293025D01*
X138754Y281242D02*
X139600Y280396D01*
X136786Y308150D02*
Y309085D01*
X135482Y313975D02*
X136695Y312762D01*
Y309176D02*
X136786Y309085D01*
X136695Y309176D02*
Y312762D01*
X142864Y313221D02*
Y319684D01*
X140723Y311080D02*
X142864Y313221D01*
X140723Y308150D02*
Y311080D01*
X131668Y305001D02*
Y310708D01*
X128677Y314011D02*
X128863Y313826D01*
Y313514D02*
X131668Y310708D01*
X128863Y313514D02*
Y313826D01*
X138754Y312324D02*
X140423Y313992D01*
X138754Y308150D02*
Y312324D01*
X148088Y312938D02*
Y316440D01*
X143872Y308722D02*
X148088Y312938D01*
X143872Y305001D02*
Y308722D01*
X134817Y308150D02*
Y310771D01*
X131668Y313921D02*
X134817Y310771D01*
X114022Y287595D02*
X114594D01*
X114122Y273984D02*
Y278355D01*
Y273984D02*
X114511Y273595D01*
X113452Y279025D02*
X114122Y278355D01*
X111422Y278335D02*
X111482Y278395D01*
X111422Y274224D02*
Y278335D01*
X114683Y215145D02*
X115116Y215578D01*
X118340Y215145D02*
X118912D01*
X117715Y215770D02*
Y221498D01*
Y215770D02*
X118340Y215145D01*
X115116Y215578D02*
Y221498D01*
X95419Y220575D02*
X96012Y219982D01*
X93814Y220575D02*
X95419D01*
X92815Y221573D02*
Y223542D01*
Y221573D02*
X93814Y220575D01*
X138844Y208791D02*
X139690Y207945D01*
X136875Y235700D02*
Y236634D01*
X135572Y241524D02*
X136785Y240311D01*
Y236725D02*
X136875Y236634D01*
X136785Y236725D02*
Y240311D01*
X142954Y240770D02*
Y247233D01*
X140812Y238629D02*
X142954Y240770D01*
X140812Y235700D02*
Y238629D01*
X131757Y232550D02*
Y238258D01*
X128767Y241561D02*
X128952Y241375D01*
Y241063D02*
X131757Y238258D01*
X128952Y241063D02*
Y241375D01*
X138844Y239873D02*
X140512Y241541D01*
X138844Y235700D02*
Y239873D01*
X148177Y240487D02*
Y243990D01*
X143962Y236272D02*
X148177Y240487D01*
X143962Y232550D02*
Y236272D01*
X134907Y235700D02*
Y238321D01*
X131757Y241470D02*
X134907Y238321D01*
X114112Y215145D02*
X114683D01*
X114212Y201534D02*
Y205904D01*
Y201534D02*
X114601Y201145D01*
X113541Y206575D02*
X114212Y205904D01*
X111512Y205885D02*
X111571Y205945D01*
X111512Y201773D02*
Y205885D01*
X114722Y142599D02*
X115155Y143032D01*
X118379Y142599D02*
X118950D01*
X117754Y143224D02*
Y148953D01*
Y143224D02*
X118379Y142599D01*
X115155Y143032D02*
Y148953D01*
X95458Y148029D02*
X96050Y147437D01*
X93852Y148029D02*
X95458D01*
X92853Y149028D02*
Y150997D01*
Y149028D02*
X93852Y148029D01*
X138883Y136246D02*
X139728Y135400D01*
X136914Y163154D02*
Y164089D01*
X135610Y168979D02*
X136824Y167766D01*
Y164180D02*
X136914Y164089D01*
X136824Y164180D02*
Y167766D01*
X142992Y168225D02*
Y174688D01*
X140851Y166084D02*
X142992Y168225D01*
X140851Y163154D02*
Y166084D01*
X131796Y160005D02*
Y165712D01*
X128806Y169015D02*
X128991Y168830D01*
Y168517D02*
X131796Y165712D01*
X128991Y168517D02*
Y168830D01*
X138883Y167327D02*
X140551Y168996D01*
X138883Y163154D02*
Y167327D01*
X148216Y167942D02*
Y171444D01*
X144001Y163726D02*
X148216Y167942D01*
X144001Y160005D02*
Y163726D01*
X134946Y163154D02*
Y165775D01*
X131796Y168925D02*
X134946Y165775D01*
X114150Y142599D02*
X114722D01*
X114250Y128988D02*
Y133359D01*
Y128988D02*
X114639Y128599D01*
X113580Y134029D02*
X114250Y133359D01*
X111550Y133339D02*
X111610Y133399D01*
X111550Y129228D02*
Y133339D01*
X140772Y89821D02*
X142913Y91962D01*
Y98425D01*
X135531Y92716D02*
X136745Y91503D01*
Y87917D02*
Y91503D01*
X136835Y86892D02*
Y87827D01*
X136745Y87917D02*
X136835Y87827D01*
X131717Y83742D02*
Y89450D01*
X128912Y92255D02*
X131717Y89450D01*
X128727Y92753D02*
X128912Y92567D01*
Y92255D02*
Y92567D01*
X134867Y86892D02*
Y89513D01*
X131717Y92662D02*
X134867Y89513D01*
X140772Y86892D02*
Y89821D01*
X143922Y87464D02*
X148137Y91679D01*
Y95182D01*
X114643Y66337D02*
X115076Y66770D01*
X118300Y66337D02*
X118871D01*
X117675Y66962D02*
Y72690D01*
Y66962D02*
X118300Y66337D01*
X115076Y66770D02*
Y72690D01*
X95379Y71767D02*
X95971Y71174D01*
X92774Y72766D02*
X93773Y71767D01*
X92774Y72766D02*
Y74734D01*
X93773Y71767D02*
X95379D01*
X82250Y94737D02*
Y94737D01*
X138804Y59983D02*
X139649Y59137D01*
X138804Y91065D02*
X140472Y92734D01*
X138804Y86892D02*
Y91065D01*
X143922Y83742D02*
Y87464D01*
X114071Y66337D02*
X114643D01*
X114171Y52726D02*
Y57097D01*
Y52726D02*
X114560Y52337D01*
X113501Y57767D02*
X114171Y57097D01*
X111471Y57077D02*
X111531Y57137D01*
X111471Y52965D02*
Y57077D01*
X348248Y122952D02*
X349200Y122000D01*
X348248Y122952D02*
Y128000D01*
D13*
X373079Y115817D02*
D03*
Y112116D02*
D03*
X91805Y290097D02*
D03*
Y286396D02*
D03*
X91894Y213945D02*
D03*
Y217646D02*
D03*
X91933Y145101D02*
D03*
Y141400D02*
D03*
X91854Y68838D02*
D03*
Y65137D02*
D03*
X87687Y290097D02*
D03*
Y286396D02*
D03*
X87777Y213945D02*
D03*
Y217646D02*
D03*
X87816Y145101D02*
D03*
Y141400D02*
D03*
X87737Y68838D02*
D03*
Y65137D02*
D03*
X190135Y47667D02*
D03*
Y43966D02*
D03*
X306576Y43891D02*
D03*
Y47591D02*
D03*
X192202Y39789D02*
D03*
Y36088D02*
D03*
X304331Y36043D02*
D03*
Y39744D02*
D03*
X182945Y48922D02*
D03*
Y52623D02*
D03*
X288976Y50276D02*
D03*
Y46575D02*
D03*
X417369Y102633D02*
D03*
Y98932D02*
D03*
X357861Y132055D02*
D03*
Y135756D02*
D03*
D14*
X336000Y69300D02*
D03*
Y55520D02*
D03*
D15*
X78510Y94737D02*
D03*
X82132D02*
D03*
X78589Y171000D02*
D03*
X82211D02*
D03*
X78550Y243545D02*
D03*
X82172D02*
D03*
X78461Y315996D02*
D03*
X82083D02*
D03*
D16*
X13429Y321029D02*
D03*
Y287959D02*
D03*
Y77959D02*
D03*
Y111030D02*
D03*
Y217959D02*
D03*
Y251029D02*
D03*
Y147959D02*
D03*
Y181029D02*
D03*
D17*
X35673Y304494D02*
D03*
Y94494D02*
D03*
Y234494D02*
D03*
Y164494D02*
D03*
D18*
X344311Y128000D02*
D03*
X346280D02*
D03*
X348248D02*
D03*
X350217D02*
D03*
X352185D02*
D03*
Y139811D02*
D03*
X350217D02*
D03*
X348248D02*
D03*
X346280D02*
D03*
X344311D02*
D03*
D19*
X348248Y133905D02*
D03*
D20*
X295073Y35006D02*
D03*
Y36777D02*
D03*
Y38549D02*
D03*
Y40321D02*
D03*
Y42092D02*
D03*
Y43864D02*
D03*
X283262D02*
D03*
Y42092D02*
D03*
Y40321D02*
D03*
Y38549D02*
D03*
Y36777D02*
D03*
Y35006D02*
D03*
X171134Y35050D02*
D03*
Y36822D02*
D03*
Y38594D02*
D03*
Y40365D02*
D03*
Y42137D02*
D03*
Y43909D02*
D03*
X182945D02*
D03*
Y42137D02*
D03*
Y40365D02*
D03*
Y38594D02*
D03*
Y36822D02*
D03*
Y35050D02*
D03*
D21*
X289168Y39435D02*
D03*
X177039Y39480D02*
D03*
D22*
X321800Y139999D02*
D03*
Y127401D02*
D03*
X172539Y29429D02*
D03*
Y16831D02*
D03*
X284668Y16786D02*
D03*
Y29384D02*
D03*
D23*
X254550Y358300D02*
D03*
X248250D02*
D03*
X157972Y52165D02*
D03*
X164272D02*
D03*
X270318Y51481D02*
D03*
X276617D02*
D03*
X358858Y155000D02*
D03*
X352559D02*
D03*
X88203Y25324D02*
D03*
X94502D02*
D03*
X38300Y23600D02*
D03*
X32001D02*
D03*
X38250Y366600D02*
D03*
X31950D02*
D03*
X136502Y358300D02*
D03*
X130202D02*
D03*
D24*
X361509Y127300D02*
D03*
X357808D02*
D03*
X194387Y44041D02*
D03*
X198088D02*
D03*
X314529Y43966D02*
D03*
X310828D02*
D03*
X357861Y140700D02*
D03*
X361561D02*
D03*
X356450Y122000D02*
D03*
X352750D02*
D03*
D25*
X89822Y80837D02*
D03*
X89772Y302095D02*
D03*
X89862Y229645D02*
D03*
X89901Y157099D02*
D03*
D26*
X95924Y83789D02*
D03*
Y81821D02*
D03*
Y79852D02*
D03*
Y77884D02*
D03*
X83719D02*
D03*
Y79852D02*
D03*
Y81821D02*
D03*
Y83789D02*
D03*
X95875Y305048D02*
D03*
Y303080D02*
D03*
Y301111D02*
D03*
Y299143D02*
D03*
X83670D02*
D03*
Y301111D02*
D03*
Y303080D02*
D03*
Y305048D02*
D03*
X83760Y232597D02*
D03*
Y230629D02*
D03*
Y228660D02*
D03*
Y226692D02*
D03*
X95964D02*
D03*
Y228660D02*
D03*
Y230629D02*
D03*
Y232597D02*
D03*
X96003Y160052D02*
D03*
Y158083D02*
D03*
Y156115D02*
D03*
Y154147D02*
D03*
X83798D02*
D03*
Y156115D02*
D03*
Y158083D02*
D03*
Y160052D02*
D03*
D27*
X92774Y74734D02*
D03*
X90806D02*
D03*
X88837D02*
D03*
X86869D02*
D03*
Y86939D02*
D03*
X88837D02*
D03*
X90806D02*
D03*
X92774D02*
D03*
X92725Y295993D02*
D03*
X90757D02*
D03*
X88788D02*
D03*
X86820D02*
D03*
Y308198D02*
D03*
X88788D02*
D03*
X90757D02*
D03*
X92725D02*
D03*
X92815Y235747D02*
D03*
X90846D02*
D03*
X88878D02*
D03*
X86909D02*
D03*
Y223542D02*
D03*
X88878D02*
D03*
X90846D02*
D03*
X92815D02*
D03*
X92853Y150997D02*
D03*
X90885D02*
D03*
X88916D02*
D03*
X86948D02*
D03*
Y163202D02*
D03*
X88916D02*
D03*
X90885D02*
D03*
X92853D02*
D03*
D28*
X143922Y77837D02*
D03*
Y79805D02*
D03*
Y81774D02*
D03*
Y83742D02*
D03*
X131717D02*
D03*
Y81774D02*
D03*
Y79805D02*
D03*
Y77837D02*
D03*
X143872Y299095D02*
D03*
Y301064D02*
D03*
Y303032D02*
D03*
Y305001D02*
D03*
X131668D02*
D03*
Y303032D02*
D03*
Y301064D02*
D03*
Y299095D02*
D03*
X131757Y226645D02*
D03*
Y228613D02*
D03*
Y230582D02*
D03*
Y232550D02*
D03*
X143962D02*
D03*
Y230582D02*
D03*
Y228613D02*
D03*
Y226645D02*
D03*
X144001Y154099D02*
D03*
Y156068D02*
D03*
Y158036D02*
D03*
Y160005D02*
D03*
X131796D02*
D03*
Y158036D02*
D03*
Y156068D02*
D03*
Y154099D02*
D03*
D29*
X140772Y86892D02*
D03*
X138804D02*
D03*
X136835D02*
D03*
X134867D02*
D03*
Y74687D02*
D03*
X136835D02*
D03*
X138804D02*
D03*
X140772D02*
D03*
X140723Y308150D02*
D03*
X138754D02*
D03*
X136786D02*
D03*
X134817D02*
D03*
Y295946D02*
D03*
X136786D02*
D03*
X138754D02*
D03*
X140723D02*
D03*
X140812Y223495D02*
D03*
X138844D02*
D03*
X136875D02*
D03*
X134907D02*
D03*
Y235700D02*
D03*
X136875D02*
D03*
X138844D02*
D03*
X140812D02*
D03*
X140851Y163154D02*
D03*
X138883D02*
D03*
X136914D02*
D03*
X134946D02*
D03*
Y150950D02*
D03*
X136914D02*
D03*
X138883D02*
D03*
X140851D02*
D03*
D30*
X137819Y80790D02*
D03*
X137770Y302048D02*
D03*
X137860Y229597D02*
D03*
X137898Y157052D02*
D03*
D31*
X70916Y154205D02*
D03*
X70837Y77942D02*
D03*
X155081Y299235D02*
D03*
X155171Y226785D02*
D03*
X155209Y154239D02*
D03*
X155130Y77977D02*
D03*
X70788Y299201D02*
D03*
X70878Y226750D02*
D03*
D32*
X71901Y154500D02*
D03*
X71822Y78237D02*
D03*
X156065Y299531D02*
D03*
X156155Y227080D02*
D03*
X156194Y154535D02*
D03*
X156115Y78272D02*
D03*
X71772Y299496D02*
D03*
X71862Y227045D02*
D03*
D33*
X71507Y156665D02*
D03*
X71428Y80403D02*
D03*
X155672Y301696D02*
D03*
X155761Y229245D02*
D03*
X155800Y156700D02*
D03*
X155721Y80437D02*
D03*
X71379Y301661D02*
D03*
X71468Y229211D02*
D03*
D34*
X75247Y153516D02*
D03*
Y156075D02*
D03*
Y158634D02*
D03*
X67767D02*
D03*
Y156075D02*
D03*
Y153516D02*
D03*
X67688Y77253D02*
D03*
Y79812D02*
D03*
Y82371D02*
D03*
X75168D02*
D03*
Y79812D02*
D03*
Y77253D02*
D03*
X159412Y298547D02*
D03*
Y301105D02*
D03*
Y303665D02*
D03*
X151932D02*
D03*
Y301105D02*
D03*
Y298547D02*
D03*
X159501Y226096D02*
D03*
Y228655D02*
D03*
Y231214D02*
D03*
X152021D02*
D03*
Y228655D02*
D03*
Y226096D02*
D03*
X159540Y153550D02*
D03*
Y156109D02*
D03*
Y158668D02*
D03*
X152060D02*
D03*
Y156109D02*
D03*
Y153550D02*
D03*
X151981Y77288D02*
D03*
Y79847D02*
D03*
Y82406D02*
D03*
X159461D02*
D03*
Y79847D02*
D03*
Y77288D02*
D03*
X75119Y298512D02*
D03*
Y301071D02*
D03*
Y303630D02*
D03*
X67639D02*
D03*
Y301071D02*
D03*
Y298512D02*
D03*
X75208Y226061D02*
D03*
Y228620D02*
D03*
Y231179D02*
D03*
X67728D02*
D03*
Y228620D02*
D03*
Y226061D02*
D03*
D35*
X122222Y77237D02*
D03*
Y79836D02*
D03*
X110529D02*
D03*
Y77237D02*
D03*
X110479Y298496D02*
D03*
Y301095D02*
D03*
X122172D02*
D03*
Y298496D02*
D03*
X110569Y226045D02*
D03*
Y228644D02*
D03*
X122262D02*
D03*
Y226045D02*
D03*
X110608Y153500D02*
D03*
Y156098D02*
D03*
X122301D02*
D03*
Y153500D02*
D03*
D36*
X117675Y84383D02*
D03*
X115076D02*
D03*
Y72690D02*
D03*
X117675D02*
D03*
X117625Y293949D02*
D03*
X115027D02*
D03*
Y305642D02*
D03*
X117625D02*
D03*
X117715Y221498D02*
D03*
X115116D02*
D03*
Y233191D02*
D03*
X117715D02*
D03*
X117754Y148953D02*
D03*
X115155D02*
D03*
Y160646D02*
D03*
X117754D02*
D03*
D37*
X116375Y78537D02*
D03*
X116326Y299795D02*
D03*
X116416Y227345D02*
D03*
X116454Y154799D02*
D03*
D38*
X120311Y58437D02*
D03*
X112831D02*
D03*
X112782Y279695D02*
D03*
X120262D02*
D03*
X120352Y207245D02*
D03*
X112871D02*
D03*
X112910Y134699D02*
D03*
X120391D02*
D03*
D39*
X316970Y23578D02*
D03*
Y31058D02*
D03*
X364567Y108366D02*
D03*
Y115847D02*
D03*
X148524Y34744D02*
D03*
Y42224D02*
D03*
X260268Y34809D02*
D03*
Y42289D02*
D03*
X204841Y23623D02*
D03*
Y31103D02*
D03*
D40*
X106516Y50804D02*
D03*
Y57104D02*
D03*
X94852Y272260D02*
D03*
Y278165D02*
D03*
X94942Y205715D02*
D03*
Y199809D02*
D03*
X94980Y127264D02*
D03*
Y133169D02*
D03*
X94901Y51001D02*
D03*
Y56907D02*
D03*
X106466Y272063D02*
D03*
Y278362D02*
D03*
X106556Y205911D02*
D03*
Y199612D02*
D03*
X106595Y127067D02*
D03*
Y133366D02*
D03*
D41*
X306299Y31398D02*
D03*
Y19587D02*
D03*
X161339Y17219D02*
D03*
Y29030D02*
D03*
X273468Y28985D02*
D03*
Y17174D02*
D03*
X148139Y17219D02*
D03*
Y29030D02*
D03*
X260268Y28985D02*
D03*
Y17174D02*
D03*
X194171Y19632D02*
D03*
Y31442D02*
D03*
D42*
X327148Y34956D02*
D03*
Y46767D02*
D03*
X345774Y104495D02*
D03*
Y116306D02*
D03*
X355542Y104495D02*
D03*
Y116306D02*
D03*
X334509Y158606D02*
D03*
Y146794D02*
D03*
X324609Y158606D02*
D03*
Y146794D02*
D03*
X344802D02*
D03*
Y158606D02*
D03*
X346254Y34956D02*
D03*
Y46767D02*
D03*
X336496Y34956D02*
D03*
Y46767D02*
D03*
D43*
X260554Y366800D02*
D03*
X248743D02*
D03*
X82199Y33890D02*
D03*
X94010D02*
D03*
X44304Y15100D02*
D03*
X32493D02*
D03*
X32495Y375200D02*
D03*
X44306D02*
D03*
X142506Y366800D02*
D03*
X130694D02*
D03*
D44*
X276611Y44185D02*
D03*
X269524D02*
D03*
X353015Y147200D02*
D03*
X360102D02*
D03*
X88061Y273047D02*
D03*
X80974D02*
D03*
X81063Y200596D02*
D03*
X88150D02*
D03*
X81102Y128051D02*
D03*
X88189D02*
D03*
X81023Y51789D02*
D03*
X88110D02*
D03*
X157396Y44230D02*
D03*
X164483D02*
D03*
D45*
X292468Y22535D02*
D03*
Y28835D02*
D03*
X337500Y109449D02*
D03*
Y115748D02*
D03*
X355842Y85161D02*
D03*
Y91460D02*
D03*
X180339Y28879D02*
D03*
Y22580D02*
D03*
D46*
X114760Y52378D02*
D03*
X118382D02*
D03*
X114711Y273636D02*
D03*
X118333D02*
D03*
X118423Y201185D02*
D03*
X114801D02*
D03*
X114839Y128640D02*
D03*
X118461D02*
D03*
D47*
X337108Y139400D02*
D03*
X330809D02*
D03*
X139600Y286496D02*
D03*
X145899D02*
D03*
X145989Y214045D02*
D03*
X139690D02*
D03*
X139728Y141500D02*
D03*
X146028D02*
D03*
X139649Y65237D02*
D03*
X145949D02*
D03*
X366339Y78740D02*
D03*
X372638D02*
D03*
X164689Y36830D02*
D03*
X158390D02*
D03*
X270518Y36785D02*
D03*
X276817D02*
D03*
D48*
X111387Y273638D02*
D03*
Y270094D02*
D03*
X111477Y197644D02*
D03*
Y201187D02*
D03*
X111516Y128642D02*
D03*
Y125098D02*
D03*
X111437Y52379D02*
D03*
Y48836D02*
D03*
X100634Y272213D02*
D03*
Y275756D02*
D03*
X100723Y203305D02*
D03*
Y199762D02*
D03*
X100762Y127217D02*
D03*
Y130760D02*
D03*
X100683Y50954D02*
D03*
Y54497D02*
D03*
X95922Y290018D02*
D03*
Y286475D02*
D03*
X96012Y214024D02*
D03*
Y217567D02*
D03*
X96050Y145022D02*
D03*
Y141479D02*
D03*
X95971Y68760D02*
D03*
Y65216D02*
D03*
X83570Y290018D02*
D03*
Y286475D02*
D03*
X83660Y214024D02*
D03*
Y217567D02*
D03*
X83698Y145022D02*
D03*
Y141479D02*
D03*
X83619Y68760D02*
D03*
Y65216D02*
D03*
D49*
X114594Y287595D02*
D03*
X111050D02*
D03*
X111140Y215145D02*
D03*
X114683D02*
D03*
X114722Y142599D02*
D03*
X111179D02*
D03*
X114643Y66337D02*
D03*
X111100D02*
D03*
X121794Y287595D02*
D03*
X118250D02*
D03*
X118340Y215145D02*
D03*
X121883D02*
D03*
X121922Y142599D02*
D03*
X118379D02*
D03*
X121843Y66337D02*
D03*
X118300D02*
D03*
X138950Y291196D02*
D03*
X142494D02*
D03*
X142583Y218745D02*
D03*
X139040D02*
D03*
X139079Y146200D02*
D03*
X142622D02*
D03*
X139000Y69937D02*
D03*
X142543D02*
D03*
D50*
X343865Y84473D02*
D03*
Y77386D02*
D03*
D51*
X334712Y77485D02*
D03*
Y89296D02*
D03*
X324843Y77671D02*
D03*
Y89482D02*
D03*
X246981Y47266D02*
D03*
Y59077D02*
D03*
D52*
X362793Y68601D02*
D03*
X374604D02*
D03*
X362829Y55116D02*
D03*
X374640D02*
D03*
X362886Y88661D02*
D03*
X374697D02*
D03*
D53*
X139600Y280396D02*
D03*
X145899D02*
D03*
X145989Y207945D02*
D03*
X139690D02*
D03*
X139728Y135400D02*
D03*
X146028D02*
D03*
X139649Y59137D02*
D03*
X145949D02*
D03*
D54*
X238414Y53073D02*
D03*
Y46774D02*
D03*
D61*
X159551Y309852D02*
G03*
X159412Y309713I0J-139D01*
G01*
X159491Y298467D02*
G03*
X159412Y298547I-79J0D01*
G01*
X159640Y237401D02*
G03*
X159501Y237262I0J-139D01*
G01*
X151932Y303665D02*
G03*
X152214Y303947I0J283D01*
G01*
X140146Y303032D02*
G03*
X137770Y302048I0J-3360D01*
G01*
X152135Y298343D02*
G03*
X151932Y298547I-204J0D01*
G01*
X137770Y302048D02*
G03*
X140723Y299095I2953J0D01*
G01*
X159679Y164856D02*
G03*
X159540Y164717I0J-139D01*
G01*
X152021Y231214D02*
G03*
X152304Y231497I0J283D01*
G01*
X140236Y230582D02*
G03*
X137860Y229597I0J-3360D01*
G01*
D02*
G03*
X140812Y226645I2953J0D01*
G01*
X159580Y226017D02*
G03*
X159501Y226096I-79J0D01*
G01*
X152225Y225892D02*
G03*
X152021Y226096I-204J0D01*
G01*
X152060Y158668D02*
G03*
X152342Y158951I0J283D01*
G01*
X140275Y158036D02*
G03*
X137898Y157052I0J-3360D01*
G01*
D02*
G03*
X140851Y154099I2953J0D01*
G01*
X159619Y153471D02*
G03*
X159540Y153550I-79J0D01*
G01*
X159600Y88593D02*
G03*
X159461Y88454I0J-139D01*
G01*
X152263Y153347D02*
G03*
X152060Y153550I-204J0D01*
G01*
X159540Y77209D02*
G03*
X159461Y77288I-79J0D01*
G01*
X151981Y82406D02*
G03*
X152263Y82689I0J283D01*
G01*
X140196Y81774D02*
G03*
X137819Y80790I0J-3360D01*
G01*
D02*
G03*
X140772Y77837I2953J0D01*
G01*
X152184Y77084D02*
G03*
X151981Y77288I-204J0D01*
G01*
X131668Y296222D02*
G03*
X131983Y295461I1077J0D01*
G01*
X92725Y305048D02*
G03*
X90765Y304303I0J-2953D01*
G01*
D02*
G03*
X89772Y302095I1961J-2208D01*
G01*
D02*
G03*
X88788Y303080I-984J0D01*
G01*
X89772Y302095D02*
G03*
X86820Y305048I-2953J0D01*
G01*
D02*
G03*
X88788Y303080I1969J0D01*
G01*
X92149D02*
G03*
X89772Y302095I0J-3360D01*
G01*
X131757Y223772D02*
G03*
X132073Y223010I1077J0D01*
G01*
X88916Y231810D02*
G03*
X86909Y232597I-2007J-2166D01*
G01*
X92238Y230629D02*
G03*
X92815Y231205I0J577D01*
G01*
X92238Y230629D02*
G03*
X89862Y229645I0J-3360D01*
G01*
D02*
G03*
X88878Y230629I-984J0D01*
G01*
X89862Y229645D02*
G03*
X88916Y231810I-2953J0D01*
G01*
X89862Y229645D02*
G03*
X92815Y226692I2953J0D01*
G01*
X86909D02*
G03*
X89862Y229645I0J2953D01*
G01*
X122516Y153284D02*
G03*
X122301Y153500I-216J0D01*
G01*
X116454Y154799D02*
G03*
X117754Y153500I1299J0D01*
G01*
X115155D02*
G03*
X116454Y154799I0J1299D01*
G01*
X110608Y153500D02*
G03*
X110104Y152996I0J-504D01*
G01*
X131796Y151226D02*
G03*
X132112Y150465I1077J0D01*
G01*
X122516Y148947D02*
G03*
X122222Y149242I-295J0D01*
G01*
X111100Y148708D02*
G03*
X110281Y149526I-818J0D01*
G01*
X89901Y157099D02*
G03*
X88916Y158083I-984J0D01*
G01*
X131717Y74964D02*
G03*
X132032Y74202I1077J0D01*
G01*
X92198Y81821D02*
G03*
X89822Y80837I0J-3360D01*
G01*
D02*
G03*
X88837Y81821I-984J0D01*
G01*
X75590Y162981D02*
G03*
X75247Y162152I829J-829D01*
G01*
X69963Y94737D02*
G03*
X69160Y94705I0J-10000D01*
G01*
X36170Y94700D02*
G03*
X35673Y94494I0J-703D01*
G01*
X143476Y295461D02*
G03*
X143872Y296418I-958J958D01*
G01*
X143565Y223010D02*
G03*
X143962Y223968I-958J958D01*
G01*
X143604Y150465D02*
G03*
X144001Y151422I-958J958D01*
G01*
X143525Y74202D02*
G03*
X143922Y75160I-958J958D01*
G01*
D62*
X88788Y311729D02*
G03*
X84522Y315995I-4266J0D01*
G01*
X88878Y239278D02*
G03*
X84611Y243545I-4266J0D01*
G01*
X88916Y166733D02*
G03*
X84650Y170999I-4266J0D01*
G01*
X88837Y90471D02*
G03*
X84571Y94737I-4266J0D01*
G01*
X68406Y315964D02*
G03*
X61335Y313035I0J-10000D01*
G01*
X48652Y304494D02*
G03*
X55723Y307423I0J10000D01*
G01*
X70003Y243545D02*
G03*
X69201Y243513I0J-10000D01*
G01*
X68155D02*
G03*
X61084Y240584I0J-10000D01*
G01*
X48567Y234494D02*
G03*
X58050Y237550I0J16240D01*
G01*
X72122Y171000D02*
G03*
X63482Y167419I0J-12212D01*
G01*
X56415Y164494D02*
G03*
X63482Y167419I0J10000D01*
G01*
D63*
X69914Y315996D02*
G03*
X69111Y315964I0J-10000D01*
G01*
X241128Y156200D02*
X241300D01*
X241045Y156117D02*
X241128Y156200D01*
X241273Y228627D02*
X241300Y228600D01*
X160895Y156085D02*
X161258D01*
X161290Y156117D01*
X241186Y301098D02*
X241269Y301181D01*
X241232Y79884D02*
X241269Y79921D01*
X68406Y315964D02*
X69111D01*
X68155Y243513D02*
X69201D01*
X48560Y234494D02*
X48567Y234494D01*
X72122Y171000D02*
X72129Y171000D01*
X151926Y301111D02*
X151932Y301105D01*
X110463Y301111D02*
X110479Y301095D01*
X110554Y228628D02*
X110569Y228644D01*
X75208Y228620D02*
X75249Y228660D01*
X110512Y79852D02*
X110529Y79836D01*
X146331Y79805D02*
X146362Y79837D01*
X82201Y315995D02*
Y315996D01*
X82290Y243545D02*
Y243545D01*
X82329Y170999D02*
Y171000D01*
D64*
X69963Y94700D02*
X78371D01*
X69160D02*
X69963D01*
X68455D02*
X69160D01*
X161290Y156117D02*
X241045D01*
X160368Y228627D02*
X241273D01*
X160278Y301098D02*
X241186D01*
X160327Y79884D02*
X241232D01*
X88788Y310921D02*
Y311729D01*
X82201Y315995D02*
X84522D01*
X88878Y238321D02*
Y239278D01*
X82290Y243545D02*
X84611D01*
X88916Y165712D02*
Y166733D01*
X82329Y170999D02*
X84650D01*
X88837Y89565D02*
Y90471D01*
X82250Y94737D02*
X84571D01*
X98675Y156079D02*
X110608D01*
X75251Y79852D02*
X80905D01*
X146548Y228645D02*
X152021D01*
X146548Y156099D02*
X152060D01*
X146362Y79837D02*
X151981D01*
X69914Y315996D02*
X78342D01*
X55723Y307423D02*
X61335Y313035D01*
X35673Y304494D02*
X48652D01*
X70003Y243545D02*
X78432D01*
X58050Y237550D02*
X61084Y240584D01*
X35673Y164494D02*
X56415D01*
X69963Y94737D02*
X78392D01*
X36170Y94700D02*
X68455D01*
X72129Y171000D02*
X78471D01*
X146282Y301111D02*
X151926D01*
X97930D02*
X110463D01*
X75202D02*
X81063D01*
X98045Y228628D02*
X110554D01*
X75249Y228660D02*
X81063D01*
X98902Y79852D02*
X110512D01*
X75330Y156115D02*
X81063D01*
X35673Y234494D02*
X48560D01*
X122388Y301064D02*
X128952D01*
X122477Y228613D02*
X128991D01*
X122516Y156068D02*
X128991D01*
X122437Y79805D02*
X128806D01*
D65*
X71428Y77253D02*
Y80403D01*
X95924Y86939D02*
X98096D01*
X71468Y226061D02*
Y229211D01*
X71379Y298512D02*
Y301661D01*
X151932Y298547D02*
X159412D01*
Y303665D02*
Y309713D01*
X159491Y295205D02*
Y298467D01*
X151932Y303665D02*
X159412D01*
X140146Y303032D02*
X143872D01*
X136786D02*
X137770Y302048D01*
X152135Y295551D02*
Y298343D01*
X140723Y299095D02*
X143872D01*
X159580Y222755D02*
Y226017D01*
X159501Y231214D02*
Y237262D01*
X152021Y231214D02*
X159501D01*
X140236Y230582D02*
X143962D01*
X140812Y226645D02*
X143962D01*
X136875Y230582D02*
X137860Y229597D01*
X152021Y226096D02*
X159501D01*
X152225Y223100D02*
Y225892D01*
X159540Y158668D02*
Y164717D01*
X152060Y158668D02*
X159540D01*
X140275Y158036D02*
X144001D01*
X136914D02*
X137898Y157052D01*
X140851Y154099D02*
X144001D01*
X159619Y150209D02*
Y153471D01*
X152060Y153550D02*
X159540D01*
X159461Y82406D02*
Y88454D01*
X152263Y150555D02*
Y153347D01*
X159540Y73947D02*
Y77209D01*
X151981Y82406D02*
X159461D01*
X151981Y77288D02*
X159461D01*
X140196Y81774D02*
X143922D01*
X140772Y77837D02*
X143922D01*
X136835Y81774D02*
X137819Y80790D01*
X152184Y74293D02*
Y77084D01*
X134817Y299095D02*
X137770Y302048D01*
X117625Y298496D02*
X122172D01*
X110479D02*
X115027D01*
X131668Y296222D02*
Y299095D01*
X122172Y294612D02*
Y298496D01*
X92725Y305048D02*
X95875D01*
X92725D02*
Y308198D01*
X90765Y304303D02*
Y308190D01*
X92725Y303656D02*
Y305048D01*
X90765Y303087D02*
Y304303D01*
X83670Y303080D02*
X88788D01*
X92149D02*
X95875D01*
X92149D02*
X92725Y303656D01*
X95875Y295339D02*
Y299143D01*
X89772Y302095D02*
X90765Y303087D01*
X83771Y299143D02*
X94911D01*
X134907Y226645D02*
X137860Y229597D01*
X110569Y226045D02*
X122262D01*
X131757Y223772D02*
Y226645D01*
X122516Y219780D02*
Y226045D01*
X90854Y232597D02*
X92815D01*
Y231205D02*
Y232597D01*
X90854Y230637D02*
Y232597D01*
X88916D02*
X90854D01*
X88916Y231810D02*
Y232597D01*
X95964Y223057D02*
Y226692D01*
X92815D02*
X95964D01*
X92238Y230629D02*
X95964D01*
X89862Y229645D02*
X90854Y230637D01*
X83760Y230629D02*
X88878D01*
X86820Y305048D02*
Y308198D01*
X83670Y305048D02*
X86820D01*
X71379Y303630D02*
X75119D01*
X71379D02*
Y307123D01*
Y301661D02*
Y303630D01*
X75119Y294710D02*
Y298512D01*
X71379D02*
X75119D01*
X71379Y293804D02*
Y298512D01*
X67639Y303630D02*
X71379D01*
X67639Y298512D02*
X71379D01*
X83760Y232597D02*
X86909D01*
Y235747D01*
X82999D02*
X86909D01*
X71468Y231179D02*
X75208D01*
X83760Y226692D02*
X86909D01*
X83760Y222505D02*
Y226692D01*
X71468Y231179D02*
Y236595D01*
Y226061D02*
X75208D01*
X71468Y229211D02*
Y231179D01*
X75208Y220753D02*
Y226061D01*
X71468Y219575D02*
Y226061D01*
X67728Y231179D02*
X71468D01*
X67728Y226061D02*
X71468D01*
X134946Y154099D02*
X137898Y157052D01*
X117754Y153500D02*
X122301D01*
X110608D02*
X115155D01*
X131796Y151226D02*
Y154099D01*
X122516Y148947D02*
Y153284D01*
X110104Y149526D02*
X110281D01*
X110104D02*
Y152996D01*
X83798Y158083D02*
X88916D01*
X86948Y154147D02*
X89901Y157099D01*
X92853Y154147D01*
X134867Y77837D02*
X137819Y80790D01*
X131717Y74964D02*
Y77837D01*
X116375Y77237D02*
X122222D01*
X110529D02*
X116375D01*
X122222Y73484D02*
Y77237D01*
X92853Y83789D02*
Y86939D01*
X92198Y81821D02*
X92853D01*
Y83789D01*
X86869D02*
X89822D01*
X86869D02*
X88837Y81821D01*
X90814Y83789D02*
X92853D01*
X90814Y81829D02*
Y83789D01*
X89822D02*
X90814D01*
X83719Y81821D02*
X88837D01*
X89822Y80837D01*
X95924Y74250D02*
Y77884D01*
X89901D02*
X95924D01*
X89822Y80837D02*
X90814Y81829D01*
X89822Y80837D02*
Y83789D01*
Y77837D02*
Y80837D01*
X85464Y77837D02*
X89822D01*
X71507Y158634D02*
Y164049D01*
X75247Y158634D02*
Y162152D01*
X71507Y158634D02*
X75247D01*
X71507Y156665D02*
Y158634D01*
X75247Y148344D02*
Y153516D01*
X71507D02*
Y156665D01*
Y149028D02*
Y153516D01*
X67767Y158634D02*
X71507D01*
Y153516D02*
X75247D01*
X67767D02*
X71507D01*
X71428Y82371D02*
X75168D01*
X71428D02*
Y85973D01*
Y80403D02*
Y82371D01*
X85464Y77837D02*
Y77884D01*
X83936Y74250D02*
Y77884D01*
X75168Y72676D02*
Y77253D01*
X71428D02*
X75168D01*
X67688Y82371D02*
X71428D01*
Y73264D02*
Y77253D01*
X67688D02*
X71428D01*
X68455Y94705D02*
X69160D01*
X143872Y301064D02*
X146234D01*
X146282Y301111D01*
X128952Y301064D02*
X131668D01*
X95875Y301111D02*
X97930D01*
X81063D02*
X83670D01*
X88788Y308198D02*
Y310921D01*
X128991Y228613D02*
X131757D01*
X143962D02*
X146517D01*
X146548Y228645D01*
X96752Y228660D02*
X98013D01*
X98045Y228628D01*
X95964Y228660D02*
X96752D01*
X96752Y228660D01*
X81063Y228660D02*
X83760D01*
X88878Y235747D02*
Y238321D01*
X159461Y79847D02*
X159477Y79831D01*
X128806Y79805D02*
X131717D01*
X88837Y86939D02*
Y89565D01*
X80905Y79852D02*
X83719D01*
X95924D02*
X98902D01*
X81063Y156115D02*
X83798D01*
X88916Y163202D02*
Y165712D01*
X96003Y156115D02*
X98640D01*
X98675Y156079D01*
X128991Y156068D02*
X131796D01*
X144001D02*
X146517D01*
X146548Y156099D01*
X71507Y149028D02*
X72708D01*
Y148939D02*
Y149028D01*
X92725Y308198D02*
X95875D01*
X96562D01*
X95875Y305048D02*
Y308198D01*
Y308540D01*
X321870Y260833D02*
X350560D01*
X319791Y252430D02*
X342203D01*
X152263Y82689D02*
Y86726D01*
X131717Y81774D02*
X136835D01*
X131717Y77837D02*
X134867D01*
X95924Y81821D02*
Y83789D01*
X143922Y75160D02*
Y77837D01*
X83719Y81821D02*
Y83789D01*
X82959Y86718D02*
Y86939D01*
X86869D01*
X82959Y86718D02*
X83719D01*
Y83789D02*
Y86718D01*
X90806Y86939D02*
X90814Y86931D01*
X152342Y158951D02*
Y162988D01*
X160878Y156102D02*
X160895Y156085D01*
X159540Y156109D02*
X159548Y156102D01*
X160878D01*
X144001Y151422D02*
Y154099D01*
X131796Y158036D02*
X136914D01*
X131796Y154099D02*
X134946D01*
X90885Y163202D02*
X90893Y163194D01*
X96003Y158083D02*
Y160052D01*
X83038Y162981D02*
Y163202D01*
X83798Y158083D02*
Y160052D01*
X83038Y162981D02*
X83798D01*
X83038Y163202D02*
X86948D01*
X83798Y160052D02*
Y162981D01*
X152304Y231497D02*
Y235533D01*
X143962Y223968D02*
Y226645D01*
X131757Y230582D02*
X136875D01*
X131757Y226645D02*
X134907D01*
X90846Y235747D02*
X90854Y235739D01*
X95964Y230629D02*
Y232597D01*
X83760D02*
Y235526D01*
X82999D02*
Y235747D01*
X83760Y230629D02*
Y232597D01*
X82999Y235526D02*
X83760D01*
X152214Y303947D02*
Y307984D01*
X143872Y296418D02*
Y299095D01*
X131668Y303032D02*
X136786D01*
X131668Y299095D02*
X134817D01*
X90757Y308198D02*
X90765Y308190D01*
X95875Y303080D02*
Y305048D01*
X82910Y307977D02*
Y308198D01*
Y307977D02*
X83670D01*
Y303080D02*
Y305048D01*
X82910Y308198D02*
X86820D01*
X83670Y305048D02*
Y307977D01*
X75208Y231179D02*
Y234708D01*
X75590D01*
X83719Y83789D02*
X86869D01*
X96003Y160052D02*
Y162501D01*
X95909Y235534D02*
X95964D01*
X92815Y235747D02*
X95909D01*
X75119Y303630D02*
Y307968D01*
X92853Y163202D02*
X95302D01*
X96003Y162501D01*
X95795Y223057D02*
X95964D01*
X71090Y219575D02*
X71468D01*
X83760Y222505D02*
X83825Y222439D01*
X74450Y220753D02*
X75208D01*
X83907Y150620D02*
Y154139D01*
Y150620D02*
X84015Y150512D01*
X96562Y308198D02*
X97087Y308722D01*
X75247Y148344D02*
X75356D01*
X110529Y73947D02*
Y77237D01*
X71428Y85973D02*
X71605D01*
X95964Y232597D02*
Y235534D01*
X115027Y298496D02*
X116326Y299795D01*
X71090Y236595D02*
X71468D01*
X83899Y154147D02*
X83907Y154139D01*
X75103Y307984D02*
X75119Y307968D01*
X75168Y82371D02*
Y86892D01*
X77214D01*
X74450Y72676D02*
X75168D01*
X90846Y235747D02*
X92815D01*
X110569Y219924D02*
Y226045D01*
X98096Y86718D02*
Y86939D01*
X95924Y83789D02*
Y86939D01*
X108904Y219924D02*
X110569D01*
X92774Y86939D02*
X92853D01*
X90814Y83789D02*
Y86931D01*
X122262Y226045D02*
X122516D01*
X90854Y232597D02*
Y235739D01*
X71507Y164049D02*
X72708D01*
X92815Y232597D02*
X95964D01*
X92815D02*
Y235747D01*
X83779Y295617D02*
X83887Y295508D01*
X83779Y295617D02*
Y299135D01*
X116375Y77237D02*
Y78537D01*
X92853Y154147D02*
X96003D01*
X90893Y158091D02*
Y163194D01*
X95909Y235534D02*
Y235747D01*
X70866Y73264D02*
X71428D01*
X71051Y293476D02*
X71379Y293804D01*
X110479Y294550D02*
Y298496D01*
X83771Y299143D02*
X83779Y299135D01*
X83670Y299143D02*
X83771D01*
X116326Y299795D02*
X117625Y298496D01*
X85294Y77837D02*
X85464D01*
X83936Y77884D02*
X85464D01*
X96003Y150473D02*
Y154147D01*
X83899D02*
X86948D01*
X83798D02*
X83899D01*
X96003Y150473D02*
X96012Y150465D01*
X95330Y309085D02*
X95875Y308540D01*
X95705Y295508D02*
X95875Y295339D01*
X89759Y77742D02*
X89901Y77884D01*
X121843Y73484D02*
X122222D01*
X121843Y72337D02*
Y73484D01*
X83719Y77884D02*
X83936D01*
X90806Y86939D02*
X92774D01*
X92853Y81821D02*
X95924D01*
X92853Y83789D02*
X95924D01*
X92853Y86939D02*
X95924D01*
X95755Y74250D02*
X95924D01*
X122172Y294612D02*
X122262Y294522D01*
X75119Y294710D02*
X75590Y294238D01*
X86820Y295205D02*
Y295993D01*
X83570Y290018D02*
X83640Y290088D01*
X86909Y222755D02*
Y223542D01*
X83660Y217567D02*
X83730Y217637D01*
X86948Y150209D02*
Y150997D01*
X83698Y145022D02*
X83768Y145092D01*
X86869Y73947D02*
Y74734D01*
X83619Y68760D02*
X83689Y68830D01*
D66*
X344589Y51734D02*
Y57542D01*
X344653Y46767D02*
Y51734D01*
X336151Y46767D02*
Y53605D01*
X327713Y47332D02*
Y57542D01*
X112822Y278395D02*
X113452Y279025D01*
X111482Y278395D02*
X112822D01*
X112912Y205945D02*
X113541Y206575D01*
X111571Y205945D02*
X112912D01*
X112950Y133399D02*
X113580Y134029D01*
X111610Y133399D02*
X112950D01*
X112871Y57137D02*
X113501Y57767D01*
X111531Y57137D02*
X112871D01*
X336151Y71518D02*
X341110D01*
X342746D01*
X327201Y71776D02*
Y77671D01*
X334631Y71518D02*
X336151D01*
X334631Y71776D02*
Y77404D01*
Y71518D02*
Y71776D01*
X327201Y71284D02*
Y71776D01*
X105885Y272260D02*
X106077Y272452D01*
X105974Y199809D02*
X106167Y200001D01*
X106013Y127264D02*
X106205Y127456D01*
X105934Y51001D02*
X106126Y51193D01*
X94852Y272260D02*
X105885D01*
X94942Y199809D02*
X105974D01*
X87880Y272260D02*
X94852D01*
X87969Y199809D02*
X94942D01*
X94980Y127264D02*
X106013D01*
X94901Y51001D02*
X105934D01*
X88008Y127264D02*
X94980D01*
X87929Y51001D02*
X94901D01*
X94010Y33268D02*
X94502D01*
X13429Y21701D02*
X14175Y22447D01*
X13429Y370464D02*
X14666Y371701D01*
X248250Y365354D02*
X248743Y365846D01*
X247463Y364567D02*
X248250Y365354D01*
Y366308D01*
Y358300D02*
Y365354D01*
X87687Y272452D02*
X87880Y272260D01*
X106077Y272452D02*
X106466Y272063D01*
X106972Y278395D02*
X111482D01*
X87777Y200001D02*
X87969Y199809D01*
X106167Y200001D02*
X106556Y199612D01*
X107061Y205945D02*
X111571D01*
X87816Y127456D02*
X88008Y127264D01*
X106205Y127456D02*
X106595Y127067D01*
X107100Y133399D02*
X111610D01*
X87737Y51193D02*
X87929Y51001D01*
X106126Y51193D02*
X106516Y50804D01*
X107021Y57137D02*
X111531D01*
X26931Y371701D02*
Y374047D01*
Y367753D02*
Y371701D01*
X14666D02*
X26931D01*
X28084Y366600D02*
X31950D01*
X26931Y367753D02*
X28084Y366600D01*
X26931Y374047D02*
X28084Y375200D01*
X32495D01*
X27003Y21701D02*
Y22447D01*
Y16253D02*
Y21701D01*
X14175Y22447D02*
X17382D01*
X18128Y21701D01*
X27003D01*
X28157Y15100D02*
X32493D01*
X27003Y22447D02*
X28157Y23600D01*
X27003Y16253D02*
X28157Y15100D01*
Y23600D02*
X32001D01*
X94502Y32776D02*
X95290Y31988D01*
X94502Y32776D02*
Y33268D01*
Y25324D02*
Y32776D01*
X109744Y31988D02*
X111811Y29921D01*
X95290Y31988D02*
X109744D01*
X229921Y364567D02*
X247463D01*
X248743Y365846D02*
Y366800D01*
X248250Y366308D02*
X248743Y366800D01*
X130202Y366308D02*
X130694Y366800D01*
X128461Y364567D02*
X130202Y366308D01*
X111811Y364567D02*
X128461D01*
X130202Y358300D02*
Y366308D01*
X334631Y77404D02*
X334712Y77485D01*
X343632Y77153D02*
X343865Y77386D01*
X343632Y72404D02*
Y77153D01*
X342746Y71518D02*
X343632Y72404D01*
X344589Y51734D02*
X344653D01*
Y46767D02*
X346254D01*
X336151D02*
X336496D01*
X327148D02*
X327713Y47332D01*
X229921Y33563D02*
X238414Y42056D01*
X229921Y29921D02*
Y33563D01*
X238414Y42056D02*
Y46774D01*
X238906Y47266D01*
X246981D01*
D67*
X14000Y21701D02*
D03*
Y371701D02*
D03*
D68*
X229921Y364567D02*
D03*
X111811Y29921D02*
D03*
X229921D02*
D03*
X111811Y364567D02*
D03*
D69*
X400846Y31854D02*
D03*
X390846D02*
D03*
X400846Y41854D02*
D03*
X390846D02*
D03*
X400846Y51854D02*
D03*
X390846D02*
D03*
Y111854D02*
D03*
X400846D02*
D03*
X390846Y121854D02*
D03*
X400846D02*
D03*
X390846Y131854D02*
D03*
X400846D02*
D03*
Y141854D02*
D03*
X390846D02*
D03*
X400846Y151854D02*
D03*
X390846D02*
D03*
Y61854D02*
D03*
X400846D02*
D03*
X390846Y71854D02*
D03*
X400846D02*
D03*
X390846Y81854D02*
D03*
X400846D02*
D03*
Y91854D02*
D03*
X390846D02*
D03*
X400846Y101854D02*
D03*
X390846D02*
D03*
D70*
X367811Y82480D02*
D03*
X366339Y78740D02*
D03*
X345079Y132283D02*
D03*
X348228D02*
D03*
X301411Y125977D02*
D03*
X301283Y270973D02*
D03*
X294491Y270678D02*
D03*
X187100Y40418D02*
D03*
X372638Y78740D02*
D03*
X311371Y56585D02*
D03*
X311647Y133044D02*
D03*
X311609Y205590D02*
D03*
X311519Y278040D02*
D03*
X315158Y43613D02*
D03*
X299147Y40387D02*
D03*
X91800Y286400D02*
D03*
X91900Y213900D02*
D03*
Y141400D02*
D03*
X91854Y65137D02*
D03*
X241300Y156200D02*
D03*
Y228600D02*
D03*
X241269Y301181D02*
D03*
Y79921D02*
D03*
X66831Y162795D02*
D03*
X80974Y273047D02*
D03*
X81023Y51789D02*
D03*
X224970Y271615D02*
D03*
X42815Y241535D02*
D03*
X41732Y311417D02*
D03*
X43406Y298031D02*
D03*
X351378Y135433D02*
D03*
Y132283D02*
D03*
X349803Y133858D02*
D03*
X346654D02*
D03*
X345079Y135433D02*
D03*
X348228D02*
D03*
X178883Y181417D02*
D03*
X156773Y177100D02*
D03*
X140157Y174500D02*
D03*
X145571Y168996D02*
D03*
X240677Y128204D02*
D03*
X251919Y136101D02*
D03*
X239802Y140455D02*
D03*
X270628Y178503D02*
D03*
X243226Y185328D02*
D03*
X209681Y170775D02*
D03*
X191793Y179350D02*
D03*
X193907Y185811D02*
D03*
X221184Y169707D02*
D03*
X221784Y186078D02*
D03*
X221420Y206076D02*
D03*
X240978Y201324D02*
D03*
X240051Y212475D02*
D03*
X251898Y208393D02*
D03*
X214224Y204453D02*
D03*
X205424Y204408D02*
D03*
X306991Y274418D02*
D03*
X95922Y286475D02*
D03*
X96050Y141479D02*
D03*
X95971Y65216D02*
D03*
X100683Y54497D02*
D03*
X94901Y56907D02*
D03*
X111437Y48836D02*
D03*
X111477Y197644D02*
D03*
X96012Y214024D02*
D03*
X111387Y270094D02*
D03*
X307081Y201968D02*
D03*
X301372Y198523D02*
D03*
X254550Y358300D02*
D03*
X260554Y366800D02*
D03*
X38250Y366600D02*
D03*
X44306Y375200D02*
D03*
X136502Y358300D02*
D03*
X142506Y366800D02*
D03*
X100634Y275756D02*
D03*
X94852Y278165D02*
D03*
X94942Y205715D02*
D03*
X100723Y203305D02*
D03*
X81063Y200596D02*
D03*
X111516Y125098D02*
D03*
X100762Y130760D02*
D03*
X94980Y133169D02*
D03*
X81102Y128051D02*
D03*
X88203Y25324D02*
D03*
X82199Y33890D02*
D03*
X44304Y15100D02*
D03*
X38300Y23600D02*
D03*
X196161Y19587D02*
D03*
X192224D02*
D03*
X150098Y17224D02*
D03*
X146161D02*
D03*
X159350D02*
D03*
X163287D02*
D03*
X172539Y16831D02*
D03*
X180339Y22580D02*
D03*
X182945Y52623D02*
D03*
X158390Y36830D02*
D03*
X157396Y44230D02*
D03*
X157972Y52165D02*
D03*
X308268Y19587D02*
D03*
X304331D02*
D03*
X275394Y17126D02*
D03*
X271457D02*
D03*
X292468Y22535D02*
D03*
X284668Y16786D02*
D03*
X270518Y36785D02*
D03*
X269524Y44185D02*
D03*
X270318Y51481D02*
D03*
X262205Y17126D02*
D03*
X258268D02*
D03*
X288976Y50276D02*
D03*
X301135Y49518D02*
D03*
X306844Y52963D02*
D03*
X358957Y155020D02*
D03*
X360204Y147244D02*
D03*
X361509Y127300D02*
D03*
X330809Y139400D02*
D03*
X336221Y158661D02*
D03*
X326083D02*
D03*
X322933D02*
D03*
X333071D02*
D03*
X346358D02*
D03*
X343110D02*
D03*
X324508Y168602D02*
D03*
X357480Y104528D02*
D03*
X353543D02*
D03*
X347736D02*
D03*
X343799D02*
D03*
X337500Y109449D02*
D03*
X330709Y102362D02*
D03*
X334646Y133858D02*
D03*
X311024Y118110D02*
D03*
X267717Y106299D02*
D03*
X248031D02*
D03*
X299213Y62992D02*
D03*
X366142Y31496D02*
D03*
X200787Y62992D02*
D03*
X181102Y66929D02*
D03*
X169291Y62992D02*
D03*
X153543D02*
D03*
X129921Y43307D02*
D03*
Y62992D02*
D03*
X55118Y70866D02*
D03*
Y51181D02*
D03*
X74803D02*
D03*
Y31496D02*
D03*
X55118D02*
D03*
X35433D02*
D03*
Y51181D02*
D03*
Y70866D02*
D03*
X125984Y240158D02*
D03*
X106299D02*
D03*
X125984Y90551D02*
D03*
X106299D02*
D03*
X287402Y114173D02*
D03*
Y129921D02*
D03*
X267717D02*
D03*
Y118110D02*
D03*
X248031D02*
D03*
X228346D02*
D03*
X208661D02*
D03*
X200787Y141732D02*
D03*
X181102D02*
D03*
X188976Y129921D02*
D03*
Y118110D02*
D03*
X137795D02*
D03*
X157480D02*
D03*
X169291D02*
D03*
Y137795D02*
D03*
X157480D02*
D03*
X129921D02*
D03*
X125984Y129921D02*
D03*
Y110236D02*
D03*
X106299D02*
D03*
X86614D02*
D03*
X66929Y114173D02*
D03*
Y129921D02*
D03*
X55118Y145669D02*
D03*
Y129921D02*
D03*
Y114173D02*
D03*
X35433D02*
D03*
Y129921D02*
D03*
Y145669D02*
D03*
X125984Y169291D02*
D03*
X106299D02*
D03*
X196850Y216535D02*
D03*
X177165D02*
D03*
X173228Y196850D02*
D03*
X153543D02*
D03*
Y208661D02*
D03*
X129921Y212598D02*
D03*
X133858Y188976D02*
D03*
X118110D02*
D03*
X98425D02*
D03*
X86614Y208661D02*
D03*
X66929Y200787D02*
D03*
Y220472D02*
D03*
X55118D02*
D03*
Y200787D02*
D03*
Y181102D02*
D03*
X35433D02*
D03*
Y200787D02*
D03*
Y220472D02*
D03*
X196850Y283465D02*
D03*
X177165Y291339D02*
D03*
X157480Y287402D02*
D03*
X196850Y267717D02*
D03*
X177165D02*
D03*
X157480D02*
D03*
X137795D02*
D03*
X125984Y291339D02*
D03*
X133858D02*
D03*
X129921Y283465D02*
D03*
X125984Y263779D02*
D03*
Y251969D02*
D03*
X102362Y248031D02*
D03*
Y263779D02*
D03*
X82677D02*
D03*
Y279528D02*
D03*
X74803Y267717D02*
D03*
X62992Y299213D02*
D03*
X55118Y287402D02*
D03*
Y267717D02*
D03*
Y248031D02*
D03*
X35433D02*
D03*
Y267717D02*
D03*
Y287402D02*
D03*
X153543Y322835D02*
D03*
X141732D02*
D03*
X122047Y314961D02*
D03*
X110236D02*
D03*
X98425Y318898D02*
D03*
X51181D02*
D03*
X35433D02*
D03*
X23622Y358268D02*
D03*
X0D02*
D03*
Y338583D02*
D03*
Y271654D02*
D03*
Y200787D02*
D03*
Y129921D02*
D03*
Y59055D02*
D03*
Y39370D02*
D03*
X11811Y35433D02*
D03*
X27559Y31496D02*
D03*
Y11811D02*
D03*
X51181D02*
D03*
X70866D02*
D03*
X90551D02*
D03*
X110236D02*
D03*
X129921D02*
D03*
X149606D02*
D03*
X169291D02*
D03*
X188976D02*
D03*
X208661D02*
D03*
X228346D02*
D03*
X248031D02*
D03*
X267717D02*
D03*
X287402D02*
D03*
X307087D02*
D03*
X326772D02*
D03*
X346457D02*
D03*
X366142D02*
D03*
X385827D02*
D03*
X405512D02*
D03*
X425197D02*
D03*
Y23622D02*
D03*
Y43307D02*
D03*
Y62992D02*
D03*
Y82677D02*
D03*
Y102362D02*
D03*
Y122047D02*
D03*
Y141732D02*
D03*
Y161417D02*
D03*
Y181102D02*
D03*
Y200787D02*
D03*
Y220472D02*
D03*
Y240158D02*
D03*
Y259842D02*
D03*
Y279528D02*
D03*
Y299213D02*
D03*
Y318898D02*
D03*
Y338583D02*
D03*
Y358268D02*
D03*
X354331Y188976D02*
D03*
Y200787D02*
D03*
Y220472D02*
D03*
Y240158D02*
D03*
Y259842D02*
D03*
Y279528D02*
D03*
Y295276D02*
D03*
X330709Y267717D02*
D03*
Y299213D02*
D03*
Y200787D02*
D03*
Y220472D02*
D03*
X370079Y181102D02*
D03*
Y200787D02*
D03*
X389764D02*
D03*
Y181102D02*
D03*
X409449D02*
D03*
Y200787D02*
D03*
Y220472D02*
D03*
X330709Y240158D02*
D03*
X370079Y220472D02*
D03*
Y240158D02*
D03*
Y259842D02*
D03*
X389764D02*
D03*
Y240158D02*
D03*
Y220472D02*
D03*
X409449Y240158D02*
D03*
Y259842D02*
D03*
X370079Y299213D02*
D03*
X389764D02*
D03*
X409449D02*
D03*
Y279528D02*
D03*
X389764D02*
D03*
X370079D02*
D03*
X330709D02*
D03*
X350394Y318898D02*
D03*
X370079D02*
D03*
X409449D02*
D03*
X389764D02*
D03*
Y358268D02*
D03*
X370079D02*
D03*
X350394D02*
D03*
X330709D02*
D03*
X311024D02*
D03*
X291339D02*
D03*
X271654D02*
D03*
Y377953D02*
D03*
X291339D02*
D03*
X311024D02*
D03*
X330709D02*
D03*
X350394D02*
D03*
X370079D02*
D03*
X389764D02*
D03*
X409449D02*
D03*
Y358268D02*
D03*
Y338583D02*
D03*
X389764D02*
D03*
X370079D02*
D03*
X350394D02*
D03*
X330709D02*
D03*
X311024D02*
D03*
X291339D02*
D03*
X271654D02*
D03*
X251969D02*
D03*
X232283D02*
D03*
X212598D02*
D03*
X192913D02*
D03*
Y358268D02*
D03*
X212598D02*
D03*
Y377953D02*
D03*
X192913D02*
D03*
X173228D02*
D03*
X153543D02*
D03*
Y358268D02*
D03*
X173228D02*
D03*
Y338583D02*
D03*
X153543D02*
D03*
X133858D02*
D03*
X114173D02*
D03*
X15748D02*
D03*
X35433D02*
D03*
X94488D02*
D03*
X74803D02*
D03*
X55118D02*
D03*
Y358268D02*
D03*
X74803D02*
D03*
X94488D02*
D03*
Y377953D02*
D03*
X74803D02*
D03*
X55118D02*
D03*
X272835Y309842D02*
D03*
Y292520D02*
D03*
X255118Y292126D02*
D03*
Y309842D02*
D03*
X255512Y306299D02*
D03*
Y296063D02*
D03*
X259055Y293307D02*
D03*
Y308661D02*
D03*
X264173Y310236D02*
D03*
Y292126D02*
D03*
X268504Y293307D02*
D03*
Y309055D02*
D03*
X273228Y301181D02*
D03*
X272835Y237402D02*
D03*
Y220079D02*
D03*
X255118Y219685D02*
D03*
Y237402D02*
D03*
X255512Y233858D02*
D03*
Y223622D02*
D03*
X259055Y220866D02*
D03*
Y236221D02*
D03*
X264173Y237795D02*
D03*
Y219685D02*
D03*
X268504Y220866D02*
D03*
Y236614D02*
D03*
X273228Y228740D02*
D03*
X272835Y164961D02*
D03*
Y147638D02*
D03*
X255118Y147244D02*
D03*
Y164961D02*
D03*
X255512Y161417D02*
D03*
Y151181D02*
D03*
X259055Y148425D02*
D03*
Y163779D02*
D03*
X264173Y165354D02*
D03*
Y147244D02*
D03*
X268504Y148425D02*
D03*
Y164173D02*
D03*
X273228Y156299D02*
D03*
X209537Y59498D02*
D03*
X205463Y128320D02*
D03*
Y131863D02*
D03*
X232063Y129627D02*
D03*
X152524Y181088D02*
D03*
X164627Y169212D02*
D03*
X168327D02*
D03*
X175197Y166715D02*
D03*
X186201Y175495D02*
D03*
Y179196D02*
D03*
X202732Y184887D02*
D03*
X206300Y180633D02*
D03*
X209681D02*
D03*
Y176932D02*
D03*
X214031Y172783D02*
D03*
X217731D02*
D03*
X224612Y170399D02*
D03*
X232531Y183307D02*
D03*
X239704Y179083D02*
D03*
X236231Y183283D02*
D03*
X232024Y202172D02*
D03*
X232524Y214772D02*
D03*
X236224D02*
D03*
X152288Y253436D02*
D03*
X164588Y241757D02*
D03*
X168289D02*
D03*
X175158Y239261D02*
D03*
X186162Y248040D02*
D03*
Y251741D02*
D03*
X202694Y257432D02*
D03*
X206262Y253178D02*
D03*
X209642D02*
D03*
Y249478D02*
D03*
X213992Y245328D02*
D03*
X217693D02*
D03*
X224573Y242944D02*
D03*
X236093Y247328D02*
D03*
X239665Y251628D02*
D03*
X228979Y255803D02*
D03*
X236193Y255828D02*
D03*
X232492Y255852D02*
D03*
X236135Y287223D02*
D03*
X232434D02*
D03*
X214134Y276904D02*
D03*
X231935Y274623D02*
D03*
X221292Y272695D02*
D03*
X217748D02*
D03*
X205334Y273316D02*
D03*
Y276859D02*
D03*
X175069Y311711D02*
D03*
X217603Y317779D02*
D03*
X209553Y321928D02*
D03*
X206172Y325629D02*
D03*
X209553D02*
D03*
X202604Y329883D02*
D03*
X232402Y328303D02*
D03*
X236103Y328279D02*
D03*
X236004Y319779D02*
D03*
X239576Y324079D02*
D03*
X213902Y317779D02*
D03*
X224483Y315395D02*
D03*
X152395Y326084D02*
D03*
X186073Y320491D02*
D03*
Y324192D02*
D03*
X164498Y314208D02*
D03*
X168199D02*
D03*
X236263Y142227D02*
D03*
X232562D02*
D03*
X224803Y127953D02*
D03*
X221420Y127699D02*
D03*
X217877D02*
D03*
X214263Y131908D02*
D03*
X118333Y273636D02*
D03*
X111050Y287595D02*
D03*
X121794D02*
D03*
X100634Y272213D02*
D03*
X145899Y286396D02*
D03*
X142494Y291196D02*
D03*
X106322Y283796D02*
D03*
X72933D02*
D03*
X83570Y286475D02*
D03*
X118455Y301967D02*
D03*
Y297637D02*
D03*
X114124Y301967D02*
D03*
Y297637D02*
D03*
X287927Y318970D02*
D03*
Y309120D02*
D03*
Y303989D02*
D03*
Y299084D02*
D03*
Y293989D02*
D03*
Y288989D02*
D03*
X92077Y304329D02*
D03*
Y299605D02*
D03*
X87352Y304329D02*
D03*
Y299605D02*
D03*
X140108Y304723D02*
D03*
X137770Y302048D02*
D03*
X140108Y299605D02*
D03*
X135384Y304723D02*
D03*
Y299605D02*
D03*
X131983Y295461D02*
D03*
X143476D02*
D03*
X155856Y303148D02*
D03*
Y299211D02*
D03*
X152135Y295551D02*
D03*
X71604Y302755D02*
D03*
Y299605D02*
D03*
X145899Y280396D02*
D03*
X100522Y283796D02*
D03*
X96022Y290018D02*
D03*
X78833Y283796D02*
D03*
X83570Y290018D02*
D03*
X106466Y272063D02*
D03*
X135482Y313975D02*
D03*
X196977Y271372D02*
D03*
X142864Y319684D02*
D03*
X128677Y314011D02*
D03*
X87687Y286396D02*
D03*
X140423Y313992D02*
D03*
X209684Y280954D02*
D03*
X148088Y316440D02*
D03*
X131668Y313921D02*
D03*
X192024Y320692D02*
D03*
X287927Y283989D02*
D03*
X281638Y304814D02*
D03*
X234363Y313420D02*
D03*
X228890Y328254D02*
D03*
X118423Y201185D02*
D03*
X111140Y215145D02*
D03*
X121883D02*
D03*
X100723Y199762D02*
D03*
X145989Y213945D02*
D03*
X142583Y218745D02*
D03*
X106412Y211345D02*
D03*
X73023D02*
D03*
X83660Y214024D02*
D03*
X217641Y200047D02*
D03*
X221184D02*
D03*
X205227Y200668D02*
D03*
X118544Y229517D02*
D03*
X114213D02*
D03*
Y225186D02*
D03*
X118544D02*
D03*
X288016Y246520D02*
D03*
Y236669D02*
D03*
Y231539D02*
D03*
Y226633D02*
D03*
Y221538D02*
D03*
Y216539D02*
D03*
X92166Y231879D02*
D03*
Y227154D02*
D03*
X87442Y231879D02*
D03*
Y227154D02*
D03*
X140198Y232272D02*
D03*
Y227154D02*
D03*
X135473Y232272D02*
D03*
X137860Y229597D02*
D03*
X135473Y227154D02*
D03*
X155946Y230698D02*
D03*
Y226761D02*
D03*
X152225Y223100D02*
D03*
X71694Y230304D02*
D03*
Y227154D02*
D03*
X294384Y198031D02*
D03*
X145989Y207945D02*
D03*
X100611Y211345D02*
D03*
X96112Y217567D02*
D03*
X78923Y211345D02*
D03*
X83660Y217567D02*
D03*
X106556Y199612D02*
D03*
X135572Y241524D02*
D03*
X224176Y200047D02*
D03*
X197067Y198921D02*
D03*
X142954Y247233D02*
D03*
X128767Y241561D02*
D03*
X87777Y213945D02*
D03*
X140512Y241541D02*
D03*
X209774Y208503D02*
D03*
X148177Y243990D02*
D03*
X131757Y241470D02*
D03*
X192113Y248242D02*
D03*
X288016Y211539D02*
D03*
X281728Y232363D02*
D03*
X234453Y240969D02*
D03*
X118461Y128640D02*
D03*
X111179Y142599D02*
D03*
X121922D02*
D03*
X100762Y127217D02*
D03*
X146028Y141400D02*
D03*
X142622Y146200D02*
D03*
X106450Y138800D02*
D03*
X73061D02*
D03*
X83698Y141479D02*
D03*
X118583Y156971D02*
D03*
X114252D02*
D03*
Y152640D02*
D03*
X118583D02*
D03*
X288055Y173974D02*
D03*
Y164124D02*
D03*
Y158993D02*
D03*
Y154088D02*
D03*
Y148993D02*
D03*
Y143993D02*
D03*
X87481Y154609D02*
D03*
X140236Y159727D02*
D03*
Y154609D02*
D03*
X137898Y157052D02*
D03*
X135512Y154609D02*
D03*
Y159727D02*
D03*
X132112Y150465D02*
D03*
X155984Y158152D02*
D03*
Y154215D02*
D03*
X152263Y150555D02*
D03*
X71733Y157759D02*
D03*
Y154609D02*
D03*
X294423Y125485D02*
D03*
X146028Y135400D02*
D03*
X100650Y138800D02*
D03*
X96150Y145022D02*
D03*
X78961Y138800D02*
D03*
X83698Y145022D02*
D03*
X106595Y127067D02*
D03*
X135610Y168979D02*
D03*
X197106Y126376D02*
D03*
X142992Y174688D02*
D03*
X235935Y174586D02*
D03*
X128806Y169015D02*
D03*
X87816Y141400D02*
D03*
X140551Y168996D02*
D03*
X209813Y135958D02*
D03*
X148216Y171444D02*
D03*
X131796Y168925D02*
D03*
X192152Y175696D02*
D03*
X288055Y138993D02*
D03*
X281767Y159818D02*
D03*
X234492Y168423D02*
D03*
X229018Y183257D02*
D03*
X142913Y98425D02*
D03*
X71653Y78347D02*
D03*
Y81496D02*
D03*
X273228Y79921D02*
D03*
X268504Y87795D02*
D03*
Y72047D02*
D03*
X264173Y70866D02*
D03*
Y88976D02*
D03*
X259055Y87402D02*
D03*
Y72047D02*
D03*
X255512Y74803D02*
D03*
Y85039D02*
D03*
X255118Y88583D02*
D03*
Y70866D02*
D03*
X272835Y71260D02*
D03*
Y88583D02*
D03*
X155905Y77953D02*
D03*
Y81890D02*
D03*
X140157Y83465D02*
D03*
X135433Y78347D02*
D03*
X140157D02*
D03*
X135433Y83465D02*
D03*
X137819Y80790D02*
D03*
X118504Y76378D02*
D03*
X114173D02*
D03*
X118504Y80709D02*
D03*
X114173D02*
D03*
X92126Y78347D02*
D03*
X87402D02*
D03*
Y83071D02*
D03*
X92126D02*
D03*
X94031Y92754D02*
D03*
X92107Y96633D02*
D03*
X88691Y99296D02*
D03*
X94110Y169016D02*
D03*
X92186Y172896D02*
D03*
X88770Y175558D02*
D03*
X84744Y177362D02*
D03*
X94072Y241562D02*
D03*
X92147Y245441D02*
D03*
X88731Y248103D02*
D03*
X84744Y249803D02*
D03*
X93982Y314012D02*
D03*
X92057Y317892D02*
D03*
X88642Y320554D02*
D03*
X84646Y322342D02*
D03*
X152184Y74293D02*
D03*
X143525Y74202D02*
D03*
X147854Y74332D02*
D03*
X149461Y85342D02*
D03*
X143604Y150465D02*
D03*
X147933Y150594D02*
D03*
X149540Y161604D02*
D03*
X143565Y223010D02*
D03*
X147894Y223140D02*
D03*
X149501Y234150D02*
D03*
X147805Y295590D02*
D03*
X149411Y306600D02*
D03*
X95755Y74250D02*
D03*
X100085Y74312D02*
D03*
X104416D02*
D03*
X108746Y74312D02*
D03*
X110025Y85390D02*
D03*
X105694Y85322D02*
D03*
X101364D02*
D03*
X127675Y85310D02*
D03*
X123345Y85390D02*
D03*
X123372Y74282D02*
D03*
X127703Y74300D02*
D03*
X132032Y74202D02*
D03*
X100164Y150575D02*
D03*
X104495D02*
D03*
X108825Y150574D02*
D03*
X110104Y161653D02*
D03*
X105773Y161584D02*
D03*
X101443D02*
D03*
X127754Y161573D02*
D03*
X123424Y161653D02*
D03*
X123451Y150544D02*
D03*
X127782Y150563D02*
D03*
X95795Y223057D02*
D03*
X100125Y223120D02*
D03*
X104456D02*
D03*
X108786Y223119D02*
D03*
X110065Y234198D02*
D03*
X105735Y234130D02*
D03*
X101404D02*
D03*
X127715Y234118D02*
D03*
X123385Y234198D02*
D03*
X123412Y223090D02*
D03*
X127743Y223108D02*
D03*
X132073Y223010D02*
D03*
X127625Y306569D02*
D03*
X123295Y306649D02*
D03*
X123323Y295540D02*
D03*
X127654Y295559D02*
D03*
X95705Y295508D02*
D03*
X100036Y295571D02*
D03*
X104366D02*
D03*
X108697Y295570D02*
D03*
X109975Y306649D02*
D03*
X105645Y306580D02*
D03*
X101314D02*
D03*
X77269Y306616D02*
D03*
X72939Y306545D02*
D03*
X70961Y296259D02*
D03*
X75228Y295517D02*
D03*
X79558Y295606D02*
D03*
X83887Y295508D02*
D03*
X77319Y85357D02*
D03*
X72989Y85287D02*
D03*
X71011Y75001D02*
D03*
X75277Y74258D02*
D03*
X79607Y74348D02*
D03*
X83936Y74250D02*
D03*
X77398Y161620D02*
D03*
X73068Y161549D02*
D03*
X71090Y151263D02*
D03*
X75356Y150521D02*
D03*
X79686Y150610D02*
D03*
X84015Y150512D02*
D03*
X77359Y234165D02*
D03*
X73029Y234095D02*
D03*
X71051Y223809D02*
D03*
X75317Y223066D02*
D03*
X79647Y223155D02*
D03*
X83977Y223057D02*
D03*
X34801Y101426D02*
D03*
X33288Y87562D02*
D03*
X37619D02*
D03*
X41929Y87598D02*
D03*
X46102Y89088D02*
D03*
X50432D02*
D03*
X54763D02*
D03*
X59094D02*
D03*
X63424D02*
D03*
X67755D02*
D03*
X72086D02*
D03*
X76383Y88552D02*
D03*
X80714Y88593D02*
D03*
X82874Y101083D02*
D03*
X78727Y101040D02*
D03*
X74410Y100984D02*
D03*
X70121Y100349D02*
D03*
X65790Y100312D02*
D03*
X61460D02*
D03*
X57129D02*
D03*
X52798D02*
D03*
X48468D02*
D03*
X44137D02*
D03*
X39911Y101257D02*
D03*
X76476Y177362D02*
D03*
X72137Y176611D02*
D03*
X67815Y176181D02*
D03*
X63583Y174508D02*
D03*
X60236Y172047D02*
D03*
X56674Y170279D02*
D03*
X52346Y170106D02*
D03*
X48016D02*
D03*
X43685D02*
D03*
X39525Y171308D02*
D03*
X35196Y171426D02*
D03*
X32904Y157562D02*
D03*
X37235D02*
D03*
X41437Y157579D02*
D03*
X45776Y158883D02*
D03*
X50107D02*
D03*
X54438D02*
D03*
X58760Y159055D02*
D03*
X63090Y160433D02*
D03*
X70276Y165059D02*
D03*
X74410Y164665D02*
D03*
X78725Y164698D02*
D03*
X82874Y164665D02*
D03*
X80905Y177362D02*
D03*
X75590Y249803D02*
D03*
X70577Y249157D02*
D03*
X66251Y248947D02*
D03*
X62088Y247754D02*
D03*
X58409Y245469D02*
D03*
X55269Y242487D02*
D03*
X51426Y240491D02*
D03*
X47112Y240106D02*
D03*
X38656Y241422D02*
D03*
X34325Y241426D02*
D03*
X33809Y227562D02*
D03*
X38139D02*
D03*
X42224Y227559D02*
D03*
X46594Y228883D02*
D03*
X50922Y229040D02*
D03*
X55157Y229947D02*
D03*
X59143Y231640D02*
D03*
X62702Y234108D02*
D03*
X65830Y237103D02*
D03*
X70080Y237934D02*
D03*
X74450Y237228D02*
D03*
X78686Y237243D02*
D03*
X83312D02*
D03*
X80807Y249803D02*
D03*
X76870Y322342D02*
D03*
X72549Y321607D02*
D03*
X68219Y321551D02*
D03*
X63938Y320892D02*
D03*
X60009Y319070D02*
D03*
X56673Y316309D02*
D03*
X53611Y313247D02*
D03*
X50331Y310418D02*
D03*
X46012Y310105D02*
D03*
X37500Y311426D02*
D03*
X33169D02*
D03*
X34928Y297562D02*
D03*
X39258Y297645D02*
D03*
X47739Y298883D02*
D03*
X52049Y299305D02*
D03*
X56109Y300812D02*
D03*
X59595Y303382D02*
D03*
X62669Y306433D02*
D03*
X65758Y309467D02*
D03*
X69991Y310385D02*
D03*
X74410Y309646D02*
D03*
X78597Y309694D02*
D03*
X82776Y309646D02*
D03*
X80709Y322342D02*
D03*
X249903Y85927D02*
D03*
X245600Y85434D02*
D03*
X241269D02*
D03*
X236939D02*
D03*
X232685Y85927D02*
D03*
X228277Y85434D02*
D03*
X223946D02*
D03*
X219616D02*
D03*
X215285D02*
D03*
X210954D02*
D03*
X206624D02*
D03*
X202293D02*
D03*
X197962D02*
D03*
X193631D02*
D03*
X189301D02*
D03*
X184970D02*
D03*
X180639D02*
D03*
X176309D02*
D03*
X171978D02*
D03*
X167647D02*
D03*
X163317D02*
D03*
X157925Y74293D02*
D03*
X162255Y74211D02*
D03*
X166586D02*
D03*
X170916D02*
D03*
X175247D02*
D03*
X179578D02*
D03*
X183908D02*
D03*
X188239D02*
D03*
X192570D02*
D03*
X196900D02*
D03*
X201231D02*
D03*
X205562D02*
D03*
X209893D02*
D03*
X214223D02*
D03*
X218554D02*
D03*
X222885D02*
D03*
X227215D02*
D03*
X231546D02*
D03*
X240208D02*
D03*
X244538D02*
D03*
X248861Y73956D02*
D03*
X246132Y161697D02*
D03*
X241801D02*
D03*
X237470D02*
D03*
X233140D02*
D03*
X228809D02*
D03*
X224478D02*
D03*
X220148D02*
D03*
X215817D02*
D03*
X211486D02*
D03*
X207155D02*
D03*
X202825D02*
D03*
X198494D02*
D03*
X194163D02*
D03*
X189833D02*
D03*
X185502D02*
D03*
X181171D02*
D03*
X176841D02*
D03*
X172510D02*
D03*
X168179D02*
D03*
X163848D02*
D03*
X159518Y161709D02*
D03*
X155275Y160839D02*
D03*
X157513Y150615D02*
D03*
X161842Y150474D02*
D03*
X166172D02*
D03*
X170503D02*
D03*
X174834D02*
D03*
X179165D02*
D03*
X183495D02*
D03*
X187826D02*
D03*
X192157D02*
D03*
X196487D02*
D03*
X200818D02*
D03*
X205149D02*
D03*
X209479D02*
D03*
X213810D02*
D03*
X218141D02*
D03*
X222471D02*
D03*
X226802D02*
D03*
X231133D02*
D03*
X239794D02*
D03*
X244125D02*
D03*
X248456D02*
D03*
X252160Y162112D02*
D03*
X246093Y234242D02*
D03*
X241762D02*
D03*
X237432D02*
D03*
X233101D02*
D03*
X228770D02*
D03*
X224439D02*
D03*
X220109D02*
D03*
X215778D02*
D03*
X211447D02*
D03*
X207117D02*
D03*
X202786D02*
D03*
X198455D02*
D03*
X194124D02*
D03*
X189794D02*
D03*
X185463D02*
D03*
X181132D02*
D03*
X176802D02*
D03*
X172471D02*
D03*
X168140D02*
D03*
X163810D02*
D03*
X159479Y234254D02*
D03*
X155237Y233384D02*
D03*
X157474Y223160D02*
D03*
X161803Y223019D02*
D03*
X166133D02*
D03*
X170464D02*
D03*
X174795D02*
D03*
X179126D02*
D03*
X183456D02*
D03*
X187787D02*
D03*
X192118D02*
D03*
X196449D02*
D03*
X200779D02*
D03*
X205110D02*
D03*
X209440D02*
D03*
X213771D02*
D03*
X218102D02*
D03*
X222433D02*
D03*
X226763D02*
D03*
X231094D02*
D03*
X239756D02*
D03*
X244086D02*
D03*
X248417D02*
D03*
X252121Y234658D02*
D03*
X294344Y49223D02*
D03*
X249945Y307293D02*
D03*
X245656Y306693D02*
D03*
X241325D02*
D03*
X236994D02*
D03*
X232664D02*
D03*
X228333D02*
D03*
X224002D02*
D03*
X219672D02*
D03*
X215341D02*
D03*
X211010D02*
D03*
X206679D02*
D03*
X202349D02*
D03*
X198018D02*
D03*
X193687D02*
D03*
X189357D02*
D03*
X185026D02*
D03*
X180695D02*
D03*
X176365D02*
D03*
X172034D02*
D03*
X167703D02*
D03*
X163372D02*
D03*
X159042Y306675D02*
D03*
X154845Y305604D02*
D03*
X157768Y295560D02*
D03*
X162098Y295470D02*
D03*
X166429D02*
D03*
X170759D02*
D03*
X175090D02*
D03*
X179421D02*
D03*
X183751D02*
D03*
X188082D02*
D03*
X192413D02*
D03*
X196744D02*
D03*
X201074D02*
D03*
X205405D02*
D03*
X209736D02*
D03*
X214066D02*
D03*
X218397D02*
D03*
X222728D02*
D03*
X227059D02*
D03*
X231389D02*
D03*
X240051D02*
D03*
X244381D02*
D03*
X248709Y295321D02*
D03*
X224136Y51239D02*
D03*
X197027Y50113D02*
D03*
X135531Y92716D02*
D03*
X131717Y92662D02*
D03*
X128727Y92753D02*
D03*
X281688Y83555D02*
D03*
X148137Y95182D02*
D03*
X234413Y92161D02*
D03*
X192073Y99434D02*
D03*
X185925Y99035D02*
D03*
X174921Y90256D02*
D03*
X152248Y104628D02*
D03*
X239428Y102623D02*
D03*
X361561Y140700D02*
D03*
X168052Y92753D02*
D03*
X164351D02*
D03*
X206025Y104174D02*
D03*
X202457Y108427D02*
D03*
X209405Y100473D02*
D03*
Y104174D02*
D03*
X232255Y106823D02*
D03*
X235956D02*
D03*
X235856Y98323D02*
D03*
X185925Y102736D02*
D03*
X213755Y96323D02*
D03*
X217456D02*
D03*
X224336Y93940D02*
D03*
X232287Y65768D02*
D03*
X235987D02*
D03*
X205187Y51860D02*
D03*
Y55404D02*
D03*
X213987Y55449D02*
D03*
X217601Y51239D02*
D03*
X221144D02*
D03*
X231787Y53167D02*
D03*
X118382Y52378D02*
D03*
X111100Y66337D02*
D03*
X121843D02*
D03*
X100683Y50954D02*
D03*
X145949Y65137D02*
D03*
X142543Y69937D02*
D03*
X106371Y62537D02*
D03*
X72982D02*
D03*
X83619Y65216D02*
D03*
X287976Y67731D02*
D03*
Y72731D02*
D03*
Y77825D02*
D03*
Y82731D02*
D03*
Y87861D02*
D03*
Y97712D02*
D03*
X145949Y59137D02*
D03*
X96071Y68760D02*
D03*
X100571Y62537D02*
D03*
X83619Y68760D02*
D03*
X78882Y62537D02*
D03*
X106516Y50804D02*
D03*
X87737Y65137D02*
D03*
X140472Y92734D02*
D03*
X287976Y62731D02*
D03*
X228939Y106995D02*
D03*
X342203Y182669D02*
D03*
X350602Y188315D02*
D03*
X342203Y252430D02*
D03*
X350602Y260875D02*
D03*
X417369Y98932D02*
D03*
Y102633D02*
D03*
X317790Y164001D02*
D03*
X319755Y179921D02*
D03*
X321870Y188287D02*
D03*
X319755Y252467D02*
D03*
X321870Y260833D02*
D03*
X150098Y42224D02*
D03*
X146949D02*
D03*
X206416Y23623D02*
D03*
X203267D02*
D03*
X190135Y47667D02*
D03*
X164689Y36830D02*
D03*
X276817Y36785D02*
D03*
X306576Y47591D02*
D03*
X258661Y42323D02*
D03*
X261811D02*
D03*
X318545Y23578D02*
D03*
X315395D02*
D03*
X366142Y108366D02*
D03*
X362992D02*
D03*
X346358Y146752D02*
D03*
X343209D02*
D03*
X336122D02*
D03*
X332972D02*
D03*
X326181D02*
D03*
X323031D02*
D03*
X321800Y127401D02*
D03*
X374628Y66602D02*
D03*
X362817D02*
D03*
X374654Y70539D02*
D03*
X362817D02*
D03*
X374523Y53165D02*
D03*
X374590Y57102D02*
D03*
X362804Y53165D02*
D03*
Y57102D02*
D03*
X355842Y57612D02*
D03*
X343865Y84473D02*
D03*
X336287Y89296D02*
D03*
X333137D02*
D03*
X326444Y89493D02*
D03*
X323295D02*
D03*
X341110Y71776D02*
D03*
X337862D02*
D03*
X334631D02*
D03*
X331391D02*
D03*
X328117D02*
D03*
X355842Y85161D02*
D03*
X350460Y72859D02*
D03*
Y76008D02*
D03*
X348885Y71284D02*
D03*
X352035D02*
D03*
X348885Y74434D02*
D03*
X352035D02*
D03*
X348885Y77583D02*
D03*
X352035D02*
D03*
X355842Y91460D02*
D03*
X362862Y86737D02*
D03*
Y90674D02*
D03*
X374673Y86737D02*
D03*
Y90674D02*
D03*
X337871Y53161D02*
D03*
X341111D02*
D03*
X344351D02*
D03*
X326149Y34965D02*
D03*
X328708D02*
D03*
X334909D02*
D03*
X338058D02*
D03*
X344653D02*
D03*
X347802D02*
D03*
X246981Y59077D02*
D03*
X238414Y53073D02*
D03*
X331391Y53161D02*
D03*
X328151D02*
D03*
X334631D02*
D03*
M02*
