G04*
G04 #@! TF.GenerationSoftware,Altium Limited,Altium Designer,21.1.0 (24)*
G04*
G04 Layer_Color=16711935*
%FSLAX25Y25*%
%MOIN*%
G70*
G04*
G04 #@! TF.SameCoordinates,59D5B773-27E9-4806-B489-B34453608D3F*
G04*
G04*
G04 #@! TF.FilePolarity,Negative*
G04*
G01*
G75*
%ADD59C,0.20485*%
%ADD60C,0.24422*%
G36*
X274177Y311696D02*
X274214Y311685D01*
X274248Y311667D01*
X274278Y311642D01*
X274303Y311612D01*
X274321Y311578D01*
X274332Y311541D01*
X274336Y311502D01*
Y291030D01*
X274332Y290991D01*
X274321Y290954D01*
X274303Y290920D01*
X274278Y290890D01*
X274248Y290865D01*
X274214Y290847D01*
X274177Y290836D01*
X274138Y290832D01*
X253666D01*
X253627Y290836D01*
X253590Y290847D01*
X253556Y290865D01*
X253526Y290890D01*
X253501Y290920D01*
X253483Y290954D01*
X253472Y290991D01*
X253468Y291030D01*
Y297329D01*
X253472Y297368D01*
X253483Y297405D01*
X253501Y297439D01*
X253526Y297469D01*
X253556Y297494D01*
X253590Y297512D01*
X253627Y297523D01*
X253666Y297527D01*
X257083D01*
X257084Y297527D01*
X257085Y297527D01*
X257102Y297525D01*
X257121Y297523D01*
X257122Y297523D01*
X257123Y297523D01*
X257140Y297517D01*
X257158Y297512D01*
X257159Y297511D01*
X257160Y297511D01*
X257175Y297503D01*
X257193Y297494D01*
X257194Y297493D01*
X257194Y297492D01*
X257207Y297482D01*
X257223Y297469D01*
X257223Y297468D01*
X257224Y297467D01*
X257235Y297454D01*
X257247Y297439D01*
X257248Y297438D01*
X257248Y297437D01*
X257709Y296732D01*
X258841Y295496D01*
X260210Y294537D01*
X261754Y293898D01*
X263400Y293607D01*
X265069Y293680D01*
X266684Y294113D01*
X268166Y294885D01*
X269446Y295959D01*
X270463Y297285D01*
X271170Y298799D01*
X271531Y300431D01*
Y302102D01*
X271170Y303733D01*
X270463Y305248D01*
X269446Y306574D01*
X268166Y307648D01*
X266684Y308419D01*
X265069Y308852D01*
X263400Y308925D01*
X261754Y308635D01*
X260210Y307995D01*
X258841Y307036D01*
X257709Y305801D01*
X257248Y305095D01*
X257248Y305094D01*
X257247Y305093D01*
X257235Y305079D01*
X257224Y305065D01*
X257223Y305064D01*
X257223Y305063D01*
X257208Y305051D01*
X257194Y305040D01*
X257193Y305039D01*
X257193Y305039D01*
X257176Y305030D01*
X257160Y305021D01*
X257159Y305021D01*
X257158Y305020D01*
X257141Y305015D01*
X257123Y305010D01*
X257122Y305010D01*
X257121Y305009D01*
X257103Y305007D01*
X257085Y305005D01*
X257084Y305006D01*
X257083Y305005D01*
X253666D01*
X253627Y305009D01*
X253590Y305020D01*
X253556Y305039D01*
X253526Y305063D01*
X253501Y305093D01*
X253483Y305128D01*
X253472Y305165D01*
X253468Y305203D01*
Y311502D01*
X253472Y311541D01*
X253483Y311578D01*
X253501Y311612D01*
X253526Y311642D01*
X253556Y311667D01*
X253590Y311685D01*
X253627Y311696D01*
X253666Y311700D01*
X274138D01*
X274177Y311696D01*
D02*
G37*
G36*
X38656Y285039D02*
X-3937D01*
Y324016D01*
X38656D01*
Y285039D01*
D02*
G37*
G36*
X274181Y239149D02*
X274218Y239138D01*
X274252Y239120D01*
X274282Y239095D01*
X274306Y239065D01*
X274325Y239031D01*
X274336Y238994D01*
X274340Y238955D01*
Y218483D01*
X274336Y218444D01*
X274325Y218407D01*
X274306Y218373D01*
X274282Y218343D01*
X274252Y218319D01*
X274218Y218300D01*
X274181Y218289D01*
X274142Y218285D01*
X253670D01*
X253631Y218289D01*
X253594Y218300D01*
X253560Y218319D01*
X253530Y218343D01*
X253505Y218373D01*
X253487Y218407D01*
X253475Y218444D01*
X253472Y218483D01*
Y224782D01*
X253475Y224821D01*
X253487Y224858D01*
X253505Y224892D01*
X253530Y224922D01*
X253560Y224947D01*
X253594Y224965D01*
X253631Y224976D01*
X253670Y224980D01*
X257087D01*
X257088Y224980D01*
X257089Y224980D01*
X257106Y224978D01*
X257125Y224976D01*
X257126Y224976D01*
X257127Y224976D01*
X257144Y224971D01*
X257162Y224965D01*
X257163Y224964D01*
X257164Y224964D01*
X257179Y224956D01*
X257196Y224947D01*
X257197Y224946D01*
X257198Y224945D01*
X257211Y224935D01*
X257226Y224922D01*
X257227Y224921D01*
X257228Y224921D01*
X257239Y224907D01*
X257251Y224892D01*
X257252Y224891D01*
X257252Y224890D01*
X257713Y224185D01*
X258845Y222949D01*
X260214Y221990D01*
X261758Y221351D01*
X263404Y221061D01*
X265073Y221133D01*
X266687Y221566D01*
X268170Y222338D01*
X269450Y223412D01*
X270467Y224738D01*
X271173Y226252D01*
X271535Y227884D01*
Y229555D01*
X271173Y231186D01*
X270467Y232701D01*
X269450Y234027D01*
X268170Y235101D01*
X266687Y235872D01*
X265073Y236305D01*
X263404Y236378D01*
X261758Y236088D01*
X260214Y235448D01*
X258845Y234490D01*
X257713Y233254D01*
X257252Y232548D01*
X257252Y232547D01*
X257251Y232546D01*
X257239Y232532D01*
X257228Y232518D01*
X257227Y232517D01*
X257226Y232516D01*
X257212Y232505D01*
X257198Y232493D01*
X257197Y232492D01*
X257196Y232492D01*
X257180Y232483D01*
X257164Y232474D01*
X257163Y232474D01*
X257162Y232473D01*
X257145Y232468D01*
X257127Y232463D01*
X257126Y232463D01*
X257125Y232462D01*
X257107Y232460D01*
X257089Y232458D01*
X257088Y232458D01*
X257087Y232458D01*
X253670D01*
X253631Y232462D01*
X253594Y232473D01*
X253560Y232492D01*
X253530Y232516D01*
X253505Y232546D01*
X253487Y232580D01*
X253475Y232618D01*
X253472Y232656D01*
Y238955D01*
X253475Y238994D01*
X253487Y239031D01*
X253505Y239065D01*
X253530Y239095D01*
X253560Y239120D01*
X253594Y239138D01*
X253631Y239149D01*
X253670Y239153D01*
X274142D01*
X274181Y239149D01*
D02*
G37*
G36*
X38656Y215059D02*
X-3937D01*
Y254035D01*
X38656D01*
Y215059D01*
D02*
G37*
G36*
X274177Y166574D02*
X274214Y166563D01*
X274248Y166545D01*
X274278Y166520D01*
X274303Y166490D01*
X274321Y166456D01*
X274332Y166419D01*
X274336Y166380D01*
Y145908D01*
X274332Y145869D01*
X274321Y145832D01*
X274303Y145798D01*
X274278Y145768D01*
X274248Y145743D01*
X274214Y145725D01*
X274177Y145714D01*
X274138Y145710D01*
X253666D01*
X253627Y145714D01*
X253590Y145725D01*
X253556Y145743D01*
X253526Y145768D01*
X253501Y145798D01*
X253483Y145832D01*
X253472Y145869D01*
X253468Y145908D01*
Y152207D01*
X253472Y152246D01*
X253483Y152283D01*
X253501Y152317D01*
X253526Y152347D01*
X253556Y152372D01*
X253590Y152390D01*
X253627Y152401D01*
X253666Y152405D01*
X257083D01*
X257084Y152405D01*
X257085Y152405D01*
X257102Y152403D01*
X257121Y152401D01*
X257122Y152401D01*
X257123Y152401D01*
X257140Y152395D01*
X257158Y152390D01*
X257159Y152389D01*
X257160Y152389D01*
X257175Y152381D01*
X257193Y152372D01*
X257194Y152371D01*
X257194Y152370D01*
X257207Y152360D01*
X257223Y152347D01*
X257223Y152346D01*
X257224Y152345D01*
X257235Y152332D01*
X257247Y152317D01*
X257248Y152316D01*
X257248Y152315D01*
X257709Y151610D01*
X258841Y150374D01*
X260210Y149415D01*
X261754Y148776D01*
X263400Y148486D01*
X265069Y148558D01*
X266684Y148991D01*
X268166Y149762D01*
X269446Y150837D01*
X270463Y152163D01*
X271170Y153677D01*
X271531Y155308D01*
Y156980D01*
X271170Y158611D01*
X270463Y160126D01*
X269446Y161451D01*
X268166Y162526D01*
X266684Y163297D01*
X265069Y163730D01*
X263400Y163803D01*
X261754Y163513D01*
X260210Y162873D01*
X258841Y161915D01*
X257709Y160678D01*
X257248Y159973D01*
X257248Y159972D01*
X257247Y159971D01*
X257235Y159957D01*
X257224Y159943D01*
X257223Y159942D01*
X257223Y159941D01*
X257208Y159929D01*
X257194Y159918D01*
X257193Y159917D01*
X257193Y159917D01*
X257176Y159908D01*
X257160Y159899D01*
X257159Y159899D01*
X257158Y159898D01*
X257141Y159893D01*
X257123Y159888D01*
X257122Y159887D01*
X257121Y159887D01*
X257103Y159885D01*
X257085Y159883D01*
X257084Y159883D01*
X257083Y159883D01*
X253666D01*
X253627Y159887D01*
X253590Y159898D01*
X253556Y159917D01*
X253526Y159941D01*
X253501Y159971D01*
X253483Y160005D01*
X253472Y160043D01*
X253468Y160081D01*
Y166380D01*
X253472Y166419D01*
X253483Y166456D01*
X253501Y166490D01*
X253526Y166520D01*
X253556Y166545D01*
X253590Y166563D01*
X253627Y166574D01*
X253666Y166578D01*
X274138D01*
X274177Y166574D01*
D02*
G37*
G36*
X38754Y144980D02*
X-3839D01*
Y183957D01*
X38754D01*
Y144980D01*
D02*
G37*
G36*
Y75098D02*
X-3839D01*
Y114075D01*
X38754D01*
Y75098D01*
D02*
G37*
G36*
X274329Y90330D02*
X274366Y90319D01*
X274400Y90301D01*
X274430Y90276D01*
X274454Y90246D01*
X274473Y90212D01*
X274484Y90175D01*
X274488Y90136D01*
Y69664D01*
X274484Y69626D01*
X274473Y69588D01*
X274454Y69554D01*
X274430Y69524D01*
X274400Y69500D01*
X274366Y69481D01*
X274329Y69470D01*
X274290Y69466D01*
X253818D01*
X253779Y69470D01*
X253742Y69481D01*
X253708Y69500D01*
X253678Y69524D01*
X253653Y69554D01*
X253635Y69588D01*
X253624Y69626D01*
X253620Y69664D01*
Y75963D01*
X253624Y76002D01*
X253635Y76039D01*
X253653Y76073D01*
X253678Y76103D01*
X253708Y76128D01*
X253742Y76146D01*
X253779Y76157D01*
X253818Y76161D01*
X257235D01*
X257236Y76161D01*
X257237Y76161D01*
X257254Y76159D01*
X257273Y76157D01*
X257274Y76157D01*
X257275Y76157D01*
X257292Y76152D01*
X257310Y76146D01*
X257311Y76145D01*
X257312Y76145D01*
X257327Y76137D01*
X257345Y76128D01*
X257346Y76127D01*
X257346Y76126D01*
X257359Y76116D01*
X257375Y76103D01*
X257375Y76102D01*
X257376Y76102D01*
X257387Y76088D01*
X257399Y76073D01*
X257400Y76072D01*
X257400Y76071D01*
X257861Y75366D01*
X258993Y74130D01*
X260362Y73171D01*
X261906Y72532D01*
X263552Y72242D01*
X265221Y72315D01*
X266836Y72747D01*
X268318Y73519D01*
X269598Y74593D01*
X270615Y75919D01*
X271322Y77433D01*
X271683Y79065D01*
Y80736D01*
X271322Y82367D01*
X270615Y83882D01*
X269598Y85208D01*
X268318Y86282D01*
X266836Y87054D01*
X265221Y87486D01*
X263552Y87559D01*
X261906Y87269D01*
X260362Y86629D01*
X258993Y85671D01*
X257861Y84435D01*
X257400Y83729D01*
X257400Y83728D01*
X257399Y83727D01*
X257387Y83713D01*
X257376Y83699D01*
X257375Y83698D01*
X257375Y83697D01*
X257360Y83686D01*
X257346Y83674D01*
X257345Y83674D01*
X257345Y83673D01*
X257328Y83664D01*
X257312Y83655D01*
X257311Y83655D01*
X257310Y83655D01*
X257293Y83649D01*
X257275Y83644D01*
X257274Y83644D01*
X257273Y83643D01*
X257255Y83641D01*
X257237Y83640D01*
X257236Y83640D01*
X257235Y83640D01*
X253818D01*
X253779Y83643D01*
X253742Y83655D01*
X253708Y83673D01*
X253678Y83697D01*
X253653Y83727D01*
X253635Y83762D01*
X253624Y83799D01*
X253620Y83837D01*
Y90136D01*
X253624Y90175D01*
X253635Y90212D01*
X253653Y90246D01*
X253678Y90276D01*
X253708Y90301D01*
X253742Y90319D01*
X253779Y90330D01*
X253818Y90334D01*
X274290D01*
X274329Y90330D01*
D02*
G37*
D59*
X14000Y21701D02*
D03*
Y371701D02*
D03*
D60*
X229921Y364567D02*
D03*
X111811Y29921D02*
D03*
X229921D02*
D03*
X111811Y364567D02*
D03*
M02*
