G04*
G04 #@! TF.GenerationSoftware,Altium Limited,Altium Designer,21.1.0 (24)*
G04*
G04 Layer_Color=65535*
%FSLAX25Y25*%
%MOIN*%
G70*
G04*
G04 #@! TF.SameCoordinates,59D5B773-27E9-4806-B489-B34453608D3F*
G04*
G04*
G04 #@! TF.FilePolarity,Positive*
G04*
G01*
G75*
%ADD10C,0.00787*%
%ADD11C,0.00984*%
%ADD12C,0.01000*%
D10*
X343916Y60835D02*
G03*
X343916Y63985I-7916J1575D01*
G01*
X328285D02*
G03*
X328285Y60835I7715J-1575D01*
G01*
X343715D02*
G03*
X343715Y63985I-7715J1575D01*
G01*
X328084D02*
G03*
X328084Y60835I7916J-1575D01*
G01*
X-25088Y304002D02*
G03*
X-25088Y289238I21236J-7382D01*
G01*
Y319750D02*
G03*
X-25088Y304986I21236J-7382D01*
G01*
X-19707D02*
G03*
X-19707Y319750I-21236J7382D01*
G01*
Y289238D02*
G03*
X-19707Y304002I-21236J7382D01*
G01*
X-44217Y309508D02*
G03*
X-44217Y299480I10945J-5014D01*
G01*
Y99508D02*
G03*
X-44217Y89480I10945J-5014D01*
G01*
X-19707Y79238D02*
G03*
X-19707Y94002I-21236J7382D01*
G01*
Y94986D02*
G03*
X-19707Y109750I-21236J7382D01*
G01*
X-25088D02*
G03*
X-25088Y94986I21236J-7382D01*
G01*
Y94002D02*
G03*
X-25088Y79238I21236J-7382D01*
G01*
X-44217Y239508D02*
G03*
X-44217Y229480I10945J-5014D01*
G01*
X-19707Y219238D02*
G03*
X-19707Y234002I-21236J7382D01*
G01*
Y234986D02*
G03*
X-19707Y249750I-21236J7382D01*
G01*
X-25088D02*
G03*
X-25088Y234986I21236J-7382D01*
G01*
Y234002D02*
G03*
X-25088Y219238I21236J-7382D01*
G01*
X-44217Y169508D02*
G03*
X-44217Y159480I10945J-5014D01*
G01*
X-19707Y149238D02*
G03*
X-19707Y164002I-21236J7382D01*
G01*
Y164986D02*
G03*
X-19707Y179750I-21236J7382D01*
G01*
X-25088D02*
G03*
X-25088Y164986I21236J-7382D01*
G01*
Y164002D02*
G03*
X-25088Y149238I21236J-7382D01*
G01*
X345488Y60835D02*
Y63985D01*
X326512Y60835D02*
Y63985D01*
X-18461Y317532D02*
X-17673Y320242D01*
X-18461Y317532D02*
X-17673Y317303D01*
X-16098D02*
X-15311Y317532D01*
X-18461Y315785D02*
X-17673Y318132D01*
X-18461Y315785D02*
X-17673Y313813D01*
X-18461Y311013D02*
X-17673Y313545D01*
X-18461Y311013D02*
X-17673Y308062D01*
X-18461Y304494D02*
X-17673Y307696D01*
X-18461Y293203D02*
X-17673Y295149D01*
X-18461Y297975D02*
X-17673Y295417D01*
X-18461Y297975D02*
X-17673Y300926D01*
X-18461Y304494D02*
X-17673Y301293D01*
X-16098Y320242D02*
X-15311Y317532D01*
X-16098Y317938D02*
X-15311Y315785D01*
X-16098Y313786D02*
X-15311Y315785D01*
X-16098Y313588D02*
X-15311Y311013D01*
X-16098Y307983D02*
X-15311Y311013D01*
X-16098Y307712D02*
X-15311Y304494D01*
X-16098Y301245D02*
X-15311Y304494D01*
X-16098Y300973D02*
X-15311Y297975D01*
X-16098Y295377D02*
X-15311Y297975D01*
X-16098Y295179D02*
X-15311Y293203D01*
X-18461D02*
X-17673Y290856D01*
X-16098D02*
X-15311Y293203D01*
X-17673Y323195D02*
X-16098D01*
X-17673Y285793D02*
Y323195D01*
Y285793D02*
X-16098D01*
Y323195D01*
X-18461Y291456D02*
X-17673Y288746D01*
X-18461Y291456D02*
X-17673Y291685D01*
X-16098D02*
X-15311Y291456D01*
X-16098Y288746D02*
X-15311Y291456D01*
X-25088Y319750D02*
Y320242D01*
Y319750D02*
X-19707D01*
Y320242D01*
Y304002D02*
Y304986D01*
X-25088D02*
X-19707D01*
X-25088Y304002D02*
Y304986D01*
Y304002D02*
X-19707D01*
X-18461Y288746D02*
Y320242D01*
X-26335D02*
X-18461D01*
X-26335Y288746D02*
Y320242D01*
Y288746D02*
X-18461D01*
X-25088D02*
Y289238D01*
X-19707D01*
Y288746D02*
Y289238D01*
X-3500Y315630D02*
X30358D01*
X-3500Y293359D02*
X30358D01*
X-5469Y310532D02*
X-3500D01*
X-5469Y298456D02*
X-3500D01*
X-42476Y292211D02*
Y316778D01*
X-44217Y316533D02*
X-42476Y316778D01*
X-44217Y292455D02*
X-42476Y292211D01*
X-44217Y309508D02*
X-42476Y310070D01*
X-10360D01*
X-44217Y299480D02*
X-42476Y298918D01*
X-10360D01*
X-48382Y293864D02*
X-45626D01*
X-48776Y294258D02*
Y314730D01*
X-48382Y315124D02*
X-45626D01*
X-44217Y316533D01*
X-45626Y293864D02*
Y315124D01*
Y293864D02*
X-44217Y292455D01*
Y316533D01*
X-42476Y316778D02*
X-10360D01*
X-42476Y292211D02*
X-10360D01*
X-9405Y293864D01*
X-10360Y292211D02*
Y316778D01*
X-9405Y315124D01*
Y293864D02*
Y315124D01*
X-5469D01*
X-9405Y293864D02*
X-5469D01*
Y291994D02*
Y316994D01*
X-3500D01*
X-5469Y291994D02*
X-3500D01*
Y291896D02*
Y317092D01*
X30358Y291896D02*
Y317092D01*
Y302526D02*
X31343D01*
X30358Y306463D02*
X31343D01*
X30358Y96463D02*
X31343D01*
X30358Y92526D02*
X31343D01*
X30358Y81896D02*
Y107092D01*
X-3500Y81896D02*
Y107092D01*
X-5469Y81994D02*
X-3500D01*
X-5469Y106994D02*
X-3500D01*
X-5469Y81994D02*
Y106994D01*
X-9405Y83864D02*
X-5469D01*
X-9405Y105124D02*
X-5469D01*
X-9405Y83864D02*
Y105124D01*
X-10360Y106778D02*
X-9405Y105124D01*
X-10360Y82211D02*
Y106778D01*
Y82211D02*
X-9405Y83864D01*
X-42476Y82211D02*
X-10360D01*
X-42476Y106778D02*
X-10360D01*
X-44217Y82455D02*
Y106533D01*
X-45626Y83864D02*
X-44217Y82455D01*
X-45626Y83864D02*
Y105124D01*
X-44217Y106533D01*
X-48382Y105124D02*
X-45626D01*
X-48776Y84258D02*
Y104730D01*
X-48382Y83864D02*
X-45626D01*
X-42476Y88918D02*
X-10360D01*
X-44217Y89480D02*
X-42476Y88918D01*
Y100070D02*
X-10360D01*
X-44217Y99508D02*
X-42476Y100070D01*
X-44217Y82455D02*
X-42476Y82211D01*
X-44217Y106533D02*
X-42476Y106778D01*
Y82211D02*
Y106778D01*
X-5469Y88456D02*
X-3500D01*
X-5469Y100532D02*
X-3500D01*
Y83359D02*
X30358D01*
X-3500Y105630D02*
X30358D01*
X-19707Y78746D02*
Y79238D01*
X-25088D02*
X-19707D01*
X-25088Y78746D02*
Y79238D01*
X-26335Y78746D02*
X-18461D01*
X-26335D02*
Y110242D01*
X-18461D01*
Y78746D02*
Y110242D01*
X-25088Y94002D02*
X-19707D01*
X-25088D02*
Y94986D01*
X-19707D01*
Y94002D02*
Y94986D01*
Y109750D02*
Y110242D01*
X-25088Y109750D02*
X-19707D01*
X-25088D02*
Y110242D01*
X-16098Y78746D02*
X-15311Y81456D01*
X-16098Y81685D02*
X-15311Y81456D01*
X-18461D02*
X-17673Y81685D01*
X-18461Y81456D02*
X-17673Y78746D01*
X-16098Y75793D02*
Y113195D01*
X-17673Y75793D02*
X-16098D01*
X-17673D02*
Y113195D01*
X-16098D01*
Y80856D02*
X-15311Y83203D01*
X-18461D02*
X-17673Y80856D01*
X-16098Y85179D02*
X-15311Y83203D01*
X-16098Y85377D02*
X-15311Y87975D01*
X-16098Y90973D02*
X-15311Y87975D01*
X-16098Y91245D02*
X-15311Y94494D01*
X-16098Y97711D02*
X-15311Y94494D01*
X-16098Y97983D02*
X-15311Y101013D01*
X-16098Y103588D02*
X-15311Y101013D01*
X-16098Y103786D02*
X-15311Y105785D01*
X-16098Y107938D02*
X-15311Y105785D01*
X-16098Y110242D02*
X-15311Y107532D01*
X-18461Y94494D02*
X-17673Y91293D01*
X-18461Y87975D02*
X-17673Y90926D01*
X-18461Y87975D02*
X-17673Y85417D01*
X-18461Y83203D02*
X-17673Y85149D01*
X-18461Y94494D02*
X-17673Y97695D01*
X-18461Y101013D02*
X-17673Y98062D01*
X-18461Y101013D02*
X-17673Y103545D01*
X-18461Y105785D02*
X-17673Y103813D01*
X-18461Y105785D02*
X-17673Y108132D01*
X-16098Y107303D02*
X-15311Y107532D01*
X-18461D02*
X-17673Y107303D01*
X-18461Y107532D02*
X-17673Y110242D01*
X318454Y135078D02*
X325147D01*
X318454Y135865D02*
X325147D01*
X318454Y136653D02*
X325147D01*
X318454Y130747D02*
Y136653D01*
X325147Y130747D02*
Y136653D01*
X83916Y74931D02*
Y75915D01*
Y74931D02*
X84900D01*
X83916Y85758D02*
Y86742D01*
X84900D01*
X95727Y74931D02*
Y75915D01*
X94743Y74931D02*
X95727D01*
Y85758D02*
Y85955D01*
X94940Y86742D02*
X95727Y85955D01*
X94743Y86742D02*
X94940D01*
X131914Y86695D02*
X132898D01*
X131914Y85711D02*
Y86695D01*
X142741D02*
X143725D01*
Y85711D02*
Y86695D01*
X131914Y74884D02*
X132898D01*
X131914D02*
Y75868D01*
X142741Y74884D02*
X142938D01*
X143725Y75671D01*
Y75868D01*
X67281Y160642D02*
X75655D01*
X67281Y151592D02*
X75655D01*
X67202Y75329D02*
X75576D01*
X67202Y84379D02*
X75576D01*
X121100Y72631D02*
X122281Y73812D01*
X119446Y72631D02*
X121100D01*
X122281Y73812D01*
Y75466D01*
X110470Y72631D02*
Y75466D01*
Y72631D02*
X113304D01*
X110470Y84442D02*
X113304D01*
X110470Y81608D02*
Y84442D01*
X122281Y81608D02*
Y84442D01*
X119446D02*
X122281D01*
X116571Y55976D02*
Y60602D01*
X314903Y27318D02*
X319037D01*
X301378Y23327D02*
Y27657D01*
X311221Y23327D02*
Y27657D01*
X330298Y38696D02*
Y43027D01*
X323999Y38696D02*
Y43027D01*
X252679Y363257D02*
X256616D01*
X252679Y370343D02*
X256616D01*
X273068Y41921D02*
Y46449D01*
X30358Y236463D02*
X31343D01*
X30358Y232526D02*
X31343D01*
X30358Y221896D02*
Y247093D01*
X-3500Y221896D02*
Y247093D01*
X-5469Y221994D02*
X-3500D01*
X-5469Y246994D02*
X-3500D01*
X-5469Y221994D02*
Y246994D01*
X-9405Y223864D02*
X-5469D01*
X-9405Y245124D02*
X-5469D01*
X-9405Y223864D02*
Y245124D01*
X-10360Y246778D02*
X-9405Y245124D01*
X-10360Y222211D02*
Y246778D01*
Y222211D02*
X-9405Y223864D01*
X-42476Y222211D02*
X-10360D01*
X-42476Y246778D02*
X-10360D01*
X-44217Y222455D02*
Y246533D01*
X-45626Y223864D02*
X-44217Y222455D01*
X-45626Y223864D02*
Y245124D01*
X-44217Y246533D01*
X-48382Y245124D02*
X-45626D01*
X-48776Y224258D02*
Y244730D01*
X-48382Y223864D02*
X-45626D01*
X-42476Y228918D02*
X-10360D01*
X-44217Y229480D02*
X-42476Y228918D01*
Y240070D02*
X-10360D01*
X-44217Y239508D02*
X-42476Y240070D01*
X-44217Y222455D02*
X-42476Y222211D01*
X-44217Y246533D02*
X-42476Y246778D01*
Y222211D02*
Y246778D01*
X-5469Y228456D02*
X-3500D01*
X-5469Y240532D02*
X-3500D01*
Y223359D02*
X30358D01*
X-3500Y245630D02*
X30358D01*
X-19707Y218746D02*
Y219238D01*
X-25088D02*
X-19707D01*
X-25088Y218746D02*
Y219238D01*
X-26335Y218746D02*
X-18461D01*
X-26335D02*
Y250242D01*
X-18461D01*
Y218746D02*
Y250242D01*
X-25088Y234002D02*
X-19707D01*
X-25088D02*
Y234986D01*
X-19707D01*
Y234002D02*
Y234986D01*
Y249750D02*
Y250242D01*
X-25088Y249750D02*
X-19707D01*
X-25088D02*
Y250242D01*
X-16098Y218746D02*
X-15311Y221456D01*
X-16098Y221685D02*
X-15311Y221456D01*
X-18461D02*
X-17673Y221685D01*
X-18461Y221456D02*
X-17673Y218746D01*
X-16098Y215793D02*
Y253195D01*
X-17673Y215793D02*
X-16098D01*
X-17673D02*
Y253195D01*
X-16098D01*
Y220856D02*
X-15311Y223203D01*
X-18461D02*
X-17673Y220856D01*
X-16098Y225179D02*
X-15311Y223203D01*
X-16098Y225377D02*
X-15311Y227975D01*
X-16098Y230973D02*
X-15311Y227975D01*
X-16098Y231245D02*
X-15311Y234494D01*
X-16098Y237712D02*
X-15311Y234494D01*
X-16098Y237983D02*
X-15311Y241013D01*
X-16098Y243588D02*
X-15311Y241013D01*
X-16098Y243786D02*
X-15311Y245785D01*
X-16098Y247938D02*
X-15311Y245785D01*
X-16098Y250242D02*
X-15311Y247532D01*
X-18461Y234494D02*
X-17673Y231293D01*
X-18461Y227975D02*
X-17673Y230926D01*
X-18461Y227975D02*
X-17673Y225417D01*
X-18461Y223203D02*
X-17673Y225149D01*
X-18461Y234494D02*
X-17673Y237696D01*
X-18461Y241013D02*
X-17673Y238062D01*
X-18461Y241013D02*
X-17673Y243545D01*
X-18461Y245785D02*
X-17673Y243813D01*
X-18461Y245785D02*
X-17673Y248132D01*
X-16098Y247303D02*
X-15311Y247532D01*
X-18461D02*
X-17673Y247303D01*
X-18461Y247532D02*
X-17673Y250242D01*
X30358Y166463D02*
X31343D01*
X30358Y162526D02*
X31343D01*
X30358Y151896D02*
Y177093D01*
X-3500Y151896D02*
Y177093D01*
X-5469Y151994D02*
X-3500D01*
X-5469Y176994D02*
X-3500D01*
X-5469Y151994D02*
Y176994D01*
X-9405Y153864D02*
X-5469D01*
X-9405Y175124D02*
X-5469D01*
X-9405Y153864D02*
Y175124D01*
X-10360Y176778D02*
X-9405Y175124D01*
X-10360Y152211D02*
Y176778D01*
Y152211D02*
X-9405Y153864D01*
X-42476Y152211D02*
X-10360D01*
X-42476Y176778D02*
X-10360D01*
X-44217Y152455D02*
Y176533D01*
X-45626Y153864D02*
X-44217Y152455D01*
X-45626Y153864D02*
Y175124D01*
X-44217Y176533D01*
X-48382Y175124D02*
X-45626D01*
X-48776Y154258D02*
Y174730D01*
X-48382Y153864D02*
X-45626D01*
X-42476Y158918D02*
X-10360D01*
X-44217Y159480D02*
X-42476Y158918D01*
Y170070D02*
X-10360D01*
X-44217Y169508D02*
X-42476Y170070D01*
X-44217Y152455D02*
X-42476Y152211D01*
X-44217Y176533D02*
X-42476Y176778D01*
Y152211D02*
Y176778D01*
X-5469Y158456D02*
X-3500D01*
X-5469Y170532D02*
X-3500D01*
Y153358D02*
X30358D01*
X-3500Y175630D02*
X30358D01*
X-19707Y148746D02*
Y149238D01*
X-25088D02*
X-19707D01*
X-25088Y148746D02*
Y149238D01*
X-26335Y148746D02*
X-18461D01*
X-26335D02*
Y180242D01*
X-18461D01*
Y148746D02*
Y180242D01*
X-25088Y164002D02*
X-19707D01*
X-25088D02*
Y164986D01*
X-19707D01*
Y164002D02*
Y164986D01*
Y179750D02*
Y180242D01*
X-25088Y179750D02*
X-19707D01*
X-25088D02*
Y180242D01*
X-16098Y148746D02*
X-15311Y151456D01*
X-16098Y151685D02*
X-15311Y151456D01*
X-18461D02*
X-17673Y151685D01*
X-18461Y151456D02*
X-17673Y148746D01*
X-16098Y145793D02*
Y183195D01*
X-17673Y145793D02*
X-16098D01*
X-17673D02*
Y183195D01*
X-16098D01*
Y150856D02*
X-15311Y153203D01*
X-18461D02*
X-17673Y150856D01*
X-16098Y155178D02*
X-15311Y153203D01*
X-16098Y155377D02*
X-15311Y157975D01*
X-16098Y160973D02*
X-15311Y157975D01*
X-16098Y161245D02*
X-15311Y164494D01*
X-16098Y167711D02*
X-15311Y164494D01*
X-16098Y167983D02*
X-15311Y171013D01*
X-16098Y173588D02*
X-15311Y171013D01*
X-16098Y173786D02*
X-15311Y175785D01*
X-16098Y177938D02*
X-15311Y175785D01*
X-16098Y180242D02*
X-15311Y177532D01*
X-18461Y164494D02*
X-17673Y161293D01*
X-18461Y157975D02*
X-17673Y160926D01*
X-18461Y157975D02*
X-17673Y155417D01*
X-18461Y153203D02*
X-17673Y155149D01*
X-18461Y164494D02*
X-17673Y167695D01*
X-18461Y171013D02*
X-17673Y168062D01*
X-18461Y171013D02*
X-17673Y173545D01*
X-18461Y175785D02*
X-17673Y173813D01*
X-18461Y175785D02*
X-17673Y178132D01*
X-16098Y177303D02*
X-15311Y177532D01*
X-18461D02*
X-17673Y177303D01*
X-18461Y177532D02*
X-17673Y180242D01*
X348924Y108235D02*
Y112566D01*
X342624Y108235D02*
Y112566D01*
X358692Y108235D02*
Y112566D01*
X352393Y108235D02*
Y112566D01*
X331359Y150535D02*
Y154865D01*
X337658Y150535D02*
Y154865D01*
X321459Y150535D02*
Y154865D01*
X327758Y150535D02*
Y154865D01*
X347952Y150535D02*
Y154865D01*
X341653Y150535D02*
Y154865D01*
X356558Y144936D02*
Y149464D01*
X84517Y270783D02*
Y275311D01*
X84607Y198333D02*
Y202860D01*
X84646Y125787D02*
Y130315D01*
X84567Y49525D02*
Y54052D01*
X341602Y80930D02*
X346129D01*
X331169Y81422D02*
Y85359D01*
X338255Y81422D02*
Y85359D01*
X321300Y81608D02*
Y85545D01*
X328386Y81608D02*
Y85545D01*
X349404Y38696D02*
Y43027D01*
X343105Y38696D02*
Y43027D01*
X339646Y38696D02*
Y43027D01*
X333347Y38696D02*
Y43027D01*
X366533Y63679D02*
X370864D01*
X366533Y73522D02*
X370864D01*
X366569Y50195D02*
X370900D01*
X366569Y60037D02*
X370900D01*
X366626Y83740D02*
X370957D01*
X366626Y93582D02*
X370957D01*
X166261Y20959D02*
Y25290D01*
X156418Y20959D02*
Y25290D01*
X268547Y20914D02*
Y25245D01*
X278389Y20914D02*
Y25245D01*
X153061Y20959D02*
Y25290D01*
X143218Y20959D02*
Y25290D01*
X255346Y20914D02*
Y25245D01*
X265189Y20914D02*
Y25245D01*
X199092Y23372D02*
Y27702D01*
X189250Y23372D02*
Y27702D01*
X160939Y41966D02*
Y46494D01*
X169193Y20177D02*
Y26083D01*
X175886Y20177D02*
Y26083D01*
X169193Y20177D02*
X175886D01*
X169193Y20965D02*
X175886D01*
X169193Y21752D02*
X175886D01*
X281321Y21707D02*
X288014D01*
X281321Y20920D02*
X288014D01*
X281321Y20132D02*
X288014D01*
Y26038D01*
X281321Y20132D02*
Y26038D01*
X119397Y305701D02*
X122231D01*
Y302866D02*
Y305701D01*
X110421Y302866D02*
Y305701D01*
X113255D01*
X110421Y293890D02*
X113255D01*
X110421D02*
Y296724D01*
X122231Y295071D02*
Y296724D01*
X121050Y293890D02*
X122231Y295071D01*
X119397Y293890D02*
X121050D01*
X122231Y295071D01*
X119486Y233250D02*
X122321D01*
Y230415D02*
Y233250D01*
X110510Y230415D02*
Y233250D01*
X113345D01*
X110510Y221439D02*
X113345D01*
X110510D02*
Y224274D01*
X122321Y222620D02*
Y224274D01*
X121140Y221439D02*
X122321Y222620D01*
X119486Y221439D02*
X121140D01*
X122321Y222620D01*
X119525Y160705D02*
X122360D01*
Y157870D02*
Y160705D01*
X110549Y157870D02*
Y160705D01*
X113383D01*
X110549Y148894D02*
X113383D01*
X110549D02*
Y151728D01*
X122360Y150075D02*
Y151728D01*
X121179Y148894D02*
X122360Y150075D01*
X119525Y148894D02*
X121179D01*
X122360Y150075D01*
X83867Y296190D02*
Y297174D01*
Y296190D02*
X84851D01*
X83867Y307016D02*
Y308001D01*
X84851D01*
X95678Y296190D02*
Y297174D01*
X94694Y296190D02*
X95678D01*
Y307016D02*
Y307213D01*
X94890Y308001D02*
X95678Y307213D01*
X94694Y308001D02*
X94890D01*
X94783Y235550D02*
X94980D01*
X95767Y234763D01*
Y234566D02*
Y234763D01*
X94783Y223739D02*
X95767D01*
Y224723D01*
X83956Y235550D02*
X84941D01*
X83956Y234566D02*
Y235550D01*
Y223739D02*
X84941D01*
X83956D02*
Y224723D01*
X83995Y151194D02*
Y152178D01*
Y151194D02*
X84979D01*
X83995Y162021D02*
Y163005D01*
X84979D01*
X95806Y151194D02*
Y152178D01*
X94822Y151194D02*
X95806D01*
Y162021D02*
Y162217D01*
X95019Y163005D02*
X95806Y162217D01*
X94822Y163005D02*
X95019D01*
X131865Y307954D02*
X132849D01*
X131865Y306969D02*
Y307954D01*
X142691D02*
X143676D01*
Y306969D02*
Y307954D01*
X131865Y296143D02*
X132849D01*
X131865D02*
Y297127D01*
X142691Y296143D02*
X142888D01*
X143676Y296930D01*
Y297127D01*
X143765Y224479D02*
Y224676D01*
X142978Y223692D02*
X143765Y224479D01*
X142781Y223692D02*
X142978D01*
X131954D02*
Y224676D01*
Y223692D02*
X132938D01*
X143765Y234519D02*
Y235503D01*
X142781D02*
X143765D01*
X131954Y234519D02*
Y235503D01*
X132938D01*
X131993Y162958D02*
X132977D01*
X131993Y161973D02*
Y162958D01*
X142820D02*
X143804D01*
Y161973D02*
Y162958D01*
X131993Y151146D02*
X132977D01*
X131993D02*
Y152131D01*
X142820Y151146D02*
X143017D01*
X143804Y151934D01*
Y152131D01*
X151445Y305672D02*
X159819D01*
X151445Y296623D02*
X159819D01*
X151535Y233222D02*
X159909D01*
X151535Y224172D02*
X159909D01*
X151574Y160676D02*
X159948D01*
X151574Y151627D02*
X159948D01*
X151495Y75364D02*
X159869D01*
X151495Y84414D02*
X159869D01*
X67152Y305638D02*
X75526D01*
X67152Y296588D02*
X75526D01*
X67242Y233187D02*
X75616D01*
X67242Y224137D02*
X75616D01*
X362500Y112106D02*
X366634D01*
X146457Y38484D02*
X150591D01*
X258201Y38549D02*
X262335D01*
X202775Y27363D02*
X206908D01*
X86136Y37434D02*
X90073D01*
X86136Y30347D02*
X90073D01*
X243438Y51203D02*
Y55140D01*
X250524Y51203D02*
Y55140D01*
X36430Y11557D02*
X40367D01*
X36430Y18643D02*
X40367D01*
X36432Y378743D02*
X40369D01*
X36432Y371657D02*
X40369D01*
X134632Y363257D02*
X138568D01*
X134632Y370343D02*
X138568D01*
X116522Y277235D02*
Y281861D01*
X116612Y204784D02*
Y209410D01*
X116650Y132239D02*
Y136865D01*
D11*
X344803Y124457D02*
G03*
X344803Y124457I-492J0D01*
G01*
X299109Y35006D02*
G03*
X299109Y35006I-492J0D01*
G01*
X326387Y140826D02*
G03*
X326387Y140826I-492J0D01*
G01*
X93267Y90679D02*
G03*
X93267Y90679I-492J0D01*
G01*
X148154Y77837D02*
G03*
X148154Y77837I-492J0D01*
G01*
X78352Y150313D02*
G03*
X78352Y150313I-492J0D01*
G01*
X78273Y74050D02*
G03*
X78273Y74050I-492J0D01*
G01*
X123954Y71548D02*
G03*
X123954Y71548I-492J0D01*
G01*
X168937Y16004D02*
G03*
X168937Y16004I-492J0D01*
G01*
X281065Y15959D02*
G03*
X281065Y15959I-492J0D01*
G01*
X123905Y292807D02*
G03*
X123905Y292807I-492J0D01*
G01*
X123994Y220356D02*
G03*
X123994Y220356I-492J0D01*
G01*
X124033Y147811D02*
G03*
X124033Y147811I-492J0D01*
G01*
X93217Y311938D02*
G03*
X93217Y311938I-492J0D01*
G01*
X93307Y239487D02*
G03*
X93307Y239487I-492J0D01*
G01*
X93346Y166942D02*
G03*
X93346Y166942I-492J0D01*
G01*
X148105Y299095D02*
G03*
X148105Y299095I-492J0D01*
G01*
X148194Y226645D02*
G03*
X148194Y226645I-492J0D01*
G01*
X148233Y154099D02*
G03*
X148233Y154099I-492J0D01*
G01*
X162516Y295344D02*
G03*
X162516Y295344I-492J0D01*
G01*
X162606Y222893D02*
G03*
X162606Y222893I-492J0D01*
G01*
X162645Y150348D02*
G03*
X162645Y150348I-492J0D01*
G01*
X162566Y74085D02*
G03*
X162566Y74085I-492J0D01*
G01*
X78223Y295309D02*
G03*
X78223Y295309I-492J0D01*
G01*
X78313Y222858D02*
G03*
X78313Y222858I-492J0D01*
G01*
X186980Y35050D02*
G03*
X186980Y35050I-492J0D01*
G01*
D12*
X25250Y371700D02*
G03*
X25250Y371700I-11250J0D01*
G01*
Y21700D02*
G03*
X25250Y21700I-11250J0D01*
G01*
M02*
