G04*
G04 #@! TF.GenerationSoftware,Altium Limited,Altium Designer,21.0.9 (235)*
G04*
G04 Layer_Color=16711935*
%FSLAX25Y25*%
%MOIN*%
G70*
G04*
G04 #@! TF.SameCoordinates,4626A756-FD0A-4D7F-A62D-B668EF0F2538*
G04*
G04*
G04 #@! TF.FilePolarity,Positive*
G04*
G01*
G75*
%ADD12C,0.01000*%
%ADD58C,0.00600*%
%ADD126C,0.02500*%
%ADD127C,0.00394*%
%ADD128C,0.01500*%
%ADD129C,0.00100*%
D12*
X528150Y559847D02*
Y553849D01*
X532149D01*
X535148Y557848D02*
X537147D01*
X538147Y556848D01*
Y553849D01*
X535148D01*
X534148Y554849D01*
X535148Y555849D01*
X538147D01*
X540146Y557848D02*
Y554849D01*
X541146Y553849D01*
X544145D01*
Y552850D01*
X543145Y551850D01*
X542145D01*
X544145Y553849D02*
Y557848D01*
X549143Y553849D02*
X547144D01*
X546144Y554849D01*
Y556848D01*
X547144Y557848D01*
X549143D01*
X550143Y556848D01*
Y555849D01*
X546144D01*
X552142Y557848D02*
Y553849D01*
Y555849D01*
X553142Y556848D01*
X554142Y557848D01*
X555141D01*
X531149Y445849D02*
Y451847D01*
X528150Y448848D01*
X532149D01*
X528150Y474848D02*
X529150Y475847D01*
X531149D01*
X532149Y474848D01*
Y473848D01*
X531149Y472848D01*
X530149D01*
X531149D01*
X532149Y471849D01*
Y470849D01*
X531149Y469849D01*
X529150D01*
X528150Y470849D01*
X532149Y493849D02*
X528150D01*
X532149Y497848D01*
Y498848D01*
X531149Y499847D01*
X529150D01*
X528150Y498848D01*
Y517849D02*
X530149D01*
X529150D01*
Y523847D01*
X528150Y522848D01*
X569141Y553849D02*
Y559847D01*
X573140Y553849D01*
Y559847D01*
X576139Y557848D02*
X578138D01*
X579138Y556848D01*
Y553849D01*
X576139D01*
X575139Y554849D01*
X576139Y555849D01*
X579138D01*
X581137Y553849D02*
Y557848D01*
X582137D01*
X583137Y556848D01*
Y553849D01*
Y556848D01*
X584136Y557848D01*
X585136Y556848D01*
Y553849D01*
X590134D02*
X588135D01*
X587136Y554849D01*
Y556848D01*
X588135Y557848D01*
X590134D01*
X591134Y556848D01*
Y555849D01*
X587136D01*
X569141Y427847D02*
Y421849D01*
X572140D01*
X573140Y422849D01*
Y423849D01*
X572140Y424848D01*
X569141D01*
X572140D01*
X573140Y425848D01*
Y426848D01*
X572140Y427847D01*
X569141D01*
X576139Y421849D02*
X578138D01*
X579138Y422849D01*
Y424848D01*
X578138Y425848D01*
X576139D01*
X575139Y424848D01*
Y422849D01*
X576139Y421849D01*
X582137Y426848D02*
Y425848D01*
X581137D01*
X583137D01*
X582137D01*
Y422849D01*
X583137Y421849D01*
X587136Y426848D02*
Y425848D01*
X586136D01*
X588135D01*
X587136D01*
Y422849D01*
X588135Y421849D01*
X592134D02*
X594133D01*
X595133Y422849D01*
Y424848D01*
X594133Y425848D01*
X592134D01*
X591134Y424848D01*
Y422849D01*
X592134Y421849D01*
X597132D02*
Y425848D01*
X598132D01*
X599132Y424848D01*
Y421849D01*
Y424848D01*
X600131Y425848D01*
X601131Y424848D01*
Y421849D01*
X612127Y427847D02*
X610128D01*
X609128Y426848D01*
Y422849D01*
X610128Y421849D01*
X612127D01*
X613127Y422849D01*
Y426848D01*
X612127Y427847D01*
X615126Y425848D02*
X617126Y421849D01*
X619125Y425848D01*
X624123Y421849D02*
X622124D01*
X621125Y422849D01*
Y424848D01*
X622124Y425848D01*
X624123D01*
X625123Y424848D01*
Y423849D01*
X621125D01*
X627123Y425848D02*
Y421849D01*
Y423849D01*
X628122Y424848D01*
X629122Y425848D01*
X630122D01*
X633121Y421849D02*
X635120D01*
X634120D01*
Y427847D01*
X633121D01*
X639119Y425848D02*
X641118D01*
X642118Y424848D01*
Y421849D01*
X639119D01*
X638119Y422849D01*
X639119Y423849D01*
X642118D01*
X644117Y425848D02*
Y422849D01*
X645117Y421849D01*
X648116D01*
Y420850D01*
X647116Y419850D01*
X646116D01*
X648116Y421849D02*
Y425848D01*
X569141Y439847D02*
Y433849D01*
X572140D01*
X573140Y434849D01*
Y435849D01*
X572140Y436848D01*
X569141D01*
X572140D01*
X573140Y437848D01*
Y438848D01*
X572140Y439847D01*
X569141D01*
X576139Y433849D02*
X578138D01*
X579138Y434849D01*
Y436848D01*
X578138Y437848D01*
X576139D01*
X575139Y436848D01*
Y434849D01*
X576139Y433849D01*
X582137Y438848D02*
Y437848D01*
X581137D01*
X583137D01*
X582137D01*
Y434849D01*
X583137Y433849D01*
X587136Y438848D02*
Y437848D01*
X586136D01*
X588135D01*
X587136D01*
Y434849D01*
X588135Y433849D01*
X592134D02*
X594133D01*
X595133Y434849D01*
Y436848D01*
X594133Y437848D01*
X592134D01*
X591134Y436848D01*
Y434849D01*
X592134Y433849D01*
X597132D02*
Y437848D01*
X598132D01*
X599132Y436848D01*
Y433849D01*
Y436848D01*
X600131Y437848D01*
X601131Y436848D01*
Y433849D01*
X613127Y438848D02*
X612127Y439847D01*
X610128D01*
X609128Y438848D01*
Y437848D01*
X610128Y436848D01*
X612127D01*
X613127Y435849D01*
Y434849D01*
X612127Y433849D01*
X610128D01*
X609128Y434849D01*
X616126Y433849D02*
X618125D01*
X619125Y434849D01*
Y436848D01*
X618125Y437848D01*
X616126D01*
X615126Y436848D01*
Y434849D01*
X616126Y433849D01*
X621125D02*
X623124D01*
X622124D01*
Y439847D01*
X621125D01*
X630122D02*
Y433849D01*
X627123D01*
X626123Y434849D01*
Y436848D01*
X627123Y437848D01*
X630122D01*
X635120Y433849D02*
X633121D01*
X632121Y434849D01*
Y436848D01*
X633121Y437848D01*
X635120D01*
X636120Y436848D01*
Y435849D01*
X632121D01*
X638119Y437848D02*
Y433849D01*
Y435849D01*
X639119Y436848D01*
X640118Y437848D01*
X641118D01*
X569141Y451847D02*
Y445849D01*
X573140D01*
X578138D02*
Y451847D01*
X575139Y448848D01*
X579138D01*
X569141Y463847D02*
Y457849D01*
X572140D01*
X573140Y458849D01*
Y462848D01*
X572140Y463847D01*
X569141D01*
X575139Y457849D02*
X577139D01*
X576139D01*
Y461848D01*
X575139D01*
X583137Y457849D02*
X581137D01*
X580138Y458849D01*
Y460848D01*
X581137Y461848D01*
X583137D01*
X584136Y460848D01*
Y459849D01*
X580138D01*
X586136Y457849D02*
X588135D01*
X587136D01*
Y463847D01*
X586136D01*
X594133Y457849D02*
X592134D01*
X591134Y458849D01*
Y460848D01*
X592134Y461848D01*
X594133D01*
X595133Y460848D01*
Y459849D01*
X591134D01*
X601131Y461848D02*
X598132D01*
X597132Y460848D01*
Y458849D01*
X598132Y457849D01*
X601131D01*
X604130Y462848D02*
Y461848D01*
X603130D01*
X605130D01*
X604130D01*
Y458849D01*
X605130Y457849D01*
X608129Y461848D02*
Y457849D01*
Y459849D01*
X609128Y460848D01*
X610128Y461848D01*
X611128D01*
X614127Y457849D02*
X616126D01*
X615126D01*
Y461848D01*
X614127D01*
X623124D02*
X620125D01*
X619125Y460848D01*
Y458849D01*
X620125Y457849D01*
X623124D01*
X625123Y462848D02*
X626123Y463847D01*
X628122D01*
X629122Y462848D01*
Y461848D01*
X628122Y460848D01*
X627122D01*
X628122D01*
X629122Y459849D01*
Y458849D01*
X628122Y457849D01*
X626123D01*
X625123Y458849D01*
X569141Y475847D02*
Y469849D01*
X573140D01*
X575139Y474848D02*
X576139Y475847D01*
X578138D01*
X579138Y474848D01*
Y473848D01*
X578138Y472848D01*
X577139D01*
X578138D01*
X579138Y471849D01*
Y470849D01*
X578138Y469849D01*
X576139D01*
X575139Y470849D01*
X569141Y487847D02*
Y481849D01*
X572140D01*
X573140Y482849D01*
Y486848D01*
X572140Y487847D01*
X569141D01*
X575139Y481849D02*
X577139D01*
X576139D01*
Y485848D01*
X575139D01*
X583137Y481849D02*
X581137D01*
X580138Y482849D01*
Y484848D01*
X581137Y485848D01*
X583137D01*
X584136Y484848D01*
Y483849D01*
X580138D01*
X586136Y481849D02*
X588135D01*
X587136D01*
Y487847D01*
X586136D01*
X594133Y481849D02*
X592134D01*
X591134Y482849D01*
Y484848D01*
X592134Y485848D01*
X594133D01*
X595133Y484848D01*
Y483849D01*
X591134D01*
X601131Y485848D02*
X598132D01*
X597132Y484848D01*
Y482849D01*
X598132Y481849D01*
X601131D01*
X604130Y486848D02*
Y485848D01*
X603130D01*
X605130D01*
X604130D01*
Y482849D01*
X605130Y481849D01*
X608129Y485848D02*
Y481849D01*
Y483849D01*
X609128Y484848D01*
X610128Y485848D01*
X611128D01*
X614127Y481849D02*
X616126D01*
X615126D01*
Y485848D01*
X614127D01*
X623124D02*
X620125D01*
X619125Y484848D01*
Y482849D01*
X620125Y481849D01*
X623124D01*
X635120D02*
X631121D01*
X635120Y485848D01*
Y486848D01*
X634120Y487847D01*
X632121D01*
X631121Y486848D01*
X569141Y499847D02*
Y493849D01*
X573140D01*
X579138D02*
X575139D01*
X579138Y497848D01*
Y498848D01*
X578138Y499847D01*
X576139D01*
X575139Y498848D01*
X569141Y511847D02*
Y505849D01*
X572140D01*
X573140Y506849D01*
Y510848D01*
X572140Y511847D01*
X569141D01*
X575139Y505849D02*
X577139D01*
X576139D01*
Y509848D01*
X575139D01*
X583137Y505849D02*
X581137D01*
X580138Y506849D01*
Y508848D01*
X581137Y509848D01*
X583137D01*
X584136Y508848D01*
Y507849D01*
X580138D01*
X586136Y505849D02*
X588135D01*
X587136D01*
Y511847D01*
X586136D01*
X594133Y505849D02*
X592134D01*
X591134Y506849D01*
Y508848D01*
X592134Y509848D01*
X594133D01*
X595133Y508848D01*
Y507849D01*
X591134D01*
X601131Y509848D02*
X598132D01*
X597132Y508848D01*
Y506849D01*
X598132Y505849D01*
X601131D01*
X604130Y510848D02*
Y509848D01*
X603130D01*
X605130D01*
X604130D01*
Y506849D01*
X605130Y505849D01*
X608129Y509848D02*
Y505849D01*
Y507849D01*
X609128Y508848D01*
X610128Y509848D01*
X611128D01*
X614127Y505849D02*
X616126D01*
X615126D01*
Y509848D01*
X614127D01*
X623124D02*
X620125D01*
X619125Y508848D01*
Y506849D01*
X620125Y505849D01*
X623124D01*
X625123D02*
X627122D01*
X626123D01*
Y511847D01*
X625123Y510848D01*
X569141Y523847D02*
Y517849D01*
X573140D01*
X575139D02*
X577139D01*
X576139D01*
Y523847D01*
X575139Y522848D01*
X569141Y535847D02*
X573140D01*
X571141D01*
Y529849D01*
X576139D02*
X578138D01*
X579138Y530849D01*
Y532848D01*
X578138Y533848D01*
X576139D01*
X575139Y532848D01*
Y530849D01*
X576139Y529849D01*
X581137Y527850D02*
Y533848D01*
X584136D01*
X585136Y532848D01*
Y530849D01*
X584136Y529849D01*
X581137D01*
X597132Y534848D02*
X596133Y535847D01*
X594133D01*
X593134Y534848D01*
Y533848D01*
X594133Y532848D01*
X596133D01*
X597132Y531849D01*
Y530849D01*
X596133Y529849D01*
X594133D01*
X593134Y530849D01*
X600131Y529849D02*
X602131D01*
X603130Y530849D01*
Y532848D01*
X602131Y533848D01*
X600131D01*
X599132Y532848D01*
Y530849D01*
X600131Y529849D01*
X605130D02*
X607129D01*
X606129D01*
Y535847D01*
X605130D01*
X614127D02*
Y529849D01*
X611128D01*
X610128Y530849D01*
Y532848D01*
X611128Y533848D01*
X614127D01*
X619125Y529849D02*
X617126D01*
X616126Y530849D01*
Y532848D01*
X617126Y533848D01*
X619125D01*
X620125Y532848D01*
Y531849D01*
X616126D01*
X622124Y533848D02*
Y529849D01*
Y531849D01*
X623124Y532848D01*
X624123Y533848D01*
X625123D01*
X569141Y547847D02*
X573140D01*
X571141D01*
Y541849D01*
X576139D02*
X578138D01*
X579138Y542849D01*
Y544848D01*
X578138Y545848D01*
X576139D01*
X575139Y544848D01*
Y542849D01*
X576139Y541849D01*
X581137Y539850D02*
Y545848D01*
X584136D01*
X585136Y544848D01*
Y542849D01*
X584136Y541849D01*
X581137D01*
X596133Y547847D02*
X594133D01*
X593134Y546848D01*
Y542849D01*
X594133Y541849D01*
X596133D01*
X597132Y542849D01*
Y546848D01*
X596133Y547847D01*
X599132Y545848D02*
X601131Y541849D01*
X603130Y545848D01*
X608129Y541849D02*
X606129D01*
X605130Y542849D01*
Y544848D01*
X606129Y545848D01*
X608129D01*
X609128Y544848D01*
Y543849D01*
X605130D01*
X611128Y545848D02*
Y541849D01*
Y543849D01*
X612127Y544848D01*
X613127Y545848D01*
X614127D01*
X617126Y541849D02*
X619125D01*
X618125D01*
Y547847D01*
X617126D01*
X623124Y545848D02*
X625123D01*
X626123Y544848D01*
Y541849D01*
X623124D01*
X622124Y542849D01*
X623124Y543849D01*
X626123D01*
X628122Y545848D02*
Y542849D01*
X629122Y541849D01*
X632121D01*
Y540850D01*
X631121Y539850D01*
X630122D01*
X632121Y541849D02*
Y545848D01*
X662116Y553849D02*
Y559847D01*
X664115Y557848D01*
X666115Y559847D01*
Y553849D01*
X669113Y557848D02*
X671113D01*
X672113Y556848D01*
Y553849D01*
X669113D01*
X668114Y554849D01*
X669113Y555849D01*
X672113D01*
X675112Y558848D02*
Y557848D01*
X674112D01*
X676111D01*
X675112D01*
Y554849D01*
X676111Y553849D01*
X682109D02*
X680110D01*
X679110Y554849D01*
Y556848D01*
X680110Y557848D01*
X682109D01*
X683109Y556848D01*
Y555849D01*
X679110D01*
X685108Y557848D02*
Y553849D01*
Y555849D01*
X686108Y556848D01*
X687108Y557848D01*
X688107D01*
X691106Y553849D02*
X693106D01*
X692106D01*
Y557848D01*
X691106D01*
X697104D02*
X699104D01*
X700104Y556848D01*
Y553849D01*
X697104D01*
X696105Y554849D01*
X697104Y555849D01*
X700104D01*
X702103Y553849D02*
X704102D01*
X703102D01*
Y559847D01*
X702103D01*
X666115Y438848D02*
X665115Y439847D01*
X663115D01*
X662116Y438848D01*
Y437848D01*
X663115Y436848D01*
X665115D01*
X666115Y435849D01*
Y434849D01*
X665115Y433849D01*
X663115D01*
X662116Y434849D01*
X669113Y433849D02*
X671113D01*
X672113Y434849D01*
Y436848D01*
X671113Y437848D01*
X669113D01*
X668114Y436848D01*
Y434849D01*
X669113Y433849D01*
X674112D02*
X676111D01*
X675112D01*
Y439847D01*
X674112D01*
X683109D02*
Y433849D01*
X680110D01*
X679110Y434849D01*
Y436848D01*
X680110Y437848D01*
X683109D01*
X688107Y433849D02*
X686108D01*
X685108Y434849D01*
Y436848D01*
X686108Y437848D01*
X688107D01*
X689107Y436848D01*
Y435849D01*
X685108D01*
X691106Y437848D02*
Y433849D01*
Y435849D01*
X692106Y436848D01*
X693106Y437848D01*
X694105D01*
X703102Y433849D02*
Y439847D01*
X706102D01*
X707101Y438848D01*
Y436848D01*
X706102Y435849D01*
X703102D01*
X705102D02*
X707101Y433849D01*
X712100D02*
X710100D01*
X709101Y434849D01*
Y436848D01*
X710100Y437848D01*
X712100D01*
X713099Y436848D01*
Y435849D01*
X709101D01*
X715099Y433849D02*
X718098D01*
X719097Y434849D01*
X718098Y435849D01*
X716098D01*
X715099Y436848D01*
X716098Y437848D01*
X719097D01*
X721097Y433849D02*
X723096D01*
X722096D01*
Y437848D01*
X721097D01*
X726095Y433849D02*
X729094D01*
X730094Y434849D01*
X729094Y435849D01*
X727095D01*
X726095Y436848D01*
X727095Y437848D01*
X730094D01*
X733093Y438848D02*
Y437848D01*
X732093D01*
X734093D01*
X733093D01*
Y434849D01*
X734093Y433849D01*
X666115Y463847D02*
X662116D01*
Y460848D01*
X664115D01*
X662116D01*
Y457849D01*
X668114D02*
Y463847D01*
X671113D01*
X672113Y462848D01*
Y460848D01*
X671113Y459849D01*
X668114D01*
X670113D02*
X672113Y457849D01*
X677111D02*
Y463847D01*
X674112Y460848D01*
X678111D01*
X680110Y462848D02*
X681110Y463847D01*
X683109D01*
X684109Y462848D01*
Y458849D01*
X683109Y457849D01*
X681110D01*
X680110Y458849D01*
Y462848D01*
X686108D02*
X687108Y463847D01*
X689107D01*
X690107Y462848D01*
Y461848D01*
X689107Y460848D01*
X690107Y459849D01*
Y458849D01*
X689107Y457849D01*
X687108D01*
X686108Y458849D01*
Y459849D01*
X687108Y460848D01*
X686108Y461848D01*
Y462848D01*
X687108Y460848D02*
X689107D01*
X692106Y463847D02*
Y457849D01*
Y460848D01*
X696105D01*
Y463847D01*
Y457849D01*
X698104D02*
Y463847D01*
X701103D01*
X702103Y462848D01*
Y460848D01*
X701103Y459849D01*
X698104D01*
X700104D02*
X702103Y457849D01*
X666115Y487847D02*
X662116D01*
Y484848D01*
X664115D01*
X662116D01*
Y481849D01*
X668114D02*
Y487847D01*
X671113D01*
X672113Y486848D01*
Y484848D01*
X671113Y483849D01*
X668114D01*
X670113D02*
X672113Y481849D01*
X677111D02*
Y487847D01*
X674112Y484848D01*
X678111D01*
X680110Y486848D02*
X681110Y487847D01*
X683109D01*
X684109Y486848D01*
Y482849D01*
X683109Y481849D01*
X681110D01*
X680110Y482849D01*
Y486848D01*
X686108D02*
X687108Y487847D01*
X689107D01*
X690107Y486848D01*
Y485848D01*
X689107Y484848D01*
X690107Y483849D01*
Y482849D01*
X689107Y481849D01*
X687108D01*
X686108Y482849D01*
Y483849D01*
X687108Y484848D01*
X686108Y485848D01*
Y486848D01*
X687108Y484848D02*
X689107D01*
X692106Y487847D02*
Y481849D01*
Y484848D01*
X696105D01*
Y487847D01*
Y481849D01*
X698104D02*
Y487847D01*
X701103D01*
X702103Y486848D01*
Y484848D01*
X701103Y483849D01*
X698104D01*
X700104D02*
X702103Y481849D01*
X666115Y511847D02*
X662116D01*
Y508848D01*
X664115D01*
X662116D01*
Y505849D01*
X668114D02*
Y511847D01*
X671113D01*
X672113Y510848D01*
Y508848D01*
X671113Y507849D01*
X668114D01*
X670113D02*
X672113Y505849D01*
X677111D02*
Y511847D01*
X674112Y508848D01*
X678111D01*
X680110Y510848D02*
X681110Y511847D01*
X683109D01*
X684109Y510848D01*
Y506849D01*
X683109Y505849D01*
X681110D01*
X680110Y506849D01*
Y510848D01*
X686108D02*
X687108Y511847D01*
X689107D01*
X690107Y510848D01*
Y509848D01*
X689107Y508848D01*
X690107Y507849D01*
Y506849D01*
X689107Y505849D01*
X687108D01*
X686108Y506849D01*
Y507849D01*
X687108Y508848D01*
X686108Y509848D01*
Y510848D01*
X687108Y508848D02*
X689107D01*
X692106Y511847D02*
Y505849D01*
Y508848D01*
X696105D01*
Y511847D01*
Y505849D01*
X698104D02*
Y511847D01*
X701103D01*
X702103Y510848D01*
Y508848D01*
X701103Y507849D01*
X698104D01*
X700104D02*
X702103Y505849D01*
X666115Y534848D02*
X665115Y535847D01*
X663115D01*
X662116Y534848D01*
Y533848D01*
X663115Y532848D01*
X665115D01*
X666115Y531849D01*
Y530849D01*
X665115Y529849D01*
X663115D01*
X662116Y530849D01*
X669113Y529849D02*
X671113D01*
X672113Y530849D01*
Y532848D01*
X671113Y533848D01*
X669113D01*
X668114Y532848D01*
Y530849D01*
X669113Y529849D01*
X674112D02*
X676111D01*
X675112D01*
Y535847D01*
X674112D01*
X683109D02*
Y529849D01*
X680110D01*
X679110Y530849D01*
Y532848D01*
X680110Y533848D01*
X683109D01*
X688107Y529849D02*
X686108D01*
X685108Y530849D01*
Y532848D01*
X686108Y533848D01*
X688107D01*
X689107Y532848D01*
Y531849D01*
X685108D01*
X691106Y533848D02*
Y529849D01*
Y531849D01*
X692106Y532848D01*
X693106Y533848D01*
X694105D01*
X703102Y529849D02*
Y535847D01*
X706102D01*
X707101Y534848D01*
Y532848D01*
X706102Y531849D01*
X703102D01*
X705102D02*
X707101Y529849D01*
X712100D02*
X710100D01*
X709101Y530849D01*
Y532848D01*
X710100Y533848D01*
X712100D01*
X713099Y532848D01*
Y531849D01*
X709101D01*
X715099Y529849D02*
X718098D01*
X719097Y530849D01*
X718098Y531849D01*
X716098D01*
X715099Y532848D01*
X716098Y533848D01*
X719097D01*
X721097Y529849D02*
X723096D01*
X722096D01*
Y533848D01*
X721097D01*
X726095Y529849D02*
X729094D01*
X730094Y530849D01*
X729094Y531849D01*
X727095D01*
X726095Y532848D01*
X727095Y533848D01*
X730094D01*
X733093Y534848D02*
Y533848D01*
X732093D01*
X734093D01*
X733093D01*
Y530849D01*
X734093Y529849D01*
X748093Y559847D02*
X752091D01*
X750092D01*
Y553849D01*
X754090Y559847D02*
Y553849D01*
Y556848D01*
X755090Y557848D01*
X757090D01*
X758089Y556848D01*
Y553849D01*
X760089D02*
X762088D01*
X761088D01*
Y557848D01*
X760089D01*
X769086D02*
X766087D01*
X765087Y556848D01*
Y554849D01*
X766087Y553849D01*
X769086D01*
X771085D02*
Y559847D01*
Y555849D02*
X774084Y557848D01*
X771085Y555849D02*
X774084Y553849D01*
X777083D02*
Y557848D01*
X780082D01*
X781082Y556848D01*
Y553849D01*
X786080D02*
X784081D01*
X783081Y554849D01*
Y556848D01*
X784081Y557848D01*
X786080D01*
X787080Y556848D01*
Y555849D01*
X783081D01*
X789079Y553849D02*
X792078D01*
X793078Y554849D01*
X792078Y555849D01*
X790079D01*
X789079Y556848D01*
X790079Y557848D01*
X793078D01*
X795077Y553849D02*
X798076D01*
X799076Y554849D01*
X798076Y555849D01*
X796077D01*
X795077Y556848D01*
X796077Y557848D01*
X799076D01*
X748093Y433849D02*
X750092D01*
X749092D01*
Y439847D01*
X748093Y438848D01*
X754090Y432850D02*
X755090Y433849D01*
Y434849D01*
X754090D01*
Y433849D01*
X755090D01*
X754090Y432850D01*
X753091Y431850D01*
X759089Y438848D02*
X760089Y439847D01*
X762088D01*
X763088Y438848D01*
Y437848D01*
X762088Y436848D01*
X761088D01*
X762088D01*
X763088Y435849D01*
Y434849D01*
X762088Y433849D01*
X760089D01*
X759089Y434849D01*
X768086Y433849D02*
Y439847D01*
X765087Y436848D01*
X769086D01*
X771085Y433849D02*
Y437848D01*
X772085D01*
X773084Y436848D01*
Y433849D01*
Y436848D01*
X774084Y437848D01*
X775084Y436848D01*
Y433849D01*
X777083D02*
X779082D01*
X778083D01*
Y437848D01*
X777083D01*
X782082Y433849D02*
X784081D01*
X783081D01*
Y439847D01*
X782082D01*
X748093Y450848D02*
X749092Y451847D01*
X751091D01*
X752091Y450848D01*
Y446849D01*
X751091Y445849D01*
X749092D01*
X748093Y446849D01*
Y450848D01*
X755090Y444850D02*
X756090Y445849D01*
Y446849D01*
X755090D01*
Y445849D01*
X756090D01*
X755090Y444850D01*
X754090Y443850D01*
X764087Y451847D02*
X762088Y450848D01*
X760089Y448848D01*
Y446849D01*
X761088Y445849D01*
X763088D01*
X764087Y446849D01*
Y447849D01*
X763088Y448848D01*
X760089D01*
X766087Y446849D02*
X767086Y445849D01*
X769086D01*
X770085Y446849D01*
Y450848D01*
X769086Y451847D01*
X767086D01*
X766087Y450848D01*
Y449848D01*
X767086Y448848D01*
X770085D01*
X772085Y445849D02*
Y449848D01*
X773084D01*
X774084Y448848D01*
Y445849D01*
Y448848D01*
X775084Y449848D01*
X776083Y448848D01*
Y445849D01*
X778083D02*
X780082D01*
X779082D01*
Y449848D01*
X778083D01*
X783081Y445849D02*
X785080D01*
X784081D01*
Y451847D01*
X783081D01*
X748093Y463847D02*
X752091D01*
Y462848D01*
X748093Y458849D01*
Y457849D01*
X755090Y456850D02*
X756090Y457849D01*
Y458849D01*
X755090D01*
Y457849D01*
X756090D01*
X755090Y456850D01*
X754090Y455850D01*
X760089Y462848D02*
X761088Y463847D01*
X763088D01*
X764087Y462848D01*
Y458849D01*
X763088Y457849D01*
X761088D01*
X760089Y458849D01*
Y462848D01*
X766087D02*
X767086Y463847D01*
X769086D01*
X770085Y462848D01*
Y458849D01*
X769086Y457849D01*
X767086D01*
X766087Y458849D01*
Y462848D01*
X772085Y457849D02*
Y461848D01*
X773084D01*
X774084Y460848D01*
Y457849D01*
Y460848D01*
X775084Y461848D01*
X776083Y460848D01*
Y457849D01*
X778083D02*
X780082D01*
X779082D01*
Y461848D01*
X778083D01*
X783081Y457849D02*
X785080D01*
X784081D01*
Y463847D01*
X783081D01*
X748093Y474848D02*
X749092Y475847D01*
X751091D01*
X752091Y474848D01*
Y470849D01*
X751091Y469849D01*
X749092D01*
X748093Y470849D01*
Y474848D01*
X755090Y468850D02*
X756090Y469849D01*
Y470849D01*
X755090D01*
Y469849D01*
X756090D01*
X755090Y468850D01*
X754090Y467850D01*
X760089Y475847D02*
X764087D01*
Y474848D01*
X760089Y470849D01*
Y469849D01*
X766087D02*
X768086D01*
X767086D01*
Y475847D01*
X766087Y474848D01*
X771085Y469849D02*
Y473848D01*
X772085D01*
X773084Y472848D01*
Y469849D01*
Y472848D01*
X774084Y473848D01*
X775084Y472848D01*
Y469849D01*
X777083D02*
X779082D01*
X778083D01*
Y473848D01*
X777083D01*
X782082Y469849D02*
X784081D01*
X783081D01*
Y475847D01*
X782082D01*
X752091Y481849D02*
X748093D01*
X752091Y485848D01*
Y486848D01*
X751091Y487847D01*
X749092D01*
X748093Y486848D01*
X754090Y481849D02*
X756090D01*
X755090D01*
Y487847D01*
X754090Y486848D01*
X760089Y480850D02*
X761088Y481849D01*
Y482849D01*
X760089D01*
Y481849D01*
X761088D01*
X760089Y480850D01*
X759089Y479850D01*
X765087Y486848D02*
X766087Y487847D01*
X768086D01*
X769086Y486848D01*
Y485848D01*
X768086Y484848D01*
X767086D01*
X768086D01*
X769086Y483849D01*
Y482849D01*
X768086Y481849D01*
X766087D01*
X765087Y482849D01*
X771085Y486848D02*
X772085Y487847D01*
X774084D01*
X775084Y486848D01*
Y485848D01*
X774084Y484848D01*
X775084Y483849D01*
Y482849D01*
X774084Y481849D01*
X772085D01*
X771085Y482849D01*
Y483849D01*
X772085Y484848D01*
X771085Y485848D01*
Y486848D01*
X772085Y484848D02*
X774084D01*
X777083Y481849D02*
Y485848D01*
X778083D01*
X779082Y484848D01*
Y481849D01*
Y484848D01*
X780082Y485848D01*
X781082Y484848D01*
Y481849D01*
X783081D02*
X785080D01*
X784081D01*
Y485848D01*
X783081D01*
X788080Y481849D02*
X790079D01*
X789079D01*
Y487847D01*
X788080D01*
X748093Y498848D02*
X749092Y499847D01*
X751091D01*
X752091Y498848D01*
Y494849D01*
X751091Y493849D01*
X749092D01*
X748093Y494849D01*
Y498848D01*
X755090Y492850D02*
X756090Y493849D01*
Y494849D01*
X755090D01*
Y493849D01*
X756090D01*
X755090Y492850D01*
X754090Y491850D01*
X760089Y499847D02*
X764087D01*
Y498848D01*
X760089Y494849D01*
Y493849D01*
X766087D02*
X768086D01*
X767086D01*
Y499847D01*
X766087Y498848D01*
X771085Y493849D02*
Y497848D01*
X772085D01*
X773084Y496848D01*
Y493849D01*
Y496848D01*
X774084Y497848D01*
X775084Y496848D01*
Y493849D01*
X777083D02*
X779082D01*
X778083D01*
Y497848D01*
X777083D01*
X782082Y493849D02*
X784081D01*
X783081D01*
Y499847D01*
X782082D01*
X748093Y511847D02*
X752091D01*
Y510848D01*
X748093Y506849D01*
Y505849D01*
X755090Y504850D02*
X756090Y505849D01*
Y506849D01*
X755090D01*
Y505849D01*
X756090D01*
X755090Y504850D01*
X754090Y503850D01*
X760089Y510848D02*
X761088Y511847D01*
X763088D01*
X764087Y510848D01*
Y506849D01*
X763088Y505849D01*
X761088D01*
X760089Y506849D01*
Y510848D01*
X766087D02*
X767086Y511847D01*
X769086D01*
X770085Y510848D01*
Y506849D01*
X769086Y505849D01*
X767086D01*
X766087Y506849D01*
Y510848D01*
X772085Y505849D02*
Y509848D01*
X773084D01*
X774084Y508848D01*
Y505849D01*
Y508848D01*
X775084Y509848D01*
X776083Y508848D01*
Y505849D01*
X778083D02*
X780082D01*
X779082D01*
Y509848D01*
X778083D01*
X783081Y505849D02*
X785080D01*
X784081D01*
Y511847D01*
X783081D01*
X748093Y522848D02*
X749092Y523847D01*
X751091D01*
X752091Y522848D01*
Y518849D01*
X751091Y517849D01*
X749092D01*
X748093Y518849D01*
Y522848D01*
X755090Y516850D02*
X756090Y517849D01*
Y518849D01*
X755090D01*
Y517849D01*
X756090D01*
X755090Y516850D01*
X754090Y515850D01*
X764087Y523847D02*
X762088Y522848D01*
X760089Y520848D01*
Y518849D01*
X761088Y517849D01*
X763088D01*
X764087Y518849D01*
Y519849D01*
X763088Y520848D01*
X760089D01*
X766087Y518849D02*
X767086Y517849D01*
X769086D01*
X770085Y518849D01*
Y522848D01*
X769086Y523847D01*
X767086D01*
X766087Y522848D01*
Y521848D01*
X767086Y520848D01*
X770085D01*
X772085Y517849D02*
Y521848D01*
X773084D01*
X774084Y520848D01*
Y517849D01*
Y520848D01*
X775084Y521848D01*
X776083Y520848D01*
Y517849D01*
X778083D02*
X780082D01*
X779082D01*
Y521848D01*
X778083D01*
X783081Y517849D02*
X785080D01*
X784081D01*
Y523847D01*
X783081D01*
X748093Y529849D02*
X750092D01*
X749092D01*
Y535847D01*
X748093Y534848D01*
X754090Y528850D02*
X755090Y529849D01*
Y530849D01*
X754090D01*
Y529849D01*
X755090D01*
X754090Y528850D01*
X753091Y527850D01*
X759089Y534848D02*
X760089Y535847D01*
X762088D01*
X763088Y534848D01*
Y533848D01*
X762088Y532848D01*
X761088D01*
X762088D01*
X763088Y531849D01*
Y530849D01*
X762088Y529849D01*
X760089D01*
X759089Y530849D01*
X768086Y529849D02*
Y535847D01*
X765087Y532848D01*
X769086D01*
X771085Y529849D02*
Y533848D01*
X772085D01*
X773084Y532848D01*
Y529849D01*
Y532848D01*
X774084Y533848D01*
X775084Y532848D01*
Y529849D01*
X777083D02*
X779082D01*
X778083D01*
Y533848D01*
X777083D01*
X782082Y529849D02*
X784081D01*
X783081D01*
Y535847D01*
X782082D01*
X817075Y558848D02*
X816075Y559847D01*
X814076D01*
X813076Y558848D01*
Y554849D01*
X814076Y553849D01*
X816075D01*
X817075Y554849D01*
X820074Y553849D02*
X822073D01*
X823073Y554849D01*
Y556848D01*
X822073Y557848D01*
X820074D01*
X819074Y556848D01*
Y554849D01*
X820074Y553849D01*
X825072D02*
Y557848D01*
X828071D01*
X829071Y556848D01*
Y553849D01*
X831070D02*
X834069D01*
X835069Y554849D01*
X834069Y555849D01*
X832070D01*
X831070Y556848D01*
X832070Y557848D01*
X835069D01*
X838068Y558848D02*
Y557848D01*
X837068D01*
X839068D01*
X838068D01*
Y554849D01*
X839068Y553849D01*
X843066Y557848D02*
X845066D01*
X846065Y556848D01*
Y553849D01*
X843066D01*
X842067Y554849D01*
X843066Y555849D01*
X846065D01*
X848065Y553849D02*
Y557848D01*
X851064D01*
X852063Y556848D01*
Y553849D01*
X855062Y558848D02*
Y557848D01*
X854063D01*
X856062D01*
X855062D01*
Y554849D01*
X856062Y553849D01*
X813076Y438848D02*
X814076Y439847D01*
X816075D01*
X817075Y438848D01*
Y437848D01*
X816075Y436848D01*
X815075D01*
X816075D01*
X817075Y435849D01*
Y434849D01*
X816075Y433849D01*
X814076D01*
X813076Y434849D01*
X819074Y433849D02*
Y434849D01*
X820074D01*
Y433849D01*
X819074D01*
X828071Y439847D02*
X824072D01*
Y436848D01*
X826072Y437848D01*
X827071D01*
X828071Y436848D01*
Y434849D01*
X827071Y433849D01*
X825072D01*
X824072Y434849D01*
X813076Y462848D02*
X814076Y463847D01*
X816075D01*
X817075Y462848D01*
Y461848D01*
X816075Y460848D01*
X815075D01*
X816075D01*
X817075Y459849D01*
Y458849D01*
X816075Y457849D01*
X814076D01*
X813076Y458849D01*
X819074Y457849D02*
Y458849D01*
X820074D01*
Y457849D01*
X819074D01*
X824072Y463847D02*
X828071D01*
Y462848D01*
X824072Y458849D01*
Y457849D01*
X834069Y463847D02*
X832070Y462848D01*
X830070Y460848D01*
Y458849D01*
X831070Y457849D01*
X833070D01*
X834069Y458849D01*
Y459849D01*
X833070Y460848D01*
X830070D01*
X813076Y486848D02*
X814076Y487847D01*
X816075D01*
X817075Y486848D01*
Y485848D01*
X816075Y484848D01*
X815075D01*
X816075D01*
X817075Y483849D01*
Y482849D01*
X816075Y481849D01*
X814076D01*
X813076Y482849D01*
X819074Y481849D02*
Y482849D01*
X820074D01*
Y481849D01*
X819074D01*
X828071Y487847D02*
X824072D01*
Y484848D01*
X826072Y485848D01*
X827071D01*
X828071Y484848D01*
Y482849D01*
X827071Y481849D01*
X825072D01*
X824072Y482849D01*
X834069Y487847D02*
X832070Y486848D01*
X830070Y484848D01*
Y482849D01*
X831070Y481849D01*
X833070D01*
X834069Y482849D01*
Y483849D01*
X833070Y484848D01*
X830070D01*
X813076Y510848D02*
X814076Y511847D01*
X816075D01*
X817075Y510848D01*
Y509848D01*
X816075Y508848D01*
X815075D01*
X816075D01*
X817075Y507849D01*
Y506849D01*
X816075Y505849D01*
X814076D01*
X813076Y506849D01*
X819074Y505849D02*
Y506849D01*
X820074D01*
Y505849D01*
X819074D01*
X824072Y511847D02*
X828071D01*
Y510848D01*
X824072Y506849D01*
Y505849D01*
X834069Y511847D02*
X832070Y510848D01*
X830070Y508848D01*
Y506849D01*
X831070Y505849D01*
X833070D01*
X834069Y506849D01*
Y507849D01*
X833070Y508848D01*
X830070D01*
X813076Y534848D02*
X814076Y535847D01*
X816075D01*
X817075Y534848D01*
Y533848D01*
X816075Y532848D01*
X815075D01*
X816075D01*
X817075Y531849D01*
Y530849D01*
X816075Y529849D01*
X814076D01*
X813076Y530849D01*
X819074Y529849D02*
Y530849D01*
X820074D01*
Y529849D01*
X819074D01*
X828071Y535847D02*
X824072D01*
Y532848D01*
X826072Y533848D01*
X827071D01*
X828071Y532848D01*
Y530849D01*
X827071Y529849D01*
X825072D01*
X824072Y530849D01*
X870062Y559847D02*
Y553849D01*
X873061D01*
X874061Y554849D01*
Y555849D01*
X873061Y556848D01*
X870062D01*
X873061D01*
X874061Y557848D01*
Y558848D01*
X873061Y559847D01*
X870062D01*
X877060Y553849D02*
X879059D01*
X880059Y554849D01*
Y556848D01*
X879059Y557848D01*
X877060D01*
X876060Y556848D01*
Y554849D01*
X877060Y553849D01*
X883058Y557848D02*
X885057D01*
X886057Y556848D01*
Y553849D01*
X883058D01*
X882058Y554849D01*
X883058Y555849D01*
X886057D01*
X888056Y557848D02*
Y553849D01*
Y555849D01*
X889056Y556848D01*
X890056Y557848D01*
X891055D01*
X898053Y559847D02*
Y553849D01*
X895054D01*
X894054Y554849D01*
Y556848D01*
X895054Y557848D01*
X898053D01*
X906050Y559847D02*
Y553849D01*
X910049D01*
X913048Y557848D02*
X915047D01*
X916047Y556848D01*
Y553849D01*
X913048D01*
X912049Y554849D01*
X913048Y555849D01*
X916047D01*
X918047Y557848D02*
Y554849D01*
X919046Y553849D01*
X922045D01*
Y552850D01*
X921046Y551850D01*
X920046D01*
X922045Y553849D02*
Y557848D01*
X927044Y553849D02*
X925044D01*
X924045Y554849D01*
Y556848D01*
X925044Y557848D01*
X927044D01*
X928043Y556848D01*
Y555849D01*
X924045D01*
X930043Y557848D02*
Y553849D01*
Y555849D01*
X931042Y556848D01*
X932042Y557848D01*
X933042D01*
X946037Y558848D02*
X945038Y559847D01*
X943038D01*
X942039Y558848D01*
Y557848D01*
X943038Y556848D01*
X945038D01*
X946037Y555849D01*
Y554849D01*
X945038Y553849D01*
X943038D01*
X942039Y554849D01*
X949037Y558848D02*
Y557848D01*
X948037D01*
X950036D01*
X949037D01*
Y554849D01*
X950036Y553849D01*
X954035Y557848D02*
X956034D01*
X957034Y556848D01*
Y553849D01*
X954035D01*
X953035Y554849D01*
X954035Y555849D01*
X957034D01*
X963032Y557848D02*
X960033D01*
X959033Y556848D01*
Y554849D01*
X960033Y553849D01*
X963032D01*
X965031D02*
Y559847D01*
Y555849D02*
X968030Y557848D01*
X965031Y555849D02*
X968030Y553849D01*
D58*
X458399Y178755D02*
Y180755D01*
Y179755D01*
X452401D01*
X453400Y178755D01*
Y183754D02*
X452401Y184753D01*
Y186753D01*
X453400Y187752D01*
X457399D01*
X458399Y186753D01*
Y184753D01*
X457399Y183754D01*
X453400D01*
Y189752D02*
X452401Y190751D01*
Y192751D01*
X453400Y193751D01*
X457399D01*
X458399Y192751D01*
Y190751D01*
X457399Y189752D01*
X453400D01*
X459398Y196749D02*
X458399Y197749D01*
X457399D01*
Y196749D01*
X458399D01*
Y197749D01*
X459398Y196749D01*
X460398Y195750D01*
X453400Y201748D02*
X452401Y202748D01*
Y204747D01*
X453400Y205747D01*
X457399D01*
X458399Y204747D01*
Y202748D01*
X457399Y201748D01*
X453400D01*
Y207746D02*
X452401Y208746D01*
Y210745D01*
X453400Y211745D01*
X457399D01*
X458399Y210745D01*
Y208746D01*
X457399Y207746D01*
X453400D01*
X199186Y408401D02*
X201185D01*
X200186D01*
Y414399D01*
X199186Y413400D01*
X204184Y408401D02*
X206184D01*
X205184D01*
Y414399D01*
X204184Y413400D01*
X209183Y408401D02*
X211182D01*
X210182D01*
Y414399D01*
X209183Y413400D01*
X215181Y407402D02*
X216180Y408401D01*
Y409401D01*
X215181D01*
Y408401D01*
X216180D01*
X215181Y407402D01*
X214181Y406402D01*
X220179Y408401D02*
X222179D01*
X221179D01*
Y414399D01*
X220179Y413400D01*
X225178Y408401D02*
X227177D01*
X226177D01*
Y414399D01*
X225178Y413400D01*
D126*
X30358Y290518D02*
G03*
X30358Y295242I0J2362D01*
G01*
Y313746D02*
G03*
X30358Y318471I0J2362D01*
G01*
Y103746D02*
G03*
X30358Y108470I0J2362D01*
G01*
Y80518D02*
G03*
X30358Y85242I0J2362D01*
G01*
Y243746D02*
G03*
X30358Y248470I0J2362D01*
G01*
Y220518D02*
G03*
X30358Y225242I0J2362D01*
G01*
Y173746D02*
G03*
X30358Y178471I0J2362D01*
G01*
Y150518D02*
G03*
X30358Y155242I0J2362D01*
G01*
X-3500Y318471D02*
X30358D01*
X-3500Y290518D02*
X30358D01*
Y295242D02*
Y313746D01*
Y85242D02*
Y103746D01*
X-3500Y80518D02*
X30358D01*
X-3500Y108470D02*
X30358D01*
Y225242D02*
Y243746D01*
X-3500Y220518D02*
X30358D01*
X-3500Y248470D02*
X30358D01*
Y155242D02*
Y173746D01*
X-3500Y150518D02*
X30358D01*
X-3500Y178471D02*
X30358D01*
D127*
X433500Y393700D02*
X433500Y0D01*
X0D02*
X433500D01*
X0Y393700D02*
X433500D01*
X0Y362205D02*
Y393700D01*
Y0D02*
Y32755D01*
X-3937Y36692D02*
X0Y32755D01*
X-3937Y36692D02*
Y330807D01*
Y358268D02*
X0Y362205D01*
X-3937Y330807D02*
Y358268D01*
X453800Y393700D02*
X455800Y387700D01*
X451800D02*
X453800Y393700D01*
X451800Y6000D02*
X453800Y0D01*
X455800Y6000D01*
X453800Y213345D02*
Y393700D01*
Y0D02*
Y177155D01*
X434697Y393700D02*
X454800D01*
X434697Y0D02*
X454800D01*
X-3937Y413000D02*
X2063Y415000D01*
X-3937Y413000D02*
X2063Y411000D01*
X427500D02*
X433500Y413000D01*
X427500Y415000D02*
X433500Y413000D01*
X-3937D02*
X197586D01*
X228777D02*
X433500D01*
X-3937Y359465D02*
Y414000D01*
X433500Y394897D02*
Y414000D01*
D128*
X521150Y550849D02*
X975030D01*
X521150Y562849D02*
X975030D01*
X521150Y418849D02*
Y562849D01*
Y418849D02*
X562141D01*
X521150Y430849D02*
X562141D01*
X521150Y442849D02*
X562141D01*
X521150Y454849D02*
X562141D01*
X521150Y466849D02*
X562141D01*
X521150Y478849D02*
X562141D01*
X521150Y490849D02*
X562141D01*
X521150Y502849D02*
X562141D01*
X521150Y514849D02*
X562141D01*
X521150Y526849D02*
X562141D01*
X521150Y538849D02*
X562141D01*
Y418849D02*
Y562849D01*
Y418849D02*
X655116D01*
X562141Y430849D02*
X655116D01*
X562141Y442849D02*
X655116D01*
X562141Y454849D02*
X655116D01*
X562141Y466849D02*
X655116D01*
X562141Y478849D02*
X655116D01*
X562141Y490849D02*
X655116D01*
X562141Y502849D02*
X655116D01*
X562141Y514849D02*
X655116D01*
X562141Y526849D02*
X655116D01*
X562141Y538849D02*
X655116D01*
Y418849D02*
Y562849D01*
Y418849D02*
X741092D01*
X655116Y430849D02*
X741092D01*
X655116Y442849D02*
X741092D01*
X655116Y454849D02*
X741092D01*
X655116Y466849D02*
X741092D01*
X655116Y478849D02*
X741092D01*
X655116Y490849D02*
X741092D01*
X655116Y502849D02*
X741092D01*
X655116Y514849D02*
X741092D01*
X655116Y526849D02*
X741092D01*
X655116Y538849D02*
X741092D01*
Y418849D02*
Y562849D01*
Y418849D02*
X806076D01*
X741092Y430849D02*
X806076D01*
X741092Y442849D02*
X806076D01*
X741092Y454849D02*
X806076D01*
X741092Y466849D02*
X806076D01*
X741092Y478849D02*
X806076D01*
X741092Y490849D02*
X806076D01*
X741092Y502849D02*
X806076D01*
X741092Y514849D02*
X806076D01*
X741092Y526849D02*
X806076D01*
X741092Y538849D02*
X806076D01*
Y418849D02*
Y562849D01*
Y418849D02*
X863062D01*
X806076Y430849D02*
X863062D01*
X806076Y442849D02*
X863062D01*
X806076Y454849D02*
X863062D01*
X806076Y466849D02*
X863062D01*
X806076Y478849D02*
X863062D01*
X806076Y490849D02*
X863062D01*
X806076Y502849D02*
X863062D01*
X806076Y514849D02*
X863062D01*
X806076Y526849D02*
X863062D01*
X806076Y538849D02*
X863062D01*
Y418849D02*
Y562849D01*
Y418849D02*
X975030D01*
X863062Y430849D02*
X975030D01*
X863062Y442849D02*
X975030D01*
X863062Y454849D02*
X975030D01*
X863062Y466849D02*
X975030D01*
X863062Y478849D02*
X975030D01*
X863062Y490849D02*
X975030D01*
X863062Y502849D02*
X975030D01*
X863062Y514849D02*
X975030D01*
X863062Y526849D02*
X975030D01*
X863062Y538849D02*
X975030D01*
Y418849D02*
Y562849D01*
X521150Y45421D02*
Y379085D01*
X525235Y383170D01*
Y415849D01*
X975030D01*
X975030Y7350D01*
X525235D02*
X975030D01*
X525235D02*
Y41336D01*
X521150Y45421D02*
X525235Y41336D01*
D129*
X969030Y418849D02*
X975030Y424849D01*
X963030Y418849D02*
X975030Y430849D01*
X957030Y418849D02*
X969030Y430849D01*
X951030Y418849D02*
X963030Y430849D01*
X945030Y418849D02*
X957030Y430849D01*
X939030Y418849D02*
X951030Y430849D01*
X933030Y418849D02*
X945030Y430849D01*
X927030Y418849D02*
X939030Y430849D01*
X921030Y418849D02*
X933030Y430849D01*
X915030Y418849D02*
X927030Y430849D01*
X909030Y418849D02*
X921030Y430849D01*
X903030Y418849D02*
X915030Y430849D01*
X897030Y418849D02*
X909030Y430849D01*
X891030Y418849D02*
X903030Y430849D01*
X885030Y418849D02*
X897030Y430849D01*
X879030Y418849D02*
X891030Y430849D01*
X873030Y418849D02*
X885030Y430849D01*
X867030Y418849D02*
X879030Y430849D01*
X863062Y420881D02*
X873030Y430849D01*
X863062Y426881D02*
X867030Y430849D01*
X969030D02*
X975030Y436849D01*
X963030Y430849D02*
X975030Y442849D01*
X957030Y430849D02*
X969030Y442849D01*
X951030Y430849D02*
X963030Y442849D01*
X945030Y430849D02*
X957030Y442849D01*
X939030Y430849D02*
X951030Y442849D01*
X933030Y430849D02*
X945030Y442849D01*
X927030Y430849D02*
X939030Y442849D01*
X921030Y430849D02*
X933030Y442849D01*
X915030Y430849D02*
X927030Y442849D01*
X909030Y430849D02*
X921030Y442849D01*
X903030Y430849D02*
X915030Y442849D01*
X897030Y430849D02*
X909030Y442849D01*
X891030Y430849D02*
X903030Y442849D01*
X885030Y430849D02*
X897030Y442849D01*
X879030Y430849D02*
X891030Y442849D01*
X873030Y430849D02*
X885030Y442849D01*
X867030Y430849D02*
X879030Y442849D01*
X863062Y432881D02*
X873030Y442849D01*
X863062Y438881D02*
X867030Y442849D01*
X969030D02*
X975030Y448849D01*
X963030Y442849D02*
X975030Y454849D01*
X957030Y442849D02*
X969030Y454849D01*
X951030Y442849D02*
X963030Y454849D01*
X945030Y442849D02*
X957030Y454849D01*
X939030Y442849D02*
X951030Y454849D01*
X933030Y442849D02*
X945030Y454849D01*
X927030Y442849D02*
X939030Y454849D01*
X921030Y442849D02*
X933030Y454849D01*
X915030Y442849D02*
X927030Y454849D01*
X909030Y442849D02*
X921030Y454849D01*
X903030Y442849D02*
X915030Y454849D01*
X897030Y442849D02*
X909030Y454849D01*
X891030Y442849D02*
X903030Y454849D01*
X885030Y442849D02*
X897030Y454849D01*
X879030Y442849D02*
X891030Y454849D01*
X873030Y442849D02*
X885030Y454849D01*
X867030Y442849D02*
X879030Y454849D01*
X863062Y444881D02*
X873030Y454849D01*
X863062Y450881D02*
X867030Y454849D01*
X969030D02*
X975030Y460849D01*
X963030Y454849D02*
X975030Y466849D01*
X957030Y454849D02*
X969030Y466849D01*
X951030Y454849D02*
X963030Y466849D01*
X945030Y454849D02*
X957030Y466849D01*
X939030Y454849D02*
X951030Y466849D01*
X933030Y454849D02*
X945030Y466849D01*
X927030Y454849D02*
X939030Y466849D01*
X921030Y454849D02*
X933030Y466849D01*
X915030Y454849D02*
X927030Y466849D01*
X909030Y454849D02*
X921030Y466849D01*
X903030Y454849D02*
X915030Y466849D01*
X897030Y454849D02*
X909030Y466849D01*
X891030Y454849D02*
X903030Y466849D01*
X885030Y454849D02*
X897030Y466849D01*
X879030Y454849D02*
X891030Y466849D01*
X873030Y454849D02*
X885030Y466849D01*
X867030Y454849D02*
X879030Y466849D01*
X863062Y456881D02*
X873030Y466849D01*
X863062Y462881D02*
X867030Y466849D01*
X969030D02*
X975030Y472849D01*
X963030Y466849D02*
X975030Y478849D01*
X957030Y466849D02*
X969030Y478849D01*
X951030Y466849D02*
X963030Y478849D01*
X945030Y466849D02*
X957030Y478849D01*
X939030Y466849D02*
X951030Y478849D01*
X933030Y466849D02*
X945030Y478849D01*
X927030Y466849D02*
X939030Y478849D01*
X921030Y466849D02*
X933030Y478849D01*
X915030Y466849D02*
X927030Y478849D01*
X909030Y466849D02*
X921030Y478849D01*
X903030Y466849D02*
X915030Y478849D01*
X897030Y466849D02*
X909030Y478849D01*
X891030Y466849D02*
X903030Y478849D01*
X885030Y466849D02*
X897030Y478849D01*
X879030Y466849D02*
X891030Y478849D01*
X873030Y466849D02*
X885030Y478849D01*
X867030Y466849D02*
X879030Y478849D01*
X863062Y468881D02*
X873030Y478849D01*
X863062Y474881D02*
X867030Y478849D01*
X969030D02*
X975030Y484849D01*
X963030Y478849D02*
X975030Y490849D01*
X957030Y478849D02*
X969030Y490849D01*
X951030Y478849D02*
X963030Y490849D01*
X945030Y478849D02*
X957030Y490849D01*
X939030Y478849D02*
X951030Y490849D01*
X933030Y478849D02*
X945030Y490849D01*
X927030Y478849D02*
X939030Y490849D01*
X921030Y478849D02*
X933030Y490849D01*
X915030Y478849D02*
X927030Y490849D01*
X909030Y478849D02*
X921030Y490849D01*
X903030Y478849D02*
X915030Y490849D01*
X897030Y478849D02*
X909030Y490849D01*
X891030Y478849D02*
X903030Y490849D01*
X885030Y478849D02*
X897030Y490849D01*
X879030Y478849D02*
X891030Y490849D01*
X873030Y478849D02*
X885030Y490849D01*
X867030Y478849D02*
X879030Y490849D01*
X863062Y480881D02*
X873030Y490849D01*
X863062Y486881D02*
X867030Y490849D01*
X969030D02*
X975030Y496849D01*
X963030Y490849D02*
X975030Y502849D01*
X957030Y490849D02*
X969030Y502849D01*
X951030Y490849D02*
X963030Y502849D01*
X945030Y490849D02*
X957030Y502849D01*
X939030Y490849D02*
X951030Y502849D01*
X933030Y490849D02*
X945030Y502849D01*
X927030Y490849D02*
X939030Y502849D01*
X921030Y490849D02*
X933030Y502849D01*
X915030Y490849D02*
X927030Y502849D01*
X909030Y490849D02*
X921030Y502849D01*
X903030Y490849D02*
X915030Y502849D01*
X897030Y490849D02*
X909030Y502849D01*
X891030Y490849D02*
X903030Y502849D01*
X885030Y490849D02*
X897030Y502849D01*
X879030Y490849D02*
X891030Y502849D01*
X873030Y490849D02*
X885030Y502849D01*
X867030Y490849D02*
X879030Y502849D01*
X863062Y492881D02*
X873030Y502849D01*
X863062Y498881D02*
X867030Y502849D01*
X969030D02*
X975030Y508849D01*
X963030Y502849D02*
X975030Y514849D01*
X957030Y502849D02*
X969030Y514849D01*
X951030Y502849D02*
X963030Y514849D01*
X945030Y502849D02*
X957030Y514849D01*
X939030Y502849D02*
X951030Y514849D01*
X933030Y502849D02*
X945030Y514849D01*
X927030Y502849D02*
X939030Y514849D01*
X921030Y502849D02*
X933030Y514849D01*
X915030Y502849D02*
X927030Y514849D01*
X909030Y502849D02*
X921030Y514849D01*
X903030Y502849D02*
X915030Y514849D01*
X897030Y502849D02*
X909030Y514849D01*
X891030Y502849D02*
X903030Y514849D01*
X885030Y502849D02*
X897030Y514849D01*
X879030Y502849D02*
X891030Y514849D01*
X873030Y502849D02*
X885030Y514849D01*
X867030Y502849D02*
X879030Y514849D01*
X863062Y504881D02*
X873030Y514849D01*
X863062Y510881D02*
X867030Y514849D01*
X969030D02*
X975030Y520849D01*
X963030Y514849D02*
X975030Y526849D01*
X957030Y514849D02*
X969030Y526849D01*
X951030Y514849D02*
X963030Y526849D01*
X945030Y514849D02*
X957030Y526849D01*
X939030Y514849D02*
X951030Y526849D01*
X933030Y514849D02*
X945030Y526849D01*
X927030Y514849D02*
X939030Y526849D01*
X921030Y514849D02*
X933030Y526849D01*
X915030Y514849D02*
X927030Y526849D01*
X909030Y514849D02*
X921030Y526849D01*
X903030Y514849D02*
X915030Y526849D01*
X897030Y514849D02*
X909030Y526849D01*
X891030Y514849D02*
X903030Y526849D01*
X885030Y514849D02*
X897030Y526849D01*
X879030Y514849D02*
X891030Y526849D01*
X873030Y514849D02*
X885030Y526849D01*
X867030Y514849D02*
X879030Y526849D01*
X863062Y516881D02*
X873030Y526849D01*
X863062Y522881D02*
X867030Y526849D01*
X969030D02*
X975030Y532849D01*
X963030Y526849D02*
X975030Y538849D01*
X957030Y526849D02*
X969030Y538849D01*
X951030Y526849D02*
X963030Y538849D01*
X945030Y526849D02*
X957030Y538849D01*
X939030Y526849D02*
X951030Y538849D01*
X933030Y526849D02*
X945030Y538849D01*
X927030Y526849D02*
X939030Y538849D01*
X921030Y526849D02*
X933030Y538849D01*
X915030Y526849D02*
X927030Y538849D01*
X909030Y526849D02*
X921030Y538849D01*
X903030Y526849D02*
X915030Y538849D01*
X897030Y526849D02*
X909030Y538849D01*
X891030Y526849D02*
X903030Y538849D01*
X885030Y526849D02*
X897030Y538849D01*
X879030Y526849D02*
X891030Y538849D01*
X873030Y526849D02*
X885030Y538849D01*
X867030Y526849D02*
X879030Y538849D01*
X863062Y528881D02*
X873030Y538849D01*
X863062Y534881D02*
X867030Y538849D01*
X969030D02*
X975030Y544849D01*
X963030Y538849D02*
X975030Y550849D01*
X957030Y538849D02*
X969030Y550849D01*
X951030Y538849D02*
X963030Y550849D01*
X945030Y538849D02*
X957030Y550849D01*
X939030Y538849D02*
X951030Y550849D01*
X933030Y538849D02*
X945030Y550849D01*
X927030Y538849D02*
X939030Y550849D01*
X921030Y538849D02*
X933030Y550849D01*
X915030Y538849D02*
X927030Y550849D01*
X909030Y538849D02*
X921030Y550849D01*
X903030Y538849D02*
X915030Y550849D01*
X897030Y538849D02*
X909030Y550849D01*
X891030Y538849D02*
X903030Y550849D01*
X885030Y538849D02*
X897030Y550849D01*
X879030Y538849D02*
X891030Y550849D01*
X873030Y538849D02*
X885030Y550849D01*
X867030Y538849D02*
X879030Y550849D01*
X863062Y540881D02*
X873030Y550849D01*
X863062Y546881D02*
X867030Y550849D01*
X968976Y7296D02*
X975030Y13350D01*
X962976Y7296D02*
X975030Y19350D01*
X956976Y7296D02*
X975030Y25350D01*
X950976Y7296D02*
X975030Y31350D01*
X944976Y7296D02*
X975030Y37350D01*
X938976Y7296D02*
X975030Y43350D01*
X932976Y7296D02*
X975030Y49350D01*
X926976Y7296D02*
X975030Y55350D01*
X920976Y7296D02*
X975030Y61350D01*
X914976Y7296D02*
X975030Y67350D01*
X908976Y7296D02*
X975030Y73350D01*
X902976Y7296D02*
X975030Y79350D01*
X896976Y7296D02*
X975030Y85350D01*
X890976Y7296D02*
X975030Y91350D01*
X884976Y7296D02*
X975030Y97350D01*
X878976Y7296D02*
X975030Y103350D01*
X872976Y7296D02*
X975030Y109350D01*
X866976Y7296D02*
X975030Y115350D01*
X860976Y7296D02*
X975030Y121350D01*
X854976Y7296D02*
X975030Y127350D01*
X848976Y7296D02*
X975030Y133350D01*
X842976Y7296D02*
X975030Y139350D01*
X836976Y7296D02*
X975030Y145350D01*
X830976Y7296D02*
X975030Y151350D01*
X824976Y7296D02*
X975030Y157350D01*
X818976Y7296D02*
X975030Y163350D01*
X812976Y7296D02*
X975030Y169350D01*
X806976Y7296D02*
X975030Y175350D01*
X800976Y7296D02*
X975030Y181350D01*
X794976Y7296D02*
X975030Y187350D01*
X788976Y7296D02*
X975030Y193350D01*
X782976Y7296D02*
X975030Y199350D01*
X776976Y7296D02*
X975030Y205350D01*
X770976Y7296D02*
X975030Y211350D01*
X764976Y7296D02*
X975030Y217350D01*
X758976Y7296D02*
X975030Y223350D01*
X752976Y7296D02*
X975030Y229350D01*
X746976Y7296D02*
X975030Y235350D01*
X740976Y7296D02*
X975030Y241350D01*
X734976Y7296D02*
X975030Y247350D01*
X728976Y7296D02*
X975030Y253350D01*
X722976Y7296D02*
X975030Y259350D01*
X716976Y7296D02*
X975030Y265350D01*
X710976Y7296D02*
X975030Y271350D01*
X704976Y7296D02*
X975030Y277350D01*
X698976Y7296D02*
X975030Y283350D01*
X692976Y7296D02*
X975030Y289350D01*
X686976Y7296D02*
X975030Y295350D01*
X680976Y7296D02*
X975030Y301350D01*
X674976Y7296D02*
X975030Y307350D01*
X668976Y7296D02*
X975030Y313350D01*
X662976Y7296D02*
X975030Y319350D01*
X656976Y7296D02*
X975030Y325350D01*
X650976Y7296D02*
X975030Y331350D01*
X644976Y7296D02*
X975030Y337350D01*
X638976Y7296D02*
X975030Y343350D01*
X632976Y7296D02*
X975030Y349350D01*
X626976Y7296D02*
X975030Y355350D01*
X620976Y7296D02*
X975030Y361350D01*
X614976Y7296D02*
X975030Y367350D01*
X608976Y7296D02*
X975030Y373350D01*
X602976Y7296D02*
X975030Y379350D01*
X596976Y7296D02*
X975030Y385350D01*
X590976Y7296D02*
X975030Y391350D01*
X584976Y7296D02*
X975030Y397350D01*
X578976Y7296D02*
X975030Y403350D01*
X572976Y7296D02*
X975030Y409350D01*
X566976Y7296D02*
X975030Y415350D01*
X560976Y7296D02*
X969584Y415903D01*
X554976Y7296D02*
X963584Y415903D01*
X548976Y7296D02*
X957584Y415903D01*
X542976Y7296D02*
X951584Y415903D01*
X536976Y7296D02*
X945584Y415903D01*
X530976Y7296D02*
X939584Y415903D01*
X525235Y7555D02*
X933584Y415903D01*
X525235Y13555D02*
X927584Y415903D01*
X525235Y19555D02*
X921584Y415903D01*
X525235Y25555D02*
X915584Y415903D01*
X525235Y31555D02*
X909584Y415903D01*
X525235Y37555D02*
X903584Y415903D01*
X524087Y42407D02*
X897584Y415903D01*
X521150Y45470D02*
X891584Y415903D01*
X521150Y51470D02*
X885584Y415903D01*
X521150Y57470D02*
X879584Y415903D01*
X521150Y63470D02*
X873584Y415903D01*
X521150Y69470D02*
X867584Y415903D01*
X521150Y75470D02*
X861584Y415903D01*
X521150Y81470D02*
X855584Y415903D01*
X521150Y87470D02*
X849584Y415903D01*
X521150Y93470D02*
X843584Y415903D01*
X521150Y99470D02*
X837584Y415903D01*
X521150Y105470D02*
X831584Y415903D01*
X521150Y111470D02*
X825584Y415903D01*
X521150Y117470D02*
X819584Y415903D01*
X521150Y123470D02*
X813584Y415903D01*
X521150Y129470D02*
X807584Y415903D01*
X521150Y135470D02*
X801584Y415903D01*
X521150Y141470D02*
X795584Y415903D01*
X521150Y147470D02*
X789584Y415903D01*
X521150Y153470D02*
X783584Y415903D01*
X521150Y159470D02*
X777584Y415903D01*
X521150Y165470D02*
X771584Y415903D01*
X521150Y171470D02*
X765584Y415903D01*
X521150Y177470D02*
X759584Y415903D01*
X521150Y183470D02*
X753584Y415903D01*
X521150Y189470D02*
X747584Y415903D01*
X521150Y195470D02*
X741584Y415903D01*
X521150Y201470D02*
X735584Y415903D01*
X521150Y207470D02*
X729584Y415903D01*
X521150Y213470D02*
X723584Y415903D01*
X521150Y219470D02*
X717584Y415903D01*
X521150Y225470D02*
X711584Y415903D01*
X521150Y231470D02*
X705584Y415903D01*
X521150Y237470D02*
X699584Y415903D01*
X521150Y243470D02*
X693584Y415903D01*
X521150Y249470D02*
X687584Y415903D01*
X521150Y255470D02*
X681584Y415903D01*
X521150Y261470D02*
X675584Y415903D01*
X521150Y267470D02*
X669584Y415903D01*
X521150Y273470D02*
X663584Y415903D01*
X521150Y279470D02*
X657584Y415903D01*
X521150Y285470D02*
X651584Y415903D01*
X521150Y291470D02*
X645584Y415903D01*
X521150Y297470D02*
X639584Y415903D01*
X521150Y303470D02*
X633584Y415903D01*
X521150Y309470D02*
X627584Y415903D01*
X521150Y315470D02*
X621584Y415903D01*
X521150Y321470D02*
X615584Y415903D01*
X521150Y327470D02*
X609584Y415903D01*
X521150Y333470D02*
X603584Y415903D01*
X521150Y339470D02*
X597584Y415903D01*
X521150Y345470D02*
X591584Y415903D01*
X521150Y351470D02*
X585584Y415903D01*
X521150Y357470D02*
X579584Y415903D01*
X521150Y363470D02*
X573584Y415903D01*
X521150Y369470D02*
X567584Y415903D01*
X521150Y375470D02*
X561584Y415903D01*
X525235Y385555D02*
X555584Y415903D01*
X525235Y391555D02*
X549584Y415903D01*
X525235Y397555D02*
X543584Y415903D01*
X525235Y403555D02*
X537584Y415903D01*
X525235Y409555D02*
X531584Y415903D01*
X525235Y415555D02*
X525584Y415903D01*
M02*
