G04*
G04 #@! TF.GenerationSoftware,Altium Limited,Altium Designer,21.0.9 (235)*
G04*
G04 Layer_Color=8421504*
%FSLAX25Y25*%
%MOIN*%
G70*
G04*
G04 #@! TF.SameCoordinates,4626A756-FD0A-4D7F-A62D-B668EF0F2538*
G04*
G04*
G04 #@! TF.FilePolarity,Positive*
G04*
G01*
G75*
%ADD13R,0.02441X0.02284*%
%ADD14R,0.20866X0.07874*%
%ADD15R,0.02795X0.02835*%
%ADD16R,0.33858X0.04331*%
%ADD17R,0.05906X0.03937*%
%ADD18R,0.01181X0.03150*%
%ADD19R,0.09764X0.06890*%
%ADD20R,0.03150X0.00984*%
%ADD21R,0.06890X0.09646*%
%ADD22R,0.04252X0.03622*%
%ADD23R,0.03543X0.03937*%
%ADD24R,0.02284X0.02441*%
%ADD25R,0.07480X0.07480*%
%ADD26O,0.02756X0.01181*%
%ADD27O,0.01181X0.02756*%
%ADD28O,0.02953X0.01181*%
%ADD29O,0.01181X0.02953*%
%ADD30R,0.07677X0.07677*%
%ADD31R,0.01378X0.01181*%
%ADD32R,0.00591X0.00591*%
%ADD33R,0.02559X0.03740*%
%ADD34R,0.03150X0.01181*%
%ADD35R,0.03110X0.01181*%
%ADD36R,0.01181X0.03110*%
%ADD37R,0.06693X0.06693*%
%ADD38R,0.04134X0.06299*%
%ADD39R,0.05512X0.04134*%
%ADD40R,0.03937X0.03740*%
%ADD41R,0.10630X0.04528*%
%ADD42R,0.07087X0.04528*%
%ADD43R,0.04528X0.07087*%
%ADD44R,0.04134X0.05512*%
%ADD45R,0.03937X0.03740*%
%ADD46R,0.02559X0.02559*%
%ADD47R,0.03740X0.03937*%
%ADD48R,0.02441X0.02441*%
%ADD49R,0.02441X0.02441*%
%ADD50R,0.05512X0.04134*%
%ADD51R,0.07087X0.04528*%
%ADD52R,0.04528X0.10630*%
%ADD53R,0.03740X0.03937*%
%ADD54R,0.03937X0.03543*%
G36*
X72708Y78533D02*
X71526Y77352D01*
X70148D01*
Y82273D01*
X72708D01*
Y78533D01*
D02*
G37*
G36*
X72787Y154795D02*
X71605Y153614D01*
X70227D01*
Y158535D01*
X72787D01*
Y154795D01*
D02*
G37*
G36*
X157001Y78567D02*
X155819Y77386D01*
X154441D01*
Y82308D01*
X157001D01*
Y78567D01*
D02*
G37*
G36*
X157080Y154830D02*
X155898Y153649D01*
X154520D01*
Y158570D01*
X157080D01*
Y154830D01*
D02*
G37*
G36*
X72748Y227341D02*
X71567Y226160D01*
X70189D01*
Y231081D01*
X72748D01*
Y227341D01*
D02*
G37*
G36*
X72658Y299791D02*
X71477Y298610D01*
X70099D01*
Y303532D01*
X72658D01*
Y299791D01*
D02*
G37*
G36*
X157041Y227375D02*
X155860Y226194D01*
X154482D01*
Y231115D01*
X157041D01*
Y227375D01*
D02*
G37*
G36*
X156951Y299826D02*
X155770Y298645D01*
X154392D01*
Y303566D01*
X156951D01*
Y299826D01*
D02*
G37*
D13*
X373079Y115817D02*
D03*
Y112116D02*
D03*
X91805Y290097D02*
D03*
Y286396D02*
D03*
X91894Y213945D02*
D03*
Y217646D02*
D03*
X91933Y145101D02*
D03*
Y141400D02*
D03*
X91854Y68838D02*
D03*
Y65137D02*
D03*
X87687Y290097D02*
D03*
Y286396D02*
D03*
X87777Y213945D02*
D03*
Y217646D02*
D03*
X87816Y145101D02*
D03*
Y141400D02*
D03*
X87737Y68838D02*
D03*
Y65137D02*
D03*
X190135Y47667D02*
D03*
Y43966D02*
D03*
X306576Y43891D02*
D03*
Y47591D02*
D03*
X192202Y39789D02*
D03*
Y36088D02*
D03*
X304331Y36043D02*
D03*
Y39744D02*
D03*
X182945Y48922D02*
D03*
Y52623D02*
D03*
X288976Y50276D02*
D03*
Y46575D02*
D03*
X417369Y102633D02*
D03*
Y98932D02*
D03*
X357861Y132055D02*
D03*
Y135756D02*
D03*
D14*
X336000Y69300D02*
D03*
Y55520D02*
D03*
D15*
X78510Y94737D02*
D03*
X82132D02*
D03*
X78589Y171000D02*
D03*
X82211D02*
D03*
X78550Y243545D02*
D03*
X82172D02*
D03*
X78461Y315996D02*
D03*
X82083D02*
D03*
D16*
X13429Y321029D02*
D03*
Y287959D02*
D03*
Y77959D02*
D03*
Y111030D02*
D03*
Y217959D02*
D03*
Y251029D02*
D03*
Y147959D02*
D03*
Y181029D02*
D03*
D17*
X35673Y304494D02*
D03*
Y94494D02*
D03*
Y234494D02*
D03*
Y164494D02*
D03*
D18*
X344311Y128000D02*
D03*
X346280D02*
D03*
X348248D02*
D03*
X350217D02*
D03*
X352185D02*
D03*
Y139811D02*
D03*
X350217D02*
D03*
X348248D02*
D03*
X346280D02*
D03*
X344311D02*
D03*
D19*
X348248Y133905D02*
D03*
D20*
X295073Y35006D02*
D03*
Y36777D02*
D03*
Y38549D02*
D03*
Y40321D02*
D03*
Y42092D02*
D03*
Y43864D02*
D03*
X283262D02*
D03*
Y42092D02*
D03*
Y40321D02*
D03*
Y38549D02*
D03*
Y36777D02*
D03*
Y35006D02*
D03*
X171134Y35050D02*
D03*
Y36822D02*
D03*
Y38594D02*
D03*
Y40365D02*
D03*
Y42137D02*
D03*
Y43909D02*
D03*
X182945D02*
D03*
Y42137D02*
D03*
Y40365D02*
D03*
Y38594D02*
D03*
Y36822D02*
D03*
Y35050D02*
D03*
D21*
X289168Y39435D02*
D03*
X177039Y39480D02*
D03*
D22*
X321800Y139999D02*
D03*
Y127401D02*
D03*
X172539Y29429D02*
D03*
Y16831D02*
D03*
X284668Y16786D02*
D03*
Y29384D02*
D03*
D23*
X254550Y358300D02*
D03*
X248250D02*
D03*
X157972Y52165D02*
D03*
X164272D02*
D03*
X270318Y51481D02*
D03*
X276617D02*
D03*
X358858Y155000D02*
D03*
X352559D02*
D03*
X88203Y25324D02*
D03*
X94502D02*
D03*
X38300Y23600D02*
D03*
X32001D02*
D03*
X38250Y366600D02*
D03*
X31950D02*
D03*
X136502Y358300D02*
D03*
X130202D02*
D03*
D24*
X361509Y127300D02*
D03*
X357808D02*
D03*
X194387Y44041D02*
D03*
X198088D02*
D03*
X314529Y43966D02*
D03*
X310828D02*
D03*
X357861Y140700D02*
D03*
X361561D02*
D03*
X356450Y122000D02*
D03*
X352750D02*
D03*
D25*
X89822Y80837D02*
D03*
X89772Y302095D02*
D03*
X89862Y229645D02*
D03*
X89901Y157099D02*
D03*
D26*
X95924Y83789D02*
D03*
Y81821D02*
D03*
Y79852D02*
D03*
Y77884D02*
D03*
X83719D02*
D03*
Y79852D02*
D03*
Y81821D02*
D03*
Y83789D02*
D03*
X95875Y305048D02*
D03*
Y303080D02*
D03*
Y301111D02*
D03*
Y299143D02*
D03*
X83670D02*
D03*
Y301111D02*
D03*
Y303080D02*
D03*
Y305048D02*
D03*
X83760Y232597D02*
D03*
Y230629D02*
D03*
Y228660D02*
D03*
Y226692D02*
D03*
X95964D02*
D03*
Y228660D02*
D03*
Y230629D02*
D03*
Y232597D02*
D03*
X96003Y160052D02*
D03*
Y158083D02*
D03*
Y156115D02*
D03*
Y154147D02*
D03*
X83798D02*
D03*
Y156115D02*
D03*
Y158083D02*
D03*
Y160052D02*
D03*
D27*
X92774Y74734D02*
D03*
X90806D02*
D03*
X88837D02*
D03*
X86869D02*
D03*
Y86939D02*
D03*
X88837D02*
D03*
X90806D02*
D03*
X92774D02*
D03*
X92725Y295993D02*
D03*
X90757D02*
D03*
X88788D02*
D03*
X86820D02*
D03*
Y308198D02*
D03*
X88788D02*
D03*
X90757D02*
D03*
X92725D02*
D03*
X92815Y235747D02*
D03*
X90846D02*
D03*
X88878D02*
D03*
X86909D02*
D03*
Y223542D02*
D03*
X88878D02*
D03*
X90846D02*
D03*
X92815D02*
D03*
X92853Y150997D02*
D03*
X90885D02*
D03*
X88916D02*
D03*
X86948D02*
D03*
Y163202D02*
D03*
X88916D02*
D03*
X90885D02*
D03*
X92853D02*
D03*
D28*
X143922Y77837D02*
D03*
Y79805D02*
D03*
Y81774D02*
D03*
Y83742D02*
D03*
X131717D02*
D03*
Y81774D02*
D03*
Y79805D02*
D03*
Y77837D02*
D03*
X143872Y299095D02*
D03*
Y301064D02*
D03*
Y303032D02*
D03*
Y305001D02*
D03*
X131668D02*
D03*
Y303032D02*
D03*
Y301064D02*
D03*
Y299095D02*
D03*
X131757Y226645D02*
D03*
Y228613D02*
D03*
Y230582D02*
D03*
Y232550D02*
D03*
X143962D02*
D03*
Y230582D02*
D03*
Y228613D02*
D03*
Y226645D02*
D03*
X144001Y154099D02*
D03*
Y156068D02*
D03*
Y158036D02*
D03*
Y160005D02*
D03*
X131796D02*
D03*
Y158036D02*
D03*
Y156068D02*
D03*
Y154099D02*
D03*
D29*
X140772Y86892D02*
D03*
X138804D02*
D03*
X136835D02*
D03*
X134867D02*
D03*
Y74687D02*
D03*
X136835D02*
D03*
X138804D02*
D03*
X140772D02*
D03*
X140723Y308150D02*
D03*
X138754D02*
D03*
X136786D02*
D03*
X134817D02*
D03*
Y295946D02*
D03*
X136786D02*
D03*
X138754D02*
D03*
X140723D02*
D03*
X140812Y223495D02*
D03*
X138844D02*
D03*
X136875D02*
D03*
X134907D02*
D03*
Y235700D02*
D03*
X136875D02*
D03*
X138844D02*
D03*
X140812D02*
D03*
X140851Y163154D02*
D03*
X138883D02*
D03*
X136914D02*
D03*
X134946D02*
D03*
Y150950D02*
D03*
X136914D02*
D03*
X138883D02*
D03*
X140851D02*
D03*
D30*
X137819Y80790D02*
D03*
X137770Y302048D02*
D03*
X137860Y229597D02*
D03*
X137898Y157052D02*
D03*
D31*
X70916Y154205D02*
D03*
X70837Y77942D02*
D03*
X155081Y299235D02*
D03*
X155171Y226785D02*
D03*
X155209Y154239D02*
D03*
X155130Y77977D02*
D03*
X70788Y299201D02*
D03*
X70878Y226750D02*
D03*
D32*
X71901Y154500D02*
D03*
X71822Y78237D02*
D03*
X156065Y299531D02*
D03*
X156155Y227080D02*
D03*
X156194Y154535D02*
D03*
X156115Y78272D02*
D03*
X71772Y299496D02*
D03*
X71862Y227045D02*
D03*
D33*
X71507Y156665D02*
D03*
X71428Y80403D02*
D03*
X155672Y301696D02*
D03*
X155761Y229245D02*
D03*
X155800Y156700D02*
D03*
X155721Y80437D02*
D03*
X71379Y301661D02*
D03*
X71468Y229211D02*
D03*
D34*
X75247Y153516D02*
D03*
Y156075D02*
D03*
Y158634D02*
D03*
X67767D02*
D03*
Y156075D02*
D03*
Y153516D02*
D03*
X67688Y77253D02*
D03*
Y79812D02*
D03*
Y82371D02*
D03*
X75168D02*
D03*
Y79812D02*
D03*
Y77253D02*
D03*
X159412Y298547D02*
D03*
Y301105D02*
D03*
Y303665D02*
D03*
X151932D02*
D03*
Y301105D02*
D03*
Y298547D02*
D03*
X159501Y226096D02*
D03*
Y228655D02*
D03*
Y231214D02*
D03*
X152021D02*
D03*
Y228655D02*
D03*
Y226096D02*
D03*
X159540Y153550D02*
D03*
Y156109D02*
D03*
Y158668D02*
D03*
X152060D02*
D03*
Y156109D02*
D03*
Y153550D02*
D03*
X151981Y77288D02*
D03*
Y79847D02*
D03*
Y82406D02*
D03*
X159461D02*
D03*
Y79847D02*
D03*
Y77288D02*
D03*
X75119Y298512D02*
D03*
Y301071D02*
D03*
Y303630D02*
D03*
X67639D02*
D03*
Y301071D02*
D03*
Y298512D02*
D03*
X75208Y226061D02*
D03*
Y228620D02*
D03*
Y231179D02*
D03*
X67728D02*
D03*
Y228620D02*
D03*
Y226061D02*
D03*
D35*
X122222Y77237D02*
D03*
Y79836D02*
D03*
X110529D02*
D03*
Y77237D02*
D03*
X110479Y298496D02*
D03*
Y301095D02*
D03*
X122172D02*
D03*
Y298496D02*
D03*
X110569Y226045D02*
D03*
Y228644D02*
D03*
X122262D02*
D03*
Y226045D02*
D03*
X110608Y153500D02*
D03*
Y156098D02*
D03*
X122301D02*
D03*
Y153500D02*
D03*
D36*
X117675Y84383D02*
D03*
X115076D02*
D03*
Y72690D02*
D03*
X117675D02*
D03*
X117625Y293949D02*
D03*
X115027D02*
D03*
Y305642D02*
D03*
X117625D02*
D03*
X117715Y221498D02*
D03*
X115116D02*
D03*
Y233191D02*
D03*
X117715D02*
D03*
X117754Y148953D02*
D03*
X115155D02*
D03*
Y160646D02*
D03*
X117754D02*
D03*
D37*
X116375Y78537D02*
D03*
X116326Y299795D02*
D03*
X116416Y227345D02*
D03*
X116454Y154799D02*
D03*
D38*
X120311Y58437D02*
D03*
X112831D02*
D03*
X112782Y279695D02*
D03*
X120262D02*
D03*
X120352Y207245D02*
D03*
X112871D02*
D03*
X112910Y134699D02*
D03*
X120391D02*
D03*
D39*
X316970Y23578D02*
D03*
Y31058D02*
D03*
X364567Y108366D02*
D03*
Y115847D02*
D03*
X148524Y34744D02*
D03*
Y42224D02*
D03*
X260268Y34809D02*
D03*
Y42289D02*
D03*
X204841Y23623D02*
D03*
Y31103D02*
D03*
D40*
X106516Y50804D02*
D03*
Y57104D02*
D03*
X94852Y272260D02*
D03*
Y278165D02*
D03*
X94942Y205715D02*
D03*
Y199809D02*
D03*
X94980Y127264D02*
D03*
Y133169D02*
D03*
X94901Y51001D02*
D03*
Y56907D02*
D03*
X106466Y272063D02*
D03*
Y278362D02*
D03*
X106556Y205911D02*
D03*
Y199612D02*
D03*
X106595Y127067D02*
D03*
Y133366D02*
D03*
D41*
X306299Y31398D02*
D03*
Y19587D02*
D03*
X161339Y17219D02*
D03*
Y29030D02*
D03*
X273468Y28985D02*
D03*
Y17174D02*
D03*
X148139Y17219D02*
D03*
Y29030D02*
D03*
X260268Y28985D02*
D03*
Y17174D02*
D03*
X194171Y19632D02*
D03*
Y31442D02*
D03*
D42*
X327148Y34956D02*
D03*
Y46767D02*
D03*
X345774Y104495D02*
D03*
Y116306D02*
D03*
X355542Y104495D02*
D03*
Y116306D02*
D03*
X334509Y158606D02*
D03*
Y146794D02*
D03*
X324609Y158606D02*
D03*
Y146794D02*
D03*
X344802D02*
D03*
Y158606D02*
D03*
X346254Y34956D02*
D03*
Y46767D02*
D03*
X336496Y34956D02*
D03*
Y46767D02*
D03*
D43*
X260554Y366800D02*
D03*
X248743D02*
D03*
X82199Y33890D02*
D03*
X94010D02*
D03*
X44304Y15100D02*
D03*
X32493D02*
D03*
X32495Y375200D02*
D03*
X44306D02*
D03*
X142506Y366800D02*
D03*
X130694D02*
D03*
D44*
X276611Y44185D02*
D03*
X269524D02*
D03*
X353015Y147200D02*
D03*
X360102D02*
D03*
X88061Y273047D02*
D03*
X80974D02*
D03*
X81063Y200596D02*
D03*
X88150D02*
D03*
X81102Y128051D02*
D03*
X88189D02*
D03*
X81023Y51789D02*
D03*
X88110D02*
D03*
X157396Y44230D02*
D03*
X164483D02*
D03*
D45*
X292468Y22535D02*
D03*
Y28835D02*
D03*
X337500Y109449D02*
D03*
Y115748D02*
D03*
X355842Y85161D02*
D03*
Y91460D02*
D03*
X180339Y28879D02*
D03*
Y22580D02*
D03*
D46*
X114760Y52378D02*
D03*
X118382D02*
D03*
X114711Y273636D02*
D03*
X118333D02*
D03*
X118423Y201185D02*
D03*
X114801D02*
D03*
X114839Y128640D02*
D03*
X118461D02*
D03*
D47*
X337108Y139400D02*
D03*
X330809D02*
D03*
X139600Y286496D02*
D03*
X145899D02*
D03*
X145989Y214045D02*
D03*
X139690D02*
D03*
X139728Y141500D02*
D03*
X146028D02*
D03*
X139649Y65237D02*
D03*
X145949D02*
D03*
X366339Y78740D02*
D03*
X372638D02*
D03*
X164689Y36830D02*
D03*
X158390D02*
D03*
X270518Y36785D02*
D03*
X276817D02*
D03*
D48*
X111387Y273638D02*
D03*
Y270094D02*
D03*
X111477Y197644D02*
D03*
Y201187D02*
D03*
X111516Y128642D02*
D03*
Y125098D02*
D03*
X111437Y52379D02*
D03*
Y48836D02*
D03*
X100634Y272213D02*
D03*
Y275756D02*
D03*
X100723Y203305D02*
D03*
Y199762D02*
D03*
X100762Y127217D02*
D03*
Y130760D02*
D03*
X100683Y50954D02*
D03*
Y54497D02*
D03*
X95922Y290018D02*
D03*
Y286475D02*
D03*
X96012Y214024D02*
D03*
Y217567D02*
D03*
X96050Y145022D02*
D03*
Y141479D02*
D03*
X95971Y68760D02*
D03*
Y65216D02*
D03*
X83570Y290018D02*
D03*
Y286475D02*
D03*
X83660Y214024D02*
D03*
Y217567D02*
D03*
X83698Y145022D02*
D03*
Y141479D02*
D03*
X83619Y68760D02*
D03*
Y65216D02*
D03*
D49*
X114594Y287595D02*
D03*
X111050D02*
D03*
X111140Y215145D02*
D03*
X114683D02*
D03*
X114722Y142599D02*
D03*
X111179D02*
D03*
X114643Y66337D02*
D03*
X111100D02*
D03*
X121794Y287595D02*
D03*
X118250D02*
D03*
X118340Y215145D02*
D03*
X121883D02*
D03*
X121922Y142599D02*
D03*
X118379D02*
D03*
X121843Y66337D02*
D03*
X118300D02*
D03*
X138950Y291196D02*
D03*
X142494D02*
D03*
X142583Y218745D02*
D03*
X139040D02*
D03*
X139079Y146200D02*
D03*
X142622D02*
D03*
X139000Y69937D02*
D03*
X142543D02*
D03*
D50*
X343865Y84473D02*
D03*
Y77386D02*
D03*
D51*
X334712Y77485D02*
D03*
Y89296D02*
D03*
X324843Y77671D02*
D03*
Y89482D02*
D03*
X246981Y47266D02*
D03*
Y59077D02*
D03*
D52*
X362793Y68601D02*
D03*
X374604D02*
D03*
X362829Y55116D02*
D03*
X374640D02*
D03*
X362886Y88661D02*
D03*
X374697D02*
D03*
D53*
X139600Y280396D02*
D03*
X145899D02*
D03*
X145989Y207945D02*
D03*
X139690D02*
D03*
X139728Y135400D02*
D03*
X146028D02*
D03*
X139649Y59137D02*
D03*
X145949D02*
D03*
D54*
X238414Y53073D02*
D03*
Y46774D02*
D03*
M02*
