M48
;Layer_Color=9474304
;FILE_FORMAT=2:5
INCH,LZ
;TYPE=PLATED
T1F00S00C0.00787
T2F00S00C0.03543
T3F00S00C0.10630
T4F00S00C0.12992
%
T01
X0027559Y0011811
X0044304Y00151
X0051181Y0011811
X0070866
X0090551
X0088203Y0025324
X0110236Y0011811
X0129921
X0149606
X0150098Y0017224
X0146161
X00383Y00236
X015935Y0017224
X0163287
X0172539Y0016831
X0169291Y0011811
X0188976
X0192224Y0019587
X0196161
X0203267Y0023623
X0206416
X0208661Y0011811
X0228346
X0248031
X0258268Y0017126
X0262205
X0271457
X0275394
X0284668Y0016786
X0287402Y0011811
X0292468Y0022535
X0304331Y0019587
X0308268
X0307087Y0011811
X0315395Y0023578
X0267717Y0011811
X0180339Y002258
X0318545Y0023578
X0326772Y0011811
X0346457
X0366142
X0385827
X0405512
X0425197
Y0023622
Y0043307
Y0062992
Y0082677
Y0102362
X0417369Y0102633
Y0098932
X0425197Y0122047
Y0141732
Y0161417
Y0181102
X0409449
X0389764
X0370079
X0342203Y0182669
X034311Y0158661
X0346358
X0336221
X0333071
X0326083
X0322933
X031779Y0164001
X0324508Y0168602
X0319755Y0179921
X0323031Y0146752
X0326181
X0332972
X0336122
X0343209
X0346358
X0345079Y0135433
X0346654Y0133858
X0345079Y0132283
X0348228
X0351378
Y0135433
X0349803Y0133858
X0348228Y0135433
X0334646Y0133858
X0330809Y01394
X03218Y0127401
X03375Y0109449
X0343799Y0104528
X0347736
X0353543
X035748
X0362992Y0108366
X0366142
X0362862Y0090674
Y0086737
X0355842Y0085161
Y009146
X0352035Y0077583
X035046Y0076008
Y0072859
X0352035Y0071284
Y0074434
X0348885
Y0071284
Y0077583
X0343865Y0084473
X0336287Y0089296
X0333137
X0326444Y0089493
X0323295
X0330709Y0102362
X0331391Y0071776
X0334631
X0337862
X034111
X0328117
X0328151Y0053161
X0331391
X0334631
X0337871
X0341111
X0344351
X0355842Y0057612
X0362804Y0057102
Y0053165
X0374523
X037459Y0057102
X0374628Y0066602
X0374654Y0070539
X0372638Y007874
X0366339
X0367811Y008248
X0374673Y0086737
Y0090674
X0362817Y0070539
Y0066602
X0366142Y0031496
X0347802Y0034965
X0344653
X0338058
X0334909
X0328708
X0326149
X0361509Y01273
X0361561Y01407
X0360204Y0147244
X0358957Y015502
X0311647Y0133044
X0311024Y011811
X0301411Y0125977
X0294423Y0125485
X0287402Y0129921
X0288055Y0138993
Y0143993
Y0148993
Y0154088
Y0158993
Y0164124
Y0173974
X0281767Y0159818
X0273228Y0156299
X0272835Y0164961
X0268504Y0164173
X0264173Y0165354
X0259055Y0163779
X0255118Y0164961
X0255512Y0161417
X025216Y0162112
X0246132Y0161697
X0241801
X023747
X023314
X0228809
X0224478
X0220148
X0215817
X0211486
X0207155
X0202825
X0198494
X0194163
X0189833
X0185502
X0181171
X0176841
X017251
X0168179
X0163848
X0159518Y0161709
X0164627Y0169212
X0168327
X0175197Y0166715
X0174834Y0150474
X0170503
X0166172
X0161842
X0179165
X0183495
X0187826
X0192157
X0196487
X0200818
X0205149
X0209479
X021381
X0218141
X0222471
X0226802
X0231133
X0239794
X0244125
X0248456
X0255512Y0151181
X0255118Y0147244
X0259055Y0148425
X0264173Y0147244
X0268504Y0148425
X0272835Y0147638
X0267717Y0129921
Y011811
Y0106299
X0268504Y0087795
X0272835Y0088583
X0273228Y0079921
X0272835Y007126
X0268504Y0072047
X0264173Y0070866
X0259055Y0072047
X0255118Y0070866
X0255512Y0074803
X0248861Y0073956
X0244538Y0074211
X0240208
X0241269Y0079921
Y0085434
X02456
X0249903Y0085927
X0255512Y0085039
X0255118Y0088583
X0259055Y0087402
X0264173Y0088976
X0281688Y0083555
X0287976Y0082731
Y0077825
Y0072731
Y0067731
Y0062731
X0299213Y0062992
X0301135Y0049518
X0294344Y0049223
X0288976Y0050276
X0270318Y0051481
X0269524Y0044185
X0270518Y0036785
X0276817
X0261811Y0042323
X0258661
X0246981Y0059077
X0238414Y0053073
X0231787Y0053167
X0224136Y0051239
X0221144
X0217601
X0213987Y0055449
X0209537Y0059498
X0205187Y0055404
Y005186
X0197027Y0050113
X0190135Y0047667
X01871Y0040418
X0182945Y0052623
X0181102Y0066929
X0179578Y0074211
X0175247
X0170916
X0166586
X0162255
X0163317Y0085434
X0167647
X0171978
X0176309
X0180639
X018497
X0189301
X0193631
X0197962
X0202293
X0206624
X0210954
X0215285
X0219616
X0223946
X0228277
X0232685Y0085927
X0236939Y0085434
X0234413Y0092161
X0235856Y0098323
X0239428Y0102623
X0235956Y0106823
X0232255
X0228939Y0106995
X0228346Y011811
X0224803Y0127953
X022142Y0127699
X0217877
X0214263Y0131908
X0209813Y0135958
X0205463Y0131863
Y012832
X0197106Y0126376
X0188976Y0129921
Y011811
X0185925Y0102736
Y0099035
X0192073Y0099434
X0209405Y0100473
Y0104174
X0206025
X0202457Y0108427
X0208661Y011811
X0213755Y0096323
X0217456
X0224336Y009394
X0222885Y0074211
X0218554
X0214223
X0209893
X0205562
X0201231
X01969
X019257
X0188239
X0183908
X0174921Y0090256
X0168052Y0092753
X0164351
X0169291Y011811
Y0137795
X0181102Y0141732
X0200787
X0232562Y0142227
X0236263
X0239802Y0140455
X0240677Y0128204
X0232063Y0129627
X0251919Y0136101
X0248031Y011811
Y0106299
X0287402Y0114173
X0287976Y0097712
Y0087861
X0306844Y0052963
X0306576Y0047591
X0315158Y0043613
X0311371Y0056585
X0299147Y0040387
X0235987Y0065768
X0232287
X0231546Y0074211
X0227215
X0200787Y0062992
X0169291
X0164689Y003683
X0178883Y0181417
X0186201Y0179196
Y0175495
X0192152Y0175696
X0191793Y017935
X02063Y0180633
X0209681
Y0176932
X0209681Y0170775
X0214031Y0172783
X0217731
X0221184Y0169707
X0224612Y0170399
X0234492Y0168423
X0235935Y0174586
X0239704Y0179083
X0236231Y0183283
X0232531Y0183307
X0229018Y0183257
X0202732Y0184887
X02413Y01562
X0270628Y0178503
X0156773Y01771
X0152524Y0181088
X0148216Y0171444
X0145571Y0168996
X0140551
X013561Y0168979
X0131796Y0168925
X0128806Y0169015
X0125984Y0169291
X0127754Y0161573
X0123424Y0161653
X0118583Y0156971
X0114252
Y015264
X0118583
X0123451Y0150544
X0127782Y0150563
X0132112Y0150465
X0135512Y0154609
X0140236
X0137898Y0157052
X0140236Y0159727
X0135512
X014954Y0161604
X0155275Y0160839
X0155984Y0158152
Y0154215
X0157513Y0150615
X0152263Y0150555
X0147933Y0150594
X0143604Y0150465
X0142622Y01462
X0146028Y01414
Y01354
X015748Y0137795
Y011811
X0152248Y0104628
X0148137Y0095182
X0142913Y0098425
X0140472Y0092734
X0135531Y0092716
X0131717Y0092662
X0128727Y0092753
X0125984Y0090551
X0127675Y008531
X0123345Y008539
X0118504Y0080709
Y0076378
X0114173
Y0080709
X0110025Y008539
X0105694Y0085322
X0101364
X0106299Y0090551
X0094031Y0092754
X0092107Y0096633
X0088691Y0099296
X0082874Y0101083
X0078727Y010104
X007441Y0100984
X0070121Y0100349
X006579Y0100312
X006146
X0057129
X0052798
X0048468
X0044137
X0039911Y0101257
X0034801Y0101426
X0035433Y0114173
Y0129921
Y0145669
X0037235Y0157562
X0041437Y0157579
X0045776Y0158883
X0050107
X0054438
X005876Y0159055
X006309Y0160433
X0066831Y0162795
X0070276Y0165059
X007441Y0164665
X0078725Y0164698
X0082874Y0164665
X0077398Y016162
X0073068Y0161549
X0071733Y0157759
Y0154609
X007109Y0151263
X0075356Y0150521
X0079686Y015061
X0084015Y0150512
X0083698Y0145022
Y0141479
X0087816Y01414
X00919
X009605Y0141479
X009615Y0145022
X0100164Y0150575
X0104495
X0108825Y0150574
X0111179Y0142599
X010645Y01388
X010065
X0100762Y013076
Y0127217
X0106595Y0127067
X0111516Y0125098
X0118461Y012864
X0125984Y0129921
X0129921Y0137795
X0121922Y0142599
X0110104Y0161653
X0105773Y0161584
X0101443
X0106299Y0169291
X009411Y0169016
X0092186Y0172896
X008877Y0175558
X0084744Y0177362
X0080905
X0076476
X0072137Y0176611
X0067815Y0176181
X0063583Y0174508
X0060236Y0172047
X0056674Y0170279
X0052346Y0170106
X0048016
X0043685
X0039525Y0171308
X0035196Y0171426
X0035433Y0181102
X0055118
Y0145669
Y0129921
X0066929
X0073061Y01388
X0078961
X0081102Y0128051
X009498Y0133169
X0087481Y0154609
X0086614Y0110236
X0106299
X0125984
X0137795Y011811
X0140157Y0083465
X0135433
X0137819Y008079
X0140157Y0078347
X0135433
X0132032Y0074202
X0127703Y00743
X0123372Y0074282
X0121843Y0066337
X01111
X0106371Y0062537
X0100571
X0095971Y0065216
X0096071Y006876
X0095755Y007425
X0100085Y0074312
X0104416
X0108746Y0074312
X0092126Y0078347
X0087402
Y0083071
X0092126
X0080714Y0088593
X0076383Y0088552
X0077319Y0085357
X0072989Y0085287
X0072086Y0089088
X0067755
X0063424
X0059094
X0054763
X0050432
X0046102
X0041929Y0087598
X0037619Y0087562
X0033288
X0035433Y0070866
X0055118
Y0051181
X0074803
X0081023Y0051789
X0078882Y0062537
X0072982
X0083619Y0065216
Y006876
X0083936Y007425
X0079607Y0074348
X0075277Y0074258
X0071011Y0075001
X0071653Y0078347
Y0081496
X0087737Y0065137
X0091854
X0094901Y0056907
X0100683Y0054497
Y0050954
X0106516Y0050804
X0111437Y0048836
X0118382Y0052378
X0129921Y0043307
X0146949Y0042224
X0150098
X0157396Y004423
X015839Y003683
X0157972Y0052165
X0153543Y0062992
X0145949Y0065137
Y0059137
X0142543Y0069937
X0143525Y0074202
X0147854Y0074332
X0152184Y0074293
X0157925
X0155905Y0077953
Y008189
X0149461Y0085342
X0129921Y0062992
X0082199Y003389
X0074803Y0031496
X0055118
X0035433
X0027559
X0011811Y0035433
X0035433Y0051181
X0055118Y0114173
X0066929
X0032904Y0157562
X0140157Y01745
X0142992Y0174688
X0Y0129921
Y0059055
Y003937
Y0200787
Y0271654
Y0338583
X0015748
X0035433
Y0318898
X00375Y0311426
X0041732Y0311417
X0046012Y0310105
X0050331Y0310418
X0053611Y0313247
X0056673Y0316309
X0060009Y031907
X0063938Y0320892
X0068219Y0321551
X0072549Y0321607
X007687Y0322342
X0080709
X0084646
X0088642Y0320554
X0092057Y0317892
X0093982Y0314012
X0098425Y0318898
X0101314Y030658
X0105645
X0109975Y0306649
X0110236Y0314961
X0122047
X0128677Y0314011
X0131668Y0313921
X0135482Y0313975
X0140423Y0313992
X0142864Y0319684
X0141732Y0322835
X0153543
X0152395Y0326084
X0153543Y0338583
X0133858
X0114173
X0094488
X0074803
X0055118
X0051181Y0318898
X0052049Y0299305
X0047739Y0298883
X0043406Y0298031
X0039258Y0297645
X0034928Y0297562
X0035433Y0287402
Y0267717
X0055118
Y0287402
X0056109Y0300812
X0059595Y0303382
X0062669Y0306433
X0065758Y0309467
X0069991Y0310385
X007441Y0309646
X0078597Y0309694
X0082776Y0309646
X0077269Y0306616
X0072939Y0306545
X0071604Y0302755
Y0299605
X0070961Y0296259
X0075228Y0295517
X0079558Y0295606
X0083887Y0295508
X008357Y0290018
Y0286475
X0087687Y0286396
X00918Y02864
X0095922Y0286475
X0096022Y0290018
X0095705Y0295508
X0100036Y0295571
X0104366
X0108697Y029557
X0114124Y0297637
X0118455
Y0301967
X0114124
X0123295Y0306649
X0127625Y0306569
X0135384Y0304723
X0140108
X013777Y0302048
X0140108Y0299605
X0135384
X0131983Y0295461
X0127654Y0295559
X0123323Y029554
X0125984Y0291339
X0133858
X0142494Y0291196
X0143476Y0295461
X0147805Y029559
X0152135Y0295551
X0157768Y029556
X0155856Y0299211
Y0303148
X0154845Y0305604
X0159042Y0306675
X0149411Y03066
X0148088Y031644
X0145899Y0286396
Y0280396
X015748Y0287402
Y0267717
X0152288Y0253436
X0148177Y024399
X0142954Y0247233
X0140512Y0241541
X0135572Y0241524
X0131757Y024147
X0128767Y0241561
X0125984Y0240158
X0127715Y0234118
X0123385Y0234198
X0118544Y0229517
X0114213
Y0225186
X0118544
X0123412Y022309
X0127743Y0223108
X0132073Y022301
X0135473Y0227154
X0140198
X013786Y0229597
X0140198Y0232272
X0135473
X0149501Y023415
X0155237Y0233384
X0155946Y0230698
Y0226761
X0157474Y022316
X0152225Y02231
X0147894Y022314
X0143565Y022301
X0142583Y0218745
X0145989Y0213945
Y0207945
X0153543Y0208661
Y019685
X0133858Y0188976
X011811
X0118423Y0201185
X0111477Y0197644
X0106556Y0199612
X0100723Y0199762
Y0203305
X0100611Y0211345
X0106412
X011114Y0215145
X0108786Y0223119
X0104456Y022312
X0100125
X0095795Y0223057
X0096112Y0217567
X0096012Y0214024
X00919Y02139
X0087777Y0213945
X008366Y0214024
Y0217567
X0083977Y0223057
X0079647Y0223155
X0075317Y0223066
X0071051Y0223809
X0071694Y0227154
Y0230304
X0073029Y0234095
X0077359Y0234165
X0078686Y0237243
X007445Y0237228
X007008Y0237934
X006583Y0237103
X0062702Y0234108
X0059143Y023164
X0055157Y0229947
X0050922Y022904
X0046594Y0228883
X0042224Y0227559
X0038139Y0227562
X0033809
X0035433Y0220472
X0055118
X0066929
X0073023Y0211345
X0078923
X0086614Y0208661
X0094942Y0205715
X0081063Y0200596
X0066929Y0200787
X0055118
X0035433
X0034325Y0241426
X0038656Y0241422
X0042815Y0241535
X0047112Y0240106
X0051426Y0240491
X0055269Y0242487
X0055118Y0248031
X0058409Y0245469
X0062088Y0247754
X0066251Y0248947
X0070577Y0249157
X007559Y0249803
X0080807
X0084744
X0088731Y0248103
X0092147Y0245441
X0094072Y0241562
X0092166Y0231879
Y0227154
X0087442
Y0231879
X0083312Y0237243
X0101404Y023413
X0105735
X0110065Y0234198
X0106299Y0240158
X0102362Y0248031
Y0263779
X0100634Y0272213
Y0275756
X0100522Y0283796
X0106322
X011105Y0287595
X0121794
X0129921Y0283465
X0118333Y0273636
X0111387Y0270094
X0106466Y0272063
X0094852Y0278165
X0082677Y0279528
X0078833Y0283796
X0072933
X0074803Y0267717
X0080974Y0273047
X0082677Y0263779
X0087352Y0299605
X0092077
Y0304329
X0087352
X0062992Y0299213
X0033169Y0311426
X0035433Y0248031
X0125984Y0251969
Y0263779
X0137795Y0267717
X0129921Y0212598
X0121883Y0215145
X0098425Y0188976
X0173228Y019685
X0177165Y0216535
X0179126Y0223019
X0174795
X0170464
X0166133
X0161803
X016381Y0234242
X016814
X0172471
X0176802
X0181132
X0185463
X0189794
X0194124
X0198455
X0202786
X0207117
X0211447
X0215778
X0220109
X0224439
X022877
X0233101
X0237432
X0241762
X0246093
X0252121Y0234658
X0255512Y0233858
X0255118Y0237402
X0259055Y0236221
X0264173Y0237795
X0268504Y0236614
X0272835Y0237402
X0273228Y022874
X0272835Y0220079
X0268504Y0220866
X0264173Y0219685
X0259055Y0220866
X0255118Y0219685
X0255512Y0223622
X0248417Y0223019
X0244086
X0239756
X02413Y02286
X0231094Y0223019
X0226763
X0222433
X0218102
X0213771
X020944
X020511
X0200779
X0196449
X0192118
X0187787
X0183456
X019685Y0216535
X0197067Y0198921
X0205227Y0200668
X0205424Y0204408
X0209774Y0208503
X0214224Y0204453
X0217641Y0200047
X0221184
X0224176
X022142Y0206076
X0232024Y0202172
X0240978Y0201324
X0240051Y0212475
X0236224Y0214772
X0232524
X0251898Y0208393
X0243226Y0185328
X0221784Y0186078
X0193907Y0185811
X0192113Y0248242
X0186162Y024804
Y0251741
X0206262Y0253178
X0209642
Y0249478
X0213992Y0245328
X0217693
X0224573Y0242944
X0234453Y0240969
X0236093Y0247328
X0239665Y0251628
X0236193Y0255828
X0232492Y0255852
X0228979Y0255803
X022497Y0271615
X0221292Y0272695
X0217748
X0214134Y0276904
X0209684Y0280954
X0205334Y0276859
Y0273316
X0196977Y0271372
X019685Y0267717
Y0283465
X0196744Y029547
X0192413
X0188082
X0183751
X0179421
X017509
X0170759
X0166429
X0162098
X0163372Y0306693
X0167703
X0172034
X0176365
X0180695
X0185026
X0189357
X0193687
X0198018
X0202349
X0206679
X021101
X0215341
X0219672
X0224002
X0228333
X0232664
X0236994
X0241325
X0245656
X0249945Y0307293
X0255512Y0306299
X0255118Y0309842
X0259055Y0308661
X0264173Y0310236
X0268504Y0309055
X0272835Y0309842
X0273228Y0301181
X0272835Y029252
X0268504Y0293307
X0264173Y0292126
X0259055Y0293307
X0255118Y0292126
X0255512Y0296063
X0248709Y0295321
X0244381Y029547
X0240051
X0241269Y0301181
X0231389Y029547
X0227059
X0222728
X0218397
X0214066
X0209736
X0205405
X0201074
X0177165Y0291339
X0175069Y0311711
X0168199Y0314208
X0164498
X0186073Y0320491
Y0324192
X0192024Y0320692
X0209553Y0321928
Y0325629
X0206172
X0202604Y0329883
X0192913Y0338583
X0212598
X0232283
X0232402Y0328303
X022889Y0328254
X0236103Y0328279
X0239576Y0324079
X0236004Y0319779
X0234363Y031342
X0224483Y0315395
X0217603Y0317779
X0213902
X0232434Y0287223
X0236135
X0231935Y0274623
X0202694Y0257432
X0177165Y0267717
X0175158Y0239261
X0168289Y0241757
X0164588
X0159479Y0234254
X0173228Y0338583
X0251969
X0271654
X0291339
X0311024
X0287927Y031897
Y030912
Y0303989
Y0299084
Y0293989
Y0288989
Y0283989
X0294491Y0270678
X0301283Y0270973
X0306991Y0274418
X0311519Y027804
X0288016Y024652
Y0236669
Y0231539
Y0226633
Y0221538
Y0216539
Y0211539
X0294384Y0198031
X0301372Y0198523
X0307081Y0201968
X0311609Y020559
X0281728Y0232363
X0281638Y0304814
X0330709Y0299213
Y0279528
Y0267717
X032187Y0260833
X0319755Y0252467
X0342203Y025243
X0350602Y0260875
X0354331Y0259842
X0370079
Y0240158
X0354331
Y0220472
X0370079
Y0200787
X0354331
Y0188976
X0350602Y0188315
X032187Y0188287
X0330709Y0200787
Y0220472
Y0240158
X0389764
Y0259842
X0409449
X0425197
Y0240158
X0409449
Y0220472
X0425197
Y0200787
X0409449
X0389764
Y0220472
Y0279528
Y0299213
X0370079
X0354331Y0295276
Y0279528
X0370079
X0409449
X0425197
Y0299213
X0409449
Y0318898
X0425197
Y0338583
X0409449
X0389764
Y0318898
X0370079
X0350394
Y0338583
X0370079
X0330709
Y0358268
X0350394
X0370079
X0389764
Y0377953
X0370079
X0350394
X0330709
X0409449
Y0358268
X0425197
X0311024
X0291339
X0271654
X025455Y03583
X0260554Y03668
X0271654Y0377953
X0291339
X0311024
X0212598
Y0358268
X0192913
Y0377953
X0173228
Y0358268
X0153543
X0136502Y03583
X0142506Y03668
X0153543Y0377953
X0094488
Y0358268
X0074803
X0055118
Y0377953
X0044306Y03752
X003825Y03666
X0023622Y0358268
X0074803Y0377953
X0Y0358268
T02
X0390846Y0031854
X0400846
Y0041854
X0390846
Y0051854
X0400846
Y0061854
X0390846
Y0071854
X0400846
Y0081854
X0390846
Y0091854
X0400846
Y0101854
Y0111854
X0390846
Y0121854
X0400846
Y0131854
X0390846
Y0141854
X0400846
Y0151854
X0390846
Y0101854
T03
X0014Y0021701
Y0371701
T04
X0229921Y0029921
X0111811
X0229921Y0364567
X0111811
M30
